G75*
%MOIN*%
%OFA0B0*%
%FSLAX25Y25*%
%IPPOS*%
%LPD*%
%AMOC8*
5,1,8,0,0,1.08239X$1,22.5*
%
%ADD10C,0.00000*%
%ADD11R,0.08000X0.02600*%
%ADD12R,0.05906X0.05118*%
%ADD13C,0.06000*%
%ADD14C,0.05150*%
%ADD15C,0.05150*%
%ADD16OC8,0.06000*%
%ADD17R,0.05118X0.05906*%
%ADD18R,0.07874X0.03150*%
%ADD19R,0.03150X0.03543*%
%ADD20R,0.03150X0.03937*%
%ADD21R,0.04724X0.04724*%
%ADD22C,0.00800*%
%ADD23C,0.04000*%
%ADD24C,0.01600*%
D10*
X0001800Y0001800D02*
X0001800Y0316761D01*
X0395501Y0316761D01*
X0395501Y0001800D01*
X0001800Y0001800D01*
X0380225Y0095894D02*
X0380227Y0095973D01*
X0380233Y0096052D01*
X0380243Y0096131D01*
X0380257Y0096209D01*
X0380274Y0096286D01*
X0380296Y0096362D01*
X0380321Y0096437D01*
X0380351Y0096510D01*
X0380383Y0096582D01*
X0380420Y0096653D01*
X0380460Y0096721D01*
X0380503Y0096787D01*
X0380549Y0096851D01*
X0380599Y0096913D01*
X0380652Y0096972D01*
X0380707Y0097028D01*
X0380766Y0097082D01*
X0380827Y0097132D01*
X0380890Y0097180D01*
X0380956Y0097224D01*
X0381024Y0097265D01*
X0381094Y0097302D01*
X0381165Y0097336D01*
X0381239Y0097366D01*
X0381313Y0097392D01*
X0381389Y0097414D01*
X0381466Y0097433D01*
X0381544Y0097448D01*
X0381622Y0097459D01*
X0381701Y0097466D01*
X0381780Y0097469D01*
X0381859Y0097468D01*
X0381938Y0097463D01*
X0382017Y0097454D01*
X0382095Y0097441D01*
X0382172Y0097424D01*
X0382249Y0097404D01*
X0382324Y0097379D01*
X0382398Y0097351D01*
X0382471Y0097319D01*
X0382541Y0097284D01*
X0382610Y0097245D01*
X0382677Y0097202D01*
X0382742Y0097156D01*
X0382804Y0097108D01*
X0382864Y0097056D01*
X0382921Y0097001D01*
X0382975Y0096943D01*
X0383026Y0096883D01*
X0383074Y0096820D01*
X0383119Y0096755D01*
X0383161Y0096687D01*
X0383199Y0096618D01*
X0383233Y0096547D01*
X0383264Y0096474D01*
X0383292Y0096399D01*
X0383315Y0096324D01*
X0383335Y0096247D01*
X0383351Y0096170D01*
X0383363Y0096091D01*
X0383371Y0096013D01*
X0383375Y0095934D01*
X0383375Y0095854D01*
X0383371Y0095775D01*
X0383363Y0095697D01*
X0383351Y0095618D01*
X0383335Y0095541D01*
X0383315Y0095464D01*
X0383292Y0095389D01*
X0383264Y0095314D01*
X0383233Y0095241D01*
X0383199Y0095170D01*
X0383161Y0095101D01*
X0383119Y0095033D01*
X0383074Y0094968D01*
X0383026Y0094905D01*
X0382975Y0094845D01*
X0382921Y0094787D01*
X0382864Y0094732D01*
X0382804Y0094680D01*
X0382742Y0094632D01*
X0382677Y0094586D01*
X0382610Y0094543D01*
X0382541Y0094504D01*
X0382471Y0094469D01*
X0382398Y0094437D01*
X0382324Y0094409D01*
X0382249Y0094384D01*
X0382172Y0094364D01*
X0382095Y0094347D01*
X0382017Y0094334D01*
X0381938Y0094325D01*
X0381859Y0094320D01*
X0381780Y0094319D01*
X0381701Y0094322D01*
X0381622Y0094329D01*
X0381544Y0094340D01*
X0381466Y0094355D01*
X0381389Y0094374D01*
X0381313Y0094396D01*
X0381239Y0094422D01*
X0381165Y0094452D01*
X0381094Y0094486D01*
X0381024Y0094523D01*
X0380956Y0094564D01*
X0380890Y0094608D01*
X0380827Y0094656D01*
X0380766Y0094706D01*
X0380707Y0094760D01*
X0380652Y0094816D01*
X0380599Y0094875D01*
X0380549Y0094937D01*
X0380503Y0095001D01*
X0380460Y0095067D01*
X0380420Y0095135D01*
X0380383Y0095206D01*
X0380351Y0095278D01*
X0380321Y0095351D01*
X0380296Y0095426D01*
X0380274Y0095502D01*
X0380257Y0095579D01*
X0380243Y0095657D01*
X0380233Y0095736D01*
X0380227Y0095815D01*
X0380225Y0095894D01*
X0380225Y0107706D02*
X0380227Y0107785D01*
X0380233Y0107864D01*
X0380243Y0107943D01*
X0380257Y0108021D01*
X0380274Y0108098D01*
X0380296Y0108174D01*
X0380321Y0108249D01*
X0380351Y0108322D01*
X0380383Y0108394D01*
X0380420Y0108465D01*
X0380460Y0108533D01*
X0380503Y0108599D01*
X0380549Y0108663D01*
X0380599Y0108725D01*
X0380652Y0108784D01*
X0380707Y0108840D01*
X0380766Y0108894D01*
X0380827Y0108944D01*
X0380890Y0108992D01*
X0380956Y0109036D01*
X0381024Y0109077D01*
X0381094Y0109114D01*
X0381165Y0109148D01*
X0381239Y0109178D01*
X0381313Y0109204D01*
X0381389Y0109226D01*
X0381466Y0109245D01*
X0381544Y0109260D01*
X0381622Y0109271D01*
X0381701Y0109278D01*
X0381780Y0109281D01*
X0381859Y0109280D01*
X0381938Y0109275D01*
X0382017Y0109266D01*
X0382095Y0109253D01*
X0382172Y0109236D01*
X0382249Y0109216D01*
X0382324Y0109191D01*
X0382398Y0109163D01*
X0382471Y0109131D01*
X0382541Y0109096D01*
X0382610Y0109057D01*
X0382677Y0109014D01*
X0382742Y0108968D01*
X0382804Y0108920D01*
X0382864Y0108868D01*
X0382921Y0108813D01*
X0382975Y0108755D01*
X0383026Y0108695D01*
X0383074Y0108632D01*
X0383119Y0108567D01*
X0383161Y0108499D01*
X0383199Y0108430D01*
X0383233Y0108359D01*
X0383264Y0108286D01*
X0383292Y0108211D01*
X0383315Y0108136D01*
X0383335Y0108059D01*
X0383351Y0107982D01*
X0383363Y0107903D01*
X0383371Y0107825D01*
X0383375Y0107746D01*
X0383375Y0107666D01*
X0383371Y0107587D01*
X0383363Y0107509D01*
X0383351Y0107430D01*
X0383335Y0107353D01*
X0383315Y0107276D01*
X0383292Y0107201D01*
X0383264Y0107126D01*
X0383233Y0107053D01*
X0383199Y0106982D01*
X0383161Y0106913D01*
X0383119Y0106845D01*
X0383074Y0106780D01*
X0383026Y0106717D01*
X0382975Y0106657D01*
X0382921Y0106599D01*
X0382864Y0106544D01*
X0382804Y0106492D01*
X0382742Y0106444D01*
X0382677Y0106398D01*
X0382610Y0106355D01*
X0382541Y0106316D01*
X0382471Y0106281D01*
X0382398Y0106249D01*
X0382324Y0106221D01*
X0382249Y0106196D01*
X0382172Y0106176D01*
X0382095Y0106159D01*
X0382017Y0106146D01*
X0381938Y0106137D01*
X0381859Y0106132D01*
X0381780Y0106131D01*
X0381701Y0106134D01*
X0381622Y0106141D01*
X0381544Y0106152D01*
X0381466Y0106167D01*
X0381389Y0106186D01*
X0381313Y0106208D01*
X0381239Y0106234D01*
X0381165Y0106264D01*
X0381094Y0106298D01*
X0381024Y0106335D01*
X0380956Y0106376D01*
X0380890Y0106420D01*
X0380827Y0106468D01*
X0380766Y0106518D01*
X0380707Y0106572D01*
X0380652Y0106628D01*
X0380599Y0106687D01*
X0380549Y0106749D01*
X0380503Y0106813D01*
X0380460Y0106879D01*
X0380420Y0106947D01*
X0380383Y0107018D01*
X0380351Y0107090D01*
X0380321Y0107163D01*
X0380296Y0107238D01*
X0380274Y0107314D01*
X0380257Y0107391D01*
X0380243Y0107469D01*
X0380233Y0107548D01*
X0380227Y0107627D01*
X0380225Y0107706D01*
D11*
X0208900Y0244300D03*
X0208900Y0249300D03*
X0208900Y0254300D03*
X0208900Y0259300D03*
X0208900Y0264300D03*
X0208900Y0269300D03*
X0208900Y0274300D03*
X0208900Y0279300D03*
X0184700Y0279300D03*
X0184700Y0274300D03*
X0184700Y0269300D03*
X0184700Y0264300D03*
X0184700Y0259300D03*
X0184700Y0254300D03*
X0184700Y0249300D03*
X0184700Y0244300D03*
D12*
X0161800Y0225540D03*
X0161800Y0218060D03*
X0151800Y0218060D03*
X0151800Y0225540D03*
X0141800Y0225540D03*
X0141800Y0218060D03*
X0071800Y0218060D03*
X0071800Y0225540D03*
X0061800Y0225540D03*
X0061800Y0218060D03*
X0051800Y0218060D03*
X0051800Y0225540D03*
X0051800Y0283060D03*
X0051800Y0290540D03*
X0061800Y0290540D03*
X0061800Y0283060D03*
X0071800Y0283060D03*
X0071800Y0290540D03*
X0141800Y0290540D03*
X0141800Y0283060D03*
X0151800Y0283060D03*
X0161800Y0283060D03*
X0161800Y0290540D03*
X0151800Y0290540D03*
X0236800Y0290540D03*
X0246800Y0290540D03*
X0246800Y0283060D03*
X0236800Y0283060D03*
X0256800Y0283060D03*
X0256800Y0290540D03*
X0331800Y0290540D03*
X0341800Y0290540D03*
X0341800Y0283060D03*
X0331800Y0283060D03*
X0351800Y0283060D03*
X0351800Y0290540D03*
X0351800Y0225540D03*
X0351800Y0218060D03*
X0341800Y0218060D03*
X0341800Y0225540D03*
X0331800Y0225540D03*
X0331800Y0218060D03*
X0256800Y0218060D03*
X0256800Y0225540D03*
X0246800Y0225540D03*
X0246800Y0218060D03*
X0236800Y0218060D03*
X0236800Y0225540D03*
X0236800Y0100540D03*
X0236800Y0093060D03*
X0246800Y0093060D03*
X0246800Y0100540D03*
X0256800Y0100540D03*
X0256800Y0093060D03*
X0256800Y0035540D03*
X0256800Y0028060D03*
X0246800Y0028060D03*
X0236800Y0028060D03*
X0236800Y0035540D03*
X0246800Y0035540D03*
X0161800Y0035540D03*
X0151800Y0035540D03*
X0151800Y0028060D03*
X0161800Y0028060D03*
X0141800Y0028060D03*
X0141800Y0035540D03*
X0071800Y0035540D03*
X0071800Y0028060D03*
X0061800Y0028060D03*
X0061800Y0035540D03*
X0051800Y0035540D03*
X0051800Y0028060D03*
X0051800Y0093060D03*
X0051800Y0100540D03*
X0061800Y0100540D03*
X0061800Y0093060D03*
X0071800Y0093060D03*
X0071800Y0100540D03*
X0141800Y0100540D03*
X0141800Y0093060D03*
X0151800Y0093060D03*
X0151800Y0100540D03*
X0161800Y0100540D03*
X0161800Y0093060D03*
X0331800Y0093060D03*
X0331800Y0100540D03*
X0341800Y0100540D03*
X0341800Y0093060D03*
X0351800Y0093060D03*
X0351800Y0100540D03*
X0351800Y0035540D03*
X0351800Y0028060D03*
X0341800Y0028060D03*
X0331800Y0028060D03*
X0331800Y0035540D03*
X0341800Y0035540D03*
D13*
X0341800Y0019800D02*
X0341800Y0013800D01*
X0331800Y0013800D02*
X0331800Y0019800D01*
X0351800Y0019800D02*
X0351800Y0013800D01*
X0256800Y0013800D02*
X0256800Y0019800D01*
X0246800Y0019800D02*
X0246800Y0013800D01*
X0236800Y0013800D02*
X0236800Y0019800D01*
X0161800Y0019800D02*
X0161800Y0013800D01*
X0151800Y0013800D02*
X0151800Y0019800D01*
X0141800Y0019800D02*
X0141800Y0013800D01*
X0071800Y0013800D02*
X0071800Y0019800D01*
X0061800Y0019800D02*
X0061800Y0013800D01*
X0051800Y0013800D02*
X0051800Y0019800D01*
X0051800Y0108800D02*
X0051800Y0114800D01*
X0061800Y0114800D02*
X0061800Y0108800D01*
X0071800Y0108800D02*
X0071800Y0114800D01*
X0141800Y0114800D02*
X0141800Y0108800D01*
X0151800Y0108800D02*
X0151800Y0114800D01*
X0161800Y0114800D02*
X0161800Y0108800D01*
X0236800Y0108800D02*
X0236800Y0114800D01*
X0246800Y0114800D02*
X0246800Y0108800D01*
X0256800Y0108800D02*
X0256800Y0114800D01*
X0331800Y0114800D02*
X0331800Y0108800D01*
X0341800Y0108800D02*
X0341800Y0114800D01*
X0351800Y0114800D02*
X0351800Y0108800D01*
X0351800Y0203800D02*
X0351800Y0209800D01*
X0341800Y0209800D02*
X0341800Y0203800D01*
X0331800Y0203800D02*
X0331800Y0209800D01*
X0256800Y0209800D02*
X0256800Y0203800D01*
X0246800Y0203800D02*
X0246800Y0209800D01*
X0236800Y0209800D02*
X0236800Y0203800D01*
X0161800Y0203800D02*
X0161800Y0209800D01*
X0151800Y0209800D02*
X0151800Y0203800D01*
X0141800Y0203800D02*
X0141800Y0209800D01*
X0071800Y0209800D02*
X0071800Y0203800D01*
X0061800Y0203800D02*
X0061800Y0209800D01*
X0051800Y0209800D02*
X0051800Y0203800D01*
X0051800Y0298800D02*
X0051800Y0304800D01*
X0061800Y0304800D02*
X0061800Y0298800D01*
X0071800Y0298800D02*
X0071800Y0304800D01*
X0141800Y0304800D02*
X0141800Y0298800D01*
X0151800Y0298800D02*
X0151800Y0304800D01*
X0161800Y0304800D02*
X0161800Y0298800D01*
X0236800Y0298800D02*
X0236800Y0304800D01*
X0246800Y0304800D02*
X0246800Y0298800D01*
X0256800Y0298800D02*
X0256800Y0304800D01*
X0331800Y0304800D02*
X0331800Y0298800D01*
X0341800Y0298800D02*
X0341800Y0304800D01*
X0351800Y0304800D02*
X0351800Y0298800D01*
D14*
X0351800Y0134375D02*
X0351800Y0129225D01*
X0341800Y0129225D02*
X0341800Y0134375D01*
X0331800Y0134375D02*
X0331800Y0129225D01*
X0321800Y0129225D02*
X0321800Y0134375D01*
X0311800Y0134375D02*
X0311800Y0129225D01*
X0301800Y0129225D02*
X0301800Y0134375D01*
X0291800Y0134375D02*
X0291800Y0129225D01*
X0281800Y0129225D02*
X0281800Y0134375D01*
X0271800Y0134375D02*
X0271800Y0129225D01*
X0261800Y0129225D02*
X0261800Y0134375D01*
X0251800Y0134375D02*
X0251800Y0129225D01*
X0241800Y0129225D02*
X0241800Y0134375D01*
X0231800Y0134375D02*
X0231800Y0129225D01*
X0221800Y0129225D02*
X0221800Y0134375D01*
X0211800Y0134375D02*
X0211800Y0129225D01*
X0211800Y0074375D02*
X0211800Y0069225D01*
X0221800Y0069225D02*
X0221800Y0074375D01*
X0231800Y0074375D02*
X0231800Y0069225D01*
X0241800Y0069225D02*
X0241800Y0074375D01*
X0251800Y0074375D02*
X0251800Y0069225D01*
X0261800Y0069225D02*
X0261800Y0074375D01*
X0271800Y0074375D02*
X0271800Y0069225D01*
X0281800Y0069225D02*
X0281800Y0074375D01*
X0291800Y0074375D02*
X0291800Y0069225D01*
X0301800Y0069225D02*
X0301800Y0074375D01*
X0311800Y0074375D02*
X0311800Y0069225D01*
X0321800Y0069225D02*
X0321800Y0074375D01*
X0331800Y0074375D02*
X0331800Y0069225D01*
X0341800Y0069225D02*
X0341800Y0074375D01*
X0351800Y0074375D02*
X0351800Y0069225D01*
D15*
X0216800Y0091800D03*
X0216800Y0101800D03*
X0206800Y0101800D03*
X0206800Y0091800D03*
X0206800Y0111800D03*
X0216800Y0111800D03*
D16*
X0221800Y0026800D03*
X0126800Y0026800D03*
X0036800Y0026800D03*
X0316800Y0026800D03*
D17*
X0200540Y0286800D03*
X0193060Y0286800D03*
D18*
X0373532Y0110946D03*
X0373532Y0105040D03*
X0373532Y0093229D03*
D19*
X0377371Y0086839D03*
X0377371Y0116761D03*
D20*
X0386229Y0116564D03*
X0386229Y0087036D03*
D21*
X0380934Y0126800D03*
X0372666Y0126800D03*
D22*
X0372200Y0127400D01*
X0356200Y0127400D01*
X0351800Y0131800D01*
X0347400Y0134600D02*
X0347400Y0128200D01*
X0354600Y0121000D01*
X0373800Y0121000D01*
X0373800Y0111400D01*
X0373532Y0110946D01*
X0373532Y0105040D02*
X0373000Y0105000D01*
X0371400Y0105000D01*
X0355400Y0089000D01*
X0321800Y0089000D01*
X0299400Y0111400D01*
X0285800Y0111400D01*
X0272200Y0125000D01*
X0272200Y0131400D01*
X0271800Y0131800D01*
X0276200Y0134600D02*
X0286600Y0145000D01*
X0309800Y0145000D01*
X0308200Y0138600D02*
X0301800Y0132200D01*
X0301800Y0131800D01*
X0308200Y0138600D02*
X0323400Y0138600D01*
X0325800Y0136200D01*
X0325800Y0110600D01*
X0331800Y0111800D02*
X0332200Y0111400D01*
X0332200Y0101000D01*
X0331800Y0100540D01*
X0336200Y0098600D02*
X0336200Y0119400D01*
X0337800Y0125000D02*
X0330600Y0125000D01*
X0327400Y0128200D01*
X0327400Y0139400D01*
X0324200Y0142600D01*
X0324200Y0147400D01*
X0323400Y0151400D02*
X0309800Y0165000D01*
X0308200Y0168200D02*
X0302600Y0162600D01*
X0309000Y0159400D02*
X0294600Y0159400D01*
X0288200Y0159400D01*
X0269800Y0141000D01*
X0269800Y0145800D02*
X0269800Y0149800D01*
X0289000Y0169000D01*
X0294600Y0169000D01*
X0293800Y0173000D02*
X0291400Y0175400D01*
X0281000Y0175400D01*
X0269800Y0164200D01*
X0266600Y0165800D02*
X0266600Y0128200D01*
X0293800Y0101000D01*
X0307400Y0101000D01*
X0328200Y0080200D01*
X0343400Y0080200D01*
X0351800Y0071800D01*
X0341800Y0071800D02*
X0341800Y0072200D01*
X0335400Y0078600D01*
X0327400Y0078600D01*
X0306600Y0099400D01*
X0293000Y0099400D01*
X0275400Y0117000D01*
X0268200Y0117000D01*
X0257800Y0127400D01*
X0257800Y0136200D01*
X0261800Y0140200D01*
X0261800Y0150600D01*
X0257800Y0154600D01*
X0257800Y0155400D01*
X0229000Y0184200D01*
X0229000Y0201000D01*
X0214600Y0215400D01*
X0214600Y0245800D01*
X0211400Y0249000D01*
X0209000Y0249000D01*
X0208900Y0249300D01*
X0209000Y0253800D02*
X0208900Y0254300D01*
X0209000Y0253800D02*
X0265800Y0253800D01*
X0288200Y0231400D01*
X0288200Y0214600D01*
X0273000Y0199400D01*
X0273000Y0172200D01*
X0266600Y0165800D01*
X0269800Y0159400D02*
X0282600Y0172200D01*
X0289800Y0172200D01*
X0293800Y0173000D02*
X0326600Y0173000D01*
X0334600Y0165000D01*
X0334600Y0151400D01*
X0329800Y0151400D02*
X0329800Y0162600D01*
X0330600Y0163400D01*
X0330600Y0166600D01*
X0329000Y0168200D01*
X0323400Y0168200D01*
X0327400Y0165000D02*
X0317000Y0165000D01*
X0312200Y0169800D01*
X0300200Y0169800D01*
X0294600Y0164200D01*
X0289000Y0164200D01*
X0299400Y0179400D02*
X0329800Y0179400D01*
X0333000Y0182600D01*
X0349000Y0182600D01*
X0345800Y0185800D02*
X0349000Y0189000D01*
X0363400Y0189000D01*
X0363400Y0190600D01*
X0363400Y0189000D02*
X0363400Y0147400D01*
X0380200Y0130600D01*
X0380200Y0127400D01*
X0380934Y0126800D01*
X0381000Y0126600D01*
X0381000Y0114600D01*
X0385800Y0109800D01*
X0385800Y0105800D01*
X0373800Y0093800D01*
X0373532Y0093229D01*
X0373000Y0093000D01*
X0369800Y0089800D01*
X0369800Y0081800D01*
X0346600Y0058600D01*
X0310600Y0058600D01*
X0308200Y0056200D01*
X0271400Y0056200D01*
X0257000Y0056200D01*
X0241800Y0071400D01*
X0241800Y0071800D01*
X0249800Y0072200D02*
X0251400Y0072200D01*
X0251800Y0071800D01*
X0249800Y0072200D02*
X0225800Y0096200D01*
X0225800Y0124200D01*
X0221000Y0124200D01*
X0219400Y0122600D01*
X0154600Y0122600D01*
X0147400Y0129800D01*
X0145000Y0129800D01*
X0144200Y0135400D02*
X0141000Y0135400D01*
X0144200Y0135400D02*
X0153800Y0125800D01*
X0197800Y0125800D01*
X0198600Y0121000D02*
X0222600Y0121000D01*
X0225800Y0124200D02*
X0225800Y0136200D01*
X0220200Y0141800D01*
X0218600Y0141800D01*
X0220200Y0145000D02*
X0190600Y0145000D01*
X0182600Y0137000D01*
X0149800Y0137000D01*
X0133000Y0153800D01*
X0129000Y0157000D02*
X0115400Y0143400D01*
X0115400Y0140200D01*
X0122600Y0142600D02*
X0129000Y0149000D01*
X0129000Y0144200D02*
X0140200Y0144200D01*
X0149000Y0135400D01*
X0186600Y0135400D01*
X0181800Y0138600D02*
X0191400Y0148200D01*
X0195400Y0148200D01*
X0193800Y0154600D02*
X0217000Y0154600D01*
X0236200Y0135400D01*
X0236200Y0122600D01*
X0241000Y0117800D01*
X0241000Y0098600D01*
X0243400Y0096200D01*
X0244200Y0096200D01*
X0246600Y0093800D01*
X0246800Y0093060D01*
X0251400Y0090600D02*
X0251400Y0124200D01*
X0245800Y0129800D01*
X0245800Y0137800D01*
X0246600Y0138600D01*
X0245800Y0137800D02*
X0227400Y0156200D01*
X0228200Y0160200D02*
X0224200Y0160200D01*
X0228200Y0160200D02*
X0239400Y0149000D01*
X0245000Y0149000D01*
X0245000Y0161800D01*
X0241800Y0157000D02*
X0241800Y0169000D01*
X0227400Y0183400D01*
X0227400Y0185800D01*
X0216200Y0197000D01*
X0216200Y0209000D01*
X0211400Y0210600D02*
X0211400Y0202600D01*
X0202600Y0193800D01*
X0205000Y0191400D01*
X0205000Y0179400D01*
X0199400Y0179400D02*
X0237800Y0141000D01*
X0237800Y0125800D01*
X0243400Y0120200D01*
X0246800Y0111800D02*
X0246600Y0111400D01*
X0246600Y0101000D01*
X0246800Y0100540D01*
X0237000Y0101000D02*
X0236800Y0100540D01*
X0237000Y0101000D02*
X0237000Y0111400D01*
X0236800Y0111800D01*
X0229000Y0108200D02*
X0229000Y0101000D01*
X0236200Y0093800D01*
X0236800Y0093060D01*
X0222600Y0094600D02*
X0221000Y0096200D01*
X0217000Y0096200D01*
X0213000Y0100200D01*
X0213000Y0101000D01*
X0208200Y0105800D01*
X0207400Y0105800D01*
X0202600Y0110600D01*
X0202600Y0111400D01*
X0201000Y0113000D01*
X0197800Y0113000D01*
X0169000Y0084200D01*
X0145800Y0084200D01*
X0137000Y0089000D02*
X0110600Y0115400D01*
X0110600Y0153000D01*
X0114600Y0157000D01*
X0113000Y0160200D02*
X0133800Y0160200D01*
X0137800Y0156200D01*
X0162600Y0156200D01*
X0165800Y0159400D01*
X0162600Y0167400D02*
X0176200Y0153800D01*
X0176200Y0145800D01*
X0179400Y0141800D02*
X0179400Y0160200D01*
X0177800Y0161800D01*
X0169000Y0168200D02*
X0165800Y0171400D01*
X0164200Y0174600D02*
X0194600Y0174600D01*
X0199400Y0169800D01*
X0204200Y0169800D01*
X0199400Y0174600D02*
X0197800Y0176200D01*
X0163400Y0176200D01*
X0161800Y0174600D01*
X0154600Y0174600D01*
X0150600Y0174600D01*
X0141800Y0165800D01*
X0095400Y0165800D01*
X0089000Y0172200D01*
X0089000Y0177000D02*
X0093800Y0172200D01*
X0145800Y0172200D01*
X0168200Y0194600D01*
X0186600Y0194600D01*
X0189800Y0193000D02*
X0189800Y0240200D01*
X0185800Y0243400D02*
X0184700Y0244300D01*
X0185000Y0244200D01*
X0185800Y0243400D01*
X0195400Y0253000D01*
X0195400Y0260200D01*
X0193800Y0261800D01*
X0193800Y0286600D01*
X0193060Y0286800D01*
X0193800Y0287400D01*
X0197800Y0291400D01*
X0204200Y0291400D01*
X0214600Y0281000D01*
X0214600Y0273000D01*
X0211400Y0269800D01*
X0209000Y0269800D01*
X0208900Y0269300D01*
X0208200Y0265000D02*
X0205800Y0265000D01*
X0203400Y0267400D01*
X0203400Y0276200D01*
X0207400Y0280200D01*
X0208900Y0279300D01*
X0208200Y0279400D01*
X0207400Y0280200D01*
X0201000Y0286600D01*
X0200540Y0286800D01*
X0190600Y0281000D02*
X0187400Y0284200D01*
X0190600Y0281000D02*
X0190600Y0273000D01*
X0187400Y0269800D01*
X0185000Y0269800D01*
X0184700Y0269300D01*
X0184200Y0273800D02*
X0184700Y0274300D01*
X0184200Y0273800D02*
X0177800Y0273800D01*
X0177000Y0283400D02*
X0205800Y0312200D01*
X0350600Y0312200D01*
X0392200Y0270600D01*
X0392200Y0162600D01*
X0389000Y0159400D01*
X0389000Y0169000D02*
X0389000Y0201000D01*
X0352200Y0237800D01*
X0352200Y0282600D01*
X0351800Y0283060D01*
X0351800Y0290540D02*
X0352200Y0290600D01*
X0352200Y0301800D01*
X0351800Y0301800D01*
X0347400Y0305800D02*
X0347400Y0240200D01*
X0381000Y0206600D01*
X0381000Y0183400D01*
X0374600Y0177000D01*
X0374600Y0181800D02*
X0369000Y0187400D01*
X0369000Y0204200D01*
X0369800Y0207400D02*
X0370600Y0207400D01*
X0374600Y0203400D01*
X0374600Y0186600D01*
X0377800Y0193800D02*
X0377800Y0207400D01*
X0353800Y0231400D01*
X0343400Y0231400D01*
X0341800Y0225800D02*
X0341800Y0225540D01*
X0341800Y0225800D02*
X0337000Y0230600D01*
X0332200Y0232200D02*
X0341000Y0241000D01*
X0332200Y0232200D02*
X0332200Y0225800D01*
X0331800Y0225540D01*
X0331800Y0218060D02*
X0332200Y0217800D01*
X0332200Y0207400D01*
X0331800Y0206800D01*
X0329800Y0199400D02*
X0320200Y0209000D01*
X0317000Y0219400D02*
X0317000Y0196200D01*
X0323400Y0189800D01*
X0329800Y0199400D02*
X0359400Y0199400D01*
X0366600Y0192200D01*
X0366600Y0172200D01*
X0391400Y0147400D01*
X0391400Y0099400D01*
X0383400Y0091400D01*
X0383400Y0087400D01*
X0351400Y0055400D01*
X0326600Y0055400D01*
X0313800Y0042600D01*
X0256200Y0042600D01*
X0249800Y0036200D01*
X0247400Y0036200D01*
X0246800Y0035540D01*
X0241000Y0037000D02*
X0241000Y0011400D01*
X0233800Y0004200D01*
X0171400Y0004200D01*
X0166600Y0009000D01*
X0155400Y0009000D01*
X0153800Y0007400D01*
X0116200Y0007400D01*
X0105800Y0017800D01*
X0101800Y0009000D02*
X0101800Y0030600D01*
X0109000Y0035400D02*
X0135400Y0009000D01*
X0153000Y0009000D01*
X0157000Y0013000D01*
X0157000Y0038600D01*
X0157800Y0039400D01*
X0195400Y0039400D01*
X0227400Y0007400D01*
X0230600Y0013800D02*
X0223400Y0013800D01*
X0194600Y0042600D01*
X0192200Y0042600D01*
X0194600Y0035400D02*
X0208200Y0021800D01*
X0203400Y0036200D02*
X0189000Y0050600D01*
X0156200Y0050600D01*
X0110600Y0096200D01*
X0107400Y0102600D02*
X0098600Y0093800D01*
X0072200Y0093800D01*
X0071800Y0093060D01*
X0068200Y0089000D02*
X0098600Y0089000D01*
X0115400Y0105800D01*
X0122600Y0107400D02*
X0122600Y0142600D01*
X0125800Y0140200D02*
X0135400Y0130600D01*
X0135400Y0099400D01*
X0136200Y0093800D02*
X0122600Y0107400D01*
X0136200Y0093800D02*
X0141800Y0093800D01*
X0141800Y0093060D01*
X0137000Y0089000D02*
X0169000Y0089000D01*
X0196200Y0116200D01*
X0221000Y0116200D01*
X0233800Y0120200D02*
X0233800Y0121800D01*
X0227400Y0128200D01*
X0227400Y0137800D01*
X0220200Y0145000D01*
X0245000Y0149000D02*
X0258600Y0149000D01*
X0258600Y0141800D02*
X0256200Y0139400D01*
X0256200Y0126600D01*
X0261000Y0121800D01*
X0261000Y0089000D01*
X0265000Y0085000D01*
X0277000Y0085000D01*
X0285800Y0076200D01*
X0285800Y0069800D01*
X0296200Y0059400D01*
X0299400Y0059400D01*
X0305800Y0065000D02*
X0309000Y0061800D01*
X0330600Y0061800D01*
X0325800Y0057000D02*
X0347400Y0057000D01*
X0373000Y0082600D01*
X0351800Y0093060D02*
X0351400Y0093800D01*
X0349000Y0096200D01*
X0348200Y0096200D01*
X0346600Y0097800D01*
X0346600Y0116200D01*
X0337800Y0125000D01*
X0347400Y0134600D02*
X0337800Y0144200D01*
X0330600Y0144200D01*
X0328200Y0148200D02*
X0325000Y0151400D01*
X0323400Y0151400D01*
X0325000Y0154600D02*
X0311400Y0168200D01*
X0308200Y0168200D01*
X0303400Y0181000D02*
X0300200Y0181000D01*
X0295400Y0185800D01*
X0295400Y0226600D01*
X0263400Y0258600D01*
X0209000Y0258600D01*
X0208900Y0259300D01*
X0208200Y0258600D01*
X0205800Y0258600D01*
X0203400Y0256200D01*
X0203400Y0242600D01*
X0205800Y0240200D01*
X0205800Y0217800D01*
X0201800Y0213800D01*
X0201800Y0202600D01*
X0208200Y0204200D02*
X0199400Y0195400D01*
X0199400Y0179400D01*
X0193800Y0179400D02*
X0193800Y0208200D01*
X0202600Y0217000D01*
X0202600Y0219400D01*
X0217800Y0214600D02*
X0230600Y0201800D01*
X0230600Y0188200D01*
X0244200Y0174600D01*
X0244200Y0179400D02*
X0251400Y0186600D01*
X0251400Y0221000D01*
X0247400Y0225000D01*
X0246800Y0225540D01*
X0246800Y0218060D02*
X0246600Y0217800D01*
X0246600Y0207400D01*
X0246800Y0206800D01*
X0237000Y0207400D02*
X0236800Y0206800D01*
X0237000Y0207400D02*
X0237000Y0217800D01*
X0236800Y0218060D01*
X0236800Y0225540D02*
X0236200Y0225800D01*
X0236200Y0238600D01*
X0224200Y0250600D01*
X0232200Y0247400D02*
X0232200Y0245000D01*
X0242600Y0234600D01*
X0242600Y0196200D01*
X0247400Y0191400D01*
X0247400Y0187400D01*
X0244200Y0184200D01*
X0244200Y0189800D02*
X0232200Y0201800D01*
X0232200Y0202600D01*
X0222600Y0212200D01*
X0222600Y0239400D01*
X0217800Y0239400D02*
X0217800Y0214600D01*
X0208200Y0204200D02*
X0208200Y0244200D01*
X0208900Y0244300D01*
X0208900Y0259300D02*
X0209000Y0259400D01*
X0209000Y0264200D01*
X0208900Y0264300D01*
X0208200Y0265000D01*
X0192200Y0258600D02*
X0185000Y0258600D01*
X0184700Y0259300D01*
X0184200Y0264200D02*
X0182600Y0264200D01*
X0177800Y0259400D01*
X0171400Y0262600D02*
X0152200Y0243400D01*
X0152200Y0225800D01*
X0151800Y0225540D01*
X0151800Y0218060D02*
X0152200Y0217800D01*
X0152200Y0207400D01*
X0151800Y0206800D01*
X0146600Y0202600D02*
X0136200Y0192200D01*
X0127400Y0192200D01*
X0125800Y0190600D01*
X0125800Y0186600D01*
X0137000Y0175400D01*
X0129000Y0169000D02*
X0097000Y0169000D01*
X0092200Y0164200D02*
X0089000Y0167400D01*
X0092200Y0164200D02*
X0142600Y0164200D01*
X0148200Y0169800D01*
X0157800Y0169800D01*
X0159400Y0169800D01*
X0164200Y0174600D01*
X0169000Y0168200D02*
X0193800Y0168200D01*
X0195400Y0171400D02*
X0173000Y0171400D01*
X0174600Y0183400D02*
X0179400Y0188200D01*
X0177000Y0190600D02*
X0177800Y0191400D01*
X0188200Y0191400D01*
X0189800Y0193000D01*
X0185800Y0201000D02*
X0185800Y0207400D01*
X0185800Y0243400D01*
X0181800Y0249000D02*
X0179400Y0246600D01*
X0179400Y0240200D01*
X0176200Y0248200D02*
X0181800Y0253800D01*
X0184200Y0253800D01*
X0184700Y0254300D01*
X0184700Y0249300D02*
X0184200Y0249000D01*
X0181800Y0249000D01*
X0176200Y0248200D02*
X0176200Y0212200D01*
X0153000Y0189000D01*
X0129000Y0189000D01*
X0132200Y0185000D02*
X0133800Y0186600D01*
X0155400Y0186600D01*
X0146600Y0202600D02*
X0146600Y0248200D01*
X0207400Y0309000D01*
X0249000Y0309000D01*
X0251400Y0306600D01*
X0251400Y0281000D01*
X0298600Y0233800D01*
X0298600Y0215400D01*
X0309800Y0204200D01*
X0309800Y0189000D01*
X0308200Y0185800D02*
X0306600Y0187400D01*
X0306600Y0197800D01*
X0297000Y0189000D02*
X0301800Y0184200D01*
X0303400Y0181000D02*
X0308200Y0185800D01*
X0345800Y0185800D01*
X0334600Y0179400D02*
X0359400Y0154600D01*
X0358600Y0143400D02*
X0325800Y0176200D01*
X0299400Y0179400D02*
X0294600Y0184200D01*
X0290600Y0184200D01*
X0289800Y0184200D01*
X0290600Y0184200D02*
X0290600Y0209000D01*
X0289000Y0210600D01*
X0285000Y0219400D02*
X0261800Y0196200D01*
X0261800Y0172200D01*
X0269800Y0184200D02*
X0269800Y0199400D01*
X0258600Y0195400D02*
X0258600Y0185000D01*
X0255400Y0194600D02*
X0255400Y0161800D01*
X0261000Y0156200D01*
X0276200Y0134600D02*
X0276200Y0125800D01*
X0281800Y0131800D02*
X0281800Y0134600D01*
X0290600Y0143400D01*
X0293800Y0143400D01*
X0297000Y0140200D01*
X0301000Y0140200D01*
X0292200Y0140200D02*
X0287400Y0135400D01*
X0287400Y0121000D01*
X0290600Y0114600D02*
X0305000Y0114600D01*
X0321800Y0131400D01*
X0321800Y0131800D01*
X0328200Y0148200D02*
X0343400Y0148200D01*
X0359400Y0132200D01*
X0369000Y0132200D01*
X0362600Y0143400D02*
X0358600Y0143400D01*
X0351800Y0111800D02*
X0352200Y0111400D01*
X0352200Y0101000D01*
X0351800Y0100540D01*
X0341800Y0100540D02*
X0341800Y0111800D01*
X0336200Y0098600D02*
X0338600Y0096200D01*
X0339400Y0096200D01*
X0341800Y0093800D01*
X0341800Y0093060D01*
X0331800Y0093060D02*
X0331400Y0093000D01*
X0322600Y0093000D01*
X0310600Y0093000D02*
X0331800Y0071800D01*
X0317800Y0065000D02*
X0310600Y0065000D01*
X0304200Y0071400D01*
X0301800Y0071400D01*
X0301800Y0071800D01*
X0301000Y0088200D02*
X0266600Y0088200D01*
X0265000Y0081800D02*
X0257000Y0089800D01*
X0257000Y0093000D01*
X0256800Y0093060D01*
X0251400Y0090600D02*
X0269800Y0072200D01*
X0271400Y0072200D01*
X0271800Y0071800D01*
X0266600Y0063400D02*
X0281800Y0063400D01*
X0291400Y0054600D02*
X0311400Y0054600D01*
X0319400Y0050600D02*
X0325800Y0057000D01*
X0319400Y0050600D02*
X0301800Y0050600D01*
X0289800Y0050600D01*
X0286600Y0047400D01*
X0205000Y0047400D01*
X0203400Y0049000D01*
X0203400Y0053800D01*
X0211400Y0053800D01*
X0206600Y0050600D02*
X0264200Y0050600D01*
X0265800Y0049000D01*
X0285800Y0049000D01*
X0291400Y0054600D01*
X0289800Y0045800D02*
X0249800Y0045800D01*
X0241000Y0037000D01*
X0236800Y0035540D02*
X0236200Y0036200D01*
X0203400Y0036200D01*
X0194600Y0035400D02*
X0161800Y0035400D01*
X0161800Y0035540D01*
X0151800Y0035540D02*
X0151400Y0036200D01*
X0151400Y0050600D01*
X0159400Y0053800D02*
X0186600Y0053800D01*
X0186600Y0087400D01*
X0199400Y0100200D01*
X0199400Y0109800D01*
X0198600Y0121000D02*
X0180200Y0102600D01*
X0174600Y0102600D01*
X0168200Y0093000D02*
X0161800Y0093000D01*
X0161800Y0093060D01*
X0157000Y0097800D02*
X0157000Y0116200D01*
X0160200Y0119400D01*
X0189800Y0119400D01*
X0181800Y0138600D02*
X0177800Y0138600D01*
X0165800Y0150600D01*
X0139400Y0159400D02*
X0137000Y0161800D01*
X0112200Y0161800D01*
X0109800Y0159400D01*
X0074600Y0159400D01*
X0072200Y0161800D01*
X0049000Y0161800D01*
X0046600Y0159400D01*
X0044200Y0159400D01*
X0045800Y0156200D02*
X0042600Y0156200D01*
X0034600Y0164200D01*
X0042600Y0164200D02*
X0029800Y0177000D01*
X0029800Y0205800D01*
X0026600Y0208200D02*
X0026600Y0167400D01*
X0039400Y0154600D01*
X0049000Y0154600D01*
X0045800Y0156200D02*
X0048200Y0158600D01*
X0052200Y0158600D01*
X0052200Y0148200D01*
X0044200Y0140200D01*
X0044200Y0013000D01*
X0051400Y0005800D01*
X0165000Y0005800D01*
X0161800Y0016800D02*
X0161800Y0028060D01*
X0152200Y0027400D02*
X0151800Y0028060D01*
X0152200Y0027400D02*
X0152200Y0017000D01*
X0151800Y0016800D01*
X0141800Y0016800D02*
X0141800Y0028060D01*
X0141800Y0035540D02*
X0141800Y0036200D01*
X0110600Y0036200D01*
X0059400Y0087400D01*
X0057000Y0090600D02*
X0052200Y0085800D01*
X0052200Y0036200D01*
X0051800Y0035540D01*
X0056200Y0029800D02*
X0056200Y0012200D01*
X0053000Y0009000D01*
X0050600Y0009000D01*
X0045800Y0013800D01*
X0045800Y0117800D01*
X0085800Y0157800D01*
X0110600Y0157800D01*
X0113000Y0160200D01*
X0105000Y0154600D02*
X0105000Y0149000D01*
X0104200Y0148200D01*
X0104200Y0130600D01*
X0095400Y0134600D02*
X0101000Y0140200D01*
X0095400Y0134600D02*
X0075400Y0134600D01*
X0057000Y0116200D01*
X0057000Y0090600D01*
X0061800Y0093000D02*
X0061800Y0093060D01*
X0061800Y0093000D02*
X0064200Y0093000D01*
X0068200Y0089000D01*
X0071800Y0100540D02*
X0072200Y0101000D01*
X0072200Y0111400D01*
X0071800Y0111800D01*
X0061800Y0111800D02*
X0061800Y0100540D01*
X0052200Y0101000D02*
X0051800Y0100540D01*
X0052200Y0101000D02*
X0052200Y0111400D01*
X0051800Y0111800D01*
X0047400Y0117000D02*
X0081000Y0150600D01*
X0101800Y0150600D01*
X0089000Y0147400D02*
X0089000Y0137800D01*
X0066600Y0158600D02*
X0052200Y0158600D01*
X0049000Y0149800D02*
X0041800Y0149800D01*
X0025000Y0166600D01*
X0025000Y0209000D01*
X0051400Y0235400D01*
X0051400Y0282600D01*
X0051800Y0283060D01*
X0051800Y0290540D02*
X0052200Y0290600D01*
X0052200Y0301800D01*
X0051800Y0301800D01*
X0061800Y0301800D02*
X0061800Y0290540D01*
X0061800Y0283060D02*
X0061800Y0282600D01*
X0065000Y0282600D01*
X0109800Y0237800D01*
X0121800Y0237800D01*
X0126600Y0237800D02*
X0081800Y0282600D01*
X0072200Y0282600D01*
X0071800Y0283060D01*
X0071800Y0290540D02*
X0072200Y0290600D01*
X0072200Y0301800D01*
X0071800Y0301800D01*
X0141800Y0301800D02*
X0141800Y0290540D01*
X0141800Y0283060D02*
X0141800Y0248200D01*
X0126600Y0233000D01*
X0073000Y0233000D01*
X0071400Y0234600D01*
X0053000Y0234600D01*
X0026600Y0208200D01*
X0047400Y0221000D02*
X0047400Y0176200D01*
X0051400Y0167400D02*
X0037000Y0181800D01*
X0037800Y0178600D02*
X0033000Y0178600D01*
X0037800Y0178600D02*
X0050600Y0165800D01*
X0077800Y0165800D01*
X0089000Y0177000D01*
X0087400Y0180200D02*
X0109800Y0180200D01*
X0114600Y0175400D01*
X0087400Y0180200D02*
X0074600Y0167400D01*
X0051400Y0167400D01*
X0057000Y0177000D02*
X0063400Y0170600D01*
X0069800Y0174600D02*
X0120200Y0225000D01*
X0141800Y0225000D01*
X0141800Y0225540D01*
X0141800Y0218060D02*
X0141800Y0206800D01*
X0161800Y0206800D02*
X0161800Y0218060D01*
X0161800Y0225540D02*
X0161800Y0248200D01*
X0146600Y0250600D02*
X0122600Y0226600D01*
X0117000Y0226600D01*
X0074600Y0184200D01*
X0074600Y0189000D02*
X0079400Y0193800D01*
X0079400Y0200200D01*
X0071800Y0206800D02*
X0072200Y0207400D01*
X0072200Y0217800D01*
X0071800Y0218060D01*
X0072200Y0225000D02*
X0071800Y0225540D01*
X0072200Y0225000D02*
X0077800Y0225000D01*
X0069800Y0231400D02*
X0066600Y0228200D01*
X0066600Y0197000D01*
X0061000Y0191400D01*
X0061000Y0181000D01*
X0063400Y0178600D01*
X0057000Y0177000D02*
X0057000Y0228200D01*
X0060200Y0231400D01*
X0061800Y0228200D02*
X0065000Y0231400D01*
X0061800Y0228200D02*
X0061800Y0225540D01*
X0061800Y0218060D02*
X0061800Y0206800D01*
X0052200Y0207400D02*
X0051800Y0206800D01*
X0052200Y0207400D02*
X0052200Y0217800D01*
X0051800Y0218060D01*
X0047400Y0221000D02*
X0051400Y0225000D01*
X0051800Y0225540D01*
X0064200Y0189800D02*
X0104200Y0229800D01*
X0146600Y0250600D02*
X0146600Y0305800D01*
X0149800Y0309000D01*
X0156200Y0309000D01*
X0152200Y0301800D02*
X0151800Y0301800D01*
X0152200Y0301800D02*
X0152200Y0290600D01*
X0151800Y0290540D01*
X0161800Y0290540D02*
X0161800Y0301800D01*
X0161800Y0283400D02*
X0161800Y0283060D01*
X0161800Y0283400D02*
X0177000Y0283400D01*
X0164200Y0268200D02*
X0161800Y0268200D01*
X0164200Y0268200D02*
X0206600Y0310600D01*
X0342600Y0310600D01*
X0347400Y0305800D01*
X0341800Y0301800D02*
X0341800Y0290540D01*
X0332200Y0290600D02*
X0331800Y0290540D01*
X0332200Y0290600D02*
X0332200Y0301800D01*
X0331800Y0301800D01*
X0331400Y0283400D02*
X0331800Y0283060D01*
X0331400Y0283400D02*
X0270600Y0283400D01*
X0266600Y0287400D01*
X0269000Y0282600D02*
X0257000Y0282600D01*
X0256800Y0283060D01*
X0247400Y0282600D02*
X0247400Y0277000D01*
X0297000Y0227400D01*
X0297000Y0189000D01*
X0287400Y0192200D02*
X0287400Y0195400D01*
X0287400Y0192200D02*
X0284200Y0189000D01*
X0273800Y0213000D02*
X0255400Y0194600D01*
X0258600Y0195400D02*
X0281800Y0218600D01*
X0281800Y0221800D01*
X0285000Y0219400D02*
X0285000Y0229800D01*
X0273800Y0227400D02*
X0273800Y0213000D01*
X0270600Y0225800D02*
X0257000Y0225800D01*
X0256800Y0225540D01*
X0256800Y0218060D02*
X0257000Y0217800D01*
X0257000Y0207400D01*
X0256800Y0206800D01*
X0273800Y0227400D02*
X0260200Y0241000D01*
X0282600Y0269000D02*
X0322600Y0269000D01*
X0341800Y0282600D02*
X0341800Y0283060D01*
X0341800Y0282600D02*
X0298600Y0239400D01*
X0282600Y0269000D02*
X0269000Y0282600D01*
X0257000Y0290600D02*
X0256800Y0290540D01*
X0257000Y0290600D02*
X0257000Y0301800D01*
X0256800Y0301800D01*
X0246800Y0301800D02*
X0246600Y0301800D01*
X0246600Y0290600D01*
X0246800Y0290540D01*
X0237000Y0290600D02*
X0236800Y0290540D01*
X0237000Y0290600D02*
X0237000Y0301800D01*
X0236800Y0301800D01*
X0229000Y0290600D02*
X0236200Y0283400D01*
X0236800Y0283060D01*
X0246800Y0283060D02*
X0247400Y0282600D01*
X0184700Y0264300D02*
X0184200Y0264200D01*
X0156200Y0277800D02*
X0156200Y0278600D01*
X0152200Y0282600D01*
X0151800Y0283060D01*
X0212200Y0196200D02*
X0219400Y0189000D01*
X0230600Y0177800D01*
X0230600Y0175400D01*
X0201800Y0165000D02*
X0195400Y0171400D01*
X0177000Y0190600D02*
X0174600Y0190600D01*
X0161800Y0111800D02*
X0161800Y0100540D01*
X0157000Y0097800D02*
X0155400Y0096200D01*
X0154600Y0096200D01*
X0152200Y0093800D01*
X0151800Y0093060D01*
X0151800Y0100540D02*
X0152200Y0101000D01*
X0152200Y0111400D01*
X0151800Y0111800D01*
X0141800Y0111800D02*
X0141800Y0100540D01*
X0189800Y0085800D02*
X0223400Y0052200D01*
X0267400Y0052200D01*
X0257000Y0036200D02*
X0256800Y0035540D01*
X0257000Y0036200D02*
X0312200Y0036200D01*
X0322600Y0046600D01*
X0317800Y0039400D02*
X0311400Y0033000D01*
X0286600Y0033000D01*
X0257000Y0027400D02*
X0257000Y0017000D01*
X0256800Y0016800D01*
X0246800Y0016800D02*
X0246600Y0017000D01*
X0246600Y0027400D01*
X0246800Y0028060D01*
X0237000Y0027400D02*
X0236800Y0028060D01*
X0237000Y0027400D02*
X0237000Y0017000D01*
X0236800Y0016800D01*
X0257000Y0027400D02*
X0256800Y0028060D01*
X0203400Y0053800D02*
X0186600Y0053800D01*
X0194600Y0087400D02*
X0210600Y0087400D01*
X0256800Y0100540D02*
X0257000Y0101000D01*
X0257000Y0111400D01*
X0256800Y0111800D01*
X0264200Y0109800D02*
X0267400Y0109800D01*
X0285800Y0091400D01*
X0302600Y0091400D01*
X0305800Y0088200D01*
X0310600Y0088200D01*
X0310600Y0093000D02*
X0289000Y0093000D01*
X0268200Y0113800D01*
X0290600Y0096200D02*
X0301000Y0096200D01*
X0281000Y0091400D02*
X0277800Y0094600D01*
X0273000Y0094600D01*
X0336200Y0051400D02*
X0351400Y0036200D01*
X0351800Y0035540D01*
X0351800Y0028060D02*
X0352200Y0027400D01*
X0352200Y0017000D01*
X0351800Y0016800D01*
X0341800Y0016800D02*
X0341800Y0028060D01*
X0332200Y0027400D02*
X0331800Y0028060D01*
X0332200Y0027400D02*
X0332200Y0017000D01*
X0331800Y0016800D01*
X0331800Y0035540D02*
X0331400Y0036200D01*
X0325800Y0036200D01*
X0317800Y0039400D02*
X0335400Y0039400D01*
X0338600Y0036200D01*
X0341800Y0036200D01*
X0341800Y0035540D01*
X0341800Y0206800D02*
X0341800Y0218060D01*
X0351800Y0218060D02*
X0352200Y0217800D01*
X0352200Y0207400D01*
X0351800Y0206800D01*
X0369800Y0207400D02*
X0352200Y0225000D01*
X0351800Y0225540D01*
X0109000Y0035400D02*
X0072200Y0035400D01*
X0071800Y0035540D01*
X0071800Y0028060D02*
X0072200Y0027400D01*
X0072200Y0017000D01*
X0071800Y0016800D01*
X0061800Y0016800D02*
X0061800Y0028060D01*
X0056200Y0029800D02*
X0061800Y0035400D01*
X0061800Y0035540D01*
X0051800Y0028060D02*
X0052200Y0027400D01*
X0052200Y0017000D01*
X0051800Y0016800D01*
X0051800Y0093060D02*
X0051400Y0093800D01*
X0049000Y0096200D01*
X0048200Y0096200D01*
X0047400Y0097000D01*
X0047400Y0117000D01*
D23*
X0049300Y0129300D03*
X0061800Y0126800D03*
X0086800Y0111800D03*
X0107400Y0102600D03*
X0109300Y0109300D03*
X0115400Y0105800D03*
X0110600Y0096200D03*
X0101800Y0076800D03*
X0076800Y0056800D03*
X0101800Y0030600D03*
X0105800Y0017800D03*
X0101800Y0009000D03*
X0151400Y0050600D03*
X0159400Y0053800D03*
X0171800Y0046800D03*
X0192200Y0042600D03*
X0206600Y0050600D03*
X0211400Y0053800D03*
X0196800Y0066800D03*
X0176800Y0071800D03*
X0189800Y0085800D03*
X0194600Y0087400D03*
X0210600Y0087400D03*
X0222600Y0094600D03*
X0224300Y0081800D03*
X0229000Y0108200D03*
X0221000Y0116200D03*
X0222600Y0121000D03*
X0233800Y0120200D03*
X0243400Y0120200D03*
X0264200Y0109800D03*
X0268200Y0113800D03*
X0276200Y0125800D03*
X0287400Y0121000D03*
X0290600Y0114600D03*
X0290600Y0096200D03*
X0281000Y0091400D03*
X0273000Y0094600D03*
X0266600Y0088200D03*
X0265000Y0081800D03*
X0271800Y0081800D03*
X0266600Y0063400D03*
X0271400Y0056200D03*
X0267400Y0052200D03*
X0281800Y0063400D03*
X0299400Y0059400D03*
X0305800Y0065000D03*
X0311400Y0054600D03*
X0316800Y0056800D03*
X0317800Y0065000D03*
X0330600Y0061800D03*
X0341800Y0061800D03*
X0336200Y0051400D03*
X0322600Y0046600D03*
X0325800Y0036200D03*
X0301800Y0050600D03*
X0289800Y0045800D03*
X0286600Y0033000D03*
X0276800Y0021800D03*
X0231800Y0041800D03*
X0208200Y0021800D03*
X0230600Y0013800D03*
X0227400Y0007400D03*
X0186800Y0011800D03*
X0181800Y0026800D03*
X0165000Y0005800D03*
X0131800Y0051800D03*
X0146800Y0071800D03*
X0145800Y0084200D03*
X0135400Y0099400D03*
X0126800Y0121800D03*
X0116800Y0121800D03*
X0104200Y0130600D03*
X0101000Y0140200D03*
X0101800Y0150600D03*
X0105000Y0154600D03*
X0114600Y0157000D03*
X0129000Y0157000D03*
X0133000Y0153800D03*
X0129000Y0149000D03*
X0129000Y0144200D03*
X0125800Y0140200D03*
X0115400Y0140200D03*
X0089000Y0137800D03*
X0089000Y0147400D03*
X0074600Y0159400D03*
X0066600Y0158600D03*
X0063400Y0170600D03*
X0069800Y0174600D03*
X0063400Y0178600D03*
X0064200Y0189800D03*
X0074600Y0189000D03*
X0074600Y0184200D03*
X0089000Y0177000D03*
X0089000Y0172200D03*
X0089000Y0167400D03*
X0097000Y0169000D03*
X0114600Y0175400D03*
X0129000Y0169000D03*
X0137000Y0175400D03*
X0132200Y0185000D03*
X0129000Y0189000D03*
X0155400Y0186600D03*
X0154600Y0174600D03*
X0157800Y0169800D03*
X0162600Y0167400D03*
X0165800Y0171400D03*
X0173000Y0171400D03*
X0177800Y0161800D03*
X0165800Y0159400D03*
X0165800Y0150600D03*
X0176200Y0145800D03*
X0179400Y0141800D03*
X0186600Y0135400D03*
X0197800Y0125800D03*
X0189800Y0119400D03*
X0199400Y0109800D03*
X0174600Y0102600D03*
X0171800Y0111800D03*
X0168200Y0093000D03*
X0149300Y0121800D03*
X0145000Y0129800D03*
X0141000Y0135400D03*
X0166800Y0131800D03*
X0193800Y0154600D03*
X0195400Y0148200D03*
X0201800Y0139300D03*
X0218600Y0141800D03*
X0227400Y0156200D03*
X0224200Y0160200D03*
X0241800Y0157000D03*
X0245000Y0161800D03*
X0244200Y0174600D03*
X0244200Y0179400D03*
X0244200Y0184200D03*
X0244200Y0189800D03*
X0258600Y0185000D03*
X0269800Y0184200D03*
X0261800Y0172200D03*
X0269800Y0164200D03*
X0269800Y0159400D03*
X0261000Y0156200D03*
X0258600Y0149000D03*
X0258600Y0141800D03*
X0269800Y0141000D03*
X0269800Y0145800D03*
X0292200Y0140200D03*
X0301000Y0140200D03*
X0309800Y0145000D03*
X0324200Y0147400D03*
X0329800Y0151400D03*
X0334600Y0151400D03*
X0330600Y0144200D03*
X0325000Y0154600D03*
X0327400Y0165000D03*
X0323400Y0168200D03*
X0325800Y0176200D03*
X0334600Y0179400D03*
X0323400Y0189800D03*
X0309800Y0189000D03*
X0301800Y0184200D03*
X0289800Y0184200D03*
X0284200Y0189000D03*
X0287400Y0195400D03*
X0306600Y0197800D03*
X0320200Y0209000D03*
X0317000Y0219400D03*
X0306800Y0224300D03*
X0316800Y0236800D03*
X0298600Y0239400D03*
X0285000Y0229800D03*
X0281800Y0221800D03*
X0270600Y0225800D03*
X0251800Y0231800D03*
X0260200Y0241000D03*
X0251800Y0246800D03*
X0232200Y0247400D03*
X0224200Y0250600D03*
X0222600Y0239400D03*
X0217800Y0239400D03*
X0226800Y0226800D03*
X0211400Y0210600D03*
X0216200Y0209000D03*
X0212200Y0196200D03*
X0219400Y0189000D03*
X0205000Y0179400D03*
X0199400Y0174600D03*
X0204200Y0169800D03*
X0201800Y0165000D03*
X0193800Y0168200D03*
X0193800Y0179400D03*
X0179400Y0188200D03*
X0174600Y0190600D03*
X0174600Y0183400D03*
X0186600Y0194600D03*
X0185800Y0201000D03*
X0185800Y0207400D03*
X0179300Y0209300D03*
X0181800Y0221800D03*
X0196800Y0226800D03*
X0202600Y0219400D03*
X0201800Y0202600D03*
X0202600Y0193800D03*
X0230600Y0175400D03*
X0269800Y0199400D03*
X0289000Y0210600D03*
X0289800Y0172200D03*
X0294600Y0169000D03*
X0289000Y0164200D03*
X0294600Y0159400D03*
X0302600Y0162600D03*
X0309000Y0159400D03*
X0309800Y0165000D03*
X0349000Y0182600D03*
X0349000Y0189000D03*
X0363400Y0190600D03*
X0374600Y0186600D03*
X0374600Y0181800D03*
X0374600Y0177000D03*
X0389000Y0169000D03*
X0389000Y0159400D03*
X0359400Y0154600D03*
X0362600Y0143400D03*
X0369000Y0132200D03*
X0373800Y0121000D03*
X0336200Y0119400D03*
X0325800Y0110600D03*
X0316800Y0114300D03*
X0321800Y0099300D03*
X0322600Y0093000D03*
X0310600Y0088200D03*
X0311800Y0081800D03*
X0301000Y0088200D03*
X0301000Y0096200D03*
X0356800Y0081800D03*
X0373000Y0082600D03*
X0371800Y0021800D03*
X0246600Y0138600D03*
X0139400Y0159400D03*
X0099300Y0189300D03*
X0079400Y0200200D03*
X0077800Y0225000D03*
X0086800Y0226800D03*
X0091800Y0241800D03*
X0104200Y0229800D03*
X0121800Y0237800D03*
X0126600Y0237800D03*
X0136800Y0231800D03*
X0121800Y0211800D03*
X0166800Y0231800D03*
X0179400Y0240200D03*
X0189800Y0240200D03*
X0192200Y0258600D03*
X0177800Y0259400D03*
X0171400Y0262600D03*
X0161800Y0268200D03*
X0151800Y0266800D03*
X0156200Y0277800D03*
X0177800Y0273800D03*
X0187400Y0284200D03*
X0181800Y0301800D03*
X0156200Y0309000D03*
X0126800Y0261800D03*
X0161800Y0248200D03*
X0216800Y0296800D03*
X0229000Y0290600D03*
X0231800Y0266800D03*
X0266600Y0287400D03*
X0271800Y0291800D03*
X0286800Y0276800D03*
X0301800Y0261800D03*
X0316800Y0276800D03*
X0322600Y0269000D03*
X0336800Y0266800D03*
X0341000Y0241000D03*
X0343400Y0231400D03*
X0337000Y0230600D03*
X0369000Y0204200D03*
X0377800Y0193800D03*
X0366800Y0261800D03*
X0376800Y0296800D03*
X0306800Y0296800D03*
X0096800Y0296800D03*
X0066800Y0261800D03*
X0065000Y0231400D03*
X0060200Y0231400D03*
X0069800Y0231400D03*
X0029800Y0205800D03*
X0037000Y0181800D03*
X0033000Y0178600D03*
X0047400Y0176200D03*
X0042600Y0164200D03*
X0044200Y0159400D03*
X0049000Y0154600D03*
X0049000Y0149800D03*
X0034600Y0164200D03*
X0059400Y0087400D03*
X0026800Y0081800D03*
X0036800Y0036800D03*
X0026800Y0256800D03*
D24*
X0004600Y0257562D02*
X0049400Y0257562D01*
X0049400Y0259160D02*
X0004600Y0259160D01*
X0004600Y0260759D02*
X0049400Y0260759D01*
X0049400Y0262357D02*
X0004600Y0262357D01*
X0004600Y0263956D02*
X0049400Y0263956D01*
X0049400Y0265554D02*
X0004600Y0265554D01*
X0004600Y0267153D02*
X0049400Y0267153D01*
X0049400Y0268751D02*
X0004600Y0268751D01*
X0004600Y0270350D02*
X0049400Y0270350D01*
X0049400Y0271948D02*
X0004600Y0271948D01*
X0004600Y0273547D02*
X0049400Y0273547D01*
X0049400Y0275145D02*
X0004600Y0275145D01*
X0004600Y0276744D02*
X0049400Y0276744D01*
X0049400Y0278342D02*
X0004600Y0278342D01*
X0004600Y0279941D02*
X0047247Y0279941D01*
X0047247Y0279838D02*
X0048184Y0278901D01*
X0049400Y0278901D01*
X0049400Y0236228D01*
X0024172Y0211000D01*
X0023000Y0209828D01*
X0023000Y0165772D01*
X0039800Y0148972D01*
X0040972Y0147800D01*
X0045932Y0147800D01*
X0045948Y0147761D01*
X0046961Y0146748D01*
X0047639Y0146467D01*
X0042200Y0141028D01*
X0042200Y0012172D01*
X0043372Y0011000D01*
X0049772Y0004600D01*
X0004600Y0004600D01*
X0004600Y0313961D01*
X0204732Y0313961D01*
X0203800Y0313028D01*
X0176172Y0285400D01*
X0166353Y0285400D01*
X0166353Y0286282D01*
X0165834Y0286800D01*
X0166353Y0287318D01*
X0166353Y0293762D01*
X0165415Y0294699D01*
X0163920Y0294699D01*
X0164406Y0294900D01*
X0165700Y0296194D01*
X0166400Y0297885D01*
X0166400Y0305715D01*
X0165700Y0307406D01*
X0164406Y0308700D01*
X0162715Y0309400D01*
X0160885Y0309400D01*
X0159800Y0308951D01*
X0159800Y0309716D01*
X0159252Y0311039D01*
X0158239Y0312052D01*
X0156916Y0312600D01*
X0155484Y0312600D01*
X0154161Y0312052D01*
X0153148Y0311039D01*
X0153132Y0311000D01*
X0148972Y0311000D01*
X0145772Y0307800D01*
X0145538Y0307567D01*
X0144406Y0308700D01*
X0142715Y0309400D01*
X0140885Y0309400D01*
X0139194Y0308700D01*
X0137900Y0307406D01*
X0137200Y0305715D01*
X0137200Y0297885D01*
X0137900Y0296194D01*
X0139194Y0294900D01*
X0139680Y0294699D01*
X0138184Y0294699D01*
X0137247Y0293762D01*
X0137247Y0287318D01*
X0137766Y0286800D01*
X0137247Y0286282D01*
X0137247Y0279838D01*
X0138184Y0278901D01*
X0139800Y0278901D01*
X0139800Y0249028D01*
X0129933Y0239161D01*
X0129652Y0239839D01*
X0128639Y0240852D01*
X0127316Y0241400D01*
X0125884Y0241400D01*
X0125845Y0241384D01*
X0082628Y0284600D01*
X0076353Y0284600D01*
X0076353Y0286282D01*
X0075834Y0286800D01*
X0076353Y0287318D01*
X0076353Y0293762D01*
X0075415Y0294699D01*
X0074200Y0294699D01*
X0074200Y0294815D01*
X0074406Y0294900D01*
X0075700Y0296194D01*
X0076400Y0297885D01*
X0076400Y0305715D01*
X0075700Y0307406D01*
X0074406Y0308700D01*
X0072715Y0309400D01*
X0070885Y0309400D01*
X0069194Y0308700D01*
X0067900Y0307406D01*
X0067200Y0305715D01*
X0067200Y0297885D01*
X0067900Y0296194D01*
X0069194Y0294900D01*
X0069680Y0294699D01*
X0068184Y0294699D01*
X0067247Y0293762D01*
X0067247Y0287318D01*
X0067766Y0286800D01*
X0067247Y0286282D01*
X0067247Y0283181D01*
X0066353Y0284076D01*
X0066353Y0286282D01*
X0065834Y0286800D01*
X0066353Y0287318D01*
X0066353Y0293762D01*
X0065415Y0294699D01*
X0063920Y0294699D01*
X0064406Y0294900D01*
X0065700Y0296194D01*
X0066400Y0297885D01*
X0066400Y0305715D01*
X0065700Y0307406D01*
X0064406Y0308700D01*
X0062715Y0309400D01*
X0060885Y0309400D01*
X0059194Y0308700D01*
X0057900Y0307406D01*
X0057200Y0305715D01*
X0057200Y0297885D01*
X0057900Y0296194D01*
X0059194Y0294900D01*
X0059680Y0294699D01*
X0058184Y0294699D01*
X0057247Y0293762D01*
X0057247Y0287318D01*
X0057766Y0286800D01*
X0057247Y0286282D01*
X0057247Y0279838D01*
X0058184Y0278901D01*
X0065415Y0278901D01*
X0065643Y0279128D01*
X0107800Y0236972D01*
X0108972Y0235800D01*
X0118732Y0235800D01*
X0118748Y0235761D01*
X0119509Y0235000D01*
X0073828Y0235000D01*
X0073400Y0235428D01*
X0072228Y0236600D01*
X0053400Y0236600D01*
X0053400Y0278901D01*
X0055415Y0278901D01*
X0056353Y0279838D01*
X0056353Y0286282D01*
X0055834Y0286800D01*
X0056353Y0287318D01*
X0056353Y0293762D01*
X0055415Y0294699D01*
X0054200Y0294699D01*
X0054200Y0294815D01*
X0054406Y0294900D01*
X0055700Y0296194D01*
X0056400Y0297885D01*
X0056400Y0305715D01*
X0055700Y0307406D01*
X0054406Y0308700D01*
X0052715Y0309400D01*
X0050885Y0309400D01*
X0049194Y0308700D01*
X0047900Y0307406D01*
X0047200Y0305715D01*
X0047200Y0297885D01*
X0047900Y0296194D01*
X0049194Y0294900D01*
X0049680Y0294699D01*
X0048184Y0294699D01*
X0047247Y0293762D01*
X0047247Y0287318D01*
X0047766Y0286800D01*
X0047247Y0286282D01*
X0047247Y0279838D01*
X0047247Y0281539D02*
X0004600Y0281539D01*
X0004600Y0283138D02*
X0047247Y0283138D01*
X0047247Y0284737D02*
X0004600Y0284737D01*
X0004600Y0286335D02*
X0047301Y0286335D01*
X0047247Y0287934D02*
X0004600Y0287934D01*
X0004600Y0289532D02*
X0047247Y0289532D01*
X0047247Y0291131D02*
X0004600Y0291131D01*
X0004600Y0292729D02*
X0047247Y0292729D01*
X0047813Y0294328D02*
X0004600Y0294328D01*
X0004600Y0295926D02*
X0048169Y0295926D01*
X0047349Y0297525D02*
X0004600Y0297525D01*
X0004600Y0299123D02*
X0047200Y0299123D01*
X0047200Y0300722D02*
X0004600Y0300722D01*
X0004600Y0302320D02*
X0047200Y0302320D01*
X0047200Y0303919D02*
X0004600Y0303919D01*
X0004600Y0305517D02*
X0047200Y0305517D01*
X0047780Y0307116D02*
X0004600Y0307116D01*
X0004600Y0308714D02*
X0049229Y0308714D01*
X0054371Y0308714D02*
X0059229Y0308714D01*
X0057780Y0307116D02*
X0055820Y0307116D01*
X0056400Y0305517D02*
X0057200Y0305517D01*
X0057200Y0303919D02*
X0056400Y0303919D01*
X0056400Y0302320D02*
X0057200Y0302320D01*
X0057200Y0300722D02*
X0056400Y0300722D01*
X0056400Y0299123D02*
X0057200Y0299123D01*
X0057349Y0297525D02*
X0056251Y0297525D01*
X0055431Y0295926D02*
X0058169Y0295926D01*
X0057813Y0294328D02*
X0055787Y0294328D01*
X0056353Y0292729D02*
X0057247Y0292729D01*
X0057247Y0291131D02*
X0056353Y0291131D01*
X0056353Y0289532D02*
X0057247Y0289532D01*
X0057247Y0287934D02*
X0056353Y0287934D01*
X0056299Y0286335D02*
X0057301Y0286335D01*
X0057247Y0284737D02*
X0056353Y0284737D01*
X0056353Y0283138D02*
X0057247Y0283138D01*
X0057247Y0281539D02*
X0056353Y0281539D01*
X0056353Y0279941D02*
X0057247Y0279941D01*
X0053400Y0278342D02*
X0066429Y0278342D01*
X0068028Y0276744D02*
X0053400Y0276744D01*
X0053400Y0275145D02*
X0069626Y0275145D01*
X0071225Y0273547D02*
X0053400Y0273547D01*
X0053400Y0271948D02*
X0072823Y0271948D01*
X0074422Y0270350D02*
X0053400Y0270350D01*
X0053400Y0268751D02*
X0076020Y0268751D01*
X0077619Y0267153D02*
X0053400Y0267153D01*
X0053400Y0265554D02*
X0079217Y0265554D01*
X0080816Y0263956D02*
X0053400Y0263956D01*
X0053400Y0262357D02*
X0082414Y0262357D01*
X0084013Y0260759D02*
X0053400Y0260759D01*
X0053400Y0259160D02*
X0085611Y0259160D01*
X0087210Y0257562D02*
X0053400Y0257562D01*
X0053400Y0255963D02*
X0088808Y0255963D01*
X0090407Y0254365D02*
X0053400Y0254365D01*
X0053400Y0252766D02*
X0092005Y0252766D01*
X0093604Y0251168D02*
X0053400Y0251168D01*
X0053400Y0249569D02*
X0095202Y0249569D01*
X0096801Y0247971D02*
X0053400Y0247971D01*
X0053400Y0246372D02*
X0098399Y0246372D01*
X0099998Y0244774D02*
X0053400Y0244774D01*
X0053400Y0243175D02*
X0101596Y0243175D01*
X0103195Y0241577D02*
X0053400Y0241577D01*
X0053400Y0239978D02*
X0104793Y0239978D01*
X0106392Y0238380D02*
X0053400Y0238380D01*
X0053400Y0236781D02*
X0107990Y0236781D01*
X0100800Y0231000D02*
X0100600Y0230516D01*
X0100600Y0229084D01*
X0100616Y0229045D01*
X0076400Y0204828D01*
X0076400Y0210715D01*
X0075700Y0212406D01*
X0074406Y0213700D01*
X0074200Y0213785D01*
X0074200Y0213901D01*
X0075415Y0213901D01*
X0076353Y0214838D01*
X0076353Y0221282D01*
X0075834Y0221800D01*
X0075918Y0221883D01*
X0077084Y0221400D01*
X0078516Y0221400D01*
X0079839Y0221948D01*
X0080852Y0222961D01*
X0081400Y0224284D01*
X0081400Y0225716D01*
X0080852Y0227039D01*
X0079839Y0228052D01*
X0078516Y0228600D01*
X0077084Y0228600D01*
X0076353Y0228297D01*
X0076353Y0228762D01*
X0075415Y0229699D01*
X0072992Y0229699D01*
X0073400Y0230684D01*
X0073400Y0231000D01*
X0100800Y0231000D01*
X0100600Y0230387D02*
X0073277Y0230387D01*
X0076326Y0228789D02*
X0100360Y0228789D01*
X0098762Y0227190D02*
X0080701Y0227190D01*
X0081400Y0225592D02*
X0097163Y0225592D01*
X0095565Y0223993D02*
X0081280Y0223993D01*
X0080286Y0222395D02*
X0093966Y0222395D01*
X0092368Y0220796D02*
X0076353Y0220796D01*
X0076353Y0219198D02*
X0090769Y0219198D01*
X0089171Y0217599D02*
X0076353Y0217599D01*
X0076353Y0216001D02*
X0087572Y0216001D01*
X0085974Y0214402D02*
X0075917Y0214402D01*
X0075302Y0212803D02*
X0084375Y0212803D01*
X0082777Y0211205D02*
X0076197Y0211205D01*
X0076400Y0209606D02*
X0081178Y0209606D01*
X0079580Y0208008D02*
X0076400Y0208008D01*
X0076400Y0206409D02*
X0077981Y0206409D01*
X0076067Y0198839D02*
X0076348Y0198161D01*
X0077361Y0197148D01*
X0077400Y0197132D01*
X0077400Y0194628D01*
X0075355Y0192584D01*
X0075316Y0192600D01*
X0073884Y0192600D01*
X0072561Y0192052D01*
X0071548Y0191039D01*
X0071000Y0189716D01*
X0071000Y0188284D01*
X0071548Y0186961D01*
X0071909Y0186600D01*
X0071548Y0186239D01*
X0071000Y0184916D01*
X0071000Y0183484D01*
X0071548Y0182161D01*
X0072561Y0181148D01*
X0073239Y0180867D01*
X0070555Y0178184D01*
X0070516Y0178200D01*
X0069084Y0178200D01*
X0067761Y0177652D01*
X0066748Y0176639D01*
X0066200Y0175316D01*
X0066200Y0173884D01*
X0066748Y0172561D01*
X0067761Y0171548D01*
X0069084Y0171000D01*
X0070516Y0171000D01*
X0071839Y0171548D01*
X0072852Y0172561D01*
X0073400Y0173884D01*
X0073400Y0175316D01*
X0073384Y0175355D01*
X0121028Y0223000D01*
X0137247Y0223000D01*
X0137247Y0222318D01*
X0137766Y0221800D01*
X0137247Y0221282D01*
X0137247Y0214838D01*
X0138184Y0213901D01*
X0139680Y0213901D01*
X0139194Y0213700D01*
X0137900Y0212406D01*
X0137200Y0210715D01*
X0137200Y0202885D01*
X0137900Y0201194D01*
X0139194Y0199900D01*
X0140522Y0199350D01*
X0135372Y0194200D01*
X0126572Y0194200D01*
X0123800Y0191428D01*
X0123800Y0185772D01*
X0133416Y0176155D01*
X0133400Y0176116D01*
X0133400Y0174684D01*
X0133600Y0174200D01*
X0118000Y0174200D01*
X0118200Y0174684D01*
X0118200Y0176116D01*
X0117652Y0177439D01*
X0116639Y0178452D01*
X0115316Y0179000D01*
X0113884Y0179000D01*
X0113845Y0178984D01*
X0110628Y0182200D01*
X0086572Y0182200D01*
X0085400Y0181028D01*
X0073772Y0169400D01*
X0066800Y0169400D01*
X0067000Y0169884D01*
X0067000Y0171316D01*
X0066452Y0172639D01*
X0065439Y0173652D01*
X0064116Y0174200D01*
X0062684Y0174200D01*
X0062645Y0174184D01*
X0059000Y0177828D01*
X0059000Y0200095D01*
X0059194Y0199900D01*
X0060885Y0199200D01*
X0062715Y0199200D01*
X0064406Y0199900D01*
X0064600Y0200095D01*
X0064600Y0197828D01*
X0060172Y0193400D01*
X0059000Y0192228D01*
X0059000Y0180172D01*
X0059816Y0179355D01*
X0059800Y0179316D01*
X0059800Y0177884D01*
X0060348Y0176561D01*
X0061361Y0175548D01*
X0062684Y0175000D01*
X0064116Y0175000D01*
X0065439Y0175548D01*
X0066452Y0176561D01*
X0067000Y0177884D01*
X0067000Y0179316D01*
X0066452Y0180639D01*
X0065439Y0181652D01*
X0064116Y0182200D01*
X0063000Y0182200D01*
X0063000Y0186400D01*
X0063484Y0186200D01*
X0064916Y0186200D01*
X0066239Y0186748D01*
X0067252Y0187761D01*
X0067800Y0189084D01*
X0067800Y0190516D01*
X0067784Y0190555D01*
X0076067Y0198839D01*
X0076242Y0198417D02*
X0075645Y0198417D01*
X0074047Y0196818D02*
X0077400Y0196818D01*
X0077400Y0195220D02*
X0072448Y0195220D01*
X0070850Y0193621D02*
X0076393Y0193621D01*
X0072532Y0192023D02*
X0069251Y0192023D01*
X0067800Y0190424D02*
X0071293Y0190424D01*
X0071000Y0188826D02*
X0067693Y0188826D01*
X0066718Y0187227D02*
X0071438Y0187227D01*
X0071295Y0185629D02*
X0063000Y0185629D01*
X0063000Y0184030D02*
X0071000Y0184030D01*
X0071436Y0182432D02*
X0063000Y0182432D01*
X0066258Y0180833D02*
X0073205Y0180833D01*
X0071606Y0179235D02*
X0067000Y0179235D01*
X0066897Y0177636D02*
X0067745Y0177636D01*
X0066499Y0176038D02*
X0065929Y0176038D01*
X0066200Y0174439D02*
X0062389Y0174439D01*
X0060871Y0176038D02*
X0060791Y0176038D01*
X0059903Y0177636D02*
X0059192Y0177636D01*
X0059000Y0179235D02*
X0059800Y0179235D01*
X0059000Y0180833D02*
X0059000Y0180833D01*
X0059000Y0182432D02*
X0059000Y0182432D01*
X0059000Y0184030D02*
X0059000Y0184030D01*
X0059000Y0185629D02*
X0059000Y0185629D01*
X0059000Y0187227D02*
X0059000Y0187227D01*
X0059000Y0188826D02*
X0059000Y0188826D01*
X0059000Y0190424D02*
X0059000Y0190424D01*
X0059000Y0192023D02*
X0059000Y0192023D01*
X0059000Y0193621D02*
X0060393Y0193621D01*
X0059000Y0195220D02*
X0061991Y0195220D01*
X0063590Y0196818D02*
X0059000Y0196818D01*
X0059000Y0198417D02*
X0064600Y0198417D01*
X0064600Y0200015D02*
X0064521Y0200015D01*
X0059079Y0200015D02*
X0059000Y0200015D01*
X0078862Y0180833D02*
X0085205Y0180833D01*
X0083606Y0179235D02*
X0077263Y0179235D01*
X0075665Y0177636D02*
X0082008Y0177636D01*
X0080409Y0176038D02*
X0074066Y0176038D01*
X0073400Y0174439D02*
X0078811Y0174439D01*
X0077212Y0172841D02*
X0072968Y0172841D01*
X0071101Y0171242D02*
X0075614Y0171242D01*
X0074015Y0169644D02*
X0066900Y0169644D01*
X0067000Y0171242D02*
X0068499Y0171242D01*
X0066632Y0172841D02*
X0066250Y0172841D01*
X0070000Y0159800D02*
X0071000Y0159800D01*
X0071000Y0158684D01*
X0071548Y0157361D01*
X0072561Y0156348D01*
X0073884Y0155800D01*
X0075316Y0155800D01*
X0076639Y0156348D01*
X0077652Y0157361D01*
X0077668Y0157400D01*
X0082572Y0157400D01*
X0046200Y0121028D01*
X0046200Y0139372D01*
X0053028Y0146200D01*
X0054200Y0147372D01*
X0054200Y0156600D01*
X0063532Y0156600D01*
X0063548Y0156561D01*
X0064561Y0155548D01*
X0065884Y0155000D01*
X0067316Y0155000D01*
X0068639Y0155548D01*
X0069652Y0156561D01*
X0070200Y0157884D01*
X0070200Y0159316D01*
X0070000Y0159800D01*
X0070200Y0158454D02*
X0071095Y0158454D01*
X0072053Y0156856D02*
X0069774Y0156856D01*
X0067937Y0155257D02*
X0080429Y0155257D01*
X0082027Y0156856D02*
X0077147Y0156856D01*
X0078830Y0153659D02*
X0054200Y0153659D01*
X0054200Y0155257D02*
X0065263Y0155257D01*
X0072436Y0147265D02*
X0054093Y0147265D01*
X0054200Y0148863D02*
X0074035Y0148863D01*
X0075633Y0150462D02*
X0054200Y0150462D01*
X0054200Y0152060D02*
X0077232Y0152060D01*
X0081828Y0148600D02*
X0085600Y0148600D01*
X0085400Y0148116D01*
X0085400Y0146684D01*
X0085948Y0145361D01*
X0086961Y0144348D01*
X0087000Y0144332D01*
X0087000Y0140868D01*
X0086961Y0140852D01*
X0085948Y0139839D01*
X0085400Y0138516D01*
X0085400Y0137084D01*
X0085600Y0136600D01*
X0074572Y0136600D01*
X0055538Y0117567D01*
X0054406Y0118700D01*
X0052715Y0119400D01*
X0052628Y0119400D01*
X0081828Y0148600D01*
X0080493Y0147265D02*
X0085400Y0147265D01*
X0085822Y0145666D02*
X0078894Y0145666D01*
X0077296Y0144068D02*
X0087000Y0144068D01*
X0087000Y0142469D02*
X0075697Y0142469D01*
X0074099Y0140870D02*
X0087000Y0140870D01*
X0085713Y0139272D02*
X0072500Y0139272D01*
X0070902Y0137673D02*
X0085400Y0137673D01*
X0076228Y0132600D02*
X0096228Y0132600D01*
X0100245Y0136616D01*
X0100284Y0136600D01*
X0101716Y0136600D01*
X0102200Y0136800D01*
X0102200Y0133668D01*
X0102161Y0133652D01*
X0101148Y0132639D01*
X0100600Y0131316D01*
X0100600Y0129884D01*
X0101148Y0128561D01*
X0102161Y0127548D01*
X0103484Y0127000D01*
X0104916Y0127000D01*
X0106239Y0127548D01*
X0107252Y0128561D01*
X0107800Y0129884D01*
X0107800Y0131316D01*
X0107252Y0132639D01*
X0106239Y0133652D01*
X0106200Y0133668D01*
X0106200Y0147372D01*
X0107000Y0148172D01*
X0107000Y0151532D01*
X0107039Y0151548D01*
X0108052Y0152561D01*
X0108600Y0153884D01*
X0108600Y0155316D01*
X0108400Y0155800D01*
X0109772Y0155800D01*
X0110572Y0155800D01*
X0108600Y0153828D01*
X0108600Y0114572D01*
X0109772Y0113400D01*
X0114039Y0109133D01*
X0113361Y0108852D01*
X0112348Y0107839D01*
X0111800Y0106516D01*
X0111800Y0105084D01*
X0111816Y0105045D01*
X0110733Y0103961D01*
X0110452Y0104639D01*
X0109439Y0105652D01*
X0108116Y0106200D01*
X0106684Y0106200D01*
X0105361Y0105652D01*
X0104348Y0104639D01*
X0103800Y0103316D01*
X0103800Y0101884D01*
X0103816Y0101845D01*
X0097772Y0095800D01*
X0076353Y0095800D01*
X0076353Y0096282D01*
X0075834Y0096800D01*
X0076353Y0097318D01*
X0076353Y0103762D01*
X0075415Y0104699D01*
X0074200Y0104699D01*
X0074200Y0104815D01*
X0074406Y0104900D01*
X0075700Y0106194D01*
X0076400Y0107885D01*
X0076400Y0115715D01*
X0075700Y0117406D01*
X0074406Y0118700D01*
X0072715Y0119400D01*
X0070885Y0119400D01*
X0069194Y0118700D01*
X0067900Y0117406D01*
X0067200Y0115715D01*
X0067200Y0107885D01*
X0067900Y0106194D01*
X0069194Y0104900D01*
X0069680Y0104699D01*
X0068184Y0104699D01*
X0067247Y0103762D01*
X0067247Y0097318D01*
X0067766Y0096800D01*
X0067247Y0096282D01*
X0067247Y0092781D01*
X0066353Y0093676D01*
X0066353Y0096282D01*
X0065834Y0096800D01*
X0066353Y0097318D01*
X0066353Y0103762D01*
X0065415Y0104699D01*
X0063920Y0104699D01*
X0064406Y0104900D01*
X0065700Y0106194D01*
X0066400Y0107885D01*
X0066400Y0115715D01*
X0065700Y0117406D01*
X0064406Y0118700D01*
X0062937Y0119308D01*
X0076228Y0132600D01*
X0074908Y0131279D02*
X0100600Y0131279D01*
X0100684Y0129681D02*
X0073309Y0129681D01*
X0071711Y0128082D02*
X0101626Y0128082D01*
X0101387Y0132878D02*
X0096506Y0132878D01*
X0098105Y0134476D02*
X0102200Y0134476D01*
X0102200Y0136075D02*
X0099703Y0136075D01*
X0106200Y0136075D02*
X0108600Y0136075D01*
X0108600Y0137673D02*
X0106200Y0137673D01*
X0106200Y0139272D02*
X0108600Y0139272D01*
X0108600Y0140870D02*
X0106200Y0140870D01*
X0106200Y0142469D02*
X0108600Y0142469D01*
X0108600Y0144068D02*
X0106200Y0144068D01*
X0106200Y0145666D02*
X0108600Y0145666D01*
X0108600Y0147265D02*
X0106200Y0147265D01*
X0107000Y0148863D02*
X0108600Y0148863D01*
X0108600Y0150462D02*
X0107000Y0150462D01*
X0107551Y0152060D02*
X0108600Y0152060D01*
X0108600Y0153659D02*
X0108507Y0153659D01*
X0108600Y0155257D02*
X0110029Y0155257D01*
X0120494Y0145666D02*
X0122838Y0145666D01*
X0122093Y0147265D02*
X0124436Y0147265D01*
X0125416Y0148245D02*
X0120600Y0143428D01*
X0120600Y0108228D01*
X0112600Y0116228D01*
X0112600Y0137909D01*
X0113361Y0137148D01*
X0114684Y0136600D01*
X0116116Y0136600D01*
X0117439Y0137148D01*
X0118452Y0138161D01*
X0119000Y0139484D01*
X0119000Y0140916D01*
X0118452Y0142239D01*
X0117760Y0142931D01*
X0128245Y0153416D01*
X0128284Y0153400D01*
X0129400Y0153400D01*
X0129400Y0153084D01*
X0129600Y0152600D01*
X0128284Y0152600D01*
X0126961Y0152052D01*
X0125948Y0151039D01*
X0125400Y0149716D01*
X0125400Y0148284D01*
X0125416Y0148245D01*
X0125400Y0148863D02*
X0123691Y0148863D01*
X0125290Y0150462D02*
X0125709Y0150462D01*
X0126888Y0152060D02*
X0126980Y0152060D01*
X0121239Y0144068D02*
X0118896Y0144068D01*
X0118222Y0142469D02*
X0120600Y0142469D01*
X0120600Y0140870D02*
X0119000Y0140870D01*
X0118912Y0139272D02*
X0120600Y0139272D01*
X0120600Y0137673D02*
X0117965Y0137673D01*
X0120600Y0136075D02*
X0112600Y0136075D01*
X0112600Y0137673D02*
X0112835Y0137673D01*
X0112600Y0134476D02*
X0120600Y0134476D01*
X0120600Y0132878D02*
X0112600Y0132878D01*
X0112600Y0131279D02*
X0120600Y0131279D01*
X0120600Y0129681D02*
X0112600Y0129681D01*
X0112600Y0128082D02*
X0120600Y0128082D01*
X0120600Y0126484D02*
X0112600Y0126484D01*
X0112600Y0124885D02*
X0120600Y0124885D01*
X0120600Y0123287D02*
X0112600Y0123287D01*
X0112600Y0121688D02*
X0120600Y0121688D01*
X0120600Y0120090D02*
X0112600Y0120090D01*
X0112600Y0118491D02*
X0120600Y0118491D01*
X0120600Y0116893D02*
X0112600Y0116893D01*
X0113534Y0115294D02*
X0120600Y0115294D01*
X0120600Y0113696D02*
X0115133Y0113696D01*
X0116731Y0112097D02*
X0120600Y0112097D01*
X0120600Y0110499D02*
X0118330Y0110499D01*
X0119928Y0108900D02*
X0120600Y0108900D01*
X0124600Y0108900D02*
X0133400Y0108900D01*
X0133400Y0107302D02*
X0125527Y0107302D01*
X0124600Y0108228D02*
X0124600Y0136800D01*
X0125084Y0136600D01*
X0126516Y0136600D01*
X0126555Y0136616D01*
X0133400Y0129772D01*
X0133400Y0102468D01*
X0133361Y0102452D01*
X0132348Y0101439D01*
X0132067Y0100761D01*
X0124600Y0108228D01*
X0124600Y0110499D02*
X0133400Y0110499D01*
X0133400Y0112097D02*
X0124600Y0112097D01*
X0124600Y0113696D02*
X0133400Y0113696D01*
X0133400Y0115294D02*
X0124600Y0115294D01*
X0124600Y0116893D02*
X0133400Y0116893D01*
X0133400Y0118491D02*
X0124600Y0118491D01*
X0124600Y0120090D02*
X0133400Y0120090D01*
X0133400Y0121688D02*
X0124600Y0121688D01*
X0124600Y0123287D02*
X0133400Y0123287D01*
X0133400Y0124885D02*
X0124600Y0124885D01*
X0124600Y0126484D02*
X0133400Y0126484D01*
X0133400Y0128082D02*
X0124600Y0128082D01*
X0124600Y0129681D02*
X0133400Y0129681D01*
X0131892Y0131279D02*
X0124600Y0131279D01*
X0124600Y0132878D02*
X0130294Y0132878D01*
X0128695Y0134476D02*
X0124600Y0134476D01*
X0124600Y0136075D02*
X0127097Y0136075D01*
X0129556Y0139272D02*
X0142300Y0139272D01*
X0141716Y0139000D02*
X0140284Y0139000D01*
X0138961Y0138452D01*
X0137948Y0137439D01*
X0137400Y0136116D01*
X0137400Y0134684D01*
X0137948Y0133361D01*
X0138961Y0132348D01*
X0140284Y0131800D01*
X0141716Y0131800D01*
X0142045Y0131936D01*
X0141948Y0131839D01*
X0141400Y0130516D01*
X0141400Y0129084D01*
X0141948Y0127761D01*
X0142961Y0126748D01*
X0144284Y0126200D01*
X0145716Y0126200D01*
X0147039Y0126748D01*
X0147331Y0127040D01*
X0152600Y0121772D01*
X0153772Y0120600D01*
X0158572Y0120600D01*
X0158200Y0120228D01*
X0155538Y0117567D01*
X0154406Y0118700D01*
X0152715Y0119400D01*
X0150885Y0119400D01*
X0149194Y0118700D01*
X0147900Y0117406D01*
X0147200Y0115715D01*
X0147200Y0107885D01*
X0147900Y0106194D01*
X0149194Y0104900D01*
X0149680Y0104699D01*
X0148184Y0104699D01*
X0147247Y0103762D01*
X0147247Y0097318D01*
X0147766Y0096800D01*
X0147247Y0096282D01*
X0147247Y0091000D01*
X0146353Y0091000D01*
X0146353Y0096282D01*
X0145834Y0096800D01*
X0146353Y0097318D01*
X0146353Y0103762D01*
X0145415Y0104699D01*
X0143920Y0104699D01*
X0144406Y0104900D01*
X0145700Y0106194D01*
X0146400Y0107885D01*
X0146400Y0115715D01*
X0145700Y0117406D01*
X0144406Y0118700D01*
X0142715Y0119400D01*
X0140885Y0119400D01*
X0139194Y0118700D01*
X0137900Y0117406D01*
X0137400Y0116198D01*
X0137400Y0131428D01*
X0129384Y0139445D01*
X0129400Y0139484D01*
X0129400Y0140600D01*
X0129716Y0140600D01*
X0131039Y0141148D01*
X0132052Y0142161D01*
X0132068Y0142200D01*
X0139372Y0142200D01*
X0144172Y0137400D01*
X0144068Y0137400D01*
X0144052Y0137439D01*
X0143039Y0138452D01*
X0141716Y0139000D01*
X0140701Y0140870D02*
X0130369Y0140870D01*
X0131155Y0137673D02*
X0138182Y0137673D01*
X0137400Y0136075D02*
X0132753Y0136075D01*
X0134352Y0134476D02*
X0137486Y0134476D01*
X0138431Y0132878D02*
X0135950Y0132878D01*
X0137400Y0131279D02*
X0141716Y0131279D01*
X0141400Y0129681D02*
X0137400Y0129681D01*
X0137400Y0128082D02*
X0141815Y0128082D01*
X0143599Y0126484D02*
X0137400Y0126484D01*
X0137400Y0124885D02*
X0149486Y0124885D01*
X0151085Y0123287D02*
X0137400Y0123287D01*
X0137400Y0121688D02*
X0152683Y0121688D01*
X0154614Y0118491D02*
X0156463Y0118491D01*
X0158061Y0120090D02*
X0137400Y0120090D01*
X0137400Y0118491D02*
X0138986Y0118491D01*
X0137688Y0116893D02*
X0137400Y0116893D01*
X0144614Y0118491D02*
X0148986Y0118491D01*
X0147688Y0116893D02*
X0145912Y0116893D01*
X0146400Y0115294D02*
X0147200Y0115294D01*
X0147200Y0113696D02*
X0146400Y0113696D01*
X0146400Y0112097D02*
X0147200Y0112097D01*
X0147200Y0110499D02*
X0146400Y0110499D01*
X0146400Y0108900D02*
X0147200Y0108900D01*
X0147442Y0107302D02*
X0146158Y0107302D01*
X0145209Y0105703D02*
X0148391Y0105703D01*
X0147590Y0104105D02*
X0146010Y0104105D01*
X0146353Y0102506D02*
X0147247Y0102506D01*
X0147247Y0100908D02*
X0146353Y0100908D01*
X0146353Y0099309D02*
X0147247Y0099309D01*
X0147247Y0097711D02*
X0146353Y0097711D01*
X0146353Y0096112D02*
X0147247Y0096112D01*
X0147247Y0094514D02*
X0146353Y0094514D01*
X0146353Y0092915D02*
X0147247Y0092915D01*
X0147247Y0091317D02*
X0146353Y0091317D01*
X0143509Y0087000D02*
X0142748Y0086239D01*
X0142200Y0084916D01*
X0142200Y0083484D01*
X0142748Y0082161D01*
X0143761Y0081148D01*
X0145084Y0080600D01*
X0146516Y0080600D01*
X0147839Y0081148D01*
X0148852Y0082161D01*
X0148868Y0082200D01*
X0169828Y0082200D01*
X0171000Y0083372D01*
X0196067Y0108439D01*
X0196348Y0107761D01*
X0197361Y0106748D01*
X0197400Y0106732D01*
X0197400Y0101028D01*
X0185772Y0089400D01*
X0184600Y0088228D01*
X0184600Y0055800D01*
X0162468Y0055800D01*
X0162452Y0055839D01*
X0161439Y0056852D01*
X0160116Y0057400D01*
X0158684Y0057400D01*
X0157361Y0056852D01*
X0156348Y0055839D01*
X0155800Y0054516D01*
X0155800Y0053828D01*
X0114184Y0095445D01*
X0114200Y0095484D01*
X0114200Y0096916D01*
X0113652Y0098239D01*
X0112639Y0099252D01*
X0111961Y0099533D01*
X0114645Y0102216D01*
X0114684Y0102200D01*
X0116116Y0102200D01*
X0117439Y0102748D01*
X0118452Y0103761D01*
X0118733Y0104439D01*
X0136172Y0087000D01*
X0143509Y0087000D01*
X0143030Y0086521D02*
X0123107Y0086521D01*
X0121509Y0088120D02*
X0135052Y0088120D01*
X0133453Y0089718D02*
X0119910Y0089718D01*
X0118312Y0091317D02*
X0131855Y0091317D01*
X0130256Y0092915D02*
X0116713Y0092915D01*
X0115115Y0094514D02*
X0128658Y0094514D01*
X0127059Y0096112D02*
X0114200Y0096112D01*
X0113871Y0097711D02*
X0125461Y0097711D01*
X0123862Y0099309D02*
X0112501Y0099309D01*
X0113336Y0100908D02*
X0122264Y0100908D01*
X0120665Y0102506D02*
X0116855Y0102506D01*
X0118594Y0104105D02*
X0119067Y0104105D01*
X0111800Y0105703D02*
X0109315Y0105703D01*
X0110673Y0104105D02*
X0110876Y0104105D01*
X0112125Y0107302D02*
X0076158Y0107302D01*
X0076400Y0108900D02*
X0113477Y0108900D01*
X0112673Y0110499D02*
X0076400Y0110499D01*
X0076400Y0112097D02*
X0111074Y0112097D01*
X0109476Y0113696D02*
X0076400Y0113696D01*
X0076400Y0115294D02*
X0108600Y0115294D01*
X0108600Y0116893D02*
X0075912Y0116893D01*
X0074614Y0118491D02*
X0108600Y0118491D01*
X0108600Y0120090D02*
X0063718Y0120090D01*
X0064614Y0118491D02*
X0068986Y0118491D01*
X0067688Y0116893D02*
X0065912Y0116893D01*
X0066400Y0115294D02*
X0067200Y0115294D01*
X0067200Y0113696D02*
X0066400Y0113696D01*
X0066400Y0112097D02*
X0067200Y0112097D01*
X0067200Y0110499D02*
X0066400Y0110499D01*
X0066400Y0108900D02*
X0067200Y0108900D01*
X0067442Y0107302D02*
X0066158Y0107302D01*
X0065209Y0105703D02*
X0068391Y0105703D01*
X0067590Y0104105D02*
X0066010Y0104105D01*
X0066353Y0102506D02*
X0067247Y0102506D01*
X0067247Y0100908D02*
X0066353Y0100908D01*
X0066353Y0099309D02*
X0067247Y0099309D01*
X0067247Y0097711D02*
X0066353Y0097711D01*
X0066353Y0096112D02*
X0067247Y0096112D01*
X0067247Y0094514D02*
X0066353Y0094514D01*
X0067113Y0092915D02*
X0067247Y0092915D01*
X0065443Y0088928D02*
X0066200Y0088172D01*
X0067372Y0087000D01*
X0099428Y0087000D01*
X0107267Y0094839D01*
X0107548Y0094161D01*
X0108561Y0093148D01*
X0109884Y0092600D01*
X0111316Y0092600D01*
X0111355Y0092616D01*
X0150039Y0053933D01*
X0149361Y0053652D01*
X0148348Y0052639D01*
X0147800Y0051316D01*
X0147800Y0049884D01*
X0148348Y0048561D01*
X0149361Y0047548D01*
X0149400Y0047532D01*
X0149400Y0039699D01*
X0148184Y0039699D01*
X0147247Y0038762D01*
X0147247Y0032318D01*
X0147766Y0031800D01*
X0147247Y0031282D01*
X0147247Y0024838D01*
X0148184Y0023901D01*
X0149680Y0023901D01*
X0149194Y0023700D01*
X0147900Y0022406D01*
X0147200Y0020715D01*
X0147200Y0012885D01*
X0147900Y0011194D01*
X0148095Y0011000D01*
X0145505Y0011000D01*
X0145700Y0011194D01*
X0146400Y0012885D01*
X0146400Y0020715D01*
X0145700Y0022406D01*
X0144406Y0023700D01*
X0143920Y0023901D01*
X0145415Y0023901D01*
X0146353Y0024838D01*
X0146353Y0031282D01*
X0145834Y0031800D01*
X0146353Y0032318D01*
X0146353Y0038762D01*
X0145415Y0039699D01*
X0138184Y0039699D01*
X0137247Y0038762D01*
X0137247Y0038200D01*
X0111428Y0038200D01*
X0062984Y0086645D01*
X0063000Y0086684D01*
X0063000Y0088116D01*
X0062675Y0088901D01*
X0065415Y0088901D01*
X0065443Y0088928D01*
X0066252Y0088120D02*
X0062999Y0088120D01*
X0063107Y0086521D02*
X0117450Y0086521D01*
X0115852Y0088120D02*
X0100548Y0088120D01*
X0102147Y0089718D02*
X0114253Y0089718D01*
X0112655Y0091317D02*
X0103745Y0091317D01*
X0105344Y0092915D02*
X0109123Y0092915D01*
X0107402Y0094514D02*
X0106942Y0094514D01*
X0099682Y0097711D02*
X0076353Y0097711D01*
X0076353Y0099309D02*
X0101281Y0099309D01*
X0102879Y0100908D02*
X0076353Y0100908D01*
X0076353Y0102506D02*
X0103800Y0102506D01*
X0104127Y0104105D02*
X0076010Y0104105D01*
X0075209Y0105703D02*
X0105485Y0105703D01*
X0098084Y0096112D02*
X0076353Y0096112D01*
X0064706Y0084923D02*
X0119049Y0084923D01*
X0120647Y0083324D02*
X0066304Y0083324D01*
X0067903Y0081726D02*
X0122246Y0081726D01*
X0123845Y0080127D02*
X0069501Y0080127D01*
X0071100Y0078529D02*
X0125443Y0078529D01*
X0127042Y0076930D02*
X0072698Y0076930D01*
X0074297Y0075332D02*
X0128640Y0075332D01*
X0130239Y0073733D02*
X0075895Y0073733D01*
X0077494Y0072134D02*
X0131837Y0072134D01*
X0133436Y0070536D02*
X0079092Y0070536D01*
X0080691Y0068937D02*
X0135034Y0068937D01*
X0136633Y0067339D02*
X0082289Y0067339D01*
X0083888Y0065740D02*
X0138231Y0065740D01*
X0139830Y0064142D02*
X0085486Y0064142D01*
X0087085Y0062543D02*
X0141428Y0062543D01*
X0143027Y0060945D02*
X0088683Y0060945D01*
X0090282Y0059346D02*
X0144625Y0059346D01*
X0146224Y0057748D02*
X0091881Y0057748D01*
X0093479Y0056149D02*
X0147822Y0056149D01*
X0149421Y0054551D02*
X0095078Y0054551D01*
X0096676Y0052952D02*
X0148661Y0052952D01*
X0147816Y0051354D02*
X0098275Y0051354D01*
X0099873Y0049755D02*
X0147853Y0049755D01*
X0148752Y0048157D02*
X0101472Y0048157D01*
X0103070Y0046558D02*
X0149400Y0046558D01*
X0149400Y0044960D02*
X0104669Y0044960D01*
X0106267Y0043361D02*
X0149400Y0043361D01*
X0149400Y0041763D02*
X0107866Y0041763D01*
X0109464Y0040164D02*
X0149400Y0040164D01*
X0147247Y0038566D02*
X0146353Y0038566D01*
X0146353Y0036967D02*
X0147247Y0036967D01*
X0147247Y0035369D02*
X0146353Y0035369D01*
X0146353Y0033770D02*
X0147247Y0033770D01*
X0147394Y0032172D02*
X0146206Y0032172D01*
X0146353Y0030573D02*
X0147247Y0030573D01*
X0147247Y0028975D02*
X0146353Y0028975D01*
X0146353Y0027376D02*
X0147247Y0027376D01*
X0147247Y0025778D02*
X0146353Y0025778D01*
X0145694Y0024179D02*
X0147906Y0024179D01*
X0148075Y0022581D02*
X0145525Y0022581D01*
X0146289Y0020982D02*
X0147311Y0020982D01*
X0147200Y0019384D02*
X0146400Y0019384D01*
X0146400Y0017785D02*
X0147200Y0017785D01*
X0147200Y0016187D02*
X0146400Y0016187D01*
X0146400Y0014588D02*
X0147200Y0014588D01*
X0147200Y0012990D02*
X0146400Y0012990D01*
X0145781Y0011391D02*
X0147819Y0011391D01*
X0132172Y0009400D02*
X0117028Y0009400D01*
X0109384Y0017045D01*
X0109400Y0017084D01*
X0109400Y0018516D01*
X0108852Y0019839D01*
X0107839Y0020852D01*
X0106516Y0021400D01*
X0105084Y0021400D01*
X0103761Y0020852D01*
X0102748Y0019839D01*
X0102200Y0018516D01*
X0102200Y0017084D01*
X0102748Y0015761D01*
X0103761Y0014748D01*
X0105084Y0014200D01*
X0106516Y0014200D01*
X0106555Y0014216D01*
X0112972Y0007800D01*
X0054628Y0007800D01*
X0057962Y0011133D01*
X0059194Y0009900D01*
X0060885Y0009200D01*
X0062715Y0009200D01*
X0064406Y0009900D01*
X0065700Y0011194D01*
X0066400Y0012885D01*
X0066400Y0020715D01*
X0065700Y0022406D01*
X0064406Y0023700D01*
X0063920Y0023901D01*
X0065415Y0023901D01*
X0066353Y0024838D01*
X0066353Y0031282D01*
X0065834Y0031800D01*
X0066353Y0032318D01*
X0066353Y0038762D01*
X0065415Y0039699D01*
X0058184Y0039699D01*
X0057247Y0038762D01*
X0057247Y0033676D01*
X0056353Y0032781D01*
X0056353Y0038762D01*
X0055415Y0039699D01*
X0054200Y0039699D01*
X0054200Y0084972D01*
X0055833Y0086604D01*
X0056348Y0085361D01*
X0057361Y0084348D01*
X0058684Y0083800D01*
X0060116Y0083800D01*
X0060155Y0083816D01*
X0106572Y0037400D01*
X0076353Y0037400D01*
X0076353Y0038762D01*
X0075415Y0039699D01*
X0068184Y0039699D01*
X0067247Y0038762D01*
X0067247Y0032318D01*
X0067766Y0031800D01*
X0067247Y0031282D01*
X0067247Y0024838D01*
X0068184Y0023901D01*
X0069680Y0023901D01*
X0069194Y0023700D01*
X0067900Y0022406D01*
X0067200Y0020715D01*
X0067200Y0012885D01*
X0067900Y0011194D01*
X0069194Y0009900D01*
X0070885Y0009200D01*
X0072715Y0009200D01*
X0074406Y0009900D01*
X0075700Y0011194D01*
X0076400Y0012885D01*
X0076400Y0020715D01*
X0075700Y0022406D01*
X0074406Y0023700D01*
X0074200Y0023785D01*
X0074200Y0023901D01*
X0075415Y0023901D01*
X0076353Y0024838D01*
X0076353Y0031282D01*
X0075834Y0031800D01*
X0076353Y0032318D01*
X0076353Y0033400D01*
X0108172Y0033400D01*
X0132172Y0009400D01*
X0131779Y0009793D02*
X0116636Y0009793D01*
X0115037Y0011391D02*
X0130180Y0011391D01*
X0128582Y0012990D02*
X0113439Y0012990D01*
X0111840Y0014588D02*
X0126983Y0014588D01*
X0125385Y0016187D02*
X0110242Y0016187D01*
X0109400Y0017785D02*
X0123786Y0017785D01*
X0122188Y0019384D02*
X0109041Y0019384D01*
X0107525Y0020982D02*
X0120589Y0020982D01*
X0118991Y0022581D02*
X0075525Y0022581D01*
X0075694Y0024179D02*
X0117392Y0024179D01*
X0115794Y0025778D02*
X0076353Y0025778D01*
X0076353Y0027376D02*
X0114195Y0027376D01*
X0112597Y0028975D02*
X0076353Y0028975D01*
X0076353Y0030573D02*
X0110998Y0030573D01*
X0109400Y0032172D02*
X0076206Y0032172D01*
X0076353Y0038566D02*
X0105406Y0038566D01*
X0103807Y0040164D02*
X0054200Y0040164D01*
X0054200Y0041763D02*
X0102209Y0041763D01*
X0100610Y0043361D02*
X0054200Y0043361D01*
X0054200Y0044960D02*
X0099012Y0044960D01*
X0097413Y0046558D02*
X0054200Y0046558D01*
X0054200Y0048157D02*
X0095815Y0048157D01*
X0094216Y0049755D02*
X0054200Y0049755D01*
X0054200Y0051354D02*
X0092618Y0051354D01*
X0091019Y0052952D02*
X0054200Y0052952D01*
X0054200Y0054551D02*
X0089421Y0054551D01*
X0087822Y0056149D02*
X0054200Y0056149D01*
X0054200Y0057748D02*
X0086224Y0057748D01*
X0084625Y0059346D02*
X0054200Y0059346D01*
X0054200Y0060945D02*
X0083027Y0060945D01*
X0081428Y0062543D02*
X0054200Y0062543D01*
X0054200Y0064142D02*
X0079830Y0064142D01*
X0078231Y0065740D02*
X0054200Y0065740D01*
X0054200Y0067339D02*
X0076633Y0067339D01*
X0075034Y0068937D02*
X0054200Y0068937D01*
X0054200Y0070536D02*
X0073436Y0070536D01*
X0071837Y0072134D02*
X0054200Y0072134D01*
X0054200Y0073733D02*
X0070239Y0073733D01*
X0068640Y0075332D02*
X0054200Y0075332D01*
X0054200Y0076930D02*
X0067042Y0076930D01*
X0065443Y0078529D02*
X0054200Y0078529D01*
X0054200Y0080127D02*
X0063845Y0080127D01*
X0062246Y0081726D02*
X0054200Y0081726D01*
X0054200Y0083324D02*
X0060648Y0083324D01*
X0056786Y0084923D02*
X0054200Y0084923D01*
X0055750Y0086521D02*
X0055867Y0086521D01*
X0042200Y0086521D02*
X0004600Y0086521D01*
X0004600Y0084923D02*
X0042200Y0084923D01*
X0042200Y0083324D02*
X0004600Y0083324D01*
X0004600Y0081726D02*
X0042200Y0081726D01*
X0042200Y0080127D02*
X0004600Y0080127D01*
X0004600Y0078529D02*
X0042200Y0078529D01*
X0042200Y0076930D02*
X0004600Y0076930D01*
X0004600Y0075332D02*
X0042200Y0075332D01*
X0042200Y0073733D02*
X0004600Y0073733D01*
X0004600Y0072134D02*
X0042200Y0072134D01*
X0042200Y0070536D02*
X0004600Y0070536D01*
X0004600Y0068937D02*
X0042200Y0068937D01*
X0042200Y0067339D02*
X0004600Y0067339D01*
X0004600Y0065740D02*
X0042200Y0065740D01*
X0042200Y0064142D02*
X0004600Y0064142D01*
X0004600Y0062543D02*
X0042200Y0062543D01*
X0042200Y0060945D02*
X0004600Y0060945D01*
X0004600Y0059346D02*
X0042200Y0059346D01*
X0042200Y0057748D02*
X0004600Y0057748D01*
X0004600Y0056149D02*
X0042200Y0056149D01*
X0042200Y0054551D02*
X0004600Y0054551D01*
X0004600Y0052952D02*
X0042200Y0052952D01*
X0042200Y0051354D02*
X0004600Y0051354D01*
X0004600Y0049755D02*
X0042200Y0049755D01*
X0042200Y0048157D02*
X0004600Y0048157D01*
X0004600Y0046558D02*
X0042200Y0046558D01*
X0042200Y0044960D02*
X0004600Y0044960D01*
X0004600Y0043361D02*
X0042200Y0043361D01*
X0042200Y0041763D02*
X0004600Y0041763D01*
X0004600Y0040164D02*
X0042200Y0040164D01*
X0042200Y0038566D02*
X0004600Y0038566D01*
X0004600Y0036967D02*
X0042200Y0036967D01*
X0042200Y0035369D02*
X0004600Y0035369D01*
X0004600Y0033770D02*
X0042200Y0033770D01*
X0042200Y0032172D02*
X0004600Y0032172D01*
X0004600Y0030573D02*
X0034068Y0030573D01*
X0034895Y0031400D02*
X0032200Y0028705D01*
X0032200Y0024895D01*
X0034895Y0022200D01*
X0038705Y0022200D01*
X0041400Y0024895D01*
X0041400Y0028705D01*
X0038705Y0031400D01*
X0034895Y0031400D01*
X0032469Y0028975D02*
X0004600Y0028975D01*
X0004600Y0027376D02*
X0032200Y0027376D01*
X0032200Y0025778D02*
X0004600Y0025778D01*
X0004600Y0024179D02*
X0032915Y0024179D01*
X0034514Y0022581D02*
X0004600Y0022581D01*
X0004600Y0020982D02*
X0042200Y0020982D01*
X0042200Y0019384D02*
X0004600Y0019384D01*
X0004600Y0017785D02*
X0042200Y0017785D01*
X0042200Y0016187D02*
X0004600Y0016187D01*
X0004600Y0014588D02*
X0042200Y0014588D01*
X0042200Y0012990D02*
X0004600Y0012990D01*
X0004600Y0011391D02*
X0042980Y0011391D01*
X0044579Y0009793D02*
X0004600Y0009793D01*
X0004600Y0008194D02*
X0046178Y0008194D01*
X0047776Y0006596D02*
X0004600Y0006596D01*
X0004600Y0004997D02*
X0049375Y0004997D01*
X0055022Y0008194D02*
X0112578Y0008194D01*
X0110979Y0009793D02*
X0074146Y0009793D01*
X0075781Y0011391D02*
X0109381Y0011391D01*
X0107782Y0012990D02*
X0076400Y0012990D01*
X0076400Y0014588D02*
X0104147Y0014588D01*
X0102572Y0016187D02*
X0076400Y0016187D01*
X0076400Y0017785D02*
X0102200Y0017785D01*
X0102559Y0019384D02*
X0076400Y0019384D01*
X0076289Y0020982D02*
X0104075Y0020982D01*
X0111063Y0038566D02*
X0137247Y0038566D01*
X0153400Y0039699D02*
X0153400Y0047532D01*
X0153439Y0047548D01*
X0154452Y0048561D01*
X0154733Y0049239D01*
X0155372Y0048600D01*
X0188172Y0048600D01*
X0190839Y0045933D01*
X0190161Y0045652D01*
X0189148Y0044639D01*
X0188600Y0043316D01*
X0188600Y0041884D01*
X0188800Y0041400D01*
X0156972Y0041400D01*
X0155800Y0040228D01*
X0155271Y0039699D01*
X0153400Y0039699D01*
X0153400Y0040164D02*
X0155736Y0040164D01*
X0153400Y0041763D02*
X0188650Y0041763D01*
X0188619Y0043361D02*
X0153400Y0043361D01*
X0153400Y0044960D02*
X0189469Y0044960D01*
X0190213Y0046558D02*
X0153400Y0046558D01*
X0154048Y0048157D02*
X0188615Y0048157D01*
X0191075Y0051354D02*
X0201400Y0051354D01*
X0201400Y0051800D02*
X0190628Y0051800D01*
X0191000Y0051428D01*
X0204228Y0038200D01*
X0232247Y0038200D01*
X0232247Y0038762D01*
X0233184Y0039699D01*
X0240415Y0039699D01*
X0240643Y0039472D01*
X0246572Y0045400D01*
X0204172Y0045400D01*
X0202572Y0047000D01*
X0201400Y0048172D01*
X0201400Y0051800D01*
X0201400Y0049755D02*
X0192673Y0049755D01*
X0194272Y0048157D02*
X0201415Y0048157D01*
X0203013Y0046558D02*
X0195870Y0046558D01*
X0197469Y0044960D02*
X0246131Y0044960D01*
X0244533Y0043361D02*
X0199067Y0043361D01*
X0200666Y0041763D02*
X0242934Y0041763D01*
X0241336Y0040164D02*
X0202264Y0040164D01*
X0203863Y0038566D02*
X0232247Y0038566D01*
X0220172Y0052600D02*
X0214800Y0052600D01*
X0215000Y0053084D01*
X0215000Y0054516D01*
X0214452Y0055839D01*
X0213439Y0056852D01*
X0212116Y0057400D01*
X0210684Y0057400D01*
X0209361Y0056852D01*
X0208348Y0055839D01*
X0208332Y0055800D01*
X0188600Y0055800D01*
X0188600Y0082400D01*
X0189084Y0082200D01*
X0190516Y0082200D01*
X0190555Y0082216D01*
X0220172Y0052600D01*
X0219819Y0052952D02*
X0214945Y0052952D01*
X0214986Y0054551D02*
X0218221Y0054551D01*
X0216622Y0056149D02*
X0214142Y0056149D01*
X0215024Y0057748D02*
X0188600Y0057748D01*
X0188600Y0059346D02*
X0213425Y0059346D01*
X0211827Y0060945D02*
X0188600Y0060945D01*
X0188600Y0062543D02*
X0210228Y0062543D01*
X0208630Y0064142D02*
X0188600Y0064142D01*
X0188600Y0065740D02*
X0207031Y0065740D01*
X0205433Y0067339D02*
X0188600Y0067339D01*
X0188600Y0068937D02*
X0203834Y0068937D01*
X0202236Y0070536D02*
X0188600Y0070536D01*
X0188600Y0072134D02*
X0200637Y0072134D01*
X0199039Y0073733D02*
X0188600Y0073733D01*
X0188600Y0075332D02*
X0197440Y0075332D01*
X0195842Y0076930D02*
X0188600Y0076930D01*
X0188600Y0078529D02*
X0194243Y0078529D01*
X0192645Y0080127D02*
X0188600Y0080127D01*
X0188600Y0081726D02*
X0191046Y0081726D01*
X0194628Y0083800D02*
X0195316Y0083800D01*
X0196639Y0084348D01*
X0197652Y0085361D01*
X0197668Y0085400D01*
X0207532Y0085400D01*
X0207548Y0085361D01*
X0208561Y0084348D01*
X0209884Y0083800D01*
X0211316Y0083800D01*
X0212639Y0084348D01*
X0213652Y0085361D01*
X0214200Y0086684D01*
X0214200Y0088116D01*
X0213931Y0088765D01*
X0214435Y0088261D01*
X0215970Y0087625D01*
X0217630Y0087625D01*
X0219165Y0088261D01*
X0220339Y0089435D01*
X0220975Y0090970D01*
X0220975Y0091377D01*
X0221884Y0091000D01*
X0223316Y0091000D01*
X0224639Y0091548D01*
X0225652Y0092561D01*
X0225933Y0093239D01*
X0240590Y0078582D01*
X0240121Y0078429D01*
X0239507Y0078116D01*
X0238950Y0077712D01*
X0238463Y0077225D01*
X0238058Y0076668D01*
X0237746Y0076054D01*
X0237533Y0075399D01*
X0237425Y0074719D01*
X0237425Y0071800D01*
X0241800Y0071800D01*
X0246175Y0071800D01*
X0246175Y0072997D01*
X0247625Y0071546D01*
X0247625Y0068395D01*
X0248261Y0066860D01*
X0249435Y0065686D01*
X0250970Y0065050D01*
X0252630Y0065050D01*
X0254165Y0065686D01*
X0255339Y0066860D01*
X0255975Y0068395D01*
X0255975Y0075205D01*
X0255339Y0076740D01*
X0254165Y0077914D01*
X0252630Y0078550D01*
X0250970Y0078550D01*
X0249435Y0077914D01*
X0248261Y0076740D01*
X0248210Y0076618D01*
X0235928Y0088901D01*
X0240415Y0088901D01*
X0241353Y0089838D01*
X0241353Y0095419D01*
X0242247Y0094524D01*
X0242247Y0089838D01*
X0243184Y0088901D01*
X0250271Y0088901D01*
X0250572Y0088600D01*
X0260724Y0078448D01*
X0259435Y0077914D01*
X0258261Y0076740D01*
X0257625Y0075205D01*
X0257625Y0068395D01*
X0258261Y0066860D01*
X0259435Y0065686D01*
X0260970Y0065050D01*
X0262630Y0065050D01*
X0263544Y0065429D01*
X0263000Y0064116D01*
X0263000Y0062684D01*
X0263548Y0061361D01*
X0264561Y0060348D01*
X0265884Y0059800D01*
X0267316Y0059800D01*
X0268639Y0060348D01*
X0269652Y0061361D01*
X0269668Y0061400D01*
X0278732Y0061400D01*
X0278748Y0061361D01*
X0279761Y0060348D01*
X0281084Y0059800D01*
X0282516Y0059800D01*
X0283839Y0060348D01*
X0284852Y0061361D01*
X0285400Y0062684D01*
X0285400Y0064116D01*
X0284852Y0065439D01*
X0284385Y0065906D01*
X0285339Y0066860D01*
X0285507Y0067265D01*
X0295372Y0057400D01*
X0296332Y0057400D01*
X0296348Y0057361D01*
X0297109Y0056600D01*
X0290572Y0056600D01*
X0289400Y0055428D01*
X0284972Y0051000D01*
X0270800Y0051000D01*
X0271000Y0051484D01*
X0271000Y0052916D01*
X0270452Y0054239D01*
X0269439Y0055252D01*
X0268116Y0055800D01*
X0266684Y0055800D01*
X0265361Y0055252D01*
X0264348Y0054239D01*
X0264332Y0054200D01*
X0224228Y0054200D01*
X0213159Y0065269D01*
X0214165Y0065686D01*
X0215339Y0066860D01*
X0215975Y0068395D01*
X0215975Y0075205D01*
X0215339Y0076740D01*
X0214165Y0077914D01*
X0212630Y0078550D01*
X0210970Y0078550D01*
X0209435Y0077914D01*
X0208261Y0076740D01*
X0207625Y0075205D01*
X0207625Y0070803D01*
X0194628Y0083800D01*
X0195104Y0083324D02*
X0235848Y0083324D01*
X0237446Y0081726D02*
X0196703Y0081726D01*
X0198301Y0080127D02*
X0239045Y0080127D01*
X0240427Y0078529D02*
X0232681Y0078529D01*
X0232630Y0078550D02*
X0230970Y0078550D01*
X0229435Y0077914D01*
X0228261Y0076740D01*
X0227625Y0075205D01*
X0227625Y0068395D01*
X0228261Y0066860D01*
X0229435Y0065686D01*
X0230970Y0065050D01*
X0232630Y0065050D01*
X0234165Y0065686D01*
X0235339Y0066860D01*
X0235975Y0068395D01*
X0235975Y0075205D01*
X0235339Y0076740D01*
X0234165Y0077914D01*
X0232630Y0078550D01*
X0230919Y0078529D02*
X0222681Y0078529D01*
X0222630Y0078550D02*
X0220970Y0078550D01*
X0219435Y0077914D01*
X0218261Y0076740D01*
X0217625Y0075205D01*
X0217625Y0068395D01*
X0218261Y0066860D01*
X0219435Y0065686D01*
X0220970Y0065050D01*
X0222630Y0065050D01*
X0224165Y0065686D01*
X0225339Y0066860D01*
X0225975Y0068395D01*
X0225975Y0075205D01*
X0225339Y0076740D01*
X0224165Y0077914D01*
X0222630Y0078550D01*
X0220919Y0078529D02*
X0212681Y0078529D01*
X0210919Y0078529D02*
X0199900Y0078529D01*
X0201498Y0076930D02*
X0208451Y0076930D01*
X0207678Y0075332D02*
X0203097Y0075332D01*
X0204695Y0073733D02*
X0207625Y0073733D01*
X0207625Y0072134D02*
X0206294Y0072134D01*
X0215149Y0076930D02*
X0218451Y0076930D01*
X0217678Y0075332D02*
X0215922Y0075332D01*
X0215975Y0073733D02*
X0217625Y0073733D01*
X0217625Y0072134D02*
X0215975Y0072134D01*
X0215975Y0070536D02*
X0217625Y0070536D01*
X0217625Y0068937D02*
X0215975Y0068937D01*
X0215537Y0067339D02*
X0218063Y0067339D01*
X0219381Y0065740D02*
X0214219Y0065740D01*
X0214286Y0064142D02*
X0263011Y0064142D01*
X0263058Y0062543D02*
X0215885Y0062543D01*
X0217483Y0060945D02*
X0263964Y0060945D01*
X0269236Y0060945D02*
X0279164Y0060945D01*
X0278732Y0065400D02*
X0273474Y0065400D01*
X0274165Y0065686D01*
X0275339Y0066860D01*
X0275975Y0068395D01*
X0275975Y0075205D01*
X0275339Y0076740D01*
X0274165Y0077914D01*
X0272630Y0078550D01*
X0270970Y0078550D01*
X0269435Y0077914D01*
X0268261Y0076740D01*
X0268210Y0076618D01*
X0266361Y0078467D01*
X0267039Y0078748D01*
X0268052Y0079761D01*
X0268600Y0081084D01*
X0268600Y0082516D01*
X0268400Y0083000D01*
X0276172Y0083000D01*
X0280724Y0078448D01*
X0279435Y0077914D01*
X0278261Y0076740D01*
X0277625Y0075205D01*
X0277625Y0068395D01*
X0278261Y0066860D01*
X0279215Y0065906D01*
X0278748Y0065439D01*
X0278732Y0065400D01*
X0279049Y0065740D02*
X0274219Y0065740D01*
X0275537Y0067339D02*
X0278063Y0067339D01*
X0277625Y0068937D02*
X0275975Y0068937D01*
X0275975Y0070536D02*
X0277625Y0070536D01*
X0277625Y0072134D02*
X0275975Y0072134D01*
X0275975Y0073733D02*
X0277625Y0073733D01*
X0277678Y0075332D02*
X0275922Y0075332D01*
X0275149Y0076930D02*
X0278451Y0076930D01*
X0280643Y0078529D02*
X0272681Y0078529D01*
X0270919Y0078529D02*
X0266509Y0078529D01*
X0267898Y0076930D02*
X0268451Y0076930D01*
X0268204Y0080127D02*
X0279045Y0080127D01*
X0277446Y0081726D02*
X0268600Y0081726D01*
X0260643Y0078529D02*
X0252681Y0078529D01*
X0250919Y0078529D02*
X0246300Y0078529D01*
X0244701Y0080127D02*
X0259045Y0080127D01*
X0257446Y0081726D02*
X0243103Y0081726D01*
X0241504Y0083324D02*
X0255847Y0083324D01*
X0254249Y0084923D02*
X0239906Y0084923D01*
X0238307Y0086521D02*
X0252650Y0086521D01*
X0251052Y0088120D02*
X0236709Y0088120D01*
X0234249Y0084923D02*
X0213214Y0084923D01*
X0214133Y0086521D02*
X0232650Y0086521D01*
X0231052Y0088120D02*
X0218824Y0088120D01*
X0220456Y0089718D02*
X0229453Y0089718D01*
X0227855Y0091317D02*
X0224080Y0091317D01*
X0225799Y0092915D02*
X0226256Y0092915D01*
X0221119Y0091317D02*
X0220975Y0091317D01*
X0214776Y0088120D02*
X0214199Y0088120D01*
X0207986Y0084923D02*
X0197214Y0084923D01*
X0187688Y0091317D02*
X0178945Y0091317D01*
X0180544Y0092915D02*
X0189287Y0092915D01*
X0190885Y0094514D02*
X0182142Y0094514D01*
X0183741Y0096112D02*
X0192484Y0096112D01*
X0194082Y0097711D02*
X0185339Y0097711D01*
X0186938Y0099309D02*
X0195681Y0099309D01*
X0197279Y0100908D02*
X0188536Y0100908D01*
X0190135Y0102506D02*
X0197400Y0102506D01*
X0197400Y0104105D02*
X0191733Y0104105D01*
X0193332Y0105703D02*
X0197400Y0105703D01*
X0196807Y0107302D02*
X0194930Y0107302D01*
X0188467Y0113696D02*
X0166400Y0113696D01*
X0166400Y0115294D02*
X0190066Y0115294D01*
X0190516Y0115800D02*
X0190611Y0115839D01*
X0179372Y0104600D01*
X0177668Y0104600D01*
X0177652Y0104639D01*
X0176639Y0105652D01*
X0175316Y0106200D01*
X0173884Y0106200D01*
X0172561Y0105652D01*
X0171548Y0104639D01*
X0171000Y0103316D01*
X0171000Y0101884D01*
X0171548Y0100561D01*
X0172561Y0099548D01*
X0173884Y0099000D01*
X0175316Y0099000D01*
X0176639Y0099548D01*
X0177652Y0100561D01*
X0177668Y0100600D01*
X0177772Y0100600D01*
X0171533Y0094361D01*
X0171252Y0095039D01*
X0170239Y0096052D01*
X0168916Y0096600D01*
X0167484Y0096600D01*
X0166353Y0096131D01*
X0166353Y0096282D01*
X0165834Y0096800D01*
X0166353Y0097318D01*
X0166353Y0103762D01*
X0165415Y0104699D01*
X0163920Y0104699D01*
X0164406Y0104900D01*
X0165700Y0106194D01*
X0166400Y0107885D01*
X0166400Y0115715D01*
X0165702Y0117400D01*
X0186732Y0117400D01*
X0186748Y0117361D01*
X0187761Y0116348D01*
X0189084Y0115800D01*
X0190516Y0115800D01*
X0187216Y0116893D02*
X0165912Y0116893D01*
X0166400Y0112097D02*
X0186869Y0112097D01*
X0185270Y0110499D02*
X0166400Y0110499D01*
X0166400Y0108900D02*
X0183672Y0108900D01*
X0182073Y0107302D02*
X0166158Y0107302D01*
X0165209Y0105703D02*
X0172685Y0105703D01*
X0171327Y0104105D02*
X0166010Y0104105D01*
X0166353Y0102506D02*
X0171000Y0102506D01*
X0171404Y0100908D02*
X0166353Y0100908D01*
X0166353Y0099309D02*
X0173137Y0099309D01*
X0174882Y0097711D02*
X0166353Y0097711D01*
X0170094Y0096112D02*
X0173284Y0096112D01*
X0171685Y0094514D02*
X0171470Y0094514D01*
X0177347Y0089718D02*
X0186090Y0089718D01*
X0184600Y0088120D02*
X0175748Y0088120D01*
X0174150Y0086521D02*
X0184600Y0086521D01*
X0184600Y0084923D02*
X0172551Y0084923D01*
X0171000Y0083372D02*
X0171000Y0083372D01*
X0170952Y0083324D02*
X0184600Y0083324D01*
X0184600Y0081726D02*
X0148417Y0081726D01*
X0143183Y0081726D02*
X0127903Y0081726D01*
X0126304Y0083324D02*
X0142266Y0083324D01*
X0142203Y0084923D02*
X0124706Y0084923D01*
X0129501Y0080127D02*
X0184600Y0080127D01*
X0184600Y0078529D02*
X0131100Y0078529D01*
X0132698Y0076930D02*
X0184600Y0076930D01*
X0184600Y0075332D02*
X0134297Y0075332D01*
X0135895Y0073733D02*
X0184600Y0073733D01*
X0184600Y0072134D02*
X0137494Y0072134D01*
X0139092Y0070536D02*
X0184600Y0070536D01*
X0184600Y0068937D02*
X0140691Y0068937D01*
X0142289Y0067339D02*
X0184600Y0067339D01*
X0184600Y0065740D02*
X0143888Y0065740D01*
X0145486Y0064142D02*
X0184600Y0064142D01*
X0184600Y0062543D02*
X0147085Y0062543D01*
X0148683Y0060945D02*
X0184600Y0060945D01*
X0184600Y0059346D02*
X0150282Y0059346D01*
X0151881Y0057748D02*
X0184600Y0057748D01*
X0184600Y0056149D02*
X0162142Y0056149D01*
X0156658Y0056149D02*
X0153479Y0056149D01*
X0155078Y0054551D02*
X0155814Y0054551D01*
X0166353Y0033400D02*
X0193772Y0033400D01*
X0204616Y0022555D01*
X0204600Y0022516D01*
X0204600Y0021084D01*
X0205148Y0019761D01*
X0206161Y0018748D01*
X0207484Y0018200D01*
X0208916Y0018200D01*
X0210239Y0018748D01*
X0211252Y0019761D01*
X0211533Y0020439D01*
X0223816Y0008155D01*
X0223800Y0008116D01*
X0223800Y0006684D01*
X0224000Y0006200D01*
X0172228Y0006200D01*
X0168600Y0009828D01*
X0167428Y0011000D01*
X0165505Y0011000D01*
X0165700Y0011194D01*
X0166400Y0012885D01*
X0166400Y0020715D01*
X0165700Y0022406D01*
X0164406Y0023700D01*
X0163920Y0023901D01*
X0165415Y0023901D01*
X0166353Y0024838D01*
X0166353Y0031282D01*
X0165834Y0031800D01*
X0166353Y0032318D01*
X0166353Y0033400D01*
X0166206Y0032172D02*
X0195000Y0032172D01*
X0196598Y0030573D02*
X0166353Y0030573D01*
X0166353Y0028975D02*
X0198197Y0028975D01*
X0199795Y0027376D02*
X0166353Y0027376D01*
X0166353Y0025778D02*
X0201394Y0025778D01*
X0202992Y0024179D02*
X0165694Y0024179D01*
X0165525Y0022581D02*
X0204591Y0022581D01*
X0204642Y0020982D02*
X0166289Y0020982D01*
X0166400Y0019384D02*
X0205525Y0019384D01*
X0210875Y0019384D02*
X0212588Y0019384D01*
X0214186Y0017785D02*
X0166400Y0017785D01*
X0166400Y0016187D02*
X0215785Y0016187D01*
X0217383Y0014588D02*
X0166400Y0014588D01*
X0166400Y0012990D02*
X0218982Y0012990D01*
X0220580Y0011391D02*
X0165781Y0011391D01*
X0168636Y0009793D02*
X0222179Y0009793D01*
X0223778Y0008194D02*
X0170234Y0008194D01*
X0171833Y0006596D02*
X0223837Y0006596D01*
X0237028Y0004600D02*
X0243000Y0010572D01*
X0243000Y0011095D01*
X0244194Y0009900D01*
X0245885Y0009200D01*
X0247715Y0009200D01*
X0249406Y0009900D01*
X0250700Y0011194D01*
X0251400Y0012885D01*
X0251400Y0020715D01*
X0250700Y0022406D01*
X0249406Y0023700D01*
X0248920Y0023901D01*
X0250415Y0023901D01*
X0251353Y0024838D01*
X0251353Y0031282D01*
X0250834Y0031800D01*
X0251353Y0032318D01*
X0251353Y0034924D01*
X0252247Y0035819D01*
X0252247Y0032318D01*
X0252766Y0031800D01*
X0252247Y0031282D01*
X0252247Y0024838D01*
X0253184Y0023901D01*
X0254680Y0023901D01*
X0254194Y0023700D01*
X0252900Y0022406D01*
X0252200Y0020715D01*
X0252200Y0012885D01*
X0252900Y0011194D01*
X0254194Y0009900D01*
X0255885Y0009200D01*
X0257715Y0009200D01*
X0259406Y0009900D01*
X0260700Y0011194D01*
X0261400Y0012885D01*
X0261400Y0020715D01*
X0260700Y0022406D01*
X0259406Y0023700D01*
X0259000Y0023868D01*
X0259000Y0023901D01*
X0260415Y0023901D01*
X0261353Y0024838D01*
X0261353Y0031282D01*
X0260834Y0031800D01*
X0261353Y0032318D01*
X0261353Y0034200D01*
X0283200Y0034200D01*
X0283000Y0033716D01*
X0283000Y0032284D01*
X0283548Y0030961D01*
X0284561Y0029948D01*
X0285884Y0029400D01*
X0287316Y0029400D01*
X0288639Y0029948D01*
X0289652Y0030961D01*
X0289668Y0031000D01*
X0312228Y0031000D01*
X0313400Y0032172D01*
X0327394Y0032172D01*
X0327247Y0032318D02*
X0327766Y0031800D01*
X0327247Y0031282D01*
X0327247Y0024838D01*
X0328184Y0023901D01*
X0329680Y0023901D01*
X0329194Y0023700D01*
X0327900Y0022406D01*
X0327200Y0020715D01*
X0327200Y0012885D01*
X0327900Y0011194D01*
X0329194Y0009900D01*
X0330885Y0009200D01*
X0332715Y0009200D01*
X0334406Y0009900D01*
X0335700Y0011194D01*
X0336400Y0012885D01*
X0336400Y0020715D01*
X0335700Y0022406D01*
X0334406Y0023700D01*
X0334200Y0023785D01*
X0334200Y0023901D01*
X0335415Y0023901D01*
X0336353Y0024838D01*
X0336353Y0031282D01*
X0335834Y0031800D01*
X0336353Y0032318D01*
X0336353Y0035619D01*
X0337247Y0034724D01*
X0337247Y0032318D01*
X0337766Y0031800D01*
X0337247Y0031282D01*
X0337247Y0024838D01*
X0338184Y0023901D01*
X0339680Y0023901D01*
X0339194Y0023700D01*
X0337900Y0022406D01*
X0337200Y0020715D01*
X0337200Y0012885D01*
X0337900Y0011194D01*
X0339194Y0009900D01*
X0340885Y0009200D01*
X0342715Y0009200D01*
X0344406Y0009900D01*
X0345700Y0011194D01*
X0346400Y0012885D01*
X0346400Y0020715D01*
X0345700Y0022406D01*
X0344406Y0023700D01*
X0343920Y0023901D01*
X0345415Y0023901D01*
X0346353Y0024838D01*
X0346353Y0031282D01*
X0345834Y0031800D01*
X0346353Y0032318D01*
X0346353Y0038419D01*
X0347247Y0037524D01*
X0347247Y0032318D01*
X0347766Y0031800D01*
X0347247Y0031282D01*
X0347247Y0024838D01*
X0348184Y0023901D01*
X0349680Y0023901D01*
X0349194Y0023700D01*
X0347900Y0022406D01*
X0347200Y0020715D01*
X0347200Y0012885D01*
X0347900Y0011194D01*
X0349194Y0009900D01*
X0350885Y0009200D01*
X0352715Y0009200D01*
X0354406Y0009900D01*
X0355700Y0011194D01*
X0356400Y0012885D01*
X0356400Y0020715D01*
X0355700Y0022406D01*
X0354406Y0023700D01*
X0354200Y0023785D01*
X0354200Y0023901D01*
X0355415Y0023901D01*
X0356353Y0024838D01*
X0356353Y0031282D01*
X0355834Y0031800D01*
X0356353Y0032318D01*
X0356353Y0038762D01*
X0355415Y0039699D01*
X0350729Y0039699D01*
X0339784Y0050645D01*
X0339800Y0050684D01*
X0339800Y0052116D01*
X0339268Y0053400D01*
X0352228Y0053400D01*
X0383144Y0084315D01*
X0383992Y0083468D01*
X0388467Y0083468D01*
X0389404Y0084405D01*
X0389404Y0089667D01*
X0388467Y0090605D01*
X0385433Y0090605D01*
X0392228Y0097400D01*
X0392701Y0097872D01*
X0392701Y0004600D01*
X0237028Y0004600D01*
X0237425Y0004997D02*
X0392701Y0004997D01*
X0392701Y0006596D02*
X0239024Y0006596D01*
X0240622Y0008194D02*
X0392701Y0008194D01*
X0392701Y0009793D02*
X0354146Y0009793D01*
X0355781Y0011391D02*
X0392701Y0011391D01*
X0392701Y0012990D02*
X0356400Y0012990D01*
X0356400Y0014588D02*
X0392701Y0014588D01*
X0392701Y0016187D02*
X0356400Y0016187D01*
X0356400Y0017785D02*
X0392701Y0017785D01*
X0392701Y0019384D02*
X0356400Y0019384D01*
X0356289Y0020982D02*
X0392701Y0020982D01*
X0392701Y0022581D02*
X0355525Y0022581D01*
X0355694Y0024179D02*
X0392701Y0024179D01*
X0392701Y0025778D02*
X0356353Y0025778D01*
X0356353Y0027376D02*
X0392701Y0027376D01*
X0392701Y0028975D02*
X0356353Y0028975D01*
X0356353Y0030573D02*
X0392701Y0030573D01*
X0392701Y0032172D02*
X0356206Y0032172D01*
X0356353Y0033770D02*
X0392701Y0033770D01*
X0392701Y0035369D02*
X0356353Y0035369D01*
X0356353Y0036967D02*
X0392701Y0036967D01*
X0392701Y0038566D02*
X0356353Y0038566D01*
X0350264Y0040164D02*
X0392701Y0040164D01*
X0392701Y0041763D02*
X0348666Y0041763D01*
X0347067Y0043361D02*
X0392701Y0043361D01*
X0392701Y0044960D02*
X0345469Y0044960D01*
X0343870Y0046558D02*
X0392701Y0046558D01*
X0392701Y0048157D02*
X0342272Y0048157D01*
X0340673Y0049755D02*
X0392701Y0049755D01*
X0392701Y0051354D02*
X0339800Y0051354D01*
X0339454Y0052952D02*
X0392701Y0052952D01*
X0392701Y0054551D02*
X0353379Y0054551D01*
X0354978Y0056149D02*
X0392701Y0056149D01*
X0392701Y0057748D02*
X0356576Y0057748D01*
X0358175Y0059346D02*
X0392701Y0059346D01*
X0392701Y0060945D02*
X0359773Y0060945D01*
X0361372Y0062543D02*
X0392701Y0062543D01*
X0392701Y0064142D02*
X0362970Y0064142D01*
X0364569Y0065740D02*
X0392701Y0065740D01*
X0392701Y0067339D02*
X0366167Y0067339D01*
X0367766Y0068937D02*
X0392701Y0068937D01*
X0392701Y0070536D02*
X0369364Y0070536D01*
X0370963Y0072134D02*
X0392701Y0072134D01*
X0392701Y0073733D02*
X0372561Y0073733D01*
X0374160Y0075332D02*
X0392701Y0075332D01*
X0392701Y0076930D02*
X0375758Y0076930D01*
X0377357Y0078529D02*
X0392701Y0078529D01*
X0392701Y0080127D02*
X0378955Y0080127D01*
X0380554Y0081726D02*
X0392701Y0081726D01*
X0392701Y0083324D02*
X0382152Y0083324D01*
X0389404Y0084923D02*
X0392701Y0084923D01*
X0392701Y0086521D02*
X0389404Y0086521D01*
X0389404Y0088120D02*
X0392701Y0088120D01*
X0392701Y0089718D02*
X0389353Y0089718D01*
X0387744Y0092915D02*
X0392701Y0092915D01*
X0392701Y0091317D02*
X0386145Y0091317D01*
X0389342Y0094514D02*
X0392701Y0094514D01*
X0392701Y0096112D02*
X0390941Y0096112D01*
X0392539Y0097711D02*
X0392701Y0097711D01*
X0389400Y0100228D02*
X0386105Y0096933D01*
X0385509Y0098373D01*
X0384278Y0099603D01*
X0382670Y0100269D01*
X0380930Y0100269D01*
X0379322Y0099603D01*
X0378091Y0098373D01*
X0377425Y0096765D01*
X0377425Y0096604D01*
X0373532Y0096604D01*
X0369358Y0096604D01*
X0368900Y0096481D01*
X0368490Y0096244D01*
X0368155Y0095909D01*
X0367918Y0095499D01*
X0367795Y0095041D01*
X0367795Y0093229D01*
X0367795Y0091417D01*
X0367918Y0090960D01*
X0368155Y0090549D01*
X0368490Y0090214D01*
X0368900Y0089977D01*
X0369358Y0089854D01*
X0373532Y0089854D01*
X0373532Y0093229D01*
X0367795Y0093229D01*
X0373532Y0093229D01*
X0373532Y0093229D01*
X0373532Y0093229D01*
X0373532Y0089854D01*
X0374777Y0089854D01*
X0374196Y0089274D01*
X0374196Y0086001D01*
X0373716Y0086200D01*
X0372284Y0086200D01*
X0370961Y0085652D01*
X0369948Y0084639D01*
X0369400Y0083316D01*
X0369400Y0081884D01*
X0369416Y0081845D01*
X0355975Y0068403D01*
X0355975Y0075205D01*
X0355339Y0076740D01*
X0354165Y0077914D01*
X0352630Y0078550D01*
X0350970Y0078550D01*
X0349435Y0077914D01*
X0348975Y0077454D01*
X0344228Y0082200D01*
X0342572Y0082200D01*
X0329028Y0082200D01*
X0324228Y0087000D01*
X0356228Y0087000D01*
X0357400Y0088172D01*
X0371094Y0101865D01*
X0378132Y0101865D01*
X0379069Y0102803D01*
X0379069Y0104249D01*
X0379322Y0103997D01*
X0380930Y0103331D01*
X0382670Y0103331D01*
X0384278Y0103997D01*
X0385509Y0105227D01*
X0386175Y0106835D01*
X0386175Y0108576D01*
X0385509Y0110184D01*
X0384278Y0111414D01*
X0382670Y0112080D01*
X0380930Y0112080D01*
X0379322Y0111414D01*
X0379069Y0111162D01*
X0379069Y0113183D01*
X0378863Y0113389D01*
X0379608Y0113389D01*
X0380546Y0114326D01*
X0380546Y0119195D01*
X0379608Y0120132D01*
X0377337Y0120132D01*
X0377400Y0120284D01*
X0377400Y0121716D01*
X0376852Y0123039D01*
X0376372Y0123519D01*
X0376628Y0123775D01*
X0376628Y0129825D01*
X0375691Y0130762D01*
X0372301Y0130762D01*
X0372600Y0131484D01*
X0372600Y0132916D01*
X0372052Y0134239D01*
X0371039Y0135252D01*
X0369716Y0135800D01*
X0368284Y0135800D01*
X0366961Y0135252D01*
X0365948Y0134239D01*
X0365932Y0134200D01*
X0360228Y0134200D01*
X0345400Y0149028D01*
X0344228Y0150200D01*
X0338000Y0150200D01*
X0338200Y0150684D01*
X0338200Y0152116D01*
X0337652Y0153439D01*
X0336639Y0154452D01*
X0336600Y0154468D01*
X0336600Y0162572D01*
X0357772Y0141400D01*
X0359532Y0141400D01*
X0359548Y0141361D01*
X0360561Y0140348D01*
X0361884Y0139800D01*
X0363316Y0139800D01*
X0364639Y0140348D01*
X0365652Y0141361D01*
X0366200Y0142684D01*
X0366200Y0144116D01*
X0365652Y0145439D01*
X0364639Y0146452D01*
X0363316Y0147000D01*
X0361884Y0147000D01*
X0360561Y0146452D01*
X0359548Y0145439D01*
X0359532Y0145400D01*
X0359428Y0145400D01*
X0329384Y0175445D01*
X0329400Y0175484D01*
X0329400Y0176916D01*
X0329200Y0177400D01*
X0330628Y0177400D01*
X0331267Y0178039D01*
X0331548Y0177361D01*
X0332561Y0176348D01*
X0333884Y0175800D01*
X0335316Y0175800D01*
X0335355Y0175816D01*
X0355816Y0155355D01*
X0355800Y0155316D01*
X0355800Y0153884D01*
X0356348Y0152561D01*
X0357361Y0151548D01*
X0358684Y0151000D01*
X0360116Y0151000D01*
X0361439Y0151548D01*
X0362452Y0152561D01*
X0363000Y0153884D01*
X0363000Y0155316D01*
X0362452Y0156639D01*
X0361439Y0157652D01*
X0360116Y0158200D01*
X0358684Y0158200D01*
X0358645Y0158184D01*
X0338184Y0178645D01*
X0338200Y0178684D01*
X0338200Y0180116D01*
X0338000Y0180600D01*
X0345932Y0180600D01*
X0345948Y0180561D01*
X0346961Y0179548D01*
X0348284Y0179000D01*
X0349716Y0179000D01*
X0351039Y0179548D01*
X0352052Y0180561D01*
X0352600Y0181884D01*
X0352600Y0183316D01*
X0352052Y0184639D01*
X0351039Y0185652D01*
X0349716Y0186200D01*
X0348284Y0186200D01*
X0346961Y0185652D01*
X0345948Y0184639D01*
X0345932Y0184600D01*
X0332172Y0184600D01*
X0331000Y0183428D01*
X0328972Y0181400D01*
X0304091Y0181400D01*
X0304852Y0182161D01*
X0305400Y0183484D01*
X0305400Y0184916D01*
X0304852Y0186239D01*
X0303839Y0187252D01*
X0302516Y0187800D01*
X0301084Y0187800D01*
X0301045Y0187784D01*
X0299000Y0189828D01*
X0299000Y0212172D01*
X0307800Y0203372D01*
X0307800Y0192068D01*
X0307761Y0192052D01*
X0306748Y0191039D01*
X0306200Y0189716D01*
X0306200Y0188284D01*
X0306748Y0186961D01*
X0307761Y0185948D01*
X0309084Y0185400D01*
X0310516Y0185400D01*
X0311839Y0185948D01*
X0312852Y0186961D01*
X0313400Y0188284D01*
X0313400Y0189716D01*
X0312852Y0191039D01*
X0311839Y0192052D01*
X0311800Y0192068D01*
X0311800Y0205028D01*
X0300600Y0216228D01*
X0300600Y0234628D01*
X0299395Y0235833D01*
X0300639Y0236348D01*
X0301652Y0237361D01*
X0302200Y0238684D01*
X0302200Y0240116D01*
X0302184Y0240155D01*
X0340929Y0278901D01*
X0345400Y0278901D01*
X0345400Y0239372D01*
X0351372Y0233400D01*
X0346468Y0233400D01*
X0346452Y0233439D01*
X0345439Y0234452D01*
X0344116Y0235000D01*
X0342684Y0235000D01*
X0341361Y0234452D01*
X0340348Y0233439D01*
X0340027Y0232664D01*
X0339039Y0233652D01*
X0337716Y0234200D01*
X0337028Y0234200D01*
X0340245Y0237416D01*
X0340284Y0237400D01*
X0341716Y0237400D01*
X0343039Y0237948D01*
X0344052Y0238961D01*
X0344600Y0240284D01*
X0344600Y0241716D01*
X0344052Y0243039D01*
X0343039Y0244052D01*
X0341716Y0244600D01*
X0340284Y0244600D01*
X0338961Y0244052D01*
X0337948Y0243039D01*
X0337400Y0241716D01*
X0337400Y0240284D01*
X0337416Y0240245D01*
X0330200Y0233028D01*
X0330200Y0229699D01*
X0328184Y0229699D01*
X0327247Y0228762D01*
X0327247Y0222318D01*
X0327766Y0221800D01*
X0327247Y0221282D01*
X0327247Y0214838D01*
X0328184Y0213901D01*
X0329680Y0213901D01*
X0329194Y0213700D01*
X0327900Y0212406D01*
X0327200Y0210715D01*
X0327200Y0204828D01*
X0323784Y0208245D01*
X0323800Y0208284D01*
X0323800Y0209716D01*
X0323252Y0211039D01*
X0322239Y0212052D01*
X0320916Y0212600D01*
X0319484Y0212600D01*
X0319000Y0212400D01*
X0319000Y0216332D01*
X0319039Y0216348D01*
X0320052Y0217361D01*
X0320600Y0218684D01*
X0320600Y0220116D01*
X0320052Y0221439D01*
X0319039Y0222452D01*
X0317716Y0223000D01*
X0316284Y0223000D01*
X0314961Y0222452D01*
X0313948Y0221439D01*
X0313400Y0220116D01*
X0313400Y0218684D01*
X0313948Y0217361D01*
X0314961Y0216348D01*
X0315000Y0216332D01*
X0315000Y0195372D01*
X0319816Y0190555D01*
X0319800Y0190516D01*
X0319800Y0189084D01*
X0320348Y0187761D01*
X0321361Y0186748D01*
X0322684Y0186200D01*
X0324116Y0186200D01*
X0325439Y0186748D01*
X0326452Y0187761D01*
X0327000Y0189084D01*
X0327000Y0190516D01*
X0326452Y0191839D01*
X0325439Y0192852D01*
X0324116Y0193400D01*
X0322684Y0193400D01*
X0322645Y0193384D01*
X0319000Y0197028D01*
X0319000Y0205600D01*
X0319484Y0205400D01*
X0320916Y0205400D01*
X0320955Y0205416D01*
X0328972Y0197400D01*
X0358572Y0197400D01*
X0364600Y0191372D01*
X0364600Y0171372D01*
X0365772Y0170200D01*
X0389400Y0146572D01*
X0389400Y0119199D01*
X0388467Y0120132D01*
X0383992Y0120132D01*
X0383054Y0119195D01*
X0383054Y0113933D01*
X0383992Y0112995D01*
X0388467Y0112995D01*
X0389400Y0113929D01*
X0389400Y0100228D01*
X0389400Y0100908D02*
X0370136Y0100908D01*
X0368538Y0099309D02*
X0379028Y0099309D01*
X0377817Y0097711D02*
X0366939Y0097711D01*
X0368358Y0096112D02*
X0365341Y0096112D01*
X0363742Y0094514D02*
X0367795Y0094514D01*
X0367795Y0092915D02*
X0362144Y0092915D01*
X0360545Y0091317D02*
X0367822Y0091317D01*
X0373532Y0091317D02*
X0373532Y0091317D01*
X0373532Y0092915D02*
X0373532Y0092915D01*
X0373532Y0093229D02*
X0373532Y0096604D01*
X0373532Y0093229D01*
X0373532Y0093229D01*
X0373532Y0094514D02*
X0373532Y0094514D01*
X0373532Y0096112D02*
X0373532Y0096112D01*
X0374640Y0089718D02*
X0358947Y0089718D01*
X0357348Y0088120D02*
X0374196Y0088120D01*
X0374196Y0086521D02*
X0324707Y0086521D01*
X0326306Y0084923D02*
X0370231Y0084923D01*
X0369403Y0083324D02*
X0327904Y0083324D01*
X0322222Y0078550D02*
X0320970Y0078550D01*
X0319435Y0077914D01*
X0318261Y0076740D01*
X0317625Y0075205D01*
X0317625Y0068600D01*
X0317084Y0068600D01*
X0315848Y0068088D01*
X0315975Y0068395D01*
X0315975Y0075205D01*
X0315339Y0076740D01*
X0314165Y0077914D01*
X0312630Y0078550D01*
X0310970Y0078550D01*
X0309435Y0077914D01*
X0308261Y0076740D01*
X0307625Y0075205D01*
X0307625Y0070803D01*
X0305975Y0072454D01*
X0305975Y0075205D01*
X0305339Y0076740D01*
X0304165Y0077914D01*
X0302630Y0078550D01*
X0300970Y0078550D01*
X0299435Y0077914D01*
X0298261Y0076740D01*
X0297625Y0075205D01*
X0297625Y0068395D01*
X0298261Y0066860D01*
X0299435Y0065686D01*
X0300970Y0065050D01*
X0302200Y0065050D01*
X0302200Y0064284D01*
X0302748Y0062961D01*
X0303761Y0061948D01*
X0305084Y0061400D01*
X0306516Y0061400D01*
X0306555Y0061416D01*
X0308172Y0059800D01*
X0327532Y0059800D01*
X0327548Y0059761D01*
X0328309Y0059000D01*
X0324972Y0059000D01*
X0323800Y0057828D01*
X0318572Y0052600D01*
X0314468Y0052600D01*
X0315000Y0053884D01*
X0315000Y0055316D01*
X0314452Y0056639D01*
X0313439Y0057652D01*
X0312116Y0058200D01*
X0310684Y0058200D01*
X0309361Y0057652D01*
X0308348Y0056639D01*
X0308332Y0056600D01*
X0301691Y0056600D01*
X0302452Y0057361D01*
X0303000Y0058684D01*
X0303000Y0060116D01*
X0302452Y0061439D01*
X0301439Y0062452D01*
X0300116Y0063000D01*
X0298684Y0063000D01*
X0297361Y0062452D01*
X0296669Y0061760D01*
X0293159Y0065269D01*
X0294165Y0065686D01*
X0295339Y0066860D01*
X0295975Y0068395D01*
X0295975Y0075205D01*
X0295339Y0076740D01*
X0294165Y0077914D01*
X0292630Y0078550D01*
X0290970Y0078550D01*
X0289435Y0077914D01*
X0288261Y0076740D01*
X0287800Y0075627D01*
X0287800Y0077028D01*
X0279000Y0085828D01*
X0278628Y0086200D01*
X0297932Y0086200D01*
X0297948Y0086161D01*
X0298961Y0085148D01*
X0300284Y0084600D01*
X0301716Y0084600D01*
X0303039Y0085148D01*
X0304052Y0086161D01*
X0304333Y0086839D01*
X0304972Y0086200D01*
X0307532Y0086200D01*
X0307548Y0086161D01*
X0308561Y0085148D01*
X0309884Y0084600D01*
X0311316Y0084600D01*
X0312639Y0085148D01*
X0313652Y0086161D01*
X0313933Y0086839D01*
X0322222Y0078550D01*
X0320919Y0078529D02*
X0312681Y0078529D01*
X0310919Y0078529D02*
X0302681Y0078529D01*
X0300919Y0078529D02*
X0292681Y0078529D01*
X0290919Y0078529D02*
X0286300Y0078529D01*
X0287800Y0076930D02*
X0288451Y0076930D01*
X0284701Y0080127D02*
X0320645Y0080127D01*
X0319046Y0081726D02*
X0283103Y0081726D01*
X0281504Y0083324D02*
X0317448Y0083324D01*
X0315849Y0084923D02*
X0312095Y0084923D01*
X0313801Y0086521D02*
X0314250Y0086521D01*
X0309105Y0084923D02*
X0302495Y0084923D01*
X0304201Y0086521D02*
X0304650Y0086521D01*
X0299505Y0084923D02*
X0279906Y0084923D01*
X0295149Y0076930D02*
X0298451Y0076930D01*
X0297678Y0075332D02*
X0295922Y0075332D01*
X0295975Y0073733D02*
X0297625Y0073733D01*
X0297625Y0072134D02*
X0295975Y0072134D01*
X0295975Y0070536D02*
X0297625Y0070536D01*
X0297625Y0068937D02*
X0295975Y0068937D01*
X0295537Y0067339D02*
X0298063Y0067339D01*
X0299381Y0065740D02*
X0294219Y0065740D01*
X0294286Y0064142D02*
X0302259Y0064142D01*
X0303165Y0062543D02*
X0301218Y0062543D01*
X0302657Y0060945D02*
X0307027Y0060945D01*
X0309592Y0057748D02*
X0302612Y0057748D01*
X0303000Y0059346D02*
X0327962Y0059346D01*
X0323800Y0057828D02*
X0323800Y0057828D01*
X0323719Y0057748D02*
X0313208Y0057748D01*
X0314655Y0056149D02*
X0322121Y0056149D01*
X0320522Y0054551D02*
X0315000Y0054551D01*
X0314614Y0052952D02*
X0318924Y0052952D01*
X0332891Y0059000D02*
X0333652Y0059761D01*
X0334200Y0061084D01*
X0334200Y0062516D01*
X0333652Y0063839D01*
X0332639Y0064852D01*
X0332160Y0065050D01*
X0332630Y0065050D01*
X0334165Y0065686D01*
X0335339Y0066860D01*
X0335975Y0068395D01*
X0335975Y0075197D01*
X0337625Y0073546D01*
X0337625Y0068395D01*
X0338261Y0066860D01*
X0339435Y0065686D01*
X0340970Y0065050D01*
X0342630Y0065050D01*
X0344165Y0065686D01*
X0345339Y0066860D01*
X0345975Y0068395D01*
X0345975Y0074797D01*
X0347625Y0073146D01*
X0347625Y0068395D01*
X0348261Y0066860D01*
X0349435Y0065686D01*
X0350970Y0065050D01*
X0352622Y0065050D01*
X0346572Y0059000D01*
X0332891Y0059000D01*
X0333238Y0059346D02*
X0346918Y0059346D01*
X0348517Y0060945D02*
X0334142Y0060945D01*
X0334189Y0062543D02*
X0350115Y0062543D01*
X0351714Y0064142D02*
X0333349Y0064142D01*
X0334219Y0065740D02*
X0339381Y0065740D01*
X0338063Y0067339D02*
X0335537Y0067339D01*
X0335975Y0068937D02*
X0337625Y0068937D01*
X0337625Y0070536D02*
X0335975Y0070536D01*
X0335975Y0072134D02*
X0337625Y0072134D01*
X0337439Y0073733D02*
X0335975Y0073733D01*
X0345975Y0073733D02*
X0347039Y0073733D01*
X0347625Y0072134D02*
X0345975Y0072134D01*
X0345975Y0070536D02*
X0347625Y0070536D01*
X0347625Y0068937D02*
X0345975Y0068937D01*
X0345537Y0067339D02*
X0348063Y0067339D01*
X0349381Y0065740D02*
X0344219Y0065740D01*
X0355975Y0068937D02*
X0356509Y0068937D01*
X0355975Y0070536D02*
X0358108Y0070536D01*
X0359706Y0072134D02*
X0355975Y0072134D01*
X0355975Y0073733D02*
X0361305Y0073733D01*
X0362903Y0075332D02*
X0355922Y0075332D01*
X0355149Y0076930D02*
X0364502Y0076930D01*
X0366100Y0078529D02*
X0352681Y0078529D01*
X0350919Y0078529D02*
X0347900Y0078529D01*
X0346301Y0080127D02*
X0367699Y0080127D01*
X0369297Y0081726D02*
X0344703Y0081726D01*
X0327247Y0095000D02*
X0325668Y0095000D01*
X0325652Y0095039D01*
X0324639Y0096052D01*
X0323316Y0096600D01*
X0321884Y0096600D01*
X0320561Y0096052D01*
X0319548Y0095039D01*
X0319267Y0094361D01*
X0301400Y0112228D01*
X0301028Y0112600D01*
X0304172Y0112600D01*
X0305828Y0112600D01*
X0319175Y0125946D01*
X0319435Y0125686D01*
X0320970Y0125050D01*
X0322630Y0125050D01*
X0323800Y0125535D01*
X0323800Y0113668D01*
X0323761Y0113652D01*
X0322748Y0112639D01*
X0322200Y0111316D01*
X0322200Y0109884D01*
X0322748Y0108561D01*
X0323761Y0107548D01*
X0325084Y0107000D01*
X0326516Y0107000D01*
X0327413Y0107371D01*
X0327900Y0106194D01*
X0329194Y0104900D01*
X0329680Y0104699D01*
X0328184Y0104699D01*
X0327247Y0103762D01*
X0327247Y0097318D01*
X0327766Y0096800D01*
X0327247Y0096282D01*
X0327247Y0095000D01*
X0327247Y0096112D02*
X0324494Y0096112D01*
X0327247Y0097711D02*
X0315918Y0097711D01*
X0314319Y0099309D02*
X0327247Y0099309D01*
X0327247Y0100908D02*
X0312721Y0100908D01*
X0311122Y0102506D02*
X0327247Y0102506D01*
X0327590Y0104105D02*
X0309524Y0104105D01*
X0307925Y0105703D02*
X0328391Y0105703D01*
X0327442Y0107302D02*
X0327245Y0107302D01*
X0324355Y0107302D02*
X0306327Y0107302D01*
X0304728Y0108900D02*
X0322607Y0108900D01*
X0322200Y0110499D02*
X0303130Y0110499D01*
X0301531Y0112097D02*
X0322524Y0112097D01*
X0323800Y0113696D02*
X0306924Y0113696D01*
X0308523Y0115294D02*
X0323800Y0115294D01*
X0323800Y0116893D02*
X0310121Y0116893D01*
X0311720Y0118491D02*
X0323800Y0118491D01*
X0323800Y0120090D02*
X0313318Y0120090D01*
X0314917Y0121688D02*
X0323800Y0121688D01*
X0323800Y0123287D02*
X0316515Y0123287D01*
X0318114Y0124885D02*
X0323800Y0124885D01*
X0348762Y0145666D02*
X0353506Y0145666D01*
X0355104Y0144068D02*
X0350361Y0144068D01*
X0351959Y0142469D02*
X0356703Y0142469D01*
X0353558Y0140870D02*
X0360038Y0140870D01*
X0356755Y0137673D02*
X0389400Y0137673D01*
X0389400Y0136075D02*
X0358353Y0136075D01*
X0359952Y0134476D02*
X0366185Y0134476D01*
X0371815Y0134476D02*
X0389400Y0134476D01*
X0389400Y0132878D02*
X0372600Y0132878D01*
X0372515Y0131279D02*
X0389400Y0131279D01*
X0389400Y0129681D02*
X0385021Y0129681D01*
X0384973Y0129857D02*
X0384736Y0130267D01*
X0384401Y0130603D01*
X0383991Y0130840D01*
X0383533Y0130962D01*
X0381315Y0130962D01*
X0381315Y0127181D01*
X0385096Y0127181D01*
X0385096Y0129399D01*
X0384973Y0129857D01*
X0385096Y0128082D02*
X0389400Y0128082D01*
X0389400Y0126484D02*
X0381315Y0126484D01*
X0381315Y0126419D02*
X0381315Y0127181D01*
X0380553Y0127181D01*
X0380553Y0130962D01*
X0378335Y0130962D01*
X0377877Y0130840D01*
X0377466Y0130603D01*
X0377131Y0130267D01*
X0376894Y0129857D01*
X0376772Y0129399D01*
X0376772Y0127181D01*
X0380553Y0127181D01*
X0380553Y0126419D01*
X0381315Y0126419D01*
X0385096Y0126419D01*
X0385096Y0124201D01*
X0384973Y0123743D01*
X0384736Y0123333D01*
X0384401Y0122997D01*
X0383991Y0122760D01*
X0383533Y0122638D01*
X0381315Y0122638D01*
X0381315Y0126419D01*
X0380553Y0126419D02*
X0380553Y0122638D01*
X0378335Y0122638D01*
X0377877Y0122760D01*
X0377466Y0122997D01*
X0377131Y0123333D01*
X0376894Y0123743D01*
X0376772Y0124201D01*
X0376772Y0126419D01*
X0380553Y0126419D01*
X0380553Y0126484D02*
X0376628Y0126484D01*
X0376628Y0128082D02*
X0376772Y0128082D01*
X0376847Y0129681D02*
X0376628Y0129681D01*
X0380553Y0129681D02*
X0381315Y0129681D01*
X0381315Y0128082D02*
X0380553Y0128082D01*
X0380553Y0124885D02*
X0381315Y0124885D01*
X0381315Y0123287D02*
X0380553Y0123287D01*
X0379651Y0120090D02*
X0383949Y0120090D01*
X0383054Y0118491D02*
X0380546Y0118491D01*
X0380546Y0116893D02*
X0383054Y0116893D01*
X0383054Y0115294D02*
X0380546Y0115294D01*
X0379915Y0113696D02*
X0383291Y0113696D01*
X0385194Y0110499D02*
X0389400Y0110499D01*
X0389400Y0112097D02*
X0379069Y0112097D01*
X0386040Y0108900D02*
X0389400Y0108900D01*
X0389400Y0107302D02*
X0386175Y0107302D01*
X0385706Y0105703D02*
X0389400Y0105703D01*
X0389400Y0104105D02*
X0384386Y0104105D01*
X0384572Y0099309D02*
X0388481Y0099309D01*
X0386882Y0097711D02*
X0385783Y0097711D01*
X0389400Y0102506D02*
X0378773Y0102506D01*
X0379069Y0104105D02*
X0379214Y0104105D01*
X0389167Y0113696D02*
X0389400Y0113696D01*
X0389400Y0120090D02*
X0388509Y0120090D01*
X0389400Y0121688D02*
X0377400Y0121688D01*
X0377177Y0123287D02*
X0376604Y0123287D01*
X0376628Y0124885D02*
X0376772Y0124885D01*
X0384691Y0123287D02*
X0389400Y0123287D01*
X0389400Y0124885D02*
X0385096Y0124885D01*
X0389400Y0139272D02*
X0355156Y0139272D01*
X0359162Y0145666D02*
X0359775Y0145666D01*
X0357564Y0147265D02*
X0388707Y0147265D01*
X0389400Y0145666D02*
X0365425Y0145666D01*
X0366200Y0144068D02*
X0389400Y0144068D01*
X0389400Y0142469D02*
X0366111Y0142469D01*
X0365162Y0140870D02*
X0389400Y0140870D01*
X0387109Y0148863D02*
X0355965Y0148863D01*
X0354367Y0150462D02*
X0385510Y0150462D01*
X0383912Y0152060D02*
X0361951Y0152060D01*
X0362907Y0153659D02*
X0382313Y0153659D01*
X0380714Y0155257D02*
X0363000Y0155257D01*
X0362236Y0156856D02*
X0379116Y0156856D01*
X0377517Y0158454D02*
X0358374Y0158454D01*
X0356776Y0160053D02*
X0375919Y0160053D01*
X0374320Y0161651D02*
X0355177Y0161651D01*
X0353579Y0163250D02*
X0372722Y0163250D01*
X0371123Y0164848D02*
X0351980Y0164848D01*
X0350382Y0166447D02*
X0369525Y0166447D01*
X0367926Y0168045D02*
X0348783Y0168045D01*
X0347185Y0169644D02*
X0366328Y0169644D01*
X0364729Y0171242D02*
X0345586Y0171242D01*
X0343988Y0172841D02*
X0364600Y0172841D01*
X0364600Y0174439D02*
X0342389Y0174439D01*
X0340791Y0176038D02*
X0364600Y0176038D01*
X0364600Y0177636D02*
X0339192Y0177636D01*
X0338200Y0179235D02*
X0347717Y0179235D01*
X0350283Y0179235D02*
X0364600Y0179235D01*
X0364600Y0180833D02*
X0352165Y0180833D01*
X0352600Y0182432D02*
X0364600Y0182432D01*
X0364600Y0184030D02*
X0352304Y0184030D01*
X0351062Y0185629D02*
X0364600Y0185629D01*
X0364600Y0187227D02*
X0325918Y0187227D01*
X0326893Y0188826D02*
X0364600Y0188826D01*
X0364600Y0190424D02*
X0327000Y0190424D01*
X0326268Y0192023D02*
X0363949Y0192023D01*
X0362350Y0193621D02*
X0322407Y0193621D01*
X0320809Y0195220D02*
X0360752Y0195220D01*
X0359153Y0196818D02*
X0319210Y0196818D01*
X0319000Y0198417D02*
X0327955Y0198417D01*
X0326356Y0200015D02*
X0319000Y0200015D01*
X0319000Y0201614D02*
X0324758Y0201614D01*
X0323159Y0203212D02*
X0319000Y0203212D01*
X0319000Y0204811D02*
X0321561Y0204811D01*
X0324020Y0208008D02*
X0327200Y0208008D01*
X0327200Y0209606D02*
X0323800Y0209606D01*
X0323086Y0211205D02*
X0327403Y0211205D01*
X0328298Y0212803D02*
X0319000Y0212803D01*
X0319000Y0214402D02*
X0327683Y0214402D01*
X0327247Y0216001D02*
X0319000Y0216001D01*
X0320151Y0217599D02*
X0327247Y0217599D01*
X0327247Y0219198D02*
X0320600Y0219198D01*
X0320318Y0220796D02*
X0327247Y0220796D01*
X0327247Y0222395D02*
X0319097Y0222395D01*
X0314903Y0222395D02*
X0300600Y0222395D01*
X0300600Y0223993D02*
X0327247Y0223993D01*
X0327247Y0225592D02*
X0300600Y0225592D01*
X0300600Y0227190D02*
X0327247Y0227190D01*
X0327274Y0228789D02*
X0300600Y0228789D01*
X0300600Y0230387D02*
X0330200Y0230387D01*
X0330200Y0231986D02*
X0300600Y0231986D01*
X0300600Y0233584D02*
X0330756Y0233584D01*
X0332354Y0235183D02*
X0300046Y0235183D01*
X0301072Y0236781D02*
X0333953Y0236781D01*
X0335551Y0238380D02*
X0302074Y0238380D01*
X0302200Y0239978D02*
X0337150Y0239978D01*
X0337400Y0241577D02*
X0303605Y0241577D01*
X0305204Y0243175D02*
X0338084Y0243175D01*
X0343916Y0243175D02*
X0345400Y0243175D01*
X0345400Y0241577D02*
X0344600Y0241577D01*
X0344473Y0239978D02*
X0345400Y0239978D01*
X0346392Y0238380D02*
X0343471Y0238380D01*
X0339610Y0236781D02*
X0347990Y0236781D01*
X0349589Y0235183D02*
X0338011Y0235183D01*
X0339107Y0233584D02*
X0340493Y0233584D01*
X0346307Y0233584D02*
X0351187Y0233584D01*
X0354449Y0238380D02*
X0390200Y0238380D01*
X0390200Y0239978D02*
X0354200Y0239978D01*
X0354200Y0238628D02*
X0354200Y0278901D01*
X0355415Y0278901D01*
X0356353Y0279838D01*
X0356353Y0286282D01*
X0355834Y0286800D01*
X0356353Y0287318D01*
X0356353Y0293762D01*
X0355415Y0294699D01*
X0354200Y0294699D01*
X0354200Y0294815D01*
X0354406Y0294900D01*
X0355700Y0296194D01*
X0356400Y0297885D01*
X0356400Y0303572D01*
X0390200Y0269772D01*
X0390200Y0202628D01*
X0389828Y0203000D01*
X0354200Y0238628D01*
X0356047Y0236781D02*
X0390200Y0236781D01*
X0390200Y0235183D02*
X0357646Y0235183D01*
X0359244Y0233584D02*
X0390200Y0233584D01*
X0390200Y0231986D02*
X0360843Y0231986D01*
X0362441Y0230387D02*
X0390200Y0230387D01*
X0390200Y0228789D02*
X0364040Y0228789D01*
X0365638Y0227190D02*
X0390200Y0227190D01*
X0390200Y0225592D02*
X0367237Y0225592D01*
X0368835Y0223993D02*
X0390200Y0223993D01*
X0390200Y0222395D02*
X0370434Y0222395D01*
X0372032Y0220796D02*
X0390200Y0220796D01*
X0390200Y0219198D02*
X0373631Y0219198D01*
X0375229Y0217599D02*
X0390200Y0217599D01*
X0390200Y0216001D02*
X0376828Y0216001D01*
X0378426Y0214402D02*
X0390200Y0214402D01*
X0390200Y0212803D02*
X0380025Y0212803D01*
X0381623Y0211205D02*
X0390200Y0211205D01*
X0390200Y0209606D02*
X0383222Y0209606D01*
X0384820Y0208008D02*
X0390200Y0208008D01*
X0390200Y0206409D02*
X0386419Y0206409D01*
X0388017Y0204811D02*
X0390200Y0204811D01*
X0390200Y0203212D02*
X0389616Y0203212D01*
X0346938Y0185629D02*
X0311068Y0185629D01*
X0312962Y0187227D02*
X0320882Y0187227D01*
X0319907Y0188826D02*
X0313400Y0188826D01*
X0313107Y0190424D02*
X0319800Y0190424D01*
X0318349Y0192023D02*
X0311868Y0192023D01*
X0311800Y0193621D02*
X0316750Y0193621D01*
X0315152Y0195220D02*
X0311800Y0195220D01*
X0311800Y0196818D02*
X0315000Y0196818D01*
X0315000Y0198417D02*
X0311800Y0198417D01*
X0311800Y0200015D02*
X0315000Y0200015D01*
X0315000Y0201614D02*
X0311800Y0201614D01*
X0311800Y0203212D02*
X0315000Y0203212D01*
X0315000Y0204811D02*
X0311800Y0204811D01*
X0310419Y0206409D02*
X0315000Y0206409D01*
X0315000Y0208008D02*
X0308820Y0208008D01*
X0307222Y0209606D02*
X0315000Y0209606D01*
X0315000Y0211205D02*
X0305623Y0211205D01*
X0304025Y0212803D02*
X0315000Y0212803D01*
X0315000Y0214402D02*
X0302426Y0214402D01*
X0300828Y0216001D02*
X0315000Y0216001D01*
X0313849Y0217599D02*
X0300600Y0217599D01*
X0300600Y0219198D02*
X0313400Y0219198D01*
X0313682Y0220796D02*
X0300600Y0220796D01*
X0299967Y0211205D02*
X0299000Y0211205D01*
X0299000Y0209606D02*
X0301565Y0209606D01*
X0303164Y0208008D02*
X0299000Y0208008D01*
X0299000Y0206409D02*
X0304762Y0206409D01*
X0306361Y0204811D02*
X0299000Y0204811D01*
X0299000Y0203212D02*
X0307800Y0203212D01*
X0307800Y0201614D02*
X0299000Y0201614D01*
X0299000Y0200015D02*
X0307800Y0200015D01*
X0307800Y0198417D02*
X0299000Y0198417D01*
X0299000Y0196818D02*
X0307800Y0196818D01*
X0307800Y0195220D02*
X0299000Y0195220D01*
X0299000Y0193621D02*
X0307800Y0193621D01*
X0307732Y0192023D02*
X0299000Y0192023D01*
X0299000Y0190424D02*
X0306493Y0190424D01*
X0306200Y0188826D02*
X0300003Y0188826D01*
X0303864Y0187227D02*
X0306638Y0187227D01*
X0305105Y0185629D02*
X0308532Y0185629D01*
X0305400Y0184030D02*
X0331602Y0184030D01*
X0330003Y0182432D02*
X0304964Y0182432D01*
X0298572Y0177400D02*
X0322400Y0177400D01*
X0322200Y0176916D01*
X0322200Y0175484D01*
X0322400Y0175000D01*
X0294628Y0175000D01*
X0293400Y0176228D01*
X0292228Y0177400D01*
X0280172Y0177400D01*
X0275000Y0172228D01*
X0275000Y0198572D01*
X0285667Y0209239D01*
X0285948Y0208561D01*
X0286961Y0207548D01*
X0288284Y0207000D01*
X0288600Y0207000D01*
X0288600Y0187600D01*
X0287761Y0187252D01*
X0286748Y0186239D01*
X0286200Y0184916D01*
X0286200Y0183484D01*
X0286748Y0182161D01*
X0287761Y0181148D01*
X0289084Y0180600D01*
X0290516Y0180600D01*
X0291839Y0181148D01*
X0292852Y0182161D01*
X0292868Y0182200D01*
X0293772Y0182200D01*
X0297400Y0178572D01*
X0298572Y0177400D01*
X0298335Y0177636D02*
X0275000Y0177636D01*
X0275000Y0176038D02*
X0278809Y0176038D01*
X0277211Y0174439D02*
X0275000Y0174439D01*
X0275000Y0172841D02*
X0275612Y0172841D01*
X0275000Y0179235D02*
X0296737Y0179235D01*
X0295138Y0180833D02*
X0291079Y0180833D01*
X0288521Y0180833D02*
X0275000Y0180833D01*
X0275000Y0182432D02*
X0286636Y0182432D01*
X0286200Y0184030D02*
X0275000Y0184030D01*
X0275000Y0185629D02*
X0286495Y0185629D01*
X0287736Y0187227D02*
X0275000Y0187227D01*
X0275000Y0188826D02*
X0288600Y0188826D01*
X0288600Y0190424D02*
X0275000Y0190424D01*
X0275000Y0192023D02*
X0288600Y0192023D01*
X0288600Y0193621D02*
X0275000Y0193621D01*
X0275000Y0195220D02*
X0288600Y0195220D01*
X0288600Y0196818D02*
X0275000Y0196818D01*
X0275000Y0198417D02*
X0288600Y0198417D01*
X0288600Y0200015D02*
X0276444Y0200015D01*
X0278042Y0201614D02*
X0288600Y0201614D01*
X0288600Y0203212D02*
X0279641Y0203212D01*
X0281239Y0204811D02*
X0288600Y0204811D01*
X0288600Y0206409D02*
X0282838Y0206409D01*
X0284436Y0208008D02*
X0286501Y0208008D01*
X0276372Y0216001D02*
X0275800Y0216001D01*
X0275800Y0215428D02*
X0275800Y0228228D01*
X0274628Y0229400D01*
X0263784Y0240245D01*
X0263800Y0240284D01*
X0263800Y0241716D01*
X0263252Y0243039D01*
X0262239Y0244052D01*
X0260916Y0244600D01*
X0259484Y0244600D01*
X0258161Y0244052D01*
X0257148Y0243039D01*
X0256600Y0241716D01*
X0256600Y0240284D01*
X0257148Y0238961D01*
X0258161Y0237948D01*
X0259484Y0237400D01*
X0260916Y0237400D01*
X0260955Y0237416D01*
X0269239Y0229133D01*
X0268561Y0228852D01*
X0267548Y0227839D01*
X0267532Y0227800D01*
X0261353Y0227800D01*
X0261353Y0228762D01*
X0260415Y0229699D01*
X0253184Y0229699D01*
X0252247Y0228762D01*
X0252247Y0222981D01*
X0252228Y0223000D01*
X0251353Y0223876D01*
X0251353Y0228762D01*
X0250415Y0229699D01*
X0244600Y0229699D01*
X0244600Y0235428D01*
X0243428Y0236600D01*
X0234960Y0245069D01*
X0235252Y0245361D01*
X0235800Y0246684D01*
X0235800Y0248116D01*
X0235252Y0249439D01*
X0234239Y0250452D01*
X0232916Y0251000D01*
X0231484Y0251000D01*
X0230161Y0250452D01*
X0229148Y0249439D01*
X0228867Y0248761D01*
X0227784Y0249845D01*
X0227800Y0249884D01*
X0227800Y0251316D01*
X0227600Y0251800D01*
X0264972Y0251800D01*
X0283639Y0233133D01*
X0282961Y0232852D01*
X0281948Y0231839D01*
X0281400Y0230516D01*
X0281400Y0229084D01*
X0281948Y0227761D01*
X0282961Y0226748D01*
X0283000Y0226732D01*
X0283000Y0225200D01*
X0282516Y0225400D01*
X0281084Y0225400D01*
X0279761Y0224852D01*
X0278748Y0223839D01*
X0278200Y0222516D01*
X0278200Y0221084D01*
X0278748Y0219761D01*
X0279440Y0219069D01*
X0275800Y0215428D01*
X0275800Y0217599D02*
X0277971Y0217599D01*
X0279311Y0219198D02*
X0275800Y0219198D01*
X0275800Y0220796D02*
X0278319Y0220796D01*
X0278200Y0222395D02*
X0275800Y0222395D01*
X0275800Y0223993D02*
X0278902Y0223993D01*
X0275800Y0225592D02*
X0283000Y0225592D01*
X0282519Y0227190D02*
X0275800Y0227190D01*
X0275240Y0228789D02*
X0281522Y0228789D01*
X0281400Y0230387D02*
X0273641Y0230387D01*
X0272043Y0231986D02*
X0282094Y0231986D01*
X0283187Y0233584D02*
X0270444Y0233584D01*
X0268846Y0235183D02*
X0281589Y0235183D01*
X0279990Y0236781D02*
X0267247Y0236781D01*
X0265649Y0238380D02*
X0278392Y0238380D01*
X0276793Y0239978D02*
X0264050Y0239978D01*
X0263800Y0241577D02*
X0275195Y0241577D01*
X0273596Y0243175D02*
X0263116Y0243175D01*
X0268801Y0247971D02*
X0235800Y0247971D01*
X0235671Y0246372D02*
X0270399Y0246372D01*
X0271998Y0244774D02*
X0235255Y0244774D01*
X0236853Y0243175D02*
X0257284Y0243175D01*
X0256600Y0241577D02*
X0238452Y0241577D01*
X0240050Y0239978D02*
X0256727Y0239978D01*
X0257729Y0238380D02*
X0241649Y0238380D01*
X0243247Y0236781D02*
X0261590Y0236781D01*
X0263189Y0235183D02*
X0244600Y0235183D01*
X0244600Y0233584D02*
X0264787Y0233584D01*
X0266386Y0231986D02*
X0244600Y0231986D01*
X0244600Y0230387D02*
X0267984Y0230387D01*
X0268497Y0228789D02*
X0261326Y0228789D01*
X0252274Y0228789D02*
X0251326Y0228789D01*
X0251353Y0227190D02*
X0252247Y0227190D01*
X0252247Y0225592D02*
X0251353Y0225592D01*
X0251353Y0223993D02*
X0252247Y0223993D01*
X0234200Y0229699D02*
X0233184Y0229699D01*
X0232247Y0228762D01*
X0232247Y0222318D01*
X0232766Y0221800D01*
X0232247Y0221282D01*
X0232247Y0214838D01*
X0233184Y0213901D01*
X0234680Y0213901D01*
X0234194Y0213700D01*
X0232900Y0212406D01*
X0232200Y0210715D01*
X0232200Y0205428D01*
X0224600Y0213028D01*
X0224600Y0236332D01*
X0224639Y0236348D01*
X0225652Y0237361D01*
X0226200Y0238684D01*
X0226200Y0240116D01*
X0225652Y0241439D01*
X0224639Y0242452D01*
X0223316Y0243000D01*
X0221884Y0243000D01*
X0220561Y0242452D01*
X0220200Y0242091D01*
X0219839Y0242452D01*
X0218516Y0243000D01*
X0217084Y0243000D01*
X0216600Y0242800D01*
X0216600Y0246628D01*
X0215428Y0247800D01*
X0214500Y0248728D01*
X0214500Y0251263D01*
X0213963Y0251800D01*
X0220800Y0251800D01*
X0220600Y0251316D01*
X0220600Y0249884D01*
X0221148Y0248561D01*
X0222161Y0247548D01*
X0223484Y0247000D01*
X0224916Y0247000D01*
X0224955Y0247016D01*
X0234200Y0237772D01*
X0234200Y0229699D01*
X0234200Y0230387D02*
X0224600Y0230387D01*
X0224600Y0228789D02*
X0232274Y0228789D01*
X0232247Y0227190D02*
X0224600Y0227190D01*
X0224600Y0225592D02*
X0232247Y0225592D01*
X0232247Y0223993D02*
X0224600Y0223993D01*
X0224600Y0222395D02*
X0232247Y0222395D01*
X0232247Y0220796D02*
X0224600Y0220796D01*
X0224600Y0219198D02*
X0232247Y0219198D01*
X0232247Y0217599D02*
X0224600Y0217599D01*
X0224600Y0216001D02*
X0232247Y0216001D01*
X0232683Y0214402D02*
X0224600Y0214402D01*
X0224825Y0212803D02*
X0233298Y0212803D01*
X0232403Y0211205D02*
X0226423Y0211205D01*
X0228022Y0209606D02*
X0232200Y0209606D01*
X0232200Y0208008D02*
X0229620Y0208008D01*
X0231219Y0206409D02*
X0232200Y0206409D01*
X0218349Y0192023D02*
X0207000Y0192023D01*
X0207000Y0192228D02*
X0206184Y0193045D01*
X0206200Y0193084D01*
X0206200Y0194516D01*
X0206184Y0194555D01*
X0213400Y0201772D01*
X0213400Y0206709D01*
X0214161Y0205948D01*
X0214200Y0205932D01*
X0214200Y0196172D01*
X0225400Y0184972D01*
X0225400Y0182572D01*
X0239800Y0168172D01*
X0239800Y0160068D01*
X0239761Y0160052D01*
X0238748Y0159039D01*
X0238200Y0157716D01*
X0238200Y0156284D01*
X0238748Y0154961D01*
X0239761Y0153948D01*
X0241084Y0153400D01*
X0242516Y0153400D01*
X0243000Y0153600D01*
X0243000Y0151000D01*
X0240228Y0151000D01*
X0230200Y0161028D01*
X0229028Y0162200D01*
X0227268Y0162200D01*
X0227252Y0162239D01*
X0226239Y0163252D01*
X0224916Y0163800D01*
X0223484Y0163800D01*
X0222161Y0163252D01*
X0221148Y0162239D01*
X0220633Y0160995D01*
X0205795Y0175833D01*
X0207039Y0176348D01*
X0208052Y0177361D01*
X0208600Y0178684D01*
X0208600Y0180116D01*
X0208052Y0181439D01*
X0207039Y0182452D01*
X0207000Y0182468D01*
X0207000Y0192228D01*
X0206200Y0193621D02*
X0216750Y0193621D01*
X0215152Y0195220D02*
X0206848Y0195220D01*
X0208447Y0196818D02*
X0214200Y0196818D01*
X0214200Y0198417D02*
X0210045Y0198417D01*
X0211644Y0200015D02*
X0214200Y0200015D01*
X0214200Y0201614D02*
X0213242Y0201614D01*
X0213400Y0203212D02*
X0214200Y0203212D01*
X0214200Y0204811D02*
X0213400Y0204811D01*
X0213400Y0206409D02*
X0213699Y0206409D01*
X0206200Y0206409D02*
X0195800Y0206409D01*
X0195800Y0207372D02*
X0204600Y0216172D01*
X0204600Y0216332D01*
X0204639Y0216348D01*
X0205652Y0217361D01*
X0206200Y0218684D01*
X0206200Y0220116D01*
X0205652Y0221439D01*
X0204639Y0222452D01*
X0203316Y0223000D01*
X0201884Y0223000D01*
X0200561Y0222452D01*
X0199548Y0221439D01*
X0199000Y0220116D01*
X0199000Y0218684D01*
X0199548Y0217361D01*
X0199840Y0217069D01*
X0192972Y0210200D01*
X0191800Y0209028D01*
X0191800Y0182468D01*
X0191761Y0182452D01*
X0190748Y0181439D01*
X0190200Y0180116D01*
X0190200Y0178684D01*
X0190400Y0178200D01*
X0162572Y0178200D01*
X0161400Y0177028D01*
X0160972Y0176600D01*
X0157668Y0176600D01*
X0157652Y0176639D01*
X0156639Y0177652D01*
X0155316Y0178200D01*
X0154628Y0178200D01*
X0169028Y0192600D01*
X0171532Y0192600D01*
X0171000Y0191316D01*
X0171000Y0189884D01*
X0171548Y0188561D01*
X0172561Y0187548D01*
X0173884Y0187000D01*
X0172561Y0186452D01*
X0171548Y0185439D01*
X0171000Y0184116D01*
X0171000Y0182684D01*
X0171548Y0181361D01*
X0172561Y0180348D01*
X0173884Y0179800D01*
X0175316Y0179800D01*
X0176639Y0180348D01*
X0177652Y0181361D01*
X0178200Y0182684D01*
X0178200Y0184116D01*
X0178184Y0184155D01*
X0178645Y0184616D01*
X0178684Y0184600D01*
X0180116Y0184600D01*
X0181439Y0185148D01*
X0182452Y0186161D01*
X0183000Y0187484D01*
X0183000Y0188916D01*
X0182800Y0189400D01*
X0189028Y0189400D01*
X0190628Y0191000D01*
X0191800Y0192172D01*
X0191800Y0237132D01*
X0191839Y0237148D01*
X0192852Y0238161D01*
X0193400Y0239484D01*
X0193400Y0240916D01*
X0192852Y0242239D01*
X0191839Y0243252D01*
X0190516Y0243800D01*
X0190300Y0243800D01*
X0190300Y0245072D01*
X0197400Y0252172D01*
X0197400Y0261028D01*
X0196228Y0262200D01*
X0195800Y0262628D01*
X0195800Y0282247D01*
X0196282Y0282247D01*
X0196659Y0282624D01*
X0196876Y0282407D01*
X0197286Y0282170D01*
X0197744Y0282047D01*
X0200061Y0282047D01*
X0200061Y0286320D01*
X0201020Y0286320D01*
X0201020Y0282047D01*
X0203336Y0282047D01*
X0203794Y0282170D01*
X0204204Y0282407D01*
X0204540Y0282742D01*
X0204777Y0283152D01*
X0204899Y0283610D01*
X0204899Y0286320D01*
X0201020Y0286320D01*
X0201020Y0287280D01*
X0204899Y0287280D01*
X0204899Y0287872D01*
X0210372Y0282400D01*
X0208900Y0282400D01*
X0208900Y0279300D01*
X0208900Y0279300D01*
X0208900Y0279300D01*
X0203100Y0279300D01*
X0203100Y0280837D01*
X0203223Y0281295D01*
X0203460Y0281705D01*
X0203795Y0282040D01*
X0204205Y0282277D01*
X0204663Y0282400D01*
X0208900Y0282400D01*
X0208900Y0279300D01*
X0203100Y0279300D01*
X0203100Y0277763D01*
X0203223Y0277305D01*
X0203460Y0276895D01*
X0203696Y0276659D01*
X0203300Y0276263D01*
X0203300Y0272337D01*
X0203837Y0271800D01*
X0203300Y0271263D01*
X0203300Y0267337D01*
X0203696Y0266941D01*
X0203460Y0266705D01*
X0203223Y0266295D01*
X0203100Y0265837D01*
X0203100Y0264300D01*
X0208900Y0264300D01*
X0214700Y0264300D01*
X0214700Y0265837D01*
X0214577Y0266295D01*
X0214340Y0266705D01*
X0214104Y0266941D01*
X0214500Y0267337D01*
X0214500Y0270072D01*
X0216600Y0272172D01*
X0216600Y0281828D01*
X0215428Y0283000D01*
X0205028Y0293400D01*
X0196972Y0293400D01*
X0195800Y0292228D01*
X0194924Y0291353D01*
X0192581Y0291353D01*
X0208228Y0307000D01*
X0232732Y0307000D01*
X0232200Y0305715D01*
X0232200Y0297885D01*
X0232900Y0296194D01*
X0234194Y0294900D01*
X0234680Y0294699D01*
X0233184Y0294699D01*
X0232247Y0293762D01*
X0232247Y0292168D01*
X0232052Y0292639D01*
X0231039Y0293652D01*
X0229716Y0294200D01*
X0228284Y0294200D01*
X0226961Y0293652D01*
X0225948Y0292639D01*
X0225400Y0291316D01*
X0225400Y0289884D01*
X0225948Y0288561D01*
X0226961Y0287548D01*
X0228284Y0287000D01*
X0229716Y0287000D01*
X0229755Y0287016D01*
X0232247Y0284524D01*
X0232247Y0279838D01*
X0233184Y0278901D01*
X0240415Y0278901D01*
X0241353Y0279838D01*
X0241353Y0286282D01*
X0240834Y0286800D01*
X0241353Y0287318D01*
X0241353Y0293762D01*
X0240415Y0294699D01*
X0239000Y0294699D01*
X0239000Y0294732D01*
X0239406Y0294900D01*
X0240700Y0296194D01*
X0241400Y0297885D01*
X0241400Y0305715D01*
X0240868Y0307000D01*
X0242732Y0307000D01*
X0242200Y0305715D01*
X0242200Y0297885D01*
X0242900Y0296194D01*
X0244194Y0294900D01*
X0244600Y0294732D01*
X0244600Y0294699D01*
X0243184Y0294699D01*
X0242247Y0293762D01*
X0242247Y0287318D01*
X0242766Y0286800D01*
X0242247Y0286282D01*
X0242247Y0279838D01*
X0243184Y0278901D01*
X0245400Y0278901D01*
X0245400Y0276172D01*
X0265772Y0255800D01*
X0214500Y0255800D01*
X0214500Y0256263D01*
X0214104Y0256659D01*
X0214340Y0256895D01*
X0214577Y0257305D01*
X0214700Y0257763D01*
X0214700Y0259300D01*
X0214700Y0260837D01*
X0214577Y0261295D01*
X0214340Y0261705D01*
X0214246Y0261800D01*
X0214340Y0261895D01*
X0214577Y0262305D01*
X0214700Y0262763D01*
X0214700Y0264300D01*
X0208900Y0264300D01*
X0208900Y0264300D01*
X0208900Y0261200D01*
X0208900Y0259300D01*
X0208900Y0259300D01*
X0214700Y0259300D01*
X0208900Y0259300D01*
X0208900Y0259300D01*
X0208900Y0264300D01*
X0208900Y0264300D01*
X0208900Y0264300D01*
X0203100Y0264300D01*
X0203100Y0262763D01*
X0203223Y0262305D01*
X0203460Y0261895D01*
X0203554Y0261800D01*
X0203460Y0261705D01*
X0203223Y0261295D01*
X0203100Y0260837D01*
X0203100Y0259300D01*
X0208900Y0259300D01*
X0208900Y0259300D01*
X0203100Y0259300D01*
X0203100Y0257763D01*
X0203223Y0257305D01*
X0203460Y0256895D01*
X0203696Y0256659D01*
X0203300Y0256263D01*
X0203300Y0252337D01*
X0203837Y0251800D01*
X0203300Y0251263D01*
X0203300Y0247337D01*
X0203837Y0246800D01*
X0203300Y0246263D01*
X0203300Y0242337D01*
X0204237Y0241400D01*
X0206200Y0241400D01*
X0206200Y0205028D01*
X0198572Y0197400D01*
X0197400Y0196228D01*
X0197400Y0178572D01*
X0197772Y0178200D01*
X0197200Y0178200D01*
X0197400Y0178684D01*
X0197400Y0180116D01*
X0196852Y0181439D01*
X0195839Y0182452D01*
X0195800Y0182468D01*
X0195800Y0207372D01*
X0196436Y0208008D02*
X0206200Y0208008D01*
X0206200Y0209606D02*
X0198035Y0209606D01*
X0199633Y0211205D02*
X0206200Y0211205D01*
X0206200Y0212803D02*
X0201232Y0212803D01*
X0202830Y0214402D02*
X0206200Y0214402D01*
X0206200Y0216001D02*
X0204429Y0216001D01*
X0205751Y0217599D02*
X0206200Y0217599D01*
X0206200Y0219198D02*
X0206200Y0219198D01*
X0206200Y0220796D02*
X0205918Y0220796D01*
X0206200Y0222395D02*
X0204697Y0222395D01*
X0206200Y0223993D02*
X0191800Y0223993D01*
X0191800Y0222395D02*
X0200503Y0222395D01*
X0199282Y0220796D02*
X0191800Y0220796D01*
X0191800Y0219198D02*
X0199000Y0219198D01*
X0199449Y0217599D02*
X0191800Y0217599D01*
X0191800Y0216001D02*
X0198772Y0216001D01*
X0197174Y0214402D02*
X0191800Y0214402D01*
X0191800Y0212803D02*
X0195575Y0212803D01*
X0193977Y0211205D02*
X0191800Y0211205D01*
X0191800Y0209606D02*
X0192378Y0209606D01*
X0191800Y0208008D02*
X0191800Y0208008D01*
X0191800Y0206409D02*
X0191800Y0206409D01*
X0191800Y0204811D02*
X0191800Y0204811D01*
X0191800Y0203212D02*
X0191800Y0203212D01*
X0191800Y0201614D02*
X0191800Y0201614D01*
X0191800Y0200015D02*
X0191800Y0200015D01*
X0191800Y0198417D02*
X0191800Y0198417D01*
X0191800Y0196818D02*
X0191800Y0196818D01*
X0191800Y0195220D02*
X0191800Y0195220D01*
X0191800Y0193621D02*
X0191800Y0193621D01*
X0191800Y0192023D02*
X0191651Y0192023D01*
X0191800Y0190424D02*
X0190053Y0190424D01*
X0191800Y0188826D02*
X0183000Y0188826D01*
X0182894Y0187227D02*
X0191800Y0187227D01*
X0191800Y0185629D02*
X0181920Y0185629D01*
X0178200Y0184030D02*
X0191800Y0184030D01*
X0191741Y0182432D02*
X0178096Y0182432D01*
X0177124Y0180833D02*
X0190497Y0180833D01*
X0190200Y0179235D02*
X0155663Y0179235D01*
X0156655Y0177636D02*
X0162008Y0177636D01*
X0157262Y0180833D02*
X0172076Y0180833D01*
X0171104Y0182432D02*
X0158860Y0182432D01*
X0160459Y0184030D02*
X0171000Y0184030D01*
X0171738Y0185629D02*
X0162057Y0185629D01*
X0163656Y0187227D02*
X0173335Y0187227D01*
X0173884Y0187000D02*
X0175316Y0187000D01*
X0173884Y0187000D01*
X0175316Y0187000D02*
X0175355Y0186984D01*
X0175411Y0187039D01*
X0175316Y0187000D01*
X0171438Y0188826D02*
X0165254Y0188826D01*
X0166853Y0190424D02*
X0171000Y0190424D01*
X0171293Y0192023D02*
X0168451Y0192023D01*
X0165991Y0195220D02*
X0162048Y0195220D01*
X0160450Y0193621D02*
X0164393Y0193621D01*
X0162794Y0192023D02*
X0158851Y0192023D01*
X0157253Y0190424D02*
X0161196Y0190424D01*
X0159597Y0188826D02*
X0158265Y0188826D01*
X0158452Y0188639D02*
X0157439Y0189652D01*
X0156761Y0189933D01*
X0177028Y0210200D01*
X0178200Y0211372D01*
X0178200Y0236800D01*
X0178684Y0236600D01*
X0180116Y0236600D01*
X0181439Y0237148D01*
X0182452Y0238161D01*
X0183000Y0239484D01*
X0183000Y0240916D01*
X0182800Y0241400D01*
X0183800Y0241400D01*
X0183800Y0210468D01*
X0183761Y0210452D01*
X0182748Y0209439D01*
X0182200Y0208116D01*
X0182200Y0206684D01*
X0182748Y0205361D01*
X0183761Y0204348D01*
X0183800Y0204332D01*
X0183800Y0204068D01*
X0183761Y0204052D01*
X0182748Y0203039D01*
X0182200Y0201716D01*
X0182200Y0200284D01*
X0182748Y0198961D01*
X0183761Y0197948D01*
X0184536Y0197627D01*
X0183548Y0196639D01*
X0183532Y0196600D01*
X0169028Y0196600D01*
X0167372Y0196600D01*
X0158733Y0187961D01*
X0158452Y0188639D01*
X0163647Y0196818D02*
X0183727Y0196818D01*
X0183292Y0198417D02*
X0165245Y0198417D01*
X0166844Y0200015D02*
X0182311Y0200015D01*
X0182200Y0201614D02*
X0168442Y0201614D01*
X0170041Y0203212D02*
X0182921Y0203212D01*
X0183298Y0204811D02*
X0171639Y0204811D01*
X0173238Y0206409D02*
X0182314Y0206409D01*
X0182200Y0208008D02*
X0174836Y0208008D01*
X0176435Y0209606D02*
X0182915Y0209606D01*
X0183800Y0211205D02*
X0178033Y0211205D01*
X0178200Y0212803D02*
X0183800Y0212803D01*
X0183800Y0214402D02*
X0178200Y0214402D01*
X0178200Y0216001D02*
X0183800Y0216001D01*
X0183800Y0217599D02*
X0178200Y0217599D01*
X0178200Y0219198D02*
X0183800Y0219198D01*
X0183800Y0220796D02*
X0178200Y0220796D01*
X0178200Y0222395D02*
X0183800Y0222395D01*
X0183800Y0223993D02*
X0178200Y0223993D01*
X0178200Y0225592D02*
X0183800Y0225592D01*
X0183800Y0227190D02*
X0178200Y0227190D01*
X0178200Y0228789D02*
X0183800Y0228789D01*
X0183800Y0230387D02*
X0178200Y0230387D01*
X0178200Y0231986D02*
X0183800Y0231986D01*
X0183800Y0233584D02*
X0178200Y0233584D01*
X0178200Y0235183D02*
X0183800Y0235183D01*
X0183800Y0236781D02*
X0180553Y0236781D01*
X0178247Y0236781D02*
X0178200Y0236781D01*
X0174200Y0236781D02*
X0163800Y0236781D01*
X0163800Y0235183D02*
X0174200Y0235183D01*
X0174200Y0233584D02*
X0163800Y0233584D01*
X0163800Y0231986D02*
X0174200Y0231986D01*
X0174200Y0230387D02*
X0163800Y0230387D01*
X0163800Y0229699D02*
X0163800Y0245132D01*
X0163839Y0245148D01*
X0164852Y0246161D01*
X0165400Y0247484D01*
X0165400Y0248916D01*
X0164852Y0250239D01*
X0163839Y0251252D01*
X0163161Y0251533D01*
X0170645Y0259016D01*
X0170684Y0259000D01*
X0172116Y0259000D01*
X0173439Y0259548D01*
X0174336Y0260445D01*
X0174200Y0260116D01*
X0174200Y0258684D01*
X0174748Y0257361D01*
X0175761Y0256348D01*
X0177084Y0255800D01*
X0178516Y0255800D01*
X0179100Y0256042D01*
X0179100Y0253928D01*
X0174200Y0249028D01*
X0174200Y0213028D01*
X0166400Y0205228D01*
X0166400Y0210715D01*
X0165700Y0212406D01*
X0164406Y0213700D01*
X0163920Y0213901D01*
X0165415Y0213901D01*
X0166353Y0214838D01*
X0166353Y0221282D01*
X0165834Y0221800D01*
X0166353Y0222318D01*
X0166353Y0228762D01*
X0165415Y0229699D01*
X0163800Y0229699D01*
X0166326Y0228789D02*
X0174200Y0228789D01*
X0174200Y0227190D02*
X0166353Y0227190D01*
X0166353Y0225592D02*
X0174200Y0225592D01*
X0174200Y0223993D02*
X0166353Y0223993D01*
X0166353Y0222395D02*
X0174200Y0222395D01*
X0174200Y0220796D02*
X0166353Y0220796D01*
X0166353Y0219198D02*
X0174200Y0219198D01*
X0174200Y0217599D02*
X0166353Y0217599D01*
X0166353Y0216001D02*
X0174200Y0216001D01*
X0174200Y0214402D02*
X0165917Y0214402D01*
X0165302Y0212803D02*
X0173975Y0212803D01*
X0172377Y0211205D02*
X0166197Y0211205D01*
X0166400Y0209606D02*
X0170778Y0209606D01*
X0169180Y0208008D02*
X0166400Y0208008D01*
X0166400Y0206409D02*
X0167581Y0206409D01*
X0191800Y0225592D02*
X0206200Y0225592D01*
X0206200Y0227190D02*
X0191800Y0227190D01*
X0191800Y0228789D02*
X0206200Y0228789D01*
X0206200Y0230387D02*
X0191800Y0230387D01*
X0191800Y0231986D02*
X0206200Y0231986D01*
X0206200Y0233584D02*
X0191800Y0233584D01*
X0191800Y0235183D02*
X0206200Y0235183D01*
X0206200Y0236781D02*
X0191800Y0236781D01*
X0192943Y0238380D02*
X0206200Y0238380D01*
X0206200Y0239978D02*
X0193400Y0239978D01*
X0193126Y0241577D02*
X0204061Y0241577D01*
X0203300Y0243175D02*
X0191916Y0243175D01*
X0190300Y0244774D02*
X0203300Y0244774D01*
X0203410Y0246372D02*
X0191601Y0246372D01*
X0193199Y0247971D02*
X0203300Y0247971D01*
X0203300Y0249569D02*
X0194798Y0249569D01*
X0196396Y0251168D02*
X0203300Y0251168D01*
X0203300Y0252766D02*
X0197400Y0252766D01*
X0197400Y0254365D02*
X0203300Y0254365D01*
X0203300Y0255963D02*
X0197400Y0255963D01*
X0197400Y0257562D02*
X0203154Y0257562D01*
X0203100Y0259160D02*
X0197400Y0259160D01*
X0197400Y0260759D02*
X0203100Y0260759D01*
X0203209Y0262357D02*
X0196071Y0262357D01*
X0195800Y0263956D02*
X0203100Y0263956D01*
X0203100Y0265554D02*
X0195800Y0265554D01*
X0195800Y0267153D02*
X0203484Y0267153D01*
X0203300Y0268751D02*
X0195800Y0268751D01*
X0195800Y0270350D02*
X0203300Y0270350D01*
X0203689Y0271948D02*
X0195800Y0271948D01*
X0195800Y0273547D02*
X0203300Y0273547D01*
X0203300Y0275145D02*
X0195800Y0275145D01*
X0195800Y0276744D02*
X0203610Y0276744D01*
X0203100Y0278342D02*
X0195800Y0278342D01*
X0195800Y0279941D02*
X0203100Y0279941D01*
X0203364Y0281539D02*
X0195800Y0281539D01*
X0200061Y0283138D02*
X0201020Y0283138D01*
X0201020Y0284737D02*
X0200061Y0284737D01*
X0201020Y0286335D02*
X0206437Y0286335D01*
X0204899Y0284737D02*
X0208035Y0284737D01*
X0209634Y0283138D02*
X0204768Y0283138D01*
X0208900Y0281539D02*
X0208900Y0281539D01*
X0208900Y0279941D02*
X0208900Y0279941D01*
X0213692Y0284737D02*
X0232035Y0284737D01*
X0232247Y0283138D02*
X0215290Y0283138D01*
X0216600Y0281539D02*
X0232247Y0281539D01*
X0232247Y0279941D02*
X0216600Y0279941D01*
X0216600Y0278342D02*
X0245400Y0278342D01*
X0245400Y0276744D02*
X0216600Y0276744D01*
X0216600Y0275145D02*
X0246426Y0275145D01*
X0248025Y0273547D02*
X0216600Y0273547D01*
X0216377Y0271948D02*
X0249623Y0271948D01*
X0251222Y0270350D02*
X0214778Y0270350D01*
X0214500Y0268751D02*
X0252820Y0268751D01*
X0254419Y0267153D02*
X0214316Y0267153D01*
X0214700Y0265554D02*
X0256017Y0265554D01*
X0257616Y0263956D02*
X0214700Y0263956D01*
X0214591Y0262357D02*
X0259214Y0262357D01*
X0260813Y0260759D02*
X0214700Y0260759D01*
X0214700Y0259160D02*
X0262411Y0259160D01*
X0264010Y0257562D02*
X0214646Y0257562D01*
X0214500Y0255963D02*
X0265608Y0255963D01*
X0265604Y0251168D02*
X0227800Y0251168D01*
X0228059Y0249569D02*
X0229278Y0249569D01*
X0225599Y0246372D02*
X0216600Y0246372D01*
X0216600Y0244774D02*
X0227198Y0244774D01*
X0228796Y0243175D02*
X0216600Y0243175D01*
X0215258Y0247971D02*
X0221738Y0247971D01*
X0220730Y0249569D02*
X0214500Y0249569D01*
X0214500Y0251168D02*
X0220600Y0251168D01*
X0213963Y0251800D02*
X0213963Y0251800D01*
X0208900Y0260759D02*
X0208900Y0260759D01*
X0208900Y0262357D02*
X0208900Y0262357D01*
X0208900Y0263956D02*
X0208900Y0263956D01*
X0235122Y0249569D02*
X0267202Y0249569D01*
X0277667Y0257562D02*
X0313933Y0257562D01*
X0312335Y0255963D02*
X0279265Y0255963D01*
X0280864Y0254365D02*
X0310736Y0254365D01*
X0309138Y0252766D02*
X0282462Y0252766D01*
X0284061Y0251168D02*
X0307539Y0251168D01*
X0305941Y0249569D02*
X0285659Y0249569D01*
X0287258Y0247971D02*
X0304342Y0247971D01*
X0302744Y0246372D02*
X0288856Y0246372D01*
X0290455Y0244774D02*
X0301145Y0244774D01*
X0299547Y0243175D02*
X0292053Y0243175D01*
X0293652Y0241577D02*
X0295686Y0241577D01*
X0295548Y0241439D02*
X0295033Y0240195D01*
X0256328Y0278901D01*
X0260415Y0278901D01*
X0261353Y0279838D01*
X0261353Y0280600D01*
X0268172Y0280600D01*
X0280600Y0268172D01*
X0281772Y0267000D01*
X0319532Y0267000D01*
X0319548Y0266961D01*
X0320561Y0265948D01*
X0321804Y0265433D01*
X0299355Y0242984D01*
X0299316Y0243000D01*
X0297884Y0243000D01*
X0296561Y0242452D01*
X0295548Y0241439D01*
X0306802Y0244774D02*
X0345400Y0244774D01*
X0345400Y0246372D02*
X0308401Y0246372D01*
X0309999Y0247971D02*
X0345400Y0247971D01*
X0345400Y0249569D02*
X0311598Y0249569D01*
X0313196Y0251168D02*
X0345400Y0251168D01*
X0345400Y0252766D02*
X0314795Y0252766D01*
X0316393Y0254365D02*
X0345400Y0254365D01*
X0345400Y0255963D02*
X0317992Y0255963D01*
X0319590Y0257562D02*
X0345400Y0257562D01*
X0345400Y0259160D02*
X0321189Y0259160D01*
X0322787Y0260759D02*
X0345400Y0260759D01*
X0345400Y0262357D02*
X0324386Y0262357D01*
X0325984Y0263956D02*
X0345400Y0263956D01*
X0345400Y0265554D02*
X0327583Y0265554D01*
X0329181Y0267153D02*
X0345400Y0267153D01*
X0345400Y0268751D02*
X0330780Y0268751D01*
X0332378Y0270350D02*
X0345400Y0270350D01*
X0345400Y0271948D02*
X0333977Y0271948D01*
X0335575Y0273547D02*
X0345400Y0273547D01*
X0345400Y0275145D02*
X0337174Y0275145D01*
X0338772Y0276744D02*
X0345400Y0276744D01*
X0345400Y0278342D02*
X0340371Y0278342D01*
X0335272Y0278901D02*
X0326167Y0269795D01*
X0325652Y0271039D01*
X0324639Y0272052D01*
X0323316Y0272600D01*
X0321884Y0272600D01*
X0320561Y0272052D01*
X0319548Y0271039D01*
X0319532Y0271000D01*
X0283428Y0271000D01*
X0273028Y0281400D01*
X0327247Y0281400D01*
X0327247Y0279838D01*
X0328184Y0278901D01*
X0335272Y0278901D01*
X0334714Y0278342D02*
X0276086Y0278342D01*
X0277684Y0276744D02*
X0333116Y0276744D01*
X0331517Y0275145D02*
X0279283Y0275145D01*
X0280881Y0273547D02*
X0329919Y0273547D01*
X0328320Y0271948D02*
X0324743Y0271948D01*
X0325937Y0270350D02*
X0326721Y0270350D01*
X0320457Y0271948D02*
X0282480Y0271948D01*
X0280020Y0268751D02*
X0266477Y0268751D01*
X0268076Y0267153D02*
X0281619Y0267153D01*
X0278422Y0270350D02*
X0264878Y0270350D01*
X0263280Y0271948D02*
X0276823Y0271948D01*
X0275225Y0273547D02*
X0261681Y0273547D01*
X0260083Y0275145D02*
X0273626Y0275145D01*
X0272028Y0276744D02*
X0258484Y0276744D01*
X0256886Y0278342D02*
X0270429Y0278342D01*
X0268831Y0279941D02*
X0261353Y0279941D01*
X0261353Y0284600D02*
X0264309Y0284600D01*
X0263548Y0285361D01*
X0263000Y0286684D01*
X0263000Y0288116D01*
X0263548Y0289439D01*
X0264561Y0290452D01*
X0265884Y0291000D01*
X0267316Y0291000D01*
X0268639Y0290452D01*
X0269652Y0289439D01*
X0270200Y0288116D01*
X0270200Y0286684D01*
X0270184Y0286645D01*
X0271428Y0285400D01*
X0327247Y0285400D01*
X0327247Y0286282D01*
X0327766Y0286800D01*
X0327247Y0287318D01*
X0327247Y0293762D01*
X0328184Y0294699D01*
X0329680Y0294699D01*
X0329194Y0294900D01*
X0327900Y0296194D01*
X0327200Y0297885D01*
X0327200Y0305715D01*
X0327900Y0307406D01*
X0329095Y0308600D01*
X0259505Y0308600D01*
X0260700Y0307406D01*
X0261400Y0305715D01*
X0261400Y0297885D01*
X0260700Y0296194D01*
X0259406Y0294900D01*
X0259000Y0294732D01*
X0259000Y0294699D01*
X0260415Y0294699D01*
X0261353Y0293762D01*
X0261353Y0287318D01*
X0260834Y0286800D01*
X0261353Y0286282D01*
X0261353Y0284600D01*
X0261353Y0284737D02*
X0264172Y0284737D01*
X0263145Y0286335D02*
X0261299Y0286335D01*
X0261353Y0287934D02*
X0263000Y0287934D01*
X0263641Y0289532D02*
X0261353Y0289532D01*
X0261353Y0291131D02*
X0327247Y0291131D01*
X0327247Y0292729D02*
X0261353Y0292729D01*
X0260787Y0294328D02*
X0327813Y0294328D01*
X0328169Y0295926D02*
X0260431Y0295926D01*
X0261251Y0297525D02*
X0327349Y0297525D01*
X0327200Y0299123D02*
X0261400Y0299123D01*
X0261400Y0300722D02*
X0327200Y0300722D01*
X0327200Y0302320D02*
X0261400Y0302320D01*
X0261400Y0303919D02*
X0327200Y0303919D01*
X0327200Y0305517D02*
X0261400Y0305517D01*
X0260820Y0307116D02*
X0327780Y0307116D01*
X0327247Y0289532D02*
X0269559Y0289532D01*
X0270200Y0287934D02*
X0327247Y0287934D01*
X0327301Y0286335D02*
X0270493Y0286335D01*
X0274487Y0279941D02*
X0327247Y0279941D01*
X0321511Y0265554D02*
X0269674Y0265554D01*
X0271273Y0263956D02*
X0320327Y0263956D01*
X0318729Y0262357D02*
X0272871Y0262357D01*
X0274470Y0260759D02*
X0317130Y0260759D01*
X0315532Y0259160D02*
X0276068Y0259160D01*
X0242247Y0279941D02*
X0241353Y0279941D01*
X0241353Y0281539D02*
X0242247Y0281539D01*
X0242247Y0283138D02*
X0241353Y0283138D01*
X0241353Y0284737D02*
X0242247Y0284737D01*
X0242301Y0286335D02*
X0241299Y0286335D01*
X0241353Y0287934D02*
X0242247Y0287934D01*
X0242247Y0289532D02*
X0241353Y0289532D01*
X0241353Y0291131D02*
X0242247Y0291131D01*
X0242247Y0292729D02*
X0241353Y0292729D01*
X0240787Y0294328D02*
X0242813Y0294328D01*
X0243169Y0295926D02*
X0240431Y0295926D01*
X0241251Y0297525D02*
X0242349Y0297525D01*
X0242200Y0299123D02*
X0241400Y0299123D01*
X0241400Y0300722D02*
X0242200Y0300722D01*
X0242200Y0302320D02*
X0241400Y0302320D01*
X0241400Y0303919D02*
X0242200Y0303919D01*
X0242200Y0305517D02*
X0241400Y0305517D01*
X0232200Y0305517D02*
X0206746Y0305517D01*
X0205147Y0303919D02*
X0232200Y0303919D01*
X0232200Y0302320D02*
X0203549Y0302320D01*
X0201950Y0300722D02*
X0232200Y0300722D01*
X0232200Y0299123D02*
X0200352Y0299123D01*
X0198753Y0297525D02*
X0232349Y0297525D01*
X0233169Y0295926D02*
X0197154Y0295926D01*
X0195556Y0294328D02*
X0232813Y0294328D01*
X0232247Y0292729D02*
X0231962Y0292729D01*
X0226038Y0292729D02*
X0205699Y0292729D01*
X0207298Y0291131D02*
X0225400Y0291131D01*
X0225546Y0289532D02*
X0208896Y0289532D01*
X0210495Y0287934D02*
X0226575Y0287934D01*
X0230437Y0286335D02*
X0212093Y0286335D01*
X0196301Y0292729D02*
X0193957Y0292729D01*
X0188296Y0297525D02*
X0166251Y0297525D01*
X0166400Y0299123D02*
X0189895Y0299123D01*
X0191493Y0300722D02*
X0166400Y0300722D01*
X0166400Y0302320D02*
X0193092Y0302320D01*
X0194690Y0303919D02*
X0166400Y0303919D01*
X0166400Y0305517D02*
X0196289Y0305517D01*
X0197887Y0307116D02*
X0165820Y0307116D01*
X0164371Y0308714D02*
X0199486Y0308714D01*
X0201084Y0310313D02*
X0159553Y0310313D01*
X0158380Y0311911D02*
X0202683Y0311911D01*
X0204281Y0313510D02*
X0004600Y0313510D01*
X0004600Y0311911D02*
X0154020Y0311911D01*
X0148284Y0310313D02*
X0004600Y0310313D01*
X0064371Y0308714D02*
X0069229Y0308714D01*
X0067780Y0307116D02*
X0065820Y0307116D01*
X0066400Y0305517D02*
X0067200Y0305517D01*
X0067200Y0303919D02*
X0066400Y0303919D01*
X0066400Y0302320D02*
X0067200Y0302320D01*
X0067200Y0300722D02*
X0066400Y0300722D01*
X0066400Y0299123D02*
X0067200Y0299123D01*
X0067349Y0297525D02*
X0066251Y0297525D01*
X0065431Y0295926D02*
X0068169Y0295926D01*
X0067813Y0294328D02*
X0065787Y0294328D01*
X0066353Y0292729D02*
X0067247Y0292729D01*
X0067247Y0291131D02*
X0066353Y0291131D01*
X0066353Y0289532D02*
X0067247Y0289532D01*
X0067247Y0287934D02*
X0066353Y0287934D01*
X0066299Y0286335D02*
X0067301Y0286335D01*
X0067247Y0284737D02*
X0066353Y0284737D01*
X0076353Y0284737D02*
X0137247Y0284737D01*
X0137301Y0286335D02*
X0076299Y0286335D01*
X0076353Y0287934D02*
X0137247Y0287934D01*
X0137247Y0289532D02*
X0076353Y0289532D01*
X0076353Y0291131D02*
X0137247Y0291131D01*
X0137247Y0292729D02*
X0076353Y0292729D01*
X0075787Y0294328D02*
X0137813Y0294328D01*
X0138169Y0295926D02*
X0075431Y0295926D01*
X0076251Y0297525D02*
X0137349Y0297525D01*
X0137200Y0299123D02*
X0076400Y0299123D01*
X0076400Y0300722D02*
X0137200Y0300722D01*
X0137200Y0302320D02*
X0076400Y0302320D01*
X0076400Y0303919D02*
X0137200Y0303919D01*
X0137200Y0305517D02*
X0076400Y0305517D01*
X0075820Y0307116D02*
X0137780Y0307116D01*
X0139229Y0308714D02*
X0074371Y0308714D01*
X0084090Y0283138D02*
X0137247Y0283138D01*
X0137247Y0281539D02*
X0085689Y0281539D01*
X0087287Y0279941D02*
X0137247Y0279941D01*
X0139800Y0278342D02*
X0088886Y0278342D01*
X0090484Y0276744D02*
X0139800Y0276744D01*
X0139800Y0275145D02*
X0092083Y0275145D01*
X0093681Y0273547D02*
X0139800Y0273547D01*
X0139800Y0271948D02*
X0095280Y0271948D01*
X0096879Y0270350D02*
X0139800Y0270350D01*
X0139800Y0268751D02*
X0098477Y0268751D01*
X0100076Y0267153D02*
X0139800Y0267153D01*
X0139800Y0265554D02*
X0101674Y0265554D01*
X0103273Y0263956D02*
X0139800Y0263956D01*
X0139800Y0262357D02*
X0104871Y0262357D01*
X0106470Y0260759D02*
X0139800Y0260759D01*
X0139800Y0259160D02*
X0108068Y0259160D01*
X0109667Y0257562D02*
X0139800Y0257562D01*
X0139800Y0255963D02*
X0111265Y0255963D01*
X0112864Y0254365D02*
X0139800Y0254365D01*
X0139800Y0252766D02*
X0114462Y0252766D01*
X0116061Y0251168D02*
X0139800Y0251168D01*
X0139800Y0249569D02*
X0117659Y0249569D01*
X0119258Y0247971D02*
X0138742Y0247971D01*
X0137144Y0246372D02*
X0120856Y0246372D01*
X0122455Y0244774D02*
X0135545Y0244774D01*
X0133947Y0243175D02*
X0124053Y0243175D01*
X0125652Y0241577D02*
X0132348Y0241577D01*
X0130750Y0239978D02*
X0129513Y0239978D01*
X0134011Y0235183D02*
X0144600Y0235183D01*
X0144600Y0236781D02*
X0135610Y0236781D01*
X0137208Y0238380D02*
X0144600Y0238380D01*
X0144600Y0239978D02*
X0138807Y0239978D01*
X0140405Y0241577D02*
X0144600Y0241577D01*
X0144600Y0243175D02*
X0142004Y0243175D01*
X0143602Y0244774D02*
X0144600Y0244774D01*
X0144600Y0245772D02*
X0144600Y0229699D01*
X0138184Y0229699D01*
X0137247Y0228762D01*
X0137247Y0227000D01*
X0125828Y0227000D01*
X0144600Y0245772D01*
X0148600Y0253028D02*
X0148600Y0278901D01*
X0152759Y0278901D01*
X0152600Y0278516D01*
X0152600Y0277084D01*
X0153148Y0275761D01*
X0154161Y0274748D01*
X0155484Y0274200D01*
X0156916Y0274200D01*
X0158239Y0274748D01*
X0159252Y0275761D01*
X0159800Y0277084D01*
X0159800Y0278516D01*
X0159641Y0278901D01*
X0165415Y0278901D01*
X0166353Y0279838D01*
X0166353Y0281400D01*
X0174572Y0281400D01*
X0164131Y0270960D01*
X0163839Y0271252D01*
X0162516Y0271800D01*
X0161084Y0271800D01*
X0159761Y0271252D01*
X0158748Y0270239D01*
X0158200Y0268916D01*
X0158200Y0267484D01*
X0158748Y0266161D01*
X0159761Y0265148D01*
X0160439Y0264867D01*
X0148600Y0253028D01*
X0148600Y0254365D02*
X0149936Y0254365D01*
X0148600Y0255963D02*
X0151535Y0255963D01*
X0153133Y0257562D02*
X0148600Y0257562D01*
X0148600Y0259160D02*
X0154732Y0259160D01*
X0156330Y0260759D02*
X0148600Y0260759D01*
X0148600Y0262357D02*
X0157929Y0262357D01*
X0159527Y0263956D02*
X0148600Y0263956D01*
X0148600Y0265554D02*
X0159354Y0265554D01*
X0158337Y0267153D02*
X0148600Y0267153D01*
X0148600Y0268751D02*
X0158200Y0268751D01*
X0158859Y0270350D02*
X0148600Y0270350D01*
X0148600Y0271948D02*
X0165120Y0271948D01*
X0166719Y0273547D02*
X0148600Y0273547D01*
X0148600Y0275145D02*
X0153763Y0275145D01*
X0152741Y0276744D02*
X0148600Y0276744D01*
X0148600Y0278342D02*
X0152600Y0278342D01*
X0158637Y0275145D02*
X0168317Y0275145D01*
X0169916Y0276744D02*
X0159659Y0276744D01*
X0159800Y0278342D02*
X0171514Y0278342D01*
X0173113Y0279941D02*
X0166353Y0279941D01*
X0166299Y0286335D02*
X0177107Y0286335D01*
X0178705Y0287934D02*
X0166353Y0287934D01*
X0166353Y0289532D02*
X0180304Y0289532D01*
X0181902Y0291131D02*
X0166353Y0291131D01*
X0166353Y0292729D02*
X0183501Y0292729D01*
X0185099Y0294328D02*
X0165787Y0294328D01*
X0165431Y0295926D02*
X0186698Y0295926D01*
X0146686Y0308714D02*
X0144371Y0308714D01*
X0172503Y0259160D02*
X0174200Y0259160D01*
X0174665Y0257562D02*
X0169190Y0257562D01*
X0167592Y0255963D02*
X0176690Y0255963D01*
X0178910Y0255963D02*
X0179100Y0255963D01*
X0179100Y0254365D02*
X0165993Y0254365D01*
X0164395Y0252766D02*
X0177938Y0252766D01*
X0176339Y0251168D02*
X0163923Y0251168D01*
X0165129Y0249569D02*
X0174741Y0249569D01*
X0174200Y0247971D02*
X0165400Y0247971D01*
X0164940Y0246372D02*
X0174200Y0246372D01*
X0174200Y0244774D02*
X0163800Y0244774D01*
X0163800Y0243175D02*
X0174200Y0243175D01*
X0174200Y0241577D02*
X0163800Y0241577D01*
X0163800Y0239978D02*
X0174200Y0239978D01*
X0174200Y0238380D02*
X0163800Y0238380D01*
X0182543Y0238380D02*
X0183800Y0238380D01*
X0183800Y0239978D02*
X0183000Y0239978D01*
X0144600Y0233584D02*
X0132413Y0233584D01*
X0130814Y0231986D02*
X0144600Y0231986D01*
X0144600Y0230387D02*
X0129216Y0230387D01*
X0127617Y0228789D02*
X0137274Y0228789D01*
X0137247Y0227190D02*
X0126019Y0227190D01*
X0120423Y0222395D02*
X0137247Y0222395D01*
X0137247Y0220796D02*
X0118824Y0220796D01*
X0117226Y0219198D02*
X0137247Y0219198D01*
X0137247Y0217599D02*
X0115627Y0217599D01*
X0114029Y0216001D02*
X0137247Y0216001D01*
X0137683Y0214402D02*
X0112430Y0214402D01*
X0110832Y0212803D02*
X0138298Y0212803D01*
X0137403Y0211205D02*
X0109233Y0211205D01*
X0107635Y0209606D02*
X0137200Y0209606D01*
X0137200Y0208008D02*
X0106036Y0208008D01*
X0104438Y0206409D02*
X0137200Y0206409D01*
X0137200Y0204811D02*
X0102839Y0204811D01*
X0101241Y0203212D02*
X0137200Y0203212D01*
X0137726Y0201614D02*
X0099642Y0201614D01*
X0098044Y0200015D02*
X0139079Y0200015D01*
X0139588Y0198417D02*
X0096445Y0198417D01*
X0094847Y0196818D02*
X0137990Y0196818D01*
X0136391Y0195220D02*
X0093248Y0195220D01*
X0091650Y0193621D02*
X0125993Y0193621D01*
X0124394Y0192023D02*
X0090051Y0192023D01*
X0088453Y0190424D02*
X0123800Y0190424D01*
X0123800Y0188826D02*
X0086854Y0188826D01*
X0085256Y0187227D02*
X0123800Y0187227D01*
X0123943Y0185629D02*
X0083657Y0185629D01*
X0082059Y0184030D02*
X0125541Y0184030D01*
X0127140Y0182432D02*
X0080460Y0182432D01*
X0111995Y0180833D02*
X0128738Y0180833D01*
X0130337Y0179235D02*
X0113594Y0179235D01*
X0117455Y0177636D02*
X0131935Y0177636D01*
X0133400Y0176038D02*
X0118200Y0176038D01*
X0118099Y0174439D02*
X0133501Y0174439D01*
X0143818Y0137673D02*
X0143898Y0137673D01*
X0149028Y0133400D02*
X0154628Y0127800D01*
X0194732Y0127800D01*
X0194748Y0127839D01*
X0195761Y0128852D01*
X0197084Y0129400D01*
X0198516Y0129400D01*
X0199839Y0128852D01*
X0200852Y0127839D01*
X0201400Y0126516D01*
X0201400Y0125084D01*
X0201200Y0124600D01*
X0218572Y0124600D01*
X0219000Y0125028D01*
X0219477Y0125505D01*
X0218950Y0125888D01*
X0218463Y0126375D01*
X0218058Y0126932D01*
X0217746Y0127546D01*
X0217533Y0128201D01*
X0217425Y0128881D01*
X0217425Y0131800D01*
X0221800Y0131800D01*
X0221800Y0131800D01*
X0217425Y0131800D01*
X0217425Y0134719D01*
X0217533Y0135399D01*
X0217746Y0136054D01*
X0218058Y0136668D01*
X0218463Y0137225D01*
X0218950Y0137712D01*
X0219507Y0138116D01*
X0220121Y0138429D01*
X0220590Y0138582D01*
X0220487Y0138685D01*
X0219316Y0138200D01*
X0217884Y0138200D01*
X0216561Y0138748D01*
X0215548Y0139761D01*
X0215000Y0141084D01*
X0215000Y0142516D01*
X0215200Y0143000D01*
X0191428Y0143000D01*
X0187395Y0138967D01*
X0188639Y0138452D01*
X0189652Y0137439D01*
X0190200Y0136116D01*
X0190200Y0134684D01*
X0189652Y0133361D01*
X0188639Y0132348D01*
X0187316Y0131800D01*
X0185884Y0131800D01*
X0184561Y0132348D01*
X0183548Y0133361D01*
X0183532Y0133400D01*
X0149028Y0133400D01*
X0149550Y0132878D02*
X0184031Y0132878D01*
X0189169Y0132878D02*
X0207625Y0132878D01*
X0207625Y0134476D02*
X0190114Y0134476D01*
X0190200Y0136075D02*
X0207985Y0136075D01*
X0208261Y0136740D02*
X0207625Y0135205D01*
X0207625Y0128395D01*
X0208261Y0126860D01*
X0209435Y0125686D01*
X0210970Y0125050D01*
X0212630Y0125050D01*
X0214165Y0125686D01*
X0215339Y0126860D01*
X0215975Y0128395D01*
X0215975Y0135205D01*
X0215339Y0136740D01*
X0214165Y0137914D01*
X0212630Y0138550D01*
X0210970Y0138550D01*
X0209435Y0137914D01*
X0208261Y0136740D01*
X0209195Y0137673D02*
X0189418Y0137673D01*
X0187700Y0139272D02*
X0216037Y0139272D01*
X0215088Y0140870D02*
X0189299Y0140870D01*
X0190897Y0142469D02*
X0215000Y0142469D01*
X0214405Y0137673D02*
X0218912Y0137673D01*
X0217756Y0136075D02*
X0215615Y0136075D01*
X0215975Y0134476D02*
X0217425Y0134476D01*
X0217425Y0132878D02*
X0215975Y0132878D01*
X0215975Y0131279D02*
X0217425Y0131279D01*
X0217425Y0129681D02*
X0215975Y0129681D01*
X0215845Y0128082D02*
X0217571Y0128082D01*
X0218384Y0126484D02*
X0214963Y0126484D01*
X0218857Y0124885D02*
X0201318Y0124885D01*
X0201400Y0126484D02*
X0208637Y0126484D01*
X0207755Y0128082D02*
X0200609Y0128082D01*
X0194991Y0128082D02*
X0154346Y0128082D01*
X0152748Y0129681D02*
X0207625Y0129681D01*
X0207625Y0131279D02*
X0151149Y0131279D01*
X0147888Y0126484D02*
X0146401Y0126484D01*
X0133400Y0105703D02*
X0127125Y0105703D01*
X0128724Y0104105D02*
X0133400Y0104105D01*
X0133400Y0102506D02*
X0130322Y0102506D01*
X0131921Y0100908D02*
X0132128Y0100908D01*
X0108600Y0121688D02*
X0065317Y0121688D01*
X0066915Y0123287D02*
X0108600Y0123287D01*
X0108600Y0124885D02*
X0068514Y0124885D01*
X0070112Y0126484D02*
X0108600Y0126484D01*
X0108600Y0128082D02*
X0106774Y0128082D01*
X0107716Y0129681D02*
X0108600Y0129681D01*
X0108600Y0131279D02*
X0107800Y0131279D01*
X0107013Y0132878D02*
X0108600Y0132878D01*
X0108600Y0134476D02*
X0106200Y0134476D01*
X0074047Y0136075D02*
X0069303Y0136075D01*
X0067705Y0134476D02*
X0072448Y0134476D01*
X0070850Y0132878D02*
X0066106Y0132878D01*
X0064508Y0131279D02*
X0069251Y0131279D01*
X0067652Y0129681D02*
X0062909Y0129681D01*
X0061311Y0128082D02*
X0066054Y0128082D01*
X0064455Y0126484D02*
X0059712Y0126484D01*
X0058114Y0124885D02*
X0062857Y0124885D01*
X0061258Y0123287D02*
X0056515Y0123287D01*
X0054917Y0121688D02*
X0059660Y0121688D01*
X0058061Y0120090D02*
X0053318Y0120090D01*
X0054614Y0118491D02*
X0056463Y0118491D01*
X0050057Y0124885D02*
X0046200Y0124885D01*
X0046200Y0123287D02*
X0048458Y0123287D01*
X0046860Y0121688D02*
X0046200Y0121688D01*
X0042200Y0121688D02*
X0004600Y0121688D01*
X0004600Y0120090D02*
X0042200Y0120090D01*
X0042200Y0118491D02*
X0004600Y0118491D01*
X0004600Y0116893D02*
X0042200Y0116893D01*
X0042200Y0115294D02*
X0004600Y0115294D01*
X0004600Y0113696D02*
X0042200Y0113696D01*
X0042200Y0112097D02*
X0004600Y0112097D01*
X0004600Y0110499D02*
X0042200Y0110499D01*
X0042200Y0108900D02*
X0004600Y0108900D01*
X0004600Y0107302D02*
X0042200Y0107302D01*
X0042200Y0105703D02*
X0004600Y0105703D01*
X0004600Y0104105D02*
X0042200Y0104105D01*
X0042200Y0102506D02*
X0004600Y0102506D01*
X0004600Y0100908D02*
X0042200Y0100908D01*
X0042200Y0099309D02*
X0004600Y0099309D01*
X0004600Y0097711D02*
X0042200Y0097711D01*
X0042200Y0096112D02*
X0004600Y0096112D01*
X0004600Y0094514D02*
X0042200Y0094514D01*
X0042200Y0092915D02*
X0004600Y0092915D01*
X0004600Y0091317D02*
X0042200Y0091317D01*
X0042200Y0089718D02*
X0004600Y0089718D01*
X0004600Y0088120D02*
X0042200Y0088120D01*
X0042200Y0123287D02*
X0004600Y0123287D01*
X0004600Y0124885D02*
X0042200Y0124885D01*
X0042200Y0126484D02*
X0004600Y0126484D01*
X0004600Y0128082D02*
X0042200Y0128082D01*
X0042200Y0129681D02*
X0004600Y0129681D01*
X0004600Y0131279D02*
X0042200Y0131279D01*
X0042200Y0132878D02*
X0004600Y0132878D01*
X0004600Y0134476D02*
X0042200Y0134476D01*
X0042200Y0136075D02*
X0004600Y0136075D01*
X0004600Y0137673D02*
X0042200Y0137673D01*
X0042200Y0139272D02*
X0004600Y0139272D01*
X0004600Y0140870D02*
X0042200Y0140870D01*
X0043641Y0142469D02*
X0004600Y0142469D01*
X0004600Y0144068D02*
X0045239Y0144068D01*
X0046838Y0145666D02*
X0004600Y0145666D01*
X0004600Y0147265D02*
X0046444Y0147265D01*
X0050896Y0144068D02*
X0069239Y0144068D01*
X0070838Y0145666D02*
X0052494Y0145666D01*
X0049297Y0142469D02*
X0067641Y0142469D01*
X0066042Y0140870D02*
X0047699Y0140870D01*
X0046200Y0139272D02*
X0064444Y0139272D01*
X0062845Y0137673D02*
X0046200Y0137673D01*
X0046200Y0136075D02*
X0061247Y0136075D01*
X0059648Y0134476D02*
X0046200Y0134476D01*
X0046200Y0132878D02*
X0058050Y0132878D01*
X0056451Y0131279D02*
X0046200Y0131279D01*
X0046200Y0129681D02*
X0054852Y0129681D01*
X0053254Y0128082D02*
X0046200Y0128082D01*
X0046200Y0126484D02*
X0051655Y0126484D01*
X0039909Y0148863D02*
X0004600Y0148863D01*
X0004600Y0150462D02*
X0038310Y0150462D01*
X0036712Y0152060D02*
X0004600Y0152060D01*
X0004600Y0153659D02*
X0035113Y0153659D01*
X0033514Y0155257D02*
X0004600Y0155257D01*
X0004600Y0156856D02*
X0031916Y0156856D01*
X0030317Y0158454D02*
X0004600Y0158454D01*
X0004600Y0160053D02*
X0028719Y0160053D01*
X0027120Y0161651D02*
X0004600Y0161651D01*
X0004600Y0163250D02*
X0025522Y0163250D01*
X0023923Y0164848D02*
X0004600Y0164848D01*
X0004600Y0166447D02*
X0023000Y0166447D01*
X0023000Y0168045D02*
X0004600Y0168045D01*
X0004600Y0169644D02*
X0023000Y0169644D01*
X0023000Y0171242D02*
X0004600Y0171242D01*
X0004600Y0172841D02*
X0023000Y0172841D01*
X0023000Y0174439D02*
X0004600Y0174439D01*
X0004600Y0176038D02*
X0023000Y0176038D01*
X0023000Y0177636D02*
X0004600Y0177636D01*
X0004600Y0179235D02*
X0023000Y0179235D01*
X0023000Y0180833D02*
X0004600Y0180833D01*
X0004600Y0182432D02*
X0023000Y0182432D01*
X0023000Y0184030D02*
X0004600Y0184030D01*
X0004600Y0185629D02*
X0023000Y0185629D01*
X0023000Y0187227D02*
X0004600Y0187227D01*
X0004600Y0188826D02*
X0023000Y0188826D01*
X0023000Y0190424D02*
X0004600Y0190424D01*
X0004600Y0192023D02*
X0023000Y0192023D01*
X0023000Y0193621D02*
X0004600Y0193621D01*
X0004600Y0195220D02*
X0023000Y0195220D01*
X0023000Y0196818D02*
X0004600Y0196818D01*
X0004600Y0198417D02*
X0023000Y0198417D01*
X0023000Y0200015D02*
X0004600Y0200015D01*
X0004600Y0201614D02*
X0023000Y0201614D01*
X0023000Y0203212D02*
X0004600Y0203212D01*
X0004600Y0204811D02*
X0023000Y0204811D01*
X0023000Y0206409D02*
X0004600Y0206409D01*
X0004600Y0208008D02*
X0023000Y0208008D01*
X0023000Y0209606D02*
X0004600Y0209606D01*
X0004600Y0211205D02*
X0024377Y0211205D01*
X0025975Y0212803D02*
X0004600Y0212803D01*
X0004600Y0214402D02*
X0027574Y0214402D01*
X0029172Y0216001D02*
X0004600Y0216001D01*
X0004600Y0217599D02*
X0030771Y0217599D01*
X0032369Y0219198D02*
X0004600Y0219198D01*
X0004600Y0220796D02*
X0033968Y0220796D01*
X0035566Y0222395D02*
X0004600Y0222395D01*
X0004600Y0223993D02*
X0037165Y0223993D01*
X0038763Y0225592D02*
X0004600Y0225592D01*
X0004600Y0227190D02*
X0040362Y0227190D01*
X0041960Y0228789D02*
X0004600Y0228789D01*
X0004600Y0230387D02*
X0043559Y0230387D01*
X0045157Y0231986D02*
X0004600Y0231986D01*
X0004600Y0233584D02*
X0046756Y0233584D01*
X0048354Y0235183D02*
X0004600Y0235183D01*
X0004600Y0236781D02*
X0049400Y0236781D01*
X0049400Y0238380D02*
X0004600Y0238380D01*
X0004600Y0239978D02*
X0049400Y0239978D01*
X0049400Y0241577D02*
X0004600Y0241577D01*
X0004600Y0243175D02*
X0049400Y0243175D01*
X0049400Y0244774D02*
X0004600Y0244774D01*
X0004600Y0246372D02*
X0049400Y0246372D01*
X0049400Y0247971D02*
X0004600Y0247971D01*
X0004600Y0249569D02*
X0049400Y0249569D01*
X0049400Y0251168D02*
X0004600Y0251168D01*
X0004600Y0252766D02*
X0049400Y0252766D01*
X0049400Y0254365D02*
X0004600Y0254365D01*
X0004600Y0255963D02*
X0049400Y0255963D01*
X0073646Y0235183D02*
X0119326Y0235183D01*
X0195800Y0204811D02*
X0205983Y0204811D01*
X0204384Y0203212D02*
X0195800Y0203212D01*
X0195800Y0201614D02*
X0202785Y0201614D01*
X0201187Y0200015D02*
X0195800Y0200015D01*
X0195800Y0198417D02*
X0199588Y0198417D01*
X0197990Y0196818D02*
X0195800Y0196818D01*
X0195800Y0195220D02*
X0197400Y0195220D01*
X0197400Y0193621D02*
X0195800Y0193621D01*
X0195800Y0192023D02*
X0197400Y0192023D01*
X0197400Y0190424D02*
X0195800Y0190424D01*
X0195800Y0188826D02*
X0197400Y0188826D01*
X0197400Y0187227D02*
X0195800Y0187227D01*
X0195800Y0185629D02*
X0197400Y0185629D01*
X0197400Y0184030D02*
X0195800Y0184030D01*
X0195859Y0182432D02*
X0197400Y0182432D01*
X0197400Y0180833D02*
X0197103Y0180833D01*
X0197400Y0179235D02*
X0197400Y0179235D01*
X0206290Y0176038D02*
X0231934Y0176038D01*
X0230335Y0177636D02*
X0208166Y0177636D01*
X0208600Y0179235D02*
X0228737Y0179235D01*
X0227138Y0180833D02*
X0208303Y0180833D01*
X0207059Y0182432D02*
X0225540Y0182432D01*
X0225400Y0184030D02*
X0207000Y0184030D01*
X0207000Y0185629D02*
X0224743Y0185629D01*
X0223144Y0187227D02*
X0207000Y0187227D01*
X0207000Y0188826D02*
X0221546Y0188826D01*
X0219947Y0190424D02*
X0207000Y0190424D01*
X0207189Y0174439D02*
X0233532Y0174439D01*
X0235131Y0172841D02*
X0208788Y0172841D01*
X0210386Y0171242D02*
X0236729Y0171242D01*
X0238328Y0169644D02*
X0211985Y0169644D01*
X0213583Y0168045D02*
X0239800Y0168045D01*
X0239800Y0166447D02*
X0215182Y0166447D01*
X0216780Y0164848D02*
X0239800Y0164848D01*
X0239800Y0163250D02*
X0226242Y0163250D01*
X0229577Y0161651D02*
X0239800Y0161651D01*
X0239762Y0160053D02*
X0231176Y0160053D01*
X0232774Y0158454D02*
X0238506Y0158454D01*
X0238200Y0156856D02*
X0234373Y0156856D01*
X0235971Y0155257D02*
X0238625Y0155257D01*
X0237570Y0153659D02*
X0240460Y0153659D01*
X0239168Y0152060D02*
X0243000Y0152060D01*
X0222158Y0163250D02*
X0218379Y0163250D01*
X0219977Y0161651D02*
X0220904Y0161651D01*
X0180475Y0105703D02*
X0176515Y0105703D01*
X0176481Y0099309D02*
X0176063Y0099309D01*
X0225149Y0076930D02*
X0228451Y0076930D01*
X0227678Y0075332D02*
X0225922Y0075332D01*
X0225975Y0073733D02*
X0227625Y0073733D01*
X0227625Y0072134D02*
X0225975Y0072134D01*
X0225975Y0070536D02*
X0227625Y0070536D01*
X0227625Y0068937D02*
X0225975Y0068937D01*
X0225537Y0067339D02*
X0228063Y0067339D01*
X0229381Y0065740D02*
X0224219Y0065740D01*
X0219082Y0059346D02*
X0293425Y0059346D01*
X0295024Y0057748D02*
X0220681Y0057748D01*
X0222279Y0056149D02*
X0290121Y0056149D01*
X0288522Y0054551D02*
X0270140Y0054551D01*
X0270985Y0052952D02*
X0286924Y0052952D01*
X0285325Y0051354D02*
X0270946Y0051354D01*
X0264660Y0054551D02*
X0223878Y0054551D01*
X0234219Y0065740D02*
X0239153Y0065740D01*
X0238950Y0065888D02*
X0239507Y0065484D01*
X0240121Y0065171D01*
X0240776Y0064958D01*
X0241456Y0064850D01*
X0241800Y0064850D01*
X0241800Y0071800D01*
X0241800Y0071800D01*
X0246175Y0071800D01*
X0246175Y0068881D01*
X0246067Y0068201D01*
X0245854Y0067546D01*
X0245542Y0066932D01*
X0245137Y0066375D01*
X0244650Y0065888D01*
X0244093Y0065484D01*
X0243479Y0065171D01*
X0242824Y0064958D01*
X0242144Y0064850D01*
X0241800Y0064850D01*
X0241800Y0071800D01*
X0241800Y0071800D01*
X0241800Y0071800D01*
X0237425Y0071800D01*
X0237425Y0068881D01*
X0237533Y0068201D01*
X0237746Y0067546D01*
X0238058Y0066932D01*
X0238463Y0066375D01*
X0238950Y0065888D01*
X0237851Y0067339D02*
X0235537Y0067339D01*
X0235975Y0068937D02*
X0237425Y0068937D01*
X0237425Y0070536D02*
X0235975Y0070536D01*
X0235975Y0072134D02*
X0237425Y0072134D01*
X0237425Y0073733D02*
X0235975Y0073733D01*
X0235922Y0075332D02*
X0237522Y0075332D01*
X0238249Y0076930D02*
X0235149Y0076930D01*
X0241800Y0070536D02*
X0241800Y0070536D01*
X0241800Y0068937D02*
X0241800Y0068937D01*
X0241800Y0067339D02*
X0241800Y0067339D01*
X0241800Y0065740D02*
X0241800Y0065740D01*
X0244447Y0065740D02*
X0249381Y0065740D01*
X0248063Y0067339D02*
X0245749Y0067339D01*
X0246175Y0068937D02*
X0247625Y0068937D01*
X0247625Y0070536D02*
X0246175Y0070536D01*
X0246175Y0072134D02*
X0247037Y0072134D01*
X0247898Y0076930D02*
X0248451Y0076930D01*
X0255149Y0076930D02*
X0258451Y0076930D01*
X0257678Y0075332D02*
X0255922Y0075332D01*
X0255975Y0073733D02*
X0257625Y0073733D01*
X0257625Y0072134D02*
X0255975Y0072134D01*
X0255975Y0070536D02*
X0257625Y0070536D01*
X0257625Y0068937D02*
X0255975Y0068937D01*
X0255537Y0067339D02*
X0258063Y0067339D01*
X0259381Y0065740D02*
X0254219Y0065740D01*
X0242367Y0089718D02*
X0241233Y0089718D01*
X0241353Y0091317D02*
X0242247Y0091317D01*
X0242247Y0092915D02*
X0241353Y0092915D01*
X0241353Y0094514D02*
X0242247Y0094514D01*
X0284551Y0065740D02*
X0287031Y0065740D01*
X0288630Y0064142D02*
X0285389Y0064142D01*
X0285342Y0062543D02*
X0290228Y0062543D01*
X0291827Y0060945D02*
X0284436Y0060945D01*
X0295885Y0062543D02*
X0297582Y0062543D01*
X0306294Y0072134D02*
X0307625Y0072134D01*
X0307625Y0073733D02*
X0305975Y0073733D01*
X0305922Y0075332D02*
X0307678Y0075332D01*
X0308451Y0076930D02*
X0305149Y0076930D01*
X0315149Y0076930D02*
X0318451Y0076930D01*
X0317678Y0075332D02*
X0315922Y0075332D01*
X0315975Y0073733D02*
X0317625Y0073733D01*
X0317625Y0072134D02*
X0315975Y0072134D01*
X0315975Y0070536D02*
X0317625Y0070536D01*
X0317625Y0068937D02*
X0315975Y0068937D01*
X0319115Y0094514D02*
X0319330Y0094514D01*
X0320706Y0096112D02*
X0317516Y0096112D01*
X0347164Y0147265D02*
X0351907Y0147265D01*
X0350309Y0148863D02*
X0345565Y0148863D01*
X0348710Y0150462D02*
X0338108Y0150462D01*
X0338200Y0152060D02*
X0347112Y0152060D01*
X0345513Y0153659D02*
X0337433Y0153659D01*
X0336600Y0155257D02*
X0343914Y0155257D01*
X0342316Y0156856D02*
X0336600Y0156856D01*
X0336600Y0158454D02*
X0340717Y0158454D01*
X0339119Y0160053D02*
X0336600Y0160053D01*
X0336600Y0161651D02*
X0337520Y0161651D01*
X0339980Y0164848D02*
X0346323Y0164848D01*
X0344725Y0166447D02*
X0338382Y0166447D01*
X0336783Y0168045D02*
X0343126Y0168045D01*
X0341528Y0169644D02*
X0335185Y0169644D01*
X0333586Y0171242D02*
X0339929Y0171242D01*
X0338331Y0172841D02*
X0331988Y0172841D01*
X0330389Y0174439D02*
X0336732Y0174439D01*
X0333310Y0176038D02*
X0329400Y0176038D01*
X0330865Y0177636D02*
X0331434Y0177636D01*
X0322200Y0176038D02*
X0293591Y0176038D01*
X0325619Y0206409D02*
X0327200Y0206409D01*
X0354200Y0241577D02*
X0390200Y0241577D01*
X0390200Y0243175D02*
X0354200Y0243175D01*
X0354200Y0244774D02*
X0390200Y0244774D01*
X0390200Y0246372D02*
X0354200Y0246372D01*
X0354200Y0247971D02*
X0390200Y0247971D01*
X0390200Y0249569D02*
X0354200Y0249569D01*
X0354200Y0251168D02*
X0390200Y0251168D01*
X0390200Y0252766D02*
X0354200Y0252766D01*
X0354200Y0254365D02*
X0390200Y0254365D01*
X0390200Y0255963D02*
X0354200Y0255963D01*
X0354200Y0257562D02*
X0390200Y0257562D01*
X0390200Y0259160D02*
X0354200Y0259160D01*
X0354200Y0260759D02*
X0390200Y0260759D01*
X0390200Y0262357D02*
X0354200Y0262357D01*
X0354200Y0263956D02*
X0390200Y0263956D01*
X0390200Y0265554D02*
X0354200Y0265554D01*
X0354200Y0267153D02*
X0390200Y0267153D01*
X0390200Y0268751D02*
X0354200Y0268751D01*
X0354200Y0270350D02*
X0389622Y0270350D01*
X0388023Y0271948D02*
X0354200Y0271948D01*
X0354200Y0273547D02*
X0386425Y0273547D01*
X0384826Y0275145D02*
X0354200Y0275145D01*
X0354200Y0276744D02*
X0383228Y0276744D01*
X0381629Y0278342D02*
X0354200Y0278342D01*
X0356353Y0279941D02*
X0380031Y0279941D01*
X0378432Y0281539D02*
X0356353Y0281539D01*
X0356353Y0283138D02*
X0376834Y0283138D01*
X0375235Y0284737D02*
X0356353Y0284737D01*
X0356299Y0286335D02*
X0373637Y0286335D01*
X0372038Y0287934D02*
X0356353Y0287934D01*
X0356353Y0289532D02*
X0370440Y0289532D01*
X0368841Y0291131D02*
X0356353Y0291131D01*
X0356353Y0292729D02*
X0367243Y0292729D01*
X0365644Y0294328D02*
X0355787Y0294328D01*
X0355431Y0295926D02*
X0364045Y0295926D01*
X0362447Y0297525D02*
X0356251Y0297525D01*
X0356400Y0299123D02*
X0360848Y0299123D01*
X0359250Y0300722D02*
X0356400Y0300722D01*
X0356400Y0302320D02*
X0357651Y0302320D01*
X0360111Y0305517D02*
X0392701Y0305517D01*
X0392701Y0303919D02*
X0361710Y0303919D01*
X0363308Y0302320D02*
X0392701Y0302320D01*
X0392701Y0300722D02*
X0364907Y0300722D01*
X0366505Y0299123D02*
X0392701Y0299123D01*
X0392701Y0297525D02*
X0368104Y0297525D01*
X0369702Y0295926D02*
X0392701Y0295926D01*
X0392701Y0294328D02*
X0371301Y0294328D01*
X0372899Y0292729D02*
X0392701Y0292729D01*
X0392701Y0291131D02*
X0374498Y0291131D01*
X0376096Y0289532D02*
X0392701Y0289532D01*
X0392701Y0287934D02*
X0377695Y0287934D01*
X0379293Y0286335D02*
X0392701Y0286335D01*
X0392701Y0284737D02*
X0380892Y0284737D01*
X0382490Y0283138D02*
X0392701Y0283138D01*
X0392701Y0281539D02*
X0384089Y0281539D01*
X0385687Y0279941D02*
X0392701Y0279941D01*
X0392701Y0278342D02*
X0387286Y0278342D01*
X0388884Y0276744D02*
X0392701Y0276744D01*
X0392701Y0275145D02*
X0390483Y0275145D01*
X0392081Y0273547D02*
X0392701Y0273547D01*
X0392701Y0272928D02*
X0351668Y0313961D01*
X0392701Y0313961D01*
X0392701Y0272928D01*
X0392701Y0307116D02*
X0358513Y0307116D01*
X0356914Y0308714D02*
X0392701Y0308714D01*
X0392701Y0310313D02*
X0355316Y0310313D01*
X0353717Y0311911D02*
X0392701Y0311911D01*
X0392701Y0313510D02*
X0352119Y0313510D01*
X0233592Y0238380D02*
X0226074Y0238380D01*
X0226200Y0239978D02*
X0231993Y0239978D01*
X0230395Y0241577D02*
X0225514Y0241577D01*
X0225072Y0236781D02*
X0234200Y0236781D01*
X0234200Y0235183D02*
X0224600Y0235183D01*
X0224600Y0233584D02*
X0234200Y0233584D01*
X0234200Y0231986D02*
X0224600Y0231986D01*
X0341579Y0163250D02*
X0347922Y0163250D01*
X0349520Y0161651D02*
X0343177Y0161651D01*
X0344776Y0160053D02*
X0351119Y0160053D01*
X0352717Y0158454D02*
X0346374Y0158454D01*
X0347973Y0156856D02*
X0354316Y0156856D01*
X0355800Y0155257D02*
X0349571Y0155257D01*
X0351170Y0153659D02*
X0355893Y0153659D01*
X0356849Y0152060D02*
X0352768Y0152060D01*
X0347247Y0036967D02*
X0346353Y0036967D01*
X0346353Y0035369D02*
X0347247Y0035369D01*
X0347247Y0033770D02*
X0346353Y0033770D01*
X0346206Y0032172D02*
X0347394Y0032172D01*
X0347247Y0030573D02*
X0346353Y0030573D01*
X0346353Y0028975D02*
X0347247Y0028975D01*
X0347247Y0027376D02*
X0346353Y0027376D01*
X0346353Y0025778D02*
X0347247Y0025778D01*
X0347906Y0024179D02*
X0345694Y0024179D01*
X0345525Y0022581D02*
X0348075Y0022581D01*
X0347311Y0020982D02*
X0346289Y0020982D01*
X0346400Y0019384D02*
X0347200Y0019384D01*
X0347200Y0017785D02*
X0346400Y0017785D01*
X0346400Y0016187D02*
X0347200Y0016187D01*
X0347200Y0014588D02*
X0346400Y0014588D01*
X0346400Y0012990D02*
X0347200Y0012990D01*
X0347819Y0011391D02*
X0345781Y0011391D01*
X0344146Y0009793D02*
X0349454Y0009793D01*
X0339454Y0009793D02*
X0334146Y0009793D01*
X0335781Y0011391D02*
X0337819Y0011391D01*
X0337200Y0012990D02*
X0336400Y0012990D01*
X0336400Y0014588D02*
X0337200Y0014588D01*
X0337200Y0016187D02*
X0336400Y0016187D01*
X0336400Y0017785D02*
X0337200Y0017785D01*
X0337200Y0019384D02*
X0336400Y0019384D01*
X0336289Y0020982D02*
X0337311Y0020982D01*
X0338075Y0022581D02*
X0335525Y0022581D01*
X0335694Y0024179D02*
X0337906Y0024179D01*
X0337247Y0025778D02*
X0336353Y0025778D01*
X0336353Y0027376D02*
X0337247Y0027376D01*
X0337247Y0028975D02*
X0336353Y0028975D01*
X0336353Y0030573D02*
X0337247Y0030573D01*
X0337394Y0032172D02*
X0336206Y0032172D01*
X0336353Y0033770D02*
X0337247Y0033770D01*
X0336603Y0035369D02*
X0336353Y0035369D01*
X0327247Y0032903D02*
X0327247Y0032318D01*
X0327247Y0032903D02*
X0326516Y0032600D01*
X0325084Y0032600D01*
X0323761Y0033148D01*
X0322748Y0034161D01*
X0322200Y0035484D01*
X0322200Y0036916D01*
X0322400Y0037400D01*
X0318628Y0037400D01*
X0313400Y0032172D01*
X0314895Y0031400D02*
X0312200Y0028705D01*
X0312200Y0024895D01*
X0314895Y0022200D01*
X0318705Y0022200D01*
X0321400Y0024895D01*
X0321400Y0028705D01*
X0318705Y0031400D01*
X0314895Y0031400D01*
X0314068Y0030573D02*
X0289264Y0030573D01*
X0283936Y0030573D02*
X0261353Y0030573D01*
X0261353Y0028975D02*
X0312469Y0028975D01*
X0312200Y0027376D02*
X0261353Y0027376D01*
X0261353Y0025778D02*
X0312200Y0025778D01*
X0312915Y0024179D02*
X0260694Y0024179D01*
X0260525Y0022581D02*
X0314514Y0022581D01*
X0319086Y0022581D02*
X0328075Y0022581D01*
X0327906Y0024179D02*
X0320685Y0024179D01*
X0321400Y0025778D02*
X0327247Y0025778D01*
X0327247Y0027376D02*
X0321400Y0027376D01*
X0321131Y0028975D02*
X0327247Y0028975D01*
X0327247Y0030573D02*
X0319532Y0030573D01*
X0323139Y0033770D02*
X0314999Y0033770D01*
X0316597Y0035369D02*
X0322248Y0035369D01*
X0322221Y0036967D02*
X0318196Y0036967D01*
X0327311Y0020982D02*
X0261289Y0020982D01*
X0261400Y0019384D02*
X0327200Y0019384D01*
X0327200Y0017785D02*
X0261400Y0017785D01*
X0261400Y0016187D02*
X0327200Y0016187D01*
X0327200Y0014588D02*
X0261400Y0014588D01*
X0261400Y0012990D02*
X0327200Y0012990D01*
X0327819Y0011391D02*
X0260781Y0011391D01*
X0259146Y0009793D02*
X0329454Y0009793D01*
X0283046Y0032172D02*
X0261206Y0032172D01*
X0261353Y0033770D02*
X0283022Y0033770D01*
X0252394Y0032172D02*
X0251206Y0032172D01*
X0251353Y0033770D02*
X0252247Y0033770D01*
X0252247Y0035369D02*
X0251797Y0035369D01*
X0251353Y0030573D02*
X0252247Y0030573D01*
X0252247Y0028975D02*
X0251353Y0028975D01*
X0251353Y0027376D02*
X0252247Y0027376D01*
X0252247Y0025778D02*
X0251353Y0025778D01*
X0250694Y0024179D02*
X0252906Y0024179D01*
X0253075Y0022581D02*
X0250525Y0022581D01*
X0251289Y0020982D02*
X0252311Y0020982D01*
X0252200Y0019384D02*
X0251400Y0019384D01*
X0251400Y0017785D02*
X0252200Y0017785D01*
X0252200Y0016187D02*
X0251400Y0016187D01*
X0251400Y0014588D02*
X0252200Y0014588D01*
X0252200Y0012990D02*
X0251400Y0012990D01*
X0250781Y0011391D02*
X0252819Y0011391D01*
X0254454Y0009793D02*
X0249146Y0009793D01*
X0244454Y0009793D02*
X0242221Y0009793D01*
X0208658Y0056149D02*
X0188600Y0056149D01*
X0067906Y0024179D02*
X0065694Y0024179D01*
X0065525Y0022581D02*
X0068075Y0022581D01*
X0067311Y0020982D02*
X0066289Y0020982D01*
X0066400Y0019384D02*
X0067200Y0019384D01*
X0067200Y0017785D02*
X0066400Y0017785D01*
X0066400Y0016187D02*
X0067200Y0016187D01*
X0067200Y0014588D02*
X0066400Y0014588D01*
X0066400Y0012990D02*
X0067200Y0012990D01*
X0067819Y0011391D02*
X0065781Y0011391D01*
X0064146Y0009793D02*
X0069454Y0009793D01*
X0059454Y0009793D02*
X0056621Y0009793D01*
X0042200Y0022581D02*
X0039086Y0022581D01*
X0040685Y0024179D02*
X0042200Y0024179D01*
X0042200Y0025778D02*
X0041400Y0025778D01*
X0041400Y0027376D02*
X0042200Y0027376D01*
X0042200Y0028975D02*
X0041131Y0028975D01*
X0042200Y0030573D02*
X0039532Y0030573D01*
X0056353Y0033770D02*
X0057247Y0033770D01*
X0057247Y0035369D02*
X0056353Y0035369D01*
X0056353Y0036967D02*
X0057247Y0036967D01*
X0057247Y0038566D02*
X0056353Y0038566D01*
X0066353Y0038566D02*
X0067247Y0038566D01*
X0067247Y0036967D02*
X0066353Y0036967D01*
X0066353Y0035369D02*
X0067247Y0035369D01*
X0067247Y0033770D02*
X0066353Y0033770D01*
X0066206Y0032172D02*
X0067394Y0032172D01*
X0067247Y0030573D02*
X0066353Y0030573D01*
X0066353Y0028975D02*
X0067247Y0028975D01*
X0067247Y0027376D02*
X0066353Y0027376D01*
X0066353Y0025778D02*
X0067247Y0025778D01*
M02*
