G75*
%MOIN*%
%OFA0B0*%
%FSLAX25Y25*%
%IPPOS*%
%LPD*%
%AMOC8*
5,1,8,0,0,1.08239X$1,22.5*
%
%ADD10C,0.00600*%
%ADD11C,0.00200*%
%ADD12C,0.00500*%
D10*
X0029300Y0026800D02*
X0034300Y0026800D01*
X0036800Y0029300D01*
X0036800Y0034300D01*
X0034300Y0036800D01*
X0029300Y0036800D01*
X0026800Y0034300D01*
X0026800Y0029300D01*
X0029300Y0026800D01*
X0046800Y0019300D02*
X0046800Y0014300D01*
X0049300Y0011800D01*
X0054300Y0011800D01*
X0056800Y0014300D01*
X0059300Y0011800D01*
X0064300Y0011800D01*
X0066800Y0014300D01*
X0069300Y0011800D01*
X0074300Y0011800D01*
X0076800Y0014300D01*
X0076800Y0019300D01*
X0074300Y0021800D01*
X0069300Y0021800D01*
X0066800Y0019300D01*
X0064300Y0021800D01*
X0059300Y0021800D01*
X0056800Y0019300D01*
X0054300Y0021800D01*
X0049300Y0021800D01*
X0046800Y0019300D01*
X0121800Y0029300D02*
X0124300Y0026800D01*
X0129300Y0026800D01*
X0131800Y0029300D01*
X0131800Y0034300D01*
X0129300Y0036800D01*
X0124300Y0036800D01*
X0121800Y0034300D01*
X0121800Y0029300D01*
X0136800Y0019300D02*
X0139300Y0021800D01*
X0144300Y0021800D01*
X0146800Y0019300D01*
X0149300Y0021800D01*
X0154300Y0021800D01*
X0156800Y0019300D01*
X0159300Y0021800D01*
X0164300Y0021800D01*
X0166800Y0019300D01*
X0166800Y0014300D01*
X0164300Y0011800D01*
X0159300Y0011800D01*
X0156800Y0014300D01*
X0154300Y0011800D01*
X0149300Y0011800D01*
X0146800Y0014300D01*
X0144300Y0011800D01*
X0139300Y0011800D01*
X0136800Y0014300D01*
X0136800Y0019300D01*
X0216800Y0029300D02*
X0219300Y0026800D01*
X0224300Y0026800D01*
X0226800Y0029300D01*
X0226800Y0034300D01*
X0224300Y0036800D01*
X0219300Y0036800D01*
X0216800Y0034300D01*
X0216800Y0029300D01*
X0231800Y0019300D02*
X0234300Y0021800D01*
X0239300Y0021800D01*
X0241800Y0019300D01*
X0244300Y0021800D01*
X0249300Y0021800D01*
X0251800Y0019300D01*
X0254300Y0021800D01*
X0259300Y0021800D01*
X0261800Y0019300D01*
X0261800Y0014300D01*
X0259300Y0011800D01*
X0254300Y0011800D01*
X0251800Y0014300D01*
X0249300Y0011800D01*
X0244300Y0011800D01*
X0241800Y0014300D01*
X0239300Y0011800D01*
X0234300Y0011800D01*
X0231800Y0014300D01*
X0231800Y0019300D01*
X0311800Y0029300D02*
X0314300Y0026800D01*
X0319300Y0026800D01*
X0321800Y0029300D01*
X0321800Y0034300D01*
X0319300Y0036800D01*
X0314300Y0036800D01*
X0311800Y0034300D01*
X0311800Y0029300D01*
X0326800Y0019300D02*
X0329300Y0021800D01*
X0334300Y0021800D01*
X0336800Y0019300D01*
X0339300Y0021800D01*
X0344300Y0021800D01*
X0346800Y0019300D01*
X0349300Y0021800D01*
X0354300Y0021800D01*
X0356800Y0019300D01*
X0356800Y0014300D01*
X0354300Y0011800D01*
X0349300Y0011800D01*
X0346800Y0014300D01*
X0344300Y0011800D01*
X0339300Y0011800D01*
X0336800Y0014300D01*
X0334300Y0011800D01*
X0329300Y0011800D01*
X0326800Y0014300D01*
X0326800Y0019300D01*
X0329300Y0106800D02*
X0334300Y0106800D01*
X0336800Y0109300D01*
X0339300Y0106800D01*
X0344300Y0106800D01*
X0346800Y0109300D01*
X0349300Y0106800D01*
X0354300Y0106800D01*
X0356800Y0109300D01*
X0356800Y0114300D01*
X0354300Y0116800D01*
X0349300Y0116800D01*
X0346800Y0114300D01*
X0344300Y0116800D01*
X0339300Y0116800D01*
X0336800Y0114300D01*
X0334300Y0116800D01*
X0329300Y0116800D01*
X0326800Y0114300D01*
X0326800Y0109300D01*
X0329300Y0106800D01*
X0310000Y0141200D02*
X0301800Y0141200D01*
X0291800Y0141200D01*
X0283600Y0141200D01*
X0283524Y0141202D01*
X0283448Y0141208D01*
X0283373Y0141217D01*
X0283298Y0141231D01*
X0283224Y0141248D01*
X0283151Y0141269D01*
X0283079Y0141293D01*
X0283008Y0141322D01*
X0282939Y0141353D01*
X0282872Y0141388D01*
X0282807Y0141427D01*
X0282743Y0141469D01*
X0282682Y0141514D01*
X0282623Y0141562D01*
X0282567Y0141613D01*
X0282513Y0141667D01*
X0282462Y0141723D01*
X0282414Y0141782D01*
X0282369Y0141843D01*
X0282327Y0141907D01*
X0282288Y0141972D01*
X0282253Y0142039D01*
X0282222Y0142108D01*
X0282193Y0142179D01*
X0282169Y0142251D01*
X0282148Y0142324D01*
X0282131Y0142398D01*
X0282117Y0142473D01*
X0282108Y0142548D01*
X0282102Y0142624D01*
X0282100Y0142700D01*
X0291800Y0141200D02*
X0291802Y0141340D01*
X0291808Y0141480D01*
X0291818Y0141620D01*
X0291831Y0141760D01*
X0291849Y0141899D01*
X0291871Y0142038D01*
X0291896Y0142175D01*
X0291925Y0142313D01*
X0291958Y0142449D01*
X0291995Y0142584D01*
X0292036Y0142718D01*
X0292081Y0142851D01*
X0292129Y0142983D01*
X0292181Y0143113D01*
X0292236Y0143242D01*
X0292295Y0143369D01*
X0292358Y0143495D01*
X0292424Y0143619D01*
X0292493Y0143740D01*
X0292566Y0143860D01*
X0292643Y0143978D01*
X0292722Y0144093D01*
X0292805Y0144207D01*
X0292891Y0144317D01*
X0292980Y0144426D01*
X0293072Y0144532D01*
X0293167Y0144635D01*
X0293264Y0144736D01*
X0293365Y0144833D01*
X0293468Y0144928D01*
X0293574Y0145020D01*
X0293683Y0145109D01*
X0293793Y0145195D01*
X0293907Y0145278D01*
X0294022Y0145357D01*
X0294140Y0145434D01*
X0294260Y0145507D01*
X0294381Y0145576D01*
X0294505Y0145642D01*
X0294631Y0145705D01*
X0294758Y0145764D01*
X0294887Y0145819D01*
X0295017Y0145871D01*
X0295149Y0145919D01*
X0295282Y0145964D01*
X0295416Y0146005D01*
X0295551Y0146042D01*
X0295687Y0146075D01*
X0295825Y0146104D01*
X0295962Y0146129D01*
X0296101Y0146151D01*
X0296240Y0146169D01*
X0296380Y0146182D01*
X0296520Y0146192D01*
X0296660Y0146198D01*
X0296800Y0146200D01*
X0296940Y0146198D01*
X0297080Y0146192D01*
X0297220Y0146182D01*
X0297360Y0146169D01*
X0297499Y0146151D01*
X0297638Y0146129D01*
X0297775Y0146104D01*
X0297913Y0146075D01*
X0298049Y0146042D01*
X0298184Y0146005D01*
X0298318Y0145964D01*
X0298451Y0145919D01*
X0298583Y0145871D01*
X0298713Y0145819D01*
X0298842Y0145764D01*
X0298969Y0145705D01*
X0299095Y0145642D01*
X0299219Y0145576D01*
X0299340Y0145507D01*
X0299460Y0145434D01*
X0299578Y0145357D01*
X0299693Y0145278D01*
X0299807Y0145195D01*
X0299917Y0145109D01*
X0300026Y0145020D01*
X0300132Y0144928D01*
X0300235Y0144833D01*
X0300336Y0144736D01*
X0300433Y0144635D01*
X0300528Y0144532D01*
X0300620Y0144426D01*
X0300709Y0144317D01*
X0300795Y0144207D01*
X0300878Y0144093D01*
X0300957Y0143978D01*
X0301034Y0143860D01*
X0301107Y0143740D01*
X0301176Y0143619D01*
X0301242Y0143495D01*
X0301305Y0143369D01*
X0301364Y0143242D01*
X0301419Y0143113D01*
X0301471Y0142983D01*
X0301519Y0142851D01*
X0301564Y0142718D01*
X0301605Y0142584D01*
X0301642Y0142449D01*
X0301675Y0142313D01*
X0301704Y0142175D01*
X0301729Y0142038D01*
X0301751Y0141899D01*
X0301769Y0141760D01*
X0301782Y0141620D01*
X0301792Y0141480D01*
X0301798Y0141340D01*
X0301800Y0141200D01*
X0310000Y0141200D02*
X0310076Y0141202D01*
X0310152Y0141208D01*
X0310227Y0141217D01*
X0310302Y0141231D01*
X0310376Y0141248D01*
X0310449Y0141269D01*
X0310521Y0141293D01*
X0310592Y0141322D01*
X0310661Y0141353D01*
X0310728Y0141388D01*
X0310793Y0141427D01*
X0310857Y0141469D01*
X0310918Y0141514D01*
X0310977Y0141562D01*
X0311033Y0141613D01*
X0311087Y0141667D01*
X0311138Y0141723D01*
X0311186Y0141782D01*
X0311231Y0141843D01*
X0311273Y0141907D01*
X0311312Y0141972D01*
X0311347Y0142039D01*
X0311378Y0142108D01*
X0311407Y0142179D01*
X0311431Y0142251D01*
X0311452Y0142324D01*
X0311469Y0142398D01*
X0311483Y0142473D01*
X0311492Y0142548D01*
X0311498Y0142624D01*
X0311500Y0142700D01*
X0347100Y0142700D02*
X0347102Y0142624D01*
X0347108Y0142548D01*
X0347117Y0142473D01*
X0347131Y0142398D01*
X0347148Y0142324D01*
X0347169Y0142251D01*
X0347193Y0142179D01*
X0347222Y0142108D01*
X0347253Y0142039D01*
X0347288Y0141972D01*
X0347327Y0141907D01*
X0347369Y0141843D01*
X0347414Y0141782D01*
X0347462Y0141723D01*
X0347513Y0141667D01*
X0347567Y0141613D01*
X0347623Y0141562D01*
X0347682Y0141514D01*
X0347743Y0141469D01*
X0347807Y0141427D01*
X0347872Y0141388D01*
X0347939Y0141353D01*
X0348008Y0141322D01*
X0348079Y0141293D01*
X0348151Y0141269D01*
X0348224Y0141248D01*
X0348298Y0141231D01*
X0348373Y0141217D01*
X0348448Y0141208D01*
X0348524Y0141202D01*
X0348600Y0141200D01*
X0356800Y0141200D01*
X0366800Y0141200D01*
X0375000Y0141200D01*
X0375076Y0141202D01*
X0375152Y0141208D01*
X0375227Y0141217D01*
X0375302Y0141231D01*
X0375376Y0141248D01*
X0375449Y0141269D01*
X0375521Y0141293D01*
X0375592Y0141322D01*
X0375661Y0141353D01*
X0375728Y0141388D01*
X0375793Y0141427D01*
X0375857Y0141469D01*
X0375918Y0141514D01*
X0375977Y0141562D01*
X0376033Y0141613D01*
X0376087Y0141667D01*
X0376138Y0141723D01*
X0376186Y0141782D01*
X0376231Y0141843D01*
X0376273Y0141907D01*
X0376312Y0141972D01*
X0376347Y0142039D01*
X0376378Y0142108D01*
X0376407Y0142179D01*
X0376431Y0142251D01*
X0376452Y0142324D01*
X0376469Y0142398D01*
X0376483Y0142473D01*
X0376492Y0142548D01*
X0376498Y0142624D01*
X0376500Y0142700D01*
X0366800Y0141200D02*
X0366798Y0141340D01*
X0366792Y0141480D01*
X0366782Y0141620D01*
X0366769Y0141760D01*
X0366751Y0141899D01*
X0366729Y0142038D01*
X0366704Y0142175D01*
X0366675Y0142313D01*
X0366642Y0142449D01*
X0366605Y0142584D01*
X0366564Y0142718D01*
X0366519Y0142851D01*
X0366471Y0142983D01*
X0366419Y0143113D01*
X0366364Y0143242D01*
X0366305Y0143369D01*
X0366242Y0143495D01*
X0366176Y0143619D01*
X0366107Y0143740D01*
X0366034Y0143860D01*
X0365957Y0143978D01*
X0365878Y0144093D01*
X0365795Y0144207D01*
X0365709Y0144317D01*
X0365620Y0144426D01*
X0365528Y0144532D01*
X0365433Y0144635D01*
X0365336Y0144736D01*
X0365235Y0144833D01*
X0365132Y0144928D01*
X0365026Y0145020D01*
X0364917Y0145109D01*
X0364807Y0145195D01*
X0364693Y0145278D01*
X0364578Y0145357D01*
X0364460Y0145434D01*
X0364340Y0145507D01*
X0364219Y0145576D01*
X0364095Y0145642D01*
X0363969Y0145705D01*
X0363842Y0145764D01*
X0363713Y0145819D01*
X0363583Y0145871D01*
X0363451Y0145919D01*
X0363318Y0145964D01*
X0363184Y0146005D01*
X0363049Y0146042D01*
X0362913Y0146075D01*
X0362775Y0146104D01*
X0362638Y0146129D01*
X0362499Y0146151D01*
X0362360Y0146169D01*
X0362220Y0146182D01*
X0362080Y0146192D01*
X0361940Y0146198D01*
X0361800Y0146200D01*
X0361660Y0146198D01*
X0361520Y0146192D01*
X0361380Y0146182D01*
X0361240Y0146169D01*
X0361101Y0146151D01*
X0360962Y0146129D01*
X0360825Y0146104D01*
X0360687Y0146075D01*
X0360551Y0146042D01*
X0360416Y0146005D01*
X0360282Y0145964D01*
X0360149Y0145919D01*
X0360017Y0145871D01*
X0359887Y0145819D01*
X0359758Y0145764D01*
X0359631Y0145705D01*
X0359505Y0145642D01*
X0359381Y0145576D01*
X0359260Y0145507D01*
X0359140Y0145434D01*
X0359022Y0145357D01*
X0358907Y0145278D01*
X0358793Y0145195D01*
X0358683Y0145109D01*
X0358574Y0145020D01*
X0358468Y0144928D01*
X0358365Y0144833D01*
X0358264Y0144736D01*
X0358167Y0144635D01*
X0358072Y0144532D01*
X0357980Y0144426D01*
X0357891Y0144317D01*
X0357805Y0144207D01*
X0357722Y0144093D01*
X0357643Y0143978D01*
X0357566Y0143860D01*
X0357493Y0143740D01*
X0357424Y0143619D01*
X0357358Y0143495D01*
X0357295Y0143369D01*
X0357236Y0143242D01*
X0357181Y0143113D01*
X0357129Y0142983D01*
X0357081Y0142851D01*
X0357036Y0142718D01*
X0356995Y0142584D01*
X0356958Y0142449D01*
X0356925Y0142313D01*
X0356896Y0142175D01*
X0356871Y0142038D01*
X0356849Y0141899D01*
X0356831Y0141760D01*
X0356818Y0141620D01*
X0356808Y0141480D01*
X0356802Y0141340D01*
X0356800Y0141200D01*
X0347100Y0190900D02*
X0347102Y0190976D01*
X0347108Y0191052D01*
X0347117Y0191127D01*
X0347131Y0191202D01*
X0347148Y0191276D01*
X0347169Y0191349D01*
X0347193Y0191421D01*
X0347222Y0191492D01*
X0347253Y0191561D01*
X0347288Y0191628D01*
X0347327Y0191693D01*
X0347369Y0191757D01*
X0347414Y0191818D01*
X0347462Y0191877D01*
X0347513Y0191933D01*
X0347567Y0191987D01*
X0347623Y0192038D01*
X0347682Y0192086D01*
X0347743Y0192131D01*
X0347807Y0192173D01*
X0347872Y0192212D01*
X0347939Y0192247D01*
X0348008Y0192278D01*
X0348079Y0192307D01*
X0348151Y0192331D01*
X0348224Y0192352D01*
X0348298Y0192369D01*
X0348373Y0192383D01*
X0348448Y0192392D01*
X0348524Y0192398D01*
X0348600Y0192400D01*
X0375000Y0192400D01*
X0375076Y0192398D01*
X0375152Y0192392D01*
X0375227Y0192383D01*
X0375302Y0192369D01*
X0375376Y0192352D01*
X0375449Y0192331D01*
X0375521Y0192307D01*
X0375592Y0192278D01*
X0375661Y0192247D01*
X0375728Y0192212D01*
X0375793Y0192173D01*
X0375857Y0192131D01*
X0375918Y0192086D01*
X0375977Y0192038D01*
X0376033Y0191987D01*
X0376087Y0191933D01*
X0376138Y0191877D01*
X0376186Y0191818D01*
X0376231Y0191757D01*
X0376273Y0191693D01*
X0376312Y0191628D01*
X0376347Y0191561D01*
X0376378Y0191492D01*
X0376407Y0191421D01*
X0376431Y0191349D01*
X0376452Y0191276D01*
X0376469Y0191202D01*
X0376483Y0191127D01*
X0376492Y0191052D01*
X0376498Y0190976D01*
X0376500Y0190900D01*
X0356800Y0204300D02*
X0356800Y0209300D01*
X0354300Y0211800D01*
X0349300Y0211800D01*
X0346800Y0209300D01*
X0344300Y0211800D01*
X0339300Y0211800D01*
X0336800Y0209300D01*
X0334300Y0211800D01*
X0329300Y0211800D01*
X0326800Y0209300D01*
X0326800Y0204300D01*
X0329300Y0201800D01*
X0334300Y0201800D01*
X0336800Y0204300D01*
X0339300Y0201800D01*
X0344300Y0201800D01*
X0346800Y0204300D01*
X0349300Y0201800D01*
X0354300Y0201800D01*
X0356800Y0204300D01*
X0366162Y0217100D02*
X0370432Y0217100D01*
X0371500Y0218168D01*
X0371500Y0220303D01*
X0370432Y0221370D01*
X0370432Y0223545D02*
X0371500Y0224613D01*
X0371500Y0227816D01*
X0367230Y0227816D01*
X0367230Y0229991D02*
X0367230Y0233194D01*
X0368297Y0234261D01*
X0370432Y0234261D01*
X0371500Y0233194D01*
X0371500Y0229991D01*
X0365095Y0229991D01*
X0367230Y0223545D02*
X0370432Y0223545D01*
X0366162Y0221370D02*
X0365095Y0220303D01*
X0365095Y0218168D01*
X0366162Y0217100D01*
X0375095Y0217100D02*
X0375095Y0220303D01*
X0376162Y0221370D01*
X0380432Y0221370D01*
X0381500Y0220303D01*
X0381500Y0217100D01*
X0375095Y0217100D01*
X0377230Y0223545D02*
X0380432Y0223545D01*
X0381500Y0224613D01*
X0381500Y0227816D01*
X0382568Y0227816D02*
X0383635Y0226748D01*
X0383635Y0225681D01*
X0382568Y0227816D02*
X0377230Y0227816D01*
X0375095Y0229991D02*
X0375095Y0231059D01*
X0381500Y0231059D01*
X0381500Y0232126D02*
X0381500Y0229991D01*
X0380432Y0234288D02*
X0379365Y0235356D01*
X0379365Y0238558D01*
X0378297Y0238558D02*
X0381500Y0238558D01*
X0381500Y0235356D01*
X0380432Y0234288D01*
X0377230Y0235356D02*
X0377230Y0237491D01*
X0378297Y0238558D01*
X0377230Y0240733D02*
X0377230Y0243936D01*
X0378297Y0245004D01*
X0381500Y0245004D01*
X0381500Y0240733D02*
X0377230Y0240733D01*
X0371500Y0239639D02*
X0371500Y0237504D01*
X0370432Y0236436D01*
X0368297Y0236436D01*
X0367230Y0237504D01*
X0367230Y0239639D01*
X0368297Y0240707D01*
X0369365Y0240707D01*
X0369365Y0236436D01*
X0369365Y0249327D02*
X0369365Y0252530D01*
X0368297Y0253598D01*
X0366162Y0253598D01*
X0365095Y0252530D01*
X0365095Y0249327D01*
X0371500Y0249327D01*
X0369365Y0251463D02*
X0371500Y0253598D01*
X0370432Y0255773D02*
X0371500Y0256841D01*
X0371500Y0258976D01*
X0370432Y0260043D01*
X0368297Y0260043D01*
X0368297Y0257908D01*
X0366162Y0255773D02*
X0370432Y0255773D01*
X0366162Y0255773D02*
X0365095Y0256841D01*
X0365095Y0258976D01*
X0366162Y0260043D01*
X0365095Y0262218D02*
X0365095Y0265421D01*
X0366162Y0266489D01*
X0367230Y0266489D01*
X0368297Y0265421D01*
X0368297Y0262218D01*
X0365095Y0262218D02*
X0371500Y0262218D01*
X0371500Y0265421D01*
X0370432Y0266489D01*
X0369365Y0266489D01*
X0368297Y0265421D01*
X0375095Y0266515D02*
X0375095Y0267583D01*
X0381500Y0267583D01*
X0381500Y0266515D02*
X0381500Y0268651D01*
X0381500Y0270812D02*
X0381500Y0272948D01*
X0381500Y0271880D02*
X0375095Y0271880D01*
X0375095Y0270812D01*
X0377230Y0276177D02*
X0377230Y0278312D01*
X0378297Y0279380D01*
X0381500Y0279380D01*
X0381500Y0276177D01*
X0380432Y0275109D01*
X0379365Y0276177D01*
X0379365Y0279380D01*
X0380432Y0281555D02*
X0377230Y0281555D01*
X0380432Y0281555D02*
X0381500Y0282623D01*
X0381500Y0285825D01*
X0377230Y0285825D01*
X0378297Y0288000D02*
X0377230Y0289068D01*
X0377230Y0292271D01*
X0375095Y0292271D02*
X0381500Y0292271D01*
X0381500Y0289068D01*
X0380432Y0288000D01*
X0378297Y0288000D01*
X0371500Y0285825D02*
X0367230Y0281555D01*
X0368297Y0279380D02*
X0368297Y0275109D01*
X0365095Y0278312D01*
X0371500Y0278312D01*
X0371500Y0281555D02*
X0367230Y0285825D01*
X0368297Y0288000D02*
X0368297Y0292271D01*
X0367230Y0294446D02*
X0371500Y0298716D01*
X0368297Y0300891D02*
X0368297Y0305162D01*
X0365095Y0304094D02*
X0368297Y0300891D01*
X0367230Y0298716D02*
X0371500Y0294446D01*
X0371500Y0291203D02*
X0365095Y0291203D01*
X0368297Y0288000D01*
X0356800Y0299300D02*
X0356800Y0304300D01*
X0354300Y0306800D01*
X0349300Y0306800D01*
X0346800Y0304300D01*
X0344300Y0306800D01*
X0339300Y0306800D01*
X0336800Y0304300D01*
X0334300Y0306800D01*
X0329300Y0306800D01*
X0326800Y0304300D01*
X0326800Y0299300D01*
X0329300Y0296800D01*
X0334300Y0296800D01*
X0336800Y0299300D01*
X0339300Y0296800D01*
X0344300Y0296800D01*
X0346800Y0299300D01*
X0349300Y0296800D01*
X0354300Y0296800D01*
X0356800Y0299300D01*
X0365095Y0304094D02*
X0371500Y0304094D01*
X0378297Y0264340D02*
X0377230Y0263273D01*
X0377230Y0261138D01*
X0378297Y0260070D01*
X0380432Y0260070D01*
X0381500Y0261138D01*
X0381500Y0263273D01*
X0380432Y0264340D01*
X0378297Y0264340D01*
X0376162Y0257895D02*
X0375095Y0256827D01*
X0375095Y0254692D01*
X0376162Y0253624D01*
X0380432Y0253624D01*
X0381500Y0254692D01*
X0381500Y0256827D01*
X0380432Y0257895D01*
X0310000Y0192400D02*
X0283600Y0192400D01*
X0283524Y0192398D01*
X0283448Y0192392D01*
X0283373Y0192383D01*
X0283298Y0192369D01*
X0283224Y0192352D01*
X0283151Y0192331D01*
X0283079Y0192307D01*
X0283008Y0192278D01*
X0282939Y0192247D01*
X0282872Y0192212D01*
X0282807Y0192173D01*
X0282743Y0192131D01*
X0282682Y0192086D01*
X0282623Y0192038D01*
X0282567Y0191987D01*
X0282513Y0191933D01*
X0282462Y0191877D01*
X0282414Y0191818D01*
X0282369Y0191757D01*
X0282327Y0191693D01*
X0282288Y0191628D01*
X0282253Y0191561D01*
X0282222Y0191492D01*
X0282193Y0191421D01*
X0282169Y0191349D01*
X0282148Y0191276D01*
X0282131Y0191202D01*
X0282117Y0191127D01*
X0282108Y0191052D01*
X0282102Y0190976D01*
X0282100Y0190900D01*
X0261800Y0204300D02*
X0261800Y0209300D01*
X0259300Y0211800D01*
X0254300Y0211800D01*
X0251800Y0209300D01*
X0249300Y0211800D01*
X0244300Y0211800D01*
X0241800Y0209300D01*
X0239300Y0211800D01*
X0234300Y0211800D01*
X0231800Y0209300D01*
X0231800Y0204300D01*
X0234300Y0201800D01*
X0239300Y0201800D01*
X0241800Y0204300D01*
X0244300Y0201800D01*
X0249300Y0201800D01*
X0251800Y0204300D01*
X0254300Y0201800D01*
X0259300Y0201800D01*
X0261800Y0204300D01*
X0245000Y0192400D02*
X0218600Y0192400D01*
X0218524Y0192398D01*
X0218448Y0192392D01*
X0218373Y0192383D01*
X0218298Y0192369D01*
X0218224Y0192352D01*
X0218151Y0192331D01*
X0218079Y0192307D01*
X0218008Y0192278D01*
X0217939Y0192247D01*
X0217872Y0192212D01*
X0217807Y0192173D01*
X0217743Y0192131D01*
X0217682Y0192086D01*
X0217623Y0192038D01*
X0217567Y0191987D01*
X0217513Y0191933D01*
X0217462Y0191877D01*
X0217414Y0191818D01*
X0217369Y0191757D01*
X0217327Y0191693D01*
X0217288Y0191628D01*
X0217253Y0191561D01*
X0217222Y0191492D01*
X0217193Y0191421D01*
X0217169Y0191349D01*
X0217148Y0191276D01*
X0217131Y0191202D01*
X0217117Y0191127D01*
X0217108Y0191052D01*
X0217102Y0190976D01*
X0217100Y0190900D01*
X0245000Y0192400D02*
X0245076Y0192398D01*
X0245152Y0192392D01*
X0245227Y0192383D01*
X0245302Y0192369D01*
X0245376Y0192352D01*
X0245449Y0192331D01*
X0245521Y0192307D01*
X0245592Y0192278D01*
X0245661Y0192247D01*
X0245728Y0192212D01*
X0245793Y0192173D01*
X0245857Y0192131D01*
X0245918Y0192086D01*
X0245977Y0192038D01*
X0246033Y0191987D01*
X0246087Y0191933D01*
X0246138Y0191877D01*
X0246186Y0191818D01*
X0246231Y0191757D01*
X0246273Y0191693D01*
X0246312Y0191628D01*
X0246347Y0191561D01*
X0246378Y0191492D01*
X0246407Y0191421D01*
X0246431Y0191349D01*
X0246452Y0191276D01*
X0246469Y0191202D01*
X0246483Y0191127D01*
X0246492Y0191052D01*
X0246498Y0190976D01*
X0246500Y0190900D01*
X0203000Y0231800D02*
X0198800Y0231800D01*
X0194800Y0231800D01*
X0190600Y0231800D01*
X0190524Y0231802D01*
X0190448Y0231808D01*
X0190373Y0231817D01*
X0190298Y0231831D01*
X0190224Y0231848D01*
X0190151Y0231869D01*
X0190079Y0231893D01*
X0190008Y0231922D01*
X0189939Y0231953D01*
X0189872Y0231988D01*
X0189807Y0232027D01*
X0189743Y0232069D01*
X0189682Y0232114D01*
X0189623Y0232162D01*
X0189567Y0232213D01*
X0189513Y0232267D01*
X0189462Y0232323D01*
X0189414Y0232382D01*
X0189369Y0232443D01*
X0189327Y0232507D01*
X0189288Y0232572D01*
X0189253Y0232639D01*
X0189222Y0232708D01*
X0189193Y0232779D01*
X0189169Y0232851D01*
X0189148Y0232924D01*
X0189131Y0232998D01*
X0189117Y0233073D01*
X0189108Y0233148D01*
X0189102Y0233224D01*
X0189100Y0233300D01*
X0194800Y0231800D02*
X0194802Y0231888D01*
X0194808Y0231977D01*
X0194818Y0232065D01*
X0194831Y0232152D01*
X0194849Y0232239D01*
X0194870Y0232325D01*
X0194895Y0232410D01*
X0194924Y0232493D01*
X0194957Y0232576D01*
X0194993Y0232656D01*
X0195032Y0232735D01*
X0195075Y0232813D01*
X0195122Y0232888D01*
X0195172Y0232961D01*
X0195225Y0233032D01*
X0195281Y0233101D01*
X0195340Y0233167D01*
X0195402Y0233230D01*
X0195466Y0233290D01*
X0195533Y0233348D01*
X0195603Y0233402D01*
X0195675Y0233454D01*
X0195749Y0233502D01*
X0195826Y0233547D01*
X0195904Y0233588D01*
X0195984Y0233626D01*
X0196065Y0233660D01*
X0196148Y0233691D01*
X0196233Y0233718D01*
X0196318Y0233741D01*
X0196404Y0233760D01*
X0196492Y0233776D01*
X0196579Y0233788D01*
X0196667Y0233796D01*
X0196756Y0233800D01*
X0196844Y0233800D01*
X0196933Y0233796D01*
X0197021Y0233788D01*
X0197108Y0233776D01*
X0197196Y0233760D01*
X0197282Y0233741D01*
X0197367Y0233718D01*
X0197452Y0233691D01*
X0197535Y0233660D01*
X0197616Y0233626D01*
X0197696Y0233588D01*
X0197774Y0233547D01*
X0197851Y0233502D01*
X0197925Y0233454D01*
X0197997Y0233402D01*
X0198067Y0233348D01*
X0198134Y0233290D01*
X0198198Y0233230D01*
X0198260Y0233167D01*
X0198319Y0233101D01*
X0198375Y0233032D01*
X0198428Y0232961D01*
X0198478Y0232888D01*
X0198525Y0232813D01*
X0198568Y0232735D01*
X0198607Y0232656D01*
X0198643Y0232576D01*
X0198676Y0232493D01*
X0198705Y0232410D01*
X0198730Y0232325D01*
X0198751Y0232239D01*
X0198769Y0232152D01*
X0198782Y0232065D01*
X0198792Y0231977D01*
X0198798Y0231888D01*
X0198800Y0231800D01*
X0203000Y0231800D02*
X0203076Y0231802D01*
X0203152Y0231808D01*
X0203227Y0231817D01*
X0203302Y0231831D01*
X0203376Y0231848D01*
X0203449Y0231869D01*
X0203521Y0231893D01*
X0203592Y0231922D01*
X0203661Y0231953D01*
X0203728Y0231988D01*
X0203793Y0232027D01*
X0203857Y0232069D01*
X0203918Y0232114D01*
X0203977Y0232162D01*
X0204033Y0232213D01*
X0204087Y0232267D01*
X0204138Y0232323D01*
X0204186Y0232382D01*
X0204231Y0232443D01*
X0204273Y0232507D01*
X0204312Y0232572D01*
X0204347Y0232639D01*
X0204378Y0232708D01*
X0204407Y0232779D01*
X0204431Y0232851D01*
X0204452Y0232924D01*
X0204469Y0232998D01*
X0204483Y0233073D01*
X0204492Y0233148D01*
X0204498Y0233224D01*
X0204500Y0233300D01*
X0166800Y0209300D02*
X0166800Y0204300D01*
X0164300Y0201800D01*
X0159300Y0201800D01*
X0156800Y0204300D01*
X0154300Y0201800D01*
X0149300Y0201800D01*
X0146800Y0204300D01*
X0144300Y0201800D01*
X0139300Y0201800D01*
X0136800Y0204300D01*
X0136800Y0209300D01*
X0139300Y0211800D01*
X0144300Y0211800D01*
X0146800Y0209300D01*
X0149300Y0211800D01*
X0154300Y0211800D01*
X0156800Y0209300D01*
X0159300Y0211800D01*
X0164300Y0211800D01*
X0166800Y0209300D01*
X0180000Y0192400D02*
X0153600Y0192400D01*
X0153524Y0192398D01*
X0153448Y0192392D01*
X0153373Y0192383D01*
X0153298Y0192369D01*
X0153224Y0192352D01*
X0153151Y0192331D01*
X0153079Y0192307D01*
X0153008Y0192278D01*
X0152939Y0192247D01*
X0152872Y0192212D01*
X0152807Y0192173D01*
X0152743Y0192131D01*
X0152682Y0192086D01*
X0152623Y0192038D01*
X0152567Y0191987D01*
X0152513Y0191933D01*
X0152462Y0191877D01*
X0152414Y0191818D01*
X0152369Y0191757D01*
X0152327Y0191693D01*
X0152288Y0191628D01*
X0152253Y0191561D01*
X0152222Y0191492D01*
X0152193Y0191421D01*
X0152169Y0191349D01*
X0152148Y0191276D01*
X0152131Y0191202D01*
X0152117Y0191127D01*
X0152108Y0191052D01*
X0152102Y0190976D01*
X0152100Y0190900D01*
X0180000Y0192400D02*
X0180076Y0192398D01*
X0180152Y0192392D01*
X0180227Y0192383D01*
X0180302Y0192369D01*
X0180376Y0192352D01*
X0180449Y0192331D01*
X0180521Y0192307D01*
X0180592Y0192278D01*
X0180661Y0192247D01*
X0180728Y0192212D01*
X0180793Y0192173D01*
X0180857Y0192131D01*
X0180918Y0192086D01*
X0180977Y0192038D01*
X0181033Y0191987D01*
X0181087Y0191933D01*
X0181138Y0191877D01*
X0181186Y0191818D01*
X0181231Y0191757D01*
X0181273Y0191693D01*
X0181312Y0191628D01*
X0181347Y0191561D01*
X0181378Y0191492D01*
X0181407Y0191421D01*
X0181431Y0191349D01*
X0181452Y0191276D01*
X0181469Y0191202D01*
X0181483Y0191127D01*
X0181492Y0191052D01*
X0181498Y0190976D01*
X0181500Y0190900D01*
X0181500Y0142700D02*
X0181498Y0142624D01*
X0181492Y0142548D01*
X0181483Y0142473D01*
X0181469Y0142398D01*
X0181452Y0142324D01*
X0181431Y0142251D01*
X0181407Y0142179D01*
X0181378Y0142108D01*
X0181347Y0142039D01*
X0181312Y0141972D01*
X0181273Y0141907D01*
X0181231Y0141843D01*
X0181186Y0141782D01*
X0181138Y0141723D01*
X0181087Y0141667D01*
X0181033Y0141613D01*
X0180977Y0141562D01*
X0180918Y0141514D01*
X0180857Y0141469D01*
X0180793Y0141427D01*
X0180728Y0141388D01*
X0180661Y0141353D01*
X0180592Y0141322D01*
X0180521Y0141293D01*
X0180449Y0141269D01*
X0180376Y0141248D01*
X0180302Y0141231D01*
X0180227Y0141217D01*
X0180152Y0141208D01*
X0180076Y0141202D01*
X0180000Y0141200D01*
X0171800Y0141200D01*
X0161800Y0141200D01*
X0153600Y0141200D01*
X0153524Y0141202D01*
X0153448Y0141208D01*
X0153373Y0141217D01*
X0153298Y0141231D01*
X0153224Y0141248D01*
X0153151Y0141269D01*
X0153079Y0141293D01*
X0153008Y0141322D01*
X0152939Y0141353D01*
X0152872Y0141388D01*
X0152807Y0141427D01*
X0152743Y0141469D01*
X0152682Y0141514D01*
X0152623Y0141562D01*
X0152567Y0141613D01*
X0152513Y0141667D01*
X0152462Y0141723D01*
X0152414Y0141782D01*
X0152369Y0141843D01*
X0152327Y0141907D01*
X0152288Y0141972D01*
X0152253Y0142039D01*
X0152222Y0142108D01*
X0152193Y0142179D01*
X0152169Y0142251D01*
X0152148Y0142324D01*
X0152131Y0142398D01*
X0152117Y0142473D01*
X0152108Y0142548D01*
X0152102Y0142624D01*
X0152100Y0142700D01*
X0161800Y0141200D02*
X0161802Y0141340D01*
X0161808Y0141480D01*
X0161818Y0141620D01*
X0161831Y0141760D01*
X0161849Y0141899D01*
X0161871Y0142038D01*
X0161896Y0142175D01*
X0161925Y0142313D01*
X0161958Y0142449D01*
X0161995Y0142584D01*
X0162036Y0142718D01*
X0162081Y0142851D01*
X0162129Y0142983D01*
X0162181Y0143113D01*
X0162236Y0143242D01*
X0162295Y0143369D01*
X0162358Y0143495D01*
X0162424Y0143619D01*
X0162493Y0143740D01*
X0162566Y0143860D01*
X0162643Y0143978D01*
X0162722Y0144093D01*
X0162805Y0144207D01*
X0162891Y0144317D01*
X0162980Y0144426D01*
X0163072Y0144532D01*
X0163167Y0144635D01*
X0163264Y0144736D01*
X0163365Y0144833D01*
X0163468Y0144928D01*
X0163574Y0145020D01*
X0163683Y0145109D01*
X0163793Y0145195D01*
X0163907Y0145278D01*
X0164022Y0145357D01*
X0164140Y0145434D01*
X0164260Y0145507D01*
X0164381Y0145576D01*
X0164505Y0145642D01*
X0164631Y0145705D01*
X0164758Y0145764D01*
X0164887Y0145819D01*
X0165017Y0145871D01*
X0165149Y0145919D01*
X0165282Y0145964D01*
X0165416Y0146005D01*
X0165551Y0146042D01*
X0165687Y0146075D01*
X0165825Y0146104D01*
X0165962Y0146129D01*
X0166101Y0146151D01*
X0166240Y0146169D01*
X0166380Y0146182D01*
X0166520Y0146192D01*
X0166660Y0146198D01*
X0166800Y0146200D01*
X0166940Y0146198D01*
X0167080Y0146192D01*
X0167220Y0146182D01*
X0167360Y0146169D01*
X0167499Y0146151D01*
X0167638Y0146129D01*
X0167775Y0146104D01*
X0167913Y0146075D01*
X0168049Y0146042D01*
X0168184Y0146005D01*
X0168318Y0145964D01*
X0168451Y0145919D01*
X0168583Y0145871D01*
X0168713Y0145819D01*
X0168842Y0145764D01*
X0168969Y0145705D01*
X0169095Y0145642D01*
X0169219Y0145576D01*
X0169340Y0145507D01*
X0169460Y0145434D01*
X0169578Y0145357D01*
X0169693Y0145278D01*
X0169807Y0145195D01*
X0169917Y0145109D01*
X0170026Y0145020D01*
X0170132Y0144928D01*
X0170235Y0144833D01*
X0170336Y0144736D01*
X0170433Y0144635D01*
X0170528Y0144532D01*
X0170620Y0144426D01*
X0170709Y0144317D01*
X0170795Y0144207D01*
X0170878Y0144093D01*
X0170957Y0143978D01*
X0171034Y0143860D01*
X0171107Y0143740D01*
X0171176Y0143619D01*
X0171242Y0143495D01*
X0171305Y0143369D01*
X0171364Y0143242D01*
X0171419Y0143113D01*
X0171471Y0142983D01*
X0171519Y0142851D01*
X0171564Y0142718D01*
X0171605Y0142584D01*
X0171642Y0142449D01*
X0171675Y0142313D01*
X0171704Y0142175D01*
X0171729Y0142038D01*
X0171751Y0141899D01*
X0171769Y0141760D01*
X0171782Y0141620D01*
X0171792Y0141480D01*
X0171798Y0141340D01*
X0171800Y0141200D01*
X0164300Y0116800D02*
X0159300Y0116800D01*
X0156800Y0114300D01*
X0154300Y0116800D01*
X0149300Y0116800D01*
X0146800Y0114300D01*
X0144300Y0116800D01*
X0139300Y0116800D01*
X0136800Y0114300D01*
X0136800Y0109300D01*
X0139300Y0106800D01*
X0144300Y0106800D01*
X0146800Y0109300D01*
X0149300Y0106800D01*
X0154300Y0106800D01*
X0156800Y0109300D01*
X0159300Y0106800D01*
X0164300Y0106800D01*
X0166800Y0109300D01*
X0166800Y0114300D01*
X0164300Y0116800D01*
X0115000Y0141200D02*
X0106800Y0141200D01*
X0096800Y0141200D01*
X0088600Y0141200D01*
X0088524Y0141202D01*
X0088448Y0141208D01*
X0088373Y0141217D01*
X0088298Y0141231D01*
X0088224Y0141248D01*
X0088151Y0141269D01*
X0088079Y0141293D01*
X0088008Y0141322D01*
X0087939Y0141353D01*
X0087872Y0141388D01*
X0087807Y0141427D01*
X0087743Y0141469D01*
X0087682Y0141514D01*
X0087623Y0141562D01*
X0087567Y0141613D01*
X0087513Y0141667D01*
X0087462Y0141723D01*
X0087414Y0141782D01*
X0087369Y0141843D01*
X0087327Y0141907D01*
X0087288Y0141972D01*
X0087253Y0142039D01*
X0087222Y0142108D01*
X0087193Y0142179D01*
X0087169Y0142251D01*
X0087148Y0142324D01*
X0087131Y0142398D01*
X0087117Y0142473D01*
X0087108Y0142548D01*
X0087102Y0142624D01*
X0087100Y0142700D01*
X0096800Y0141200D02*
X0096802Y0141340D01*
X0096808Y0141480D01*
X0096818Y0141620D01*
X0096831Y0141760D01*
X0096849Y0141899D01*
X0096871Y0142038D01*
X0096896Y0142175D01*
X0096925Y0142313D01*
X0096958Y0142449D01*
X0096995Y0142584D01*
X0097036Y0142718D01*
X0097081Y0142851D01*
X0097129Y0142983D01*
X0097181Y0143113D01*
X0097236Y0143242D01*
X0097295Y0143369D01*
X0097358Y0143495D01*
X0097424Y0143619D01*
X0097493Y0143740D01*
X0097566Y0143860D01*
X0097643Y0143978D01*
X0097722Y0144093D01*
X0097805Y0144207D01*
X0097891Y0144317D01*
X0097980Y0144426D01*
X0098072Y0144532D01*
X0098167Y0144635D01*
X0098264Y0144736D01*
X0098365Y0144833D01*
X0098468Y0144928D01*
X0098574Y0145020D01*
X0098683Y0145109D01*
X0098793Y0145195D01*
X0098907Y0145278D01*
X0099022Y0145357D01*
X0099140Y0145434D01*
X0099260Y0145507D01*
X0099381Y0145576D01*
X0099505Y0145642D01*
X0099631Y0145705D01*
X0099758Y0145764D01*
X0099887Y0145819D01*
X0100017Y0145871D01*
X0100149Y0145919D01*
X0100282Y0145964D01*
X0100416Y0146005D01*
X0100551Y0146042D01*
X0100687Y0146075D01*
X0100825Y0146104D01*
X0100962Y0146129D01*
X0101101Y0146151D01*
X0101240Y0146169D01*
X0101380Y0146182D01*
X0101520Y0146192D01*
X0101660Y0146198D01*
X0101800Y0146200D01*
X0101940Y0146198D01*
X0102080Y0146192D01*
X0102220Y0146182D01*
X0102360Y0146169D01*
X0102499Y0146151D01*
X0102638Y0146129D01*
X0102775Y0146104D01*
X0102913Y0146075D01*
X0103049Y0146042D01*
X0103184Y0146005D01*
X0103318Y0145964D01*
X0103451Y0145919D01*
X0103583Y0145871D01*
X0103713Y0145819D01*
X0103842Y0145764D01*
X0103969Y0145705D01*
X0104095Y0145642D01*
X0104219Y0145576D01*
X0104340Y0145507D01*
X0104460Y0145434D01*
X0104578Y0145357D01*
X0104693Y0145278D01*
X0104807Y0145195D01*
X0104917Y0145109D01*
X0105026Y0145020D01*
X0105132Y0144928D01*
X0105235Y0144833D01*
X0105336Y0144736D01*
X0105433Y0144635D01*
X0105528Y0144532D01*
X0105620Y0144426D01*
X0105709Y0144317D01*
X0105795Y0144207D01*
X0105878Y0144093D01*
X0105957Y0143978D01*
X0106034Y0143860D01*
X0106107Y0143740D01*
X0106176Y0143619D01*
X0106242Y0143495D01*
X0106305Y0143369D01*
X0106364Y0143242D01*
X0106419Y0143113D01*
X0106471Y0142983D01*
X0106519Y0142851D01*
X0106564Y0142718D01*
X0106605Y0142584D01*
X0106642Y0142449D01*
X0106675Y0142313D01*
X0106704Y0142175D01*
X0106729Y0142038D01*
X0106751Y0141899D01*
X0106769Y0141760D01*
X0106782Y0141620D01*
X0106792Y0141480D01*
X0106798Y0141340D01*
X0106800Y0141200D01*
X0115000Y0141200D02*
X0115076Y0141202D01*
X0115152Y0141208D01*
X0115227Y0141217D01*
X0115302Y0141231D01*
X0115376Y0141248D01*
X0115449Y0141269D01*
X0115521Y0141293D01*
X0115592Y0141322D01*
X0115661Y0141353D01*
X0115728Y0141388D01*
X0115793Y0141427D01*
X0115857Y0141469D01*
X0115918Y0141514D01*
X0115977Y0141562D01*
X0116033Y0141613D01*
X0116087Y0141667D01*
X0116138Y0141723D01*
X0116186Y0141782D01*
X0116231Y0141843D01*
X0116273Y0141907D01*
X0116312Y0141972D01*
X0116347Y0142039D01*
X0116378Y0142108D01*
X0116407Y0142179D01*
X0116431Y0142251D01*
X0116452Y0142324D01*
X0116469Y0142398D01*
X0116483Y0142473D01*
X0116492Y0142548D01*
X0116498Y0142624D01*
X0116500Y0142700D01*
X0076800Y0114300D02*
X0076800Y0109300D01*
X0074300Y0106800D01*
X0069300Y0106800D01*
X0066800Y0109300D01*
X0064300Y0106800D01*
X0059300Y0106800D01*
X0056800Y0109300D01*
X0054300Y0106800D01*
X0049300Y0106800D01*
X0046800Y0109300D01*
X0046800Y0114300D01*
X0049300Y0116800D01*
X0054300Y0116800D01*
X0056800Y0114300D01*
X0059300Y0116800D01*
X0064300Y0116800D01*
X0066800Y0114300D01*
X0069300Y0116800D01*
X0074300Y0116800D01*
X0076800Y0114300D01*
X0050000Y0141200D02*
X0041800Y0141200D01*
X0031800Y0141200D01*
X0023600Y0141200D01*
X0023524Y0141202D01*
X0023448Y0141208D01*
X0023373Y0141217D01*
X0023298Y0141231D01*
X0023224Y0141248D01*
X0023151Y0141269D01*
X0023079Y0141293D01*
X0023008Y0141322D01*
X0022939Y0141353D01*
X0022872Y0141388D01*
X0022807Y0141427D01*
X0022743Y0141469D01*
X0022682Y0141514D01*
X0022623Y0141562D01*
X0022567Y0141613D01*
X0022513Y0141667D01*
X0022462Y0141723D01*
X0022414Y0141782D01*
X0022369Y0141843D01*
X0022327Y0141907D01*
X0022288Y0141972D01*
X0022253Y0142039D01*
X0022222Y0142108D01*
X0022193Y0142179D01*
X0022169Y0142251D01*
X0022148Y0142324D01*
X0022131Y0142398D01*
X0022117Y0142473D01*
X0022108Y0142548D01*
X0022102Y0142624D01*
X0022100Y0142700D01*
X0031800Y0141200D02*
X0031802Y0141340D01*
X0031808Y0141480D01*
X0031818Y0141620D01*
X0031831Y0141760D01*
X0031849Y0141899D01*
X0031871Y0142038D01*
X0031896Y0142175D01*
X0031925Y0142313D01*
X0031958Y0142449D01*
X0031995Y0142584D01*
X0032036Y0142718D01*
X0032081Y0142851D01*
X0032129Y0142983D01*
X0032181Y0143113D01*
X0032236Y0143242D01*
X0032295Y0143369D01*
X0032358Y0143495D01*
X0032424Y0143619D01*
X0032493Y0143740D01*
X0032566Y0143860D01*
X0032643Y0143978D01*
X0032722Y0144093D01*
X0032805Y0144207D01*
X0032891Y0144317D01*
X0032980Y0144426D01*
X0033072Y0144532D01*
X0033167Y0144635D01*
X0033264Y0144736D01*
X0033365Y0144833D01*
X0033468Y0144928D01*
X0033574Y0145020D01*
X0033683Y0145109D01*
X0033793Y0145195D01*
X0033907Y0145278D01*
X0034022Y0145357D01*
X0034140Y0145434D01*
X0034260Y0145507D01*
X0034381Y0145576D01*
X0034505Y0145642D01*
X0034631Y0145705D01*
X0034758Y0145764D01*
X0034887Y0145819D01*
X0035017Y0145871D01*
X0035149Y0145919D01*
X0035282Y0145964D01*
X0035416Y0146005D01*
X0035551Y0146042D01*
X0035687Y0146075D01*
X0035825Y0146104D01*
X0035962Y0146129D01*
X0036101Y0146151D01*
X0036240Y0146169D01*
X0036380Y0146182D01*
X0036520Y0146192D01*
X0036660Y0146198D01*
X0036800Y0146200D01*
X0036940Y0146198D01*
X0037080Y0146192D01*
X0037220Y0146182D01*
X0037360Y0146169D01*
X0037499Y0146151D01*
X0037638Y0146129D01*
X0037775Y0146104D01*
X0037913Y0146075D01*
X0038049Y0146042D01*
X0038184Y0146005D01*
X0038318Y0145964D01*
X0038451Y0145919D01*
X0038583Y0145871D01*
X0038713Y0145819D01*
X0038842Y0145764D01*
X0038969Y0145705D01*
X0039095Y0145642D01*
X0039219Y0145576D01*
X0039340Y0145507D01*
X0039460Y0145434D01*
X0039578Y0145357D01*
X0039693Y0145278D01*
X0039807Y0145195D01*
X0039917Y0145109D01*
X0040026Y0145020D01*
X0040132Y0144928D01*
X0040235Y0144833D01*
X0040336Y0144736D01*
X0040433Y0144635D01*
X0040528Y0144532D01*
X0040620Y0144426D01*
X0040709Y0144317D01*
X0040795Y0144207D01*
X0040878Y0144093D01*
X0040957Y0143978D01*
X0041034Y0143860D01*
X0041107Y0143740D01*
X0041176Y0143619D01*
X0041242Y0143495D01*
X0041305Y0143369D01*
X0041364Y0143242D01*
X0041419Y0143113D01*
X0041471Y0142983D01*
X0041519Y0142851D01*
X0041564Y0142718D01*
X0041605Y0142584D01*
X0041642Y0142449D01*
X0041675Y0142313D01*
X0041704Y0142175D01*
X0041729Y0142038D01*
X0041751Y0141899D01*
X0041769Y0141760D01*
X0041782Y0141620D01*
X0041792Y0141480D01*
X0041798Y0141340D01*
X0041800Y0141200D01*
X0050000Y0141200D02*
X0050076Y0141202D01*
X0050152Y0141208D01*
X0050227Y0141217D01*
X0050302Y0141231D01*
X0050376Y0141248D01*
X0050449Y0141269D01*
X0050521Y0141293D01*
X0050592Y0141322D01*
X0050661Y0141353D01*
X0050728Y0141388D01*
X0050793Y0141427D01*
X0050857Y0141469D01*
X0050918Y0141514D01*
X0050977Y0141562D01*
X0051033Y0141613D01*
X0051087Y0141667D01*
X0051138Y0141723D01*
X0051186Y0141782D01*
X0051231Y0141843D01*
X0051273Y0141907D01*
X0051312Y0141972D01*
X0051347Y0142039D01*
X0051378Y0142108D01*
X0051407Y0142179D01*
X0051431Y0142251D01*
X0051452Y0142324D01*
X0051469Y0142398D01*
X0051483Y0142473D01*
X0051492Y0142548D01*
X0051498Y0142624D01*
X0051500Y0142700D01*
X0051500Y0190900D02*
X0051498Y0190976D01*
X0051492Y0191052D01*
X0051483Y0191127D01*
X0051469Y0191202D01*
X0051452Y0191276D01*
X0051431Y0191349D01*
X0051407Y0191421D01*
X0051378Y0191492D01*
X0051347Y0191561D01*
X0051312Y0191628D01*
X0051273Y0191693D01*
X0051231Y0191757D01*
X0051186Y0191818D01*
X0051138Y0191877D01*
X0051087Y0191933D01*
X0051033Y0191987D01*
X0050977Y0192038D01*
X0050918Y0192086D01*
X0050857Y0192131D01*
X0050793Y0192173D01*
X0050728Y0192212D01*
X0050661Y0192247D01*
X0050592Y0192278D01*
X0050521Y0192307D01*
X0050449Y0192331D01*
X0050376Y0192352D01*
X0050302Y0192369D01*
X0050227Y0192383D01*
X0050152Y0192392D01*
X0050076Y0192398D01*
X0050000Y0192400D01*
X0023600Y0192400D01*
X0023524Y0192398D01*
X0023448Y0192392D01*
X0023373Y0192383D01*
X0023298Y0192369D01*
X0023224Y0192352D01*
X0023151Y0192331D01*
X0023079Y0192307D01*
X0023008Y0192278D01*
X0022939Y0192247D01*
X0022872Y0192212D01*
X0022807Y0192173D01*
X0022743Y0192131D01*
X0022682Y0192086D01*
X0022623Y0192038D01*
X0022567Y0191987D01*
X0022513Y0191933D01*
X0022462Y0191877D01*
X0022414Y0191818D01*
X0022369Y0191757D01*
X0022327Y0191693D01*
X0022288Y0191628D01*
X0022253Y0191561D01*
X0022222Y0191492D01*
X0022193Y0191421D01*
X0022169Y0191349D01*
X0022148Y0191276D01*
X0022131Y0191202D01*
X0022117Y0191127D01*
X0022108Y0191052D01*
X0022102Y0190976D01*
X0022100Y0190900D01*
X0046800Y0204300D02*
X0046800Y0209300D01*
X0049300Y0211800D01*
X0054300Y0211800D01*
X0056800Y0209300D01*
X0059300Y0211800D01*
X0064300Y0211800D01*
X0066800Y0209300D01*
X0069300Y0211800D01*
X0074300Y0211800D01*
X0076800Y0209300D01*
X0076800Y0204300D01*
X0074300Y0201800D01*
X0069300Y0201800D01*
X0066800Y0204300D01*
X0064300Y0201800D01*
X0059300Y0201800D01*
X0056800Y0204300D01*
X0054300Y0201800D01*
X0049300Y0201800D01*
X0046800Y0204300D01*
X0088600Y0192400D02*
X0115000Y0192400D01*
X0115076Y0192398D01*
X0115152Y0192392D01*
X0115227Y0192383D01*
X0115302Y0192369D01*
X0115376Y0192352D01*
X0115449Y0192331D01*
X0115521Y0192307D01*
X0115592Y0192278D01*
X0115661Y0192247D01*
X0115728Y0192212D01*
X0115793Y0192173D01*
X0115857Y0192131D01*
X0115918Y0192086D01*
X0115977Y0192038D01*
X0116033Y0191987D01*
X0116087Y0191933D01*
X0116138Y0191877D01*
X0116186Y0191818D01*
X0116231Y0191757D01*
X0116273Y0191693D01*
X0116312Y0191628D01*
X0116347Y0191561D01*
X0116378Y0191492D01*
X0116407Y0191421D01*
X0116431Y0191349D01*
X0116452Y0191276D01*
X0116469Y0191202D01*
X0116483Y0191127D01*
X0116492Y0191052D01*
X0116498Y0190976D01*
X0116500Y0190900D01*
X0088600Y0192400D02*
X0088524Y0192398D01*
X0088448Y0192392D01*
X0088373Y0192383D01*
X0088298Y0192369D01*
X0088224Y0192352D01*
X0088151Y0192331D01*
X0088079Y0192307D01*
X0088008Y0192278D01*
X0087939Y0192247D01*
X0087872Y0192212D01*
X0087807Y0192173D01*
X0087743Y0192131D01*
X0087682Y0192086D01*
X0087623Y0192038D01*
X0087567Y0191987D01*
X0087513Y0191933D01*
X0087462Y0191877D01*
X0087414Y0191818D01*
X0087369Y0191757D01*
X0087327Y0191693D01*
X0087288Y0191628D01*
X0087253Y0191561D01*
X0087222Y0191492D01*
X0087193Y0191421D01*
X0087169Y0191349D01*
X0087148Y0191276D01*
X0087131Y0191202D01*
X0087117Y0191127D01*
X0087108Y0191052D01*
X0087102Y0190976D01*
X0087100Y0190900D01*
X0041416Y0257100D02*
X0039281Y0257100D01*
X0038214Y0258168D01*
X0042484Y0262438D01*
X0042484Y0258168D01*
X0041416Y0257100D01*
X0039281Y0257100D01*
X0038214Y0258168D01*
X0038214Y0262438D01*
X0039281Y0263505D01*
X0041416Y0263505D01*
X0042484Y0262438D01*
X0038214Y0258168D01*
X0038214Y0262438D01*
X0039281Y0263505D01*
X0041416Y0263505D01*
X0042484Y0262438D01*
X0042484Y0258168D01*
X0041416Y0257100D01*
X0036059Y0257100D02*
X0036059Y0258168D01*
X0034991Y0258168D01*
X0034991Y0257100D01*
X0036059Y0257100D01*
X0034991Y0257100D01*
X0034991Y0258168D01*
X0036059Y0258168D01*
X0036059Y0257100D01*
X0032816Y0257100D02*
X0028545Y0257100D01*
X0032816Y0257100D01*
X0030681Y0257100D02*
X0030681Y0263505D01*
X0028545Y0261370D01*
X0030681Y0263505D01*
X0030681Y0257100D01*
X0026370Y0259235D02*
X0026370Y0263505D01*
X0026370Y0259235D01*
X0024235Y0257100D01*
X0022100Y0259235D01*
X0022100Y0263505D01*
X0022100Y0259235D01*
X0024235Y0257100D01*
X0026370Y0259235D01*
X0049300Y0296800D02*
X0046800Y0299300D01*
X0046800Y0304300D01*
X0049300Y0306800D01*
X0054300Y0306800D01*
X0056800Y0304300D01*
X0059300Y0306800D01*
X0064300Y0306800D01*
X0066800Y0304300D01*
X0069300Y0306800D01*
X0074300Y0306800D01*
X0076800Y0304300D01*
X0076800Y0299300D01*
X0074300Y0296800D01*
X0069300Y0296800D01*
X0066800Y0299300D01*
X0064300Y0296800D01*
X0059300Y0296800D01*
X0056800Y0299300D01*
X0054300Y0296800D01*
X0049300Y0296800D01*
X0136800Y0299300D02*
X0139300Y0296800D01*
X0144300Y0296800D01*
X0146800Y0299300D01*
X0149300Y0296800D01*
X0154300Y0296800D01*
X0156800Y0299300D01*
X0159300Y0296800D01*
X0164300Y0296800D01*
X0166800Y0299300D01*
X0166800Y0304300D01*
X0164300Y0306800D01*
X0159300Y0306800D01*
X0156800Y0304300D01*
X0154300Y0306800D01*
X0149300Y0306800D01*
X0146800Y0304300D01*
X0144300Y0306800D01*
X0139300Y0306800D01*
X0136800Y0304300D01*
X0136800Y0299300D01*
X0190600Y0271800D02*
X0203000Y0271800D01*
X0203076Y0271798D01*
X0203152Y0271792D01*
X0203227Y0271783D01*
X0203302Y0271769D01*
X0203376Y0271752D01*
X0203449Y0271731D01*
X0203521Y0271707D01*
X0203592Y0271678D01*
X0203661Y0271647D01*
X0203728Y0271612D01*
X0203793Y0271573D01*
X0203857Y0271531D01*
X0203918Y0271486D01*
X0203977Y0271438D01*
X0204033Y0271387D01*
X0204087Y0271333D01*
X0204138Y0271277D01*
X0204186Y0271218D01*
X0204231Y0271157D01*
X0204273Y0271093D01*
X0204312Y0271028D01*
X0204347Y0270961D01*
X0204378Y0270892D01*
X0204407Y0270821D01*
X0204431Y0270749D01*
X0204452Y0270676D01*
X0204469Y0270602D01*
X0204483Y0270527D01*
X0204492Y0270452D01*
X0204498Y0270376D01*
X0204500Y0270300D01*
X0190600Y0271800D02*
X0190524Y0271798D01*
X0190448Y0271792D01*
X0190373Y0271783D01*
X0190298Y0271769D01*
X0190224Y0271752D01*
X0190151Y0271731D01*
X0190079Y0271707D01*
X0190008Y0271678D01*
X0189939Y0271647D01*
X0189872Y0271612D01*
X0189807Y0271573D01*
X0189743Y0271531D01*
X0189682Y0271486D01*
X0189623Y0271438D01*
X0189567Y0271387D01*
X0189513Y0271333D01*
X0189462Y0271277D01*
X0189414Y0271218D01*
X0189369Y0271157D01*
X0189327Y0271093D01*
X0189288Y0271028D01*
X0189253Y0270961D01*
X0189222Y0270892D01*
X0189193Y0270821D01*
X0189169Y0270749D01*
X0189148Y0270676D01*
X0189131Y0270602D01*
X0189117Y0270527D01*
X0189108Y0270452D01*
X0189102Y0270376D01*
X0189100Y0270300D01*
X0231800Y0299300D02*
X0231800Y0304300D01*
X0234300Y0306800D01*
X0239300Y0306800D01*
X0241800Y0304300D01*
X0244300Y0306800D01*
X0249300Y0306800D01*
X0251800Y0304300D01*
X0254300Y0306800D01*
X0259300Y0306800D01*
X0261800Y0304300D01*
X0261800Y0299300D01*
X0259300Y0296800D01*
X0254300Y0296800D01*
X0251800Y0299300D01*
X0249300Y0296800D01*
X0244300Y0296800D01*
X0241800Y0299300D01*
X0239300Y0296800D01*
X0234300Y0296800D01*
X0231800Y0299300D01*
X0310000Y0192400D02*
X0310076Y0192398D01*
X0310152Y0192392D01*
X0310227Y0192383D01*
X0310302Y0192369D01*
X0310376Y0192352D01*
X0310449Y0192331D01*
X0310521Y0192307D01*
X0310592Y0192278D01*
X0310661Y0192247D01*
X0310728Y0192212D01*
X0310793Y0192173D01*
X0310857Y0192131D01*
X0310918Y0192086D01*
X0310977Y0192038D01*
X0311033Y0191987D01*
X0311087Y0191933D01*
X0311138Y0191877D01*
X0311186Y0191818D01*
X0311231Y0191757D01*
X0311273Y0191693D01*
X0311312Y0191628D01*
X0311347Y0191561D01*
X0311378Y0191492D01*
X0311407Y0191421D01*
X0311431Y0191349D01*
X0311452Y0191276D01*
X0311469Y0191202D01*
X0311483Y0191127D01*
X0311492Y0191052D01*
X0311498Y0190976D01*
X0311500Y0190900D01*
X0246500Y0142700D02*
X0246498Y0142624D01*
X0246492Y0142548D01*
X0246483Y0142473D01*
X0246469Y0142398D01*
X0246452Y0142324D01*
X0246431Y0142251D01*
X0246407Y0142179D01*
X0246378Y0142108D01*
X0246347Y0142039D01*
X0246312Y0141972D01*
X0246273Y0141907D01*
X0246231Y0141843D01*
X0246186Y0141782D01*
X0246138Y0141723D01*
X0246087Y0141667D01*
X0246033Y0141613D01*
X0245977Y0141562D01*
X0245918Y0141514D01*
X0245857Y0141469D01*
X0245793Y0141427D01*
X0245728Y0141388D01*
X0245661Y0141353D01*
X0245592Y0141322D01*
X0245521Y0141293D01*
X0245449Y0141269D01*
X0245376Y0141248D01*
X0245302Y0141231D01*
X0245227Y0141217D01*
X0245152Y0141208D01*
X0245076Y0141202D01*
X0245000Y0141200D01*
X0236800Y0141200D01*
X0226800Y0141200D01*
X0218600Y0141200D01*
X0218524Y0141202D01*
X0218448Y0141208D01*
X0218373Y0141217D01*
X0218298Y0141231D01*
X0218224Y0141248D01*
X0218151Y0141269D01*
X0218079Y0141293D01*
X0218008Y0141322D01*
X0217939Y0141353D01*
X0217872Y0141388D01*
X0217807Y0141427D01*
X0217743Y0141469D01*
X0217682Y0141514D01*
X0217623Y0141562D01*
X0217567Y0141613D01*
X0217513Y0141667D01*
X0217462Y0141723D01*
X0217414Y0141782D01*
X0217369Y0141843D01*
X0217327Y0141907D01*
X0217288Y0141972D01*
X0217253Y0142039D01*
X0217222Y0142108D01*
X0217193Y0142179D01*
X0217169Y0142251D01*
X0217148Y0142324D01*
X0217131Y0142398D01*
X0217117Y0142473D01*
X0217108Y0142548D01*
X0217102Y0142624D01*
X0217100Y0142700D01*
X0226800Y0141200D02*
X0226802Y0141340D01*
X0226808Y0141480D01*
X0226818Y0141620D01*
X0226831Y0141760D01*
X0226849Y0141899D01*
X0226871Y0142038D01*
X0226896Y0142175D01*
X0226925Y0142313D01*
X0226958Y0142449D01*
X0226995Y0142584D01*
X0227036Y0142718D01*
X0227081Y0142851D01*
X0227129Y0142983D01*
X0227181Y0143113D01*
X0227236Y0143242D01*
X0227295Y0143369D01*
X0227358Y0143495D01*
X0227424Y0143619D01*
X0227493Y0143740D01*
X0227566Y0143860D01*
X0227643Y0143978D01*
X0227722Y0144093D01*
X0227805Y0144207D01*
X0227891Y0144317D01*
X0227980Y0144426D01*
X0228072Y0144532D01*
X0228167Y0144635D01*
X0228264Y0144736D01*
X0228365Y0144833D01*
X0228468Y0144928D01*
X0228574Y0145020D01*
X0228683Y0145109D01*
X0228793Y0145195D01*
X0228907Y0145278D01*
X0229022Y0145357D01*
X0229140Y0145434D01*
X0229260Y0145507D01*
X0229381Y0145576D01*
X0229505Y0145642D01*
X0229631Y0145705D01*
X0229758Y0145764D01*
X0229887Y0145819D01*
X0230017Y0145871D01*
X0230149Y0145919D01*
X0230282Y0145964D01*
X0230416Y0146005D01*
X0230551Y0146042D01*
X0230687Y0146075D01*
X0230825Y0146104D01*
X0230962Y0146129D01*
X0231101Y0146151D01*
X0231240Y0146169D01*
X0231380Y0146182D01*
X0231520Y0146192D01*
X0231660Y0146198D01*
X0231800Y0146200D01*
X0231940Y0146198D01*
X0232080Y0146192D01*
X0232220Y0146182D01*
X0232360Y0146169D01*
X0232499Y0146151D01*
X0232638Y0146129D01*
X0232775Y0146104D01*
X0232913Y0146075D01*
X0233049Y0146042D01*
X0233184Y0146005D01*
X0233318Y0145964D01*
X0233451Y0145919D01*
X0233583Y0145871D01*
X0233713Y0145819D01*
X0233842Y0145764D01*
X0233969Y0145705D01*
X0234095Y0145642D01*
X0234219Y0145576D01*
X0234340Y0145507D01*
X0234460Y0145434D01*
X0234578Y0145357D01*
X0234693Y0145278D01*
X0234807Y0145195D01*
X0234917Y0145109D01*
X0235026Y0145020D01*
X0235132Y0144928D01*
X0235235Y0144833D01*
X0235336Y0144736D01*
X0235433Y0144635D01*
X0235528Y0144532D01*
X0235620Y0144426D01*
X0235709Y0144317D01*
X0235795Y0144207D01*
X0235878Y0144093D01*
X0235957Y0143978D01*
X0236034Y0143860D01*
X0236107Y0143740D01*
X0236176Y0143619D01*
X0236242Y0143495D01*
X0236305Y0143369D01*
X0236364Y0143242D01*
X0236419Y0143113D01*
X0236471Y0142983D01*
X0236519Y0142851D01*
X0236564Y0142718D01*
X0236605Y0142584D01*
X0236642Y0142449D01*
X0236675Y0142313D01*
X0236704Y0142175D01*
X0236729Y0142038D01*
X0236751Y0141899D01*
X0236769Y0141760D01*
X0236782Y0141620D01*
X0236792Y0141480D01*
X0236798Y0141340D01*
X0236800Y0141200D01*
X0234300Y0116800D02*
X0231800Y0114300D01*
X0231800Y0109300D01*
X0234300Y0106800D01*
X0239300Y0106800D01*
X0241800Y0109300D01*
X0244300Y0106800D01*
X0249300Y0106800D01*
X0251800Y0109300D01*
X0254300Y0106800D01*
X0259300Y0106800D01*
X0261800Y0109300D01*
X0261800Y0114300D01*
X0259300Y0116800D01*
X0254300Y0116800D01*
X0251800Y0114300D01*
X0249300Y0116800D01*
X0244300Y0116800D01*
X0241800Y0114300D01*
X0239300Y0116800D01*
X0234300Y0116800D01*
D11*
X0245100Y0141300D02*
X0245100Y0192300D01*
X0203100Y0231800D02*
X0203100Y0271800D01*
X0180100Y0192300D02*
X0180100Y0141300D01*
X0115100Y0141300D02*
X0115100Y0192300D01*
X0050100Y0192300D02*
X0050100Y0141300D01*
X0310100Y0141300D02*
X0310100Y0192300D01*
X0375100Y0192300D02*
X0375100Y0141300D01*
D12*
X0368550Y0152050D02*
X0367799Y0152050D01*
X0364797Y0155053D01*
X0364046Y0155053D01*
X0364046Y0152050D01*
X0366298Y0156654D02*
X0366298Y0159656D01*
X0366298Y0161258D02*
X0366298Y0164260D01*
X0364797Y0165862D02*
X0367799Y0165862D01*
X0368550Y0166612D01*
X0368550Y0168114D01*
X0367799Y0168864D01*
X0367799Y0170466D02*
X0368550Y0171216D01*
X0368550Y0172718D01*
X0367799Y0173468D01*
X0366298Y0173468D01*
X0365547Y0172718D01*
X0365547Y0171967D01*
X0366298Y0170466D01*
X0364046Y0170466D01*
X0364046Y0173468D01*
X0364046Y0175070D02*
X0364046Y0178072D01*
X0364797Y0178072D01*
X0367799Y0175070D01*
X0368550Y0175070D01*
X0364797Y0168864D02*
X0364046Y0168114D01*
X0364046Y0166612D01*
X0364797Y0165862D01*
X0364046Y0164260D02*
X0368550Y0164260D01*
X0368550Y0161258D02*
X0364046Y0161258D01*
X0364046Y0158906D02*
X0366298Y0156654D01*
X0368550Y0158906D02*
X0364046Y0158906D01*
X0366298Y0179674D02*
X0366298Y0182676D01*
X0364046Y0181925D02*
X0366298Y0179674D01*
X0368550Y0181925D02*
X0364046Y0181925D01*
X0364046Y0184277D02*
X0364046Y0186529D01*
X0364797Y0187280D01*
X0367799Y0187280D01*
X0368550Y0186529D01*
X0368550Y0184277D01*
X0364046Y0184277D01*
X0325053Y0204550D02*
X0322050Y0204550D01*
X0323551Y0204550D02*
X0323551Y0209054D01*
X0322050Y0207553D01*
X0302799Y0187280D02*
X0299797Y0187280D01*
X0299046Y0186529D01*
X0299046Y0184277D01*
X0303550Y0184277D01*
X0303550Y0186529D01*
X0302799Y0187280D01*
X0301298Y0182676D02*
X0301298Y0179674D01*
X0299046Y0181925D01*
X0303550Y0181925D01*
X0299797Y0178072D02*
X0302799Y0175070D01*
X0303550Y0175070D01*
X0302799Y0173468D02*
X0303550Y0172718D01*
X0303550Y0171216D01*
X0302799Y0170466D01*
X0301298Y0170466D02*
X0300547Y0171967D01*
X0300547Y0172718D01*
X0301298Y0173468D01*
X0302799Y0173468D01*
X0301298Y0170466D02*
X0299046Y0170466D01*
X0299046Y0173468D01*
X0299046Y0175070D02*
X0299046Y0178072D01*
X0299797Y0178072D01*
X0299797Y0168864D02*
X0299046Y0168114D01*
X0299046Y0166612D01*
X0299797Y0165862D01*
X0302799Y0165862D01*
X0303550Y0166612D01*
X0303550Y0168114D01*
X0302799Y0168864D01*
X0303550Y0164260D02*
X0299046Y0164260D01*
X0301298Y0164260D02*
X0301298Y0161258D01*
X0301298Y0159656D02*
X0301298Y0156654D01*
X0299046Y0158906D01*
X0303550Y0158906D01*
X0303550Y0161258D02*
X0299046Y0161258D01*
X0299046Y0155053D02*
X0299797Y0155053D01*
X0302799Y0152050D01*
X0303550Y0152050D01*
X0299046Y0152050D02*
X0299046Y0155053D01*
X0323551Y0114054D02*
X0322050Y0112553D01*
X0323551Y0114054D02*
X0323551Y0109550D01*
X0322050Y0109550D02*
X0325053Y0109550D01*
X0238550Y0152050D02*
X0237799Y0152050D01*
X0234797Y0155053D01*
X0234046Y0155053D01*
X0234046Y0152050D01*
X0236298Y0156654D02*
X0234046Y0158906D01*
X0238550Y0158906D01*
X0238550Y0161258D02*
X0234046Y0161258D01*
X0236298Y0161258D02*
X0236298Y0164260D01*
X0234797Y0165862D02*
X0237799Y0165862D01*
X0238550Y0166612D01*
X0238550Y0168114D01*
X0237799Y0168864D01*
X0237799Y0170466D02*
X0238550Y0171216D01*
X0238550Y0172718D01*
X0237799Y0173468D01*
X0236298Y0173468D01*
X0235547Y0172718D01*
X0235547Y0171967D01*
X0236298Y0170466D01*
X0234046Y0170466D01*
X0234046Y0173468D01*
X0234046Y0175070D02*
X0234046Y0178072D01*
X0234797Y0178072D01*
X0237799Y0175070D01*
X0238550Y0175070D01*
X0234797Y0168864D02*
X0234046Y0168114D01*
X0234046Y0166612D01*
X0234797Y0165862D01*
X0234046Y0164260D02*
X0238550Y0164260D01*
X0236298Y0159656D02*
X0236298Y0156654D01*
X0236298Y0179674D02*
X0236298Y0182676D01*
X0238550Y0181925D02*
X0234046Y0181925D01*
X0236298Y0179674D01*
X0234046Y0184277D02*
X0234046Y0186529D01*
X0234797Y0187280D01*
X0237799Y0187280D01*
X0238550Y0186529D01*
X0238550Y0184277D01*
X0234046Y0184277D01*
X0230053Y0204550D02*
X0227050Y0204550D01*
X0228551Y0204550D02*
X0228551Y0209054D01*
X0227050Y0207553D01*
X0199550Y0237050D02*
X0198799Y0237050D01*
X0195797Y0240053D01*
X0195046Y0240053D01*
X0195046Y0237050D01*
X0197298Y0241654D02*
X0197298Y0244656D01*
X0197298Y0246258D02*
X0197298Y0249260D01*
X0195797Y0250862D02*
X0198799Y0250862D01*
X0199550Y0251612D01*
X0199550Y0253114D01*
X0198799Y0253864D01*
X0199550Y0255466D02*
X0199550Y0258468D01*
X0199550Y0256967D02*
X0195046Y0256967D01*
X0196547Y0255466D01*
X0195797Y0253864D02*
X0195046Y0253114D01*
X0195046Y0251612D01*
X0195797Y0250862D01*
X0195046Y0249260D02*
X0199550Y0249260D01*
X0199550Y0246258D02*
X0195046Y0246258D01*
X0195046Y0243906D02*
X0197298Y0241654D01*
X0199550Y0243906D02*
X0195046Y0243906D01*
X0195797Y0260070D02*
X0195046Y0260820D01*
X0195046Y0262322D01*
X0195797Y0263072D01*
X0196547Y0263072D01*
X0197298Y0262322D01*
X0198049Y0263072D01*
X0198799Y0263072D01*
X0199550Y0262322D01*
X0199550Y0260820D01*
X0198799Y0260070D01*
X0197298Y0261571D02*
X0197298Y0262322D01*
X0196547Y0264674D02*
X0195797Y0264674D01*
X0195046Y0265424D01*
X0195046Y0266925D01*
X0195797Y0267676D01*
X0196547Y0267676D01*
X0197298Y0266925D01*
X0197298Y0265424D01*
X0196547Y0264674D01*
X0197298Y0265424D02*
X0198049Y0264674D01*
X0198799Y0264674D01*
X0199550Y0265424D01*
X0199550Y0266925D01*
X0198799Y0267676D01*
X0198049Y0267676D01*
X0197298Y0266925D01*
X0195046Y0269277D02*
X0195046Y0271529D01*
X0195797Y0272280D01*
X0198799Y0272280D01*
X0199550Y0271529D01*
X0199550Y0269277D01*
X0195046Y0269277D01*
X0227050Y0299550D02*
X0230053Y0299550D01*
X0228551Y0299550D02*
X0228551Y0304054D01*
X0227050Y0302553D01*
X0135053Y0299550D02*
X0132050Y0299550D01*
X0133551Y0299550D02*
X0133551Y0304054D01*
X0132050Y0302553D01*
X0045053Y0299550D02*
X0042050Y0299550D01*
X0043551Y0299550D02*
X0043551Y0304054D01*
X0042050Y0302553D01*
X0043551Y0209054D02*
X0043551Y0204550D01*
X0042050Y0204550D02*
X0045053Y0204550D01*
X0042050Y0207553D02*
X0043551Y0209054D01*
X0042799Y0187280D02*
X0039797Y0187280D01*
X0039046Y0186529D01*
X0039046Y0184277D01*
X0043550Y0184277D01*
X0043550Y0186529D01*
X0042799Y0187280D01*
X0041298Y0182676D02*
X0041298Y0179674D01*
X0039046Y0181925D01*
X0043550Y0181925D01*
X0039797Y0178072D02*
X0042799Y0175070D01*
X0043550Y0175070D01*
X0042799Y0173468D02*
X0043550Y0172718D01*
X0043550Y0171216D01*
X0042799Y0170466D01*
X0041298Y0170466D02*
X0040547Y0171967D01*
X0040547Y0172718D01*
X0041298Y0173468D01*
X0042799Y0173468D01*
X0041298Y0170466D02*
X0039046Y0170466D01*
X0039046Y0173468D01*
X0039046Y0175070D02*
X0039046Y0178072D01*
X0039797Y0178072D01*
X0039797Y0168864D02*
X0039046Y0168114D01*
X0039046Y0166612D01*
X0039797Y0165862D01*
X0042799Y0165862D01*
X0043550Y0166612D01*
X0043550Y0168114D01*
X0042799Y0168864D01*
X0043550Y0164260D02*
X0039046Y0164260D01*
X0041298Y0164260D02*
X0041298Y0161258D01*
X0041298Y0159656D02*
X0041298Y0156654D01*
X0039046Y0158906D01*
X0043550Y0158906D01*
X0043550Y0161258D02*
X0039046Y0161258D01*
X0039046Y0155053D02*
X0039797Y0155053D01*
X0042799Y0152050D01*
X0043550Y0152050D01*
X0039046Y0152050D02*
X0039046Y0155053D01*
X0043551Y0114054D02*
X0043551Y0109550D01*
X0042050Y0109550D02*
X0045053Y0109550D01*
X0042050Y0112553D02*
X0043551Y0114054D01*
X0104046Y0152050D02*
X0104046Y0155053D01*
X0104797Y0155053D01*
X0107799Y0152050D01*
X0108550Y0152050D01*
X0106298Y0156654D02*
X0106298Y0159656D01*
X0106298Y0161258D02*
X0106298Y0164260D01*
X0104797Y0165862D02*
X0107799Y0165862D01*
X0108550Y0166612D01*
X0108550Y0168114D01*
X0107799Y0168864D01*
X0107799Y0170466D02*
X0108550Y0171216D01*
X0108550Y0172718D01*
X0107799Y0173468D01*
X0106298Y0173468D01*
X0105547Y0172718D01*
X0105547Y0171967D01*
X0106298Y0170466D01*
X0104046Y0170466D01*
X0104046Y0173468D01*
X0104046Y0175070D02*
X0104046Y0178072D01*
X0104797Y0178072D01*
X0107799Y0175070D01*
X0108550Y0175070D01*
X0104797Y0168864D02*
X0104046Y0168114D01*
X0104046Y0166612D01*
X0104797Y0165862D01*
X0104046Y0164260D02*
X0108550Y0164260D01*
X0108550Y0161258D02*
X0104046Y0161258D01*
X0104046Y0158906D02*
X0106298Y0156654D01*
X0108550Y0158906D02*
X0104046Y0158906D01*
X0106298Y0179674D02*
X0106298Y0182676D01*
X0104046Y0181925D02*
X0106298Y0179674D01*
X0108550Y0181925D02*
X0104046Y0181925D01*
X0104046Y0184277D02*
X0104046Y0186529D01*
X0104797Y0187280D01*
X0107799Y0187280D01*
X0108550Y0186529D01*
X0108550Y0184277D01*
X0104046Y0184277D01*
X0132050Y0204550D02*
X0135053Y0204550D01*
X0133551Y0204550D02*
X0133551Y0209054D01*
X0132050Y0207553D01*
X0169046Y0186529D02*
X0169046Y0184277D01*
X0173550Y0184277D01*
X0173550Y0186529D01*
X0172799Y0187280D01*
X0169797Y0187280D01*
X0169046Y0186529D01*
X0171298Y0182676D02*
X0171298Y0179674D01*
X0169046Y0181925D01*
X0173550Y0181925D01*
X0169797Y0178072D02*
X0172799Y0175070D01*
X0173550Y0175070D01*
X0172799Y0173468D02*
X0173550Y0172718D01*
X0173550Y0171216D01*
X0172799Y0170466D01*
X0171298Y0170466D02*
X0170547Y0171967D01*
X0170547Y0172718D01*
X0171298Y0173468D01*
X0172799Y0173468D01*
X0171298Y0170466D02*
X0169046Y0170466D01*
X0169046Y0173468D01*
X0169046Y0175070D02*
X0169046Y0178072D01*
X0169797Y0178072D01*
X0169797Y0168864D02*
X0169046Y0168114D01*
X0169046Y0166612D01*
X0169797Y0165862D01*
X0172799Y0165862D01*
X0173550Y0166612D01*
X0173550Y0168114D01*
X0172799Y0168864D01*
X0173550Y0164260D02*
X0169046Y0164260D01*
X0171298Y0164260D02*
X0171298Y0161258D01*
X0171298Y0159656D02*
X0171298Y0156654D01*
X0169046Y0158906D01*
X0173550Y0158906D01*
X0173550Y0161258D02*
X0169046Y0161258D01*
X0169046Y0155053D02*
X0169797Y0155053D01*
X0172799Y0152050D01*
X0173550Y0152050D01*
X0169046Y0152050D02*
X0169046Y0155053D01*
X0133551Y0114054D02*
X0133551Y0109550D01*
X0132050Y0109550D02*
X0135053Y0109550D01*
X0132050Y0112553D02*
X0133551Y0114054D01*
X0227050Y0112553D02*
X0228551Y0114054D01*
X0228551Y0109550D01*
X0227050Y0109550D02*
X0230053Y0109550D01*
X0228551Y0019054D02*
X0227050Y0017553D01*
X0228551Y0019054D02*
X0228551Y0014550D01*
X0227050Y0014550D02*
X0230053Y0014550D01*
X0322050Y0014550D02*
X0325053Y0014550D01*
X0323551Y0014550D02*
X0323551Y0019054D01*
X0322050Y0017553D01*
X0135053Y0014550D02*
X0132050Y0014550D01*
X0133551Y0014550D02*
X0133551Y0019054D01*
X0132050Y0017553D01*
X0045053Y0014550D02*
X0042050Y0014550D01*
X0043551Y0014550D02*
X0043551Y0019054D01*
X0042050Y0017553D01*
X0322050Y0299550D02*
X0325053Y0299550D01*
X0323551Y0299550D02*
X0323551Y0304054D01*
X0322050Y0302553D01*
M02*
