%
M48
M72
T01C0.02362
T02C0.02400
T03C0.03150
T04C0.04000
%
T01
X91800Y16800
X131800Y16800
X146800Y41800
X156800Y41800
X181800Y41800
X176800Y61800
X186800Y16800
X106800Y71800
X81800Y101800
X106800Y111800
X111800Y126800
X81800Y126800
X36800Y126800
X16800Y101800
X21800Y236800
X66800Y256800
X91800Y271800
X101800Y291800
X111800Y251800
X181800Y301800
X271800Y296800
X311800Y296800
X301800Y261800
X341800Y256800
X371800Y91800
X326800Y51800
X16800Y296800
T02
X85500Y236700
X100800Y225900
X110700Y217800
X130500Y218700
X124200Y199800
X130500Y193500
X135900Y198900
X153900Y195300
X160200Y189000
X166500Y184500
X169200Y180000
X162900Y174600
X153900Y180000
X153900Y168300
X165600Y161100
X162900Y156600
X173700Y149400
X168300Y144000
X176400Y140400
X188100Y139500
X202500Y140400
X219600Y155700
X219600Y164700
X219600Y170100
X230400Y170100
X239400Y179100
X244800Y180000
X243000Y173700
X259200Y167400
X266400Y167400
X270000Y163800
X270000Y173700
X269100Y179100
X259200Y180000
X270900Y193500
X275400Y196200
X264600Y199800
X284400Y207000
X287100Y199800
X293400Y188100
X284400Y184500
X284400Y179100
X288000Y171900
X286200Y162900
X289800Y159300
X284400Y152100
X284400Y144900
X273600Y138600
X270000Y147600
X266400Y151200
X262800Y155700
X257400Y140400
X244800Y144000
X241200Y140400
X244800Y149400
X226800Y137700
X205200Y166500
X201600Y170100
X204300Y174600
X194400Y171900
X178200Y159300
X178200Y153900
X153900Y145800
X153900Y138600
X146700Y131400
X130500Y143100
X130500Y149400
X134100Y156600
X128700Y161100
X114300Y153900
X108000Y158400
X104400Y154800
X104400Y149400
X92700Y141300
X89100Y134100
X97200Y134100
X115200Y137700
X119700Y126900
X116100Y117900
X130500Y100800
X160200Y74700
X151200Y65700
X147600Y62100
X154800Y56700
X141300Y53100
X113400Y36900
X92700Y45900
X52200Y67500
X60300Y131400
X62100Y138600
X65700Y148500
X65700Y153900
X65700Y159300
X69300Y163800
X73800Y169200
X66600Y174600
X69300Y179100
X64800Y183600
X64800Y189000
X49500Y188100
X37800Y188100
X31500Y181800
X24300Y189000
X37800Y209700
X86400Y198900
X111600Y179100
X114300Y183600
X114300Y174600
X111600Y167400
X108000Y163800
X103500Y171000
X74700Y149400
X74700Y144000
X31500Y161100
X24300Y154800
X156600Y213300
X178200Y213300
X191700Y209700
X186300Y198000
X197100Y192600
X203400Y198000
X208800Y204300
X205200Y212400
X207000Y217800
X223200Y218700
X229500Y214200
X223200Y234000
X235800Y236700
X241200Y236700
X241200Y243900
X237600Y247500
X249300Y246600
X252000Y254700
X257400Y254700
X262800Y252900
X262800Y247500
X259200Y238500
X266400Y234900
X262800Y225900
X270900Y223200
X282600Y240300
X277200Y243900
X289800Y249300
X314100Y238500
X322200Y230400
X303300Y211500
X299700Y207900
X308700Y193500
X309600Y180000
X306900Y169200
X309600Y161100
X306000Y157500
X304200Y150300
X297900Y135900
X317700Y117000
X313200Y114300
X321300Y105300
X324000Y92700
X315000Y90900
X307800Y87300
X308700Y77400
X282600Y103500
X269100Y100800
X265500Y97200
X247500Y86400
X251100Y82800
X236700Y75600
X231300Y75600
X214200Y75600
X200700Y96300
X177300Y97200
X179100Y108900
X168300Y115200
X182700Y124200
X177300Y81900
X195300Y53100
X195300Y38700
X171000Y35100
X217800Y50400
X227700Y37800
X252000Y58500
X260100Y41400
X262800Y29700
X266400Y17100
X282600Y28800
X313200Y50400
X318600Y48600
X332100Y45000
X267300Y80100
X295200Y105300
X332100Y135000
X332100Y140400
X324000Y148500
X324000Y153900
X324000Y161100
X328500Y163800
X334800Y167400
X331200Y176400
X325800Y176400
X334800Y185400
X335700Y192600
X330300Y198000
X354600Y177300
X349200Y173700
X360900Y162900
X365400Y169200
X363600Y180900
X366300Y190800
X360000Y203400
X351900Y162000
X349200Y157500
X349200Y152100
X349200Y141300
X344700Y138600
X365400Y125100
X368100Y133200
X378900Y118800
X367200Y112500
X365400Y107100
X368100Y153000
X259200Y264600
X260100Y273600
X283500Y283500
X286200Y297900
X320400Y269100
X231300Y279000
X207000Y279000
X203400Y289800
X182700Y282600
X178200Y275400
X166500Y263700
X177300Y258300
X177300Y245700
X177300Y239400
X194400Y247500
X201600Y243900
X201600Y238500
X191700Y258300
X118800Y282600
X205200Y190800
X225900Y190800
T03
X221800Y126800
X211800Y126800
X231800Y126800
X241800Y126800
X251800Y126800
X261800Y126800
X271800Y126800
X281800Y126800
X291800Y126800
X301800Y126800
X311800Y126800
X321800Y126800
X331800Y126800
X341800Y126800
X351800Y126800
X351800Y66800
X341800Y66800
X331800Y66800
X321800Y66800
X311800Y66800
X301800Y66800
X291800Y66800
X281800Y66800
X271800Y66800
X261800Y66800
X251800Y66800
X241800Y66800
X231800Y66800
X221800Y66800
X211800Y66800
X206800Y86800
X206800Y96800
X206800Y106800
X216800Y106800
X216800Y96800
X216800Y86800
T04
X31800Y31800
X51800Y16800
X61800Y16800
X71800Y16800
X126800Y31800
X141800Y16800
X151800Y16800
X161800Y16800
X221800Y31800
X236800Y16800
X246800Y16800
X256800Y16800
X316800Y31800
X331800Y16800
X341800Y16800
X351800Y16800
X351800Y111800
X341800Y111800
X331800Y111800
X256800Y111800
X246800Y111800
X236800Y111800
X161800Y111800
X151800Y111800
X141800Y111800
X71800Y111800
X61800Y111800
X51800Y111800
X51800Y206800
X61800Y206800
X71800Y206800
X141800Y206800
X151800Y206800
X161800Y206800
X236800Y206800
X246800Y206800
X256800Y206800
X331800Y206800
X341800Y206800
X351800Y206800
X351800Y301800
X341800Y301800
X331800Y301800
X256800Y301800
X246800Y301800
X236800Y301800
X161800Y301800
X151800Y301800
X141800Y301800
X71800Y301800
X61800Y301800
X51800Y301800
M30
