G75*
%MOIN*%
%OFA0B0*%
%FSLAX25Y25*%
%IPPOS*%
%LPD*%
%AMOC8*
5,1,8,0,0,1.08239X$1,22.5*
%
%ADD10R,0.08800X0.03400*%
%ADD11R,0.06706X0.05918*%
%ADD12C,0.06800*%
%ADD13C,0.05950*%
%ADD14C,0.05950*%
%ADD15OC8,0.06800*%
%ADD16R,0.06312X0.04737*%
%ADD17R,0.05918X0.06706*%
%ADD18C,0.04800*%
%ADD19R,0.04762X0.04762*%
D10*
X0017000Y0144300D03*
X0017000Y0149300D03*
X0017000Y0154300D03*
X0017000Y0159300D03*
X0017000Y0164300D03*
X0017000Y0169300D03*
X0017000Y0174300D03*
X0017000Y0179300D03*
X0017000Y0184300D03*
X0017000Y0189300D03*
X0056600Y0189300D03*
X0056600Y0184300D03*
X0056600Y0179300D03*
X0056600Y0174300D03*
X0056600Y0169300D03*
X0056600Y0164300D03*
X0056600Y0159300D03*
X0056600Y0154300D03*
X0056600Y0149300D03*
X0056600Y0144300D03*
X0082000Y0144300D03*
X0082000Y0149300D03*
X0082000Y0154300D03*
X0082000Y0159300D03*
X0082000Y0164300D03*
X0082000Y0169300D03*
X0082000Y0174300D03*
X0082000Y0179300D03*
X0082000Y0184300D03*
X0082000Y0189300D03*
X0121600Y0189300D03*
X0121600Y0184300D03*
X0121600Y0179300D03*
X0121600Y0174300D03*
X0121600Y0169300D03*
X0121600Y0164300D03*
X0121600Y0159300D03*
X0121600Y0154300D03*
X0121600Y0149300D03*
X0121600Y0144300D03*
X0147000Y0144300D03*
X0147000Y0149300D03*
X0147000Y0154300D03*
X0147000Y0159300D03*
X0147000Y0164300D03*
X0147000Y0169300D03*
X0147000Y0174300D03*
X0147000Y0179300D03*
X0147000Y0184300D03*
X0147000Y0189300D03*
X0186600Y0189300D03*
X0186600Y0184300D03*
X0186600Y0179300D03*
X0186600Y0174300D03*
X0186600Y0169300D03*
X0186600Y0164300D03*
X0186600Y0159300D03*
X0186600Y0154300D03*
X0186600Y0149300D03*
X0186600Y0144300D03*
X0212000Y0144300D03*
X0212000Y0149300D03*
X0212000Y0154300D03*
X0212000Y0159300D03*
X0212000Y0164300D03*
X0212000Y0169300D03*
X0212000Y0174300D03*
X0212000Y0179300D03*
X0212000Y0184300D03*
X0212000Y0189300D03*
X0251600Y0189300D03*
X0251600Y0184300D03*
X0251600Y0179300D03*
X0251600Y0174300D03*
X0251600Y0169300D03*
X0251600Y0164300D03*
X0251600Y0159300D03*
X0251600Y0154300D03*
X0251600Y0149300D03*
X0251600Y0144300D03*
X0277000Y0144300D03*
X0277000Y0149300D03*
X0277000Y0154300D03*
X0277000Y0159300D03*
X0277000Y0164300D03*
X0277000Y0169300D03*
X0277000Y0174300D03*
X0277000Y0179300D03*
X0277000Y0184300D03*
X0277000Y0189300D03*
X0316600Y0189300D03*
X0316600Y0184300D03*
X0316600Y0179300D03*
X0316600Y0174300D03*
X0316600Y0169300D03*
X0316600Y0164300D03*
X0316600Y0159300D03*
X0316600Y0154300D03*
X0316600Y0149300D03*
X0316600Y0144300D03*
X0342000Y0144300D03*
X0342000Y0149300D03*
X0342000Y0154300D03*
X0342000Y0159300D03*
X0342000Y0164300D03*
X0342000Y0169300D03*
X0342000Y0174300D03*
X0342000Y0179300D03*
X0342000Y0184300D03*
X0342000Y0189300D03*
X0381600Y0189300D03*
X0381600Y0184300D03*
X0381600Y0179300D03*
X0381600Y0174300D03*
X0381600Y0169300D03*
X0381600Y0164300D03*
X0381600Y0159300D03*
X0381600Y0154300D03*
X0381600Y0149300D03*
X0381600Y0144300D03*
X0208900Y0234300D03*
X0208900Y0239300D03*
X0208900Y0244300D03*
X0208900Y0249300D03*
X0208900Y0254300D03*
X0208900Y0259300D03*
X0208900Y0264300D03*
X0208900Y0269300D03*
X0184700Y0269300D03*
X0184700Y0264300D03*
X0184700Y0259300D03*
X0184700Y0254300D03*
X0184700Y0249300D03*
X0184700Y0244300D03*
X0184700Y0239300D03*
X0184700Y0234300D03*
D11*
X0161800Y0225540D03*
X0161800Y0218060D03*
X0151800Y0218060D03*
X0151800Y0225540D03*
X0141800Y0225540D03*
X0141800Y0218060D03*
X0071800Y0218060D03*
X0071800Y0225540D03*
X0061800Y0225540D03*
X0061800Y0218060D03*
X0051800Y0218060D03*
X0051800Y0225540D03*
X0051800Y0283060D03*
X0051800Y0290540D03*
X0061800Y0290540D03*
X0061800Y0283060D03*
X0071800Y0283060D03*
X0071800Y0290540D03*
X0141800Y0290540D03*
X0141800Y0283060D03*
X0151800Y0283060D03*
X0161800Y0283060D03*
X0161800Y0290540D03*
X0151800Y0290540D03*
X0236800Y0290540D03*
X0246800Y0290540D03*
X0246800Y0283060D03*
X0236800Y0283060D03*
X0256800Y0283060D03*
X0256800Y0290540D03*
X0331800Y0290540D03*
X0341800Y0290540D03*
X0341800Y0283060D03*
X0331800Y0283060D03*
X0351800Y0283060D03*
X0351800Y0290540D03*
X0351800Y0225540D03*
X0351800Y0218060D03*
X0341800Y0218060D03*
X0341800Y0225540D03*
X0331800Y0225540D03*
X0331800Y0218060D03*
X0256800Y0218060D03*
X0256800Y0225540D03*
X0246800Y0225540D03*
X0246800Y0218060D03*
X0236800Y0218060D03*
X0236800Y0225540D03*
X0236800Y0100540D03*
X0236800Y0093060D03*
X0246800Y0093060D03*
X0246800Y0100540D03*
X0256800Y0100540D03*
X0256800Y0093060D03*
X0296800Y0050540D03*
X0296800Y0043060D03*
X0306800Y0043060D03*
X0306800Y0050540D03*
X0331800Y0035540D03*
X0341800Y0035540D03*
X0341800Y0028060D03*
X0331800Y0028060D03*
X0351800Y0028060D03*
X0351800Y0035540D03*
X0351800Y0093060D03*
X0351800Y0100540D03*
X0341800Y0100540D03*
X0341800Y0093060D03*
X0331800Y0093060D03*
X0331800Y0100540D03*
X0256800Y0035540D03*
X0256800Y0028060D03*
X0246800Y0028060D03*
X0236800Y0028060D03*
X0236800Y0035540D03*
X0246800Y0035540D03*
X0211800Y0043060D03*
X0211800Y0050540D03*
X0201800Y0050540D03*
X0201800Y0043060D03*
X0161800Y0035540D03*
X0151800Y0035540D03*
X0151800Y0028060D03*
X0161800Y0028060D03*
X0141800Y0028060D03*
X0141800Y0035540D03*
X0116800Y0043060D03*
X0116800Y0050540D03*
X0106800Y0050540D03*
X0106800Y0043060D03*
X0071800Y0035540D03*
X0071800Y0028060D03*
X0061800Y0028060D03*
X0061800Y0035540D03*
X0051800Y0035540D03*
X0051800Y0028060D03*
X0021800Y0043060D03*
X0021800Y0050540D03*
X0011800Y0050540D03*
X0011800Y0043060D03*
X0051800Y0093060D03*
X0051800Y0100540D03*
X0061800Y0100540D03*
X0061800Y0093060D03*
X0071800Y0093060D03*
X0071800Y0100540D03*
X0141800Y0100540D03*
X0141800Y0093060D03*
X0151800Y0093060D03*
X0151800Y0100540D03*
X0161800Y0100540D03*
X0161800Y0093060D03*
D12*
X0161800Y0108800D02*
X0161800Y0114800D01*
X0151800Y0114800D02*
X0151800Y0108800D01*
X0141800Y0108800D02*
X0141800Y0114800D01*
X0071800Y0114800D02*
X0071800Y0108800D01*
X0061800Y0108800D02*
X0061800Y0114800D01*
X0051800Y0114800D02*
X0051800Y0108800D01*
X0051800Y0019800D02*
X0051800Y0013800D01*
X0061800Y0013800D02*
X0061800Y0019800D01*
X0071800Y0019800D02*
X0071800Y0013800D01*
X0141800Y0013800D02*
X0141800Y0019800D01*
X0151800Y0019800D02*
X0151800Y0013800D01*
X0161800Y0013800D02*
X0161800Y0019800D01*
X0236800Y0019800D02*
X0236800Y0013800D01*
X0246800Y0013800D02*
X0246800Y0019800D01*
X0256800Y0019800D02*
X0256800Y0013800D01*
X0331800Y0013800D02*
X0331800Y0019800D01*
X0341800Y0019800D02*
X0341800Y0013800D01*
X0351800Y0013800D02*
X0351800Y0019800D01*
X0351800Y0108800D02*
X0351800Y0114800D01*
X0341800Y0114800D02*
X0341800Y0108800D01*
X0331800Y0108800D02*
X0331800Y0114800D01*
X0256800Y0114800D02*
X0256800Y0108800D01*
X0246800Y0108800D02*
X0246800Y0114800D01*
X0236800Y0114800D02*
X0236800Y0108800D01*
X0236800Y0203800D02*
X0236800Y0209800D01*
X0246800Y0209800D02*
X0246800Y0203800D01*
X0256800Y0203800D02*
X0256800Y0209800D01*
X0331800Y0209800D02*
X0331800Y0203800D01*
X0341800Y0203800D02*
X0341800Y0209800D01*
X0351800Y0209800D02*
X0351800Y0203800D01*
X0351800Y0298800D02*
X0351800Y0304800D01*
X0341800Y0304800D02*
X0341800Y0298800D01*
X0331800Y0298800D02*
X0331800Y0304800D01*
X0256800Y0304800D02*
X0256800Y0298800D01*
X0246800Y0298800D02*
X0246800Y0304800D01*
X0236800Y0304800D02*
X0236800Y0298800D01*
X0161800Y0298800D02*
X0161800Y0304800D01*
X0151800Y0304800D02*
X0151800Y0298800D01*
X0141800Y0298800D02*
X0141800Y0304800D01*
X0071800Y0304800D02*
X0071800Y0298800D01*
X0061800Y0298800D02*
X0061800Y0304800D01*
X0051800Y0304800D02*
X0051800Y0298800D01*
X0051800Y0209800D02*
X0051800Y0203800D01*
X0061800Y0203800D02*
X0061800Y0209800D01*
X0071800Y0209800D02*
X0071800Y0203800D01*
X0141800Y0203800D02*
X0141800Y0209800D01*
X0151800Y0209800D02*
X0151800Y0203800D01*
X0161800Y0203800D02*
X0161800Y0209800D01*
D13*
X0211800Y0129375D02*
X0211800Y0124225D01*
X0221800Y0124225D02*
X0221800Y0129375D01*
X0231800Y0129375D02*
X0231800Y0124225D01*
X0241800Y0124225D02*
X0241800Y0129375D01*
X0251800Y0129375D02*
X0251800Y0124225D01*
X0261800Y0124225D02*
X0261800Y0129375D01*
X0271800Y0129375D02*
X0271800Y0124225D01*
X0281800Y0124225D02*
X0281800Y0129375D01*
X0291800Y0129375D02*
X0291800Y0124225D01*
X0301800Y0124225D02*
X0301800Y0129375D01*
X0311800Y0129375D02*
X0311800Y0124225D01*
X0321800Y0124225D02*
X0321800Y0129375D01*
X0331800Y0129375D02*
X0331800Y0124225D01*
X0341800Y0124225D02*
X0341800Y0129375D01*
X0351800Y0129375D02*
X0351800Y0124225D01*
X0351800Y0069375D02*
X0351800Y0064225D01*
X0341800Y0064225D02*
X0341800Y0069375D01*
X0331800Y0069375D02*
X0331800Y0064225D01*
X0321800Y0064225D02*
X0321800Y0069375D01*
X0311800Y0069375D02*
X0311800Y0064225D01*
X0301800Y0064225D02*
X0301800Y0069375D01*
X0291800Y0069375D02*
X0291800Y0064225D01*
X0281800Y0064225D02*
X0281800Y0069375D01*
X0271800Y0069375D02*
X0271800Y0064225D01*
X0261800Y0064225D02*
X0261800Y0069375D01*
X0251800Y0069375D02*
X0251800Y0064225D01*
X0241800Y0064225D02*
X0241800Y0069375D01*
X0231800Y0069375D02*
X0231800Y0064225D01*
X0221800Y0064225D02*
X0221800Y0069375D01*
X0211800Y0069375D02*
X0211800Y0064225D01*
D14*
X0206800Y0086800D03*
X0206800Y0096800D03*
X0206800Y0106800D03*
X0216800Y0106800D03*
X0216800Y0096800D03*
X0216800Y0086800D03*
D15*
X0221800Y0031800D03*
X0126800Y0031800D03*
X0031800Y0031800D03*
X0316800Y0031800D03*
D16*
X0012469Y0028060D03*
X0021131Y0031800D03*
X0012469Y0035540D03*
X0107469Y0035540D03*
X0107469Y0028060D03*
X0116131Y0031800D03*
X0202469Y0028060D03*
X0211131Y0031800D03*
X0202469Y0035540D03*
X0297469Y0035540D03*
X0306131Y0031800D03*
X0297469Y0028060D03*
D17*
X0300540Y0196800D03*
X0293060Y0196800D03*
X0225540Y0196800D03*
X0218060Y0196800D03*
X0180540Y0196800D03*
X0173060Y0196800D03*
X0105540Y0196800D03*
X0098060Y0196800D03*
X0035540Y0196800D03*
X0028060Y0196800D03*
X0193060Y0276800D03*
X0200540Y0276800D03*
X0363060Y0196800D03*
X0370540Y0196800D03*
D18*
X0366300Y0190800D03*
X0363600Y0180900D03*
X0354600Y0177300D03*
X0349200Y0173700D03*
X0360900Y0162900D03*
X0365400Y0169200D03*
X0351900Y0162000D03*
X0349200Y0157500D03*
X0349200Y0152100D03*
X0349200Y0141300D03*
X0344700Y0138600D03*
X0332100Y0140400D03*
X0332100Y0135000D03*
X0324000Y0148500D03*
X0324000Y0153900D03*
X0324000Y0161100D03*
X0328500Y0163800D03*
X0334800Y0167400D03*
X0331200Y0176400D03*
X0325800Y0176400D03*
X0334800Y0185400D03*
X0335700Y0192600D03*
X0330300Y0198000D03*
X0308700Y0193500D03*
X0309600Y0180000D03*
X0306900Y0169200D03*
X0309600Y0161100D03*
X0306000Y0157500D03*
X0304200Y0150300D03*
X0289800Y0159300D03*
X0286200Y0162900D03*
X0288000Y0171900D03*
X0284400Y0179100D03*
X0284400Y0184500D03*
X0293400Y0188100D03*
X0287100Y0199800D03*
X0284400Y0207000D03*
X0275400Y0196200D03*
X0270900Y0193500D03*
X0264600Y0199800D03*
X0259200Y0180000D03*
X0269100Y0179100D03*
X0270000Y0173700D03*
X0266400Y0167400D03*
X0270000Y0163800D03*
X0259200Y0167400D03*
X0262800Y0155700D03*
X0266400Y0151200D03*
X0270000Y0147600D03*
X0273600Y0138600D03*
X0284400Y0144900D03*
X0284400Y0152100D03*
X0297900Y0135900D03*
X0317700Y0117000D03*
X0313200Y0114300D03*
X0321300Y0105300D03*
X0324000Y0092700D03*
X0315000Y0090900D03*
X0307800Y0087300D03*
X0308700Y0077400D03*
X0282600Y0103500D03*
X0269100Y0100800D03*
X0265500Y0097200D03*
X0247500Y0086400D03*
X0251100Y0082800D03*
X0236700Y0075600D03*
X0231300Y0075600D03*
X0214200Y0075600D03*
X0200700Y0096300D03*
X0177300Y0097200D03*
X0179100Y0108900D03*
X0168300Y0115200D03*
X0182700Y0124200D03*
X0188100Y0139500D03*
X0176400Y0140400D03*
X0168300Y0144000D03*
X0173700Y0149400D03*
X0178200Y0153900D03*
X0178200Y0159300D03*
X0165600Y0161100D03*
X0162900Y0156600D03*
X0153900Y0168300D03*
X0162900Y0174600D03*
X0169200Y0180000D03*
X0166500Y0184500D03*
X0160200Y0189000D03*
X0153900Y0195300D03*
X0135900Y0198900D03*
X0130500Y0193500D03*
X0124200Y0199800D03*
X0114300Y0183600D03*
X0111600Y0179100D03*
X0114300Y0174600D03*
X0111600Y0167400D03*
X0108000Y0163800D03*
X0108000Y0158400D03*
X0104400Y0154800D03*
X0104400Y0149400D03*
X0114300Y0153900D03*
X0128700Y0161100D03*
X0134100Y0156600D03*
X0130500Y0149400D03*
X0130500Y0143100D03*
X0115200Y0137700D03*
X0119700Y0126900D03*
X0116100Y0117900D03*
X0097200Y0134100D03*
X0089100Y0134100D03*
X0092700Y0141300D03*
X0074700Y0144000D03*
X0074700Y0149400D03*
X0065700Y0148500D03*
X0065700Y0153900D03*
X0065700Y0159300D03*
X0069300Y0163800D03*
X0073800Y0169200D03*
X0066600Y0174600D03*
X0069300Y0179100D03*
X0064800Y0183600D03*
X0064800Y0189000D03*
X0049500Y0188100D03*
X0037800Y0188100D03*
X0031500Y0181800D03*
X0024300Y0189000D03*
X0037800Y0209700D03*
X0086400Y0198900D03*
X0110700Y0217800D03*
X0100800Y0225900D03*
X0085500Y0236700D03*
X0130500Y0218700D03*
X0156600Y0213300D03*
X0178200Y0213300D03*
X0191700Y0209700D03*
X0186300Y0198000D03*
X0197100Y0192600D03*
X0203400Y0198000D03*
X0208800Y0204300D03*
X0205200Y0212400D03*
X0207000Y0217800D03*
X0223200Y0218700D03*
X0229500Y0214200D03*
X0223200Y0234000D03*
X0235800Y0236700D03*
X0241200Y0236700D03*
X0241200Y0243900D03*
X0237600Y0247500D03*
X0249300Y0246600D03*
X0252000Y0254700D03*
X0257400Y0254700D03*
X0262800Y0252900D03*
X0262800Y0247500D03*
X0259200Y0238500D03*
X0266400Y0234900D03*
X0262800Y0225900D03*
X0270900Y0223200D03*
X0282600Y0240300D03*
X0277200Y0243900D03*
X0289800Y0249300D03*
X0314100Y0238500D03*
X0322200Y0230400D03*
X0303300Y0211500D03*
X0299700Y0207900D03*
X0244800Y0180000D03*
X0239400Y0179100D03*
X0243000Y0173700D03*
X0230400Y0170100D03*
X0219600Y0170100D03*
X0219600Y0164700D03*
X0219600Y0155700D03*
X0205200Y0166500D03*
X0201600Y0170100D03*
X0204300Y0174600D03*
X0194400Y0171900D03*
X0205200Y0190800D03*
X0225900Y0190800D03*
X0244800Y0149400D03*
X0244800Y0144000D03*
X0241200Y0140400D03*
X0226800Y0137700D03*
X0202500Y0140400D03*
X0153900Y0138600D03*
X0153900Y0145800D03*
X0146700Y0131400D03*
X0130500Y0100800D03*
X0160200Y0074700D03*
X0151200Y0065700D03*
X0147600Y0062100D03*
X0154800Y0056700D03*
X0141300Y0053100D03*
X0113400Y0036900D03*
X0092700Y0045900D03*
X0052200Y0067500D03*
X0060300Y0131400D03*
X0062100Y0138600D03*
X0031500Y0161100D03*
X0024300Y0154800D03*
X0103500Y0171000D03*
X0153900Y0180000D03*
X0201600Y0238500D03*
X0201600Y0243900D03*
X0194400Y0247500D03*
X0191700Y0258300D03*
X0177300Y0258300D03*
X0166500Y0263700D03*
X0178200Y0275400D03*
X0182700Y0282600D03*
X0203400Y0289800D03*
X0207000Y0279000D03*
X0231300Y0279000D03*
X0260100Y0273600D03*
X0259200Y0264600D03*
X0283500Y0283500D03*
X0286200Y0297900D03*
X0320400Y0269100D03*
X0360000Y0203400D03*
X0368100Y0153000D03*
X0368100Y0133200D03*
X0365400Y0125100D03*
X0367200Y0112500D03*
X0365400Y0107100D03*
X0378900Y0118800D03*
X0295200Y0105300D03*
X0267300Y0080100D03*
X0252000Y0058500D03*
X0260100Y0041400D03*
X0262800Y0029700D03*
X0266400Y0017100D03*
X0282600Y0028800D03*
X0313200Y0050400D03*
X0318600Y0048600D03*
X0332100Y0045000D03*
X0227700Y0037800D03*
X0217800Y0050400D03*
X0195300Y0053100D03*
X0195300Y0038700D03*
X0171000Y0035100D03*
X0177300Y0081900D03*
X0257400Y0140400D03*
X0177300Y0239400D03*
X0177300Y0245700D03*
X0118800Y0282600D03*
D19*
X0101800Y0291800D03*
X0091800Y0271800D03*
X0111800Y0251800D03*
X0066800Y0256800D03*
X0021800Y0236800D03*
X0016800Y0296800D03*
X0181800Y0301800D03*
X0271800Y0296800D03*
X0311800Y0296800D03*
X0301800Y0261800D03*
X0341800Y0256800D03*
X0371800Y0091800D03*
X0326800Y0051800D03*
X0186800Y0016800D03*
X0181800Y0041800D03*
X0176800Y0061800D03*
X0156800Y0041800D03*
X0146800Y0041800D03*
X0131800Y0016800D03*
X0091800Y0016800D03*
X0106800Y0071800D03*
X0081800Y0101800D03*
X0106800Y0111800D03*
X0111800Y0126800D03*
X0081800Y0126800D03*
X0036800Y0126800D03*
X0016800Y0101800D03*
M02*
