G75*
%MOIN*%
%OFA0B0*%
%FSLAX25Y25*%
%IPPOS*%
%LPD*%
%AMOC8*
5,1,8,0,0,1.08239X$1,22.5*
%
%ADD10C,0.00000*%
%ADD11C,0.00600*%
%ADD12C,0.00200*%
%ADD13C,0.00500*%
%ADD14R,0.01181X0.00591*%
%ADD15R,0.01181X0.01181*%
D10*
X0001800Y0001800D02*
X0001800Y0316761D01*
X0395501Y0316761D01*
X0395501Y0001800D01*
X0001800Y0001800D01*
X0380225Y0095894D02*
X0380227Y0095973D01*
X0380233Y0096052D01*
X0380243Y0096131D01*
X0380257Y0096209D01*
X0380274Y0096286D01*
X0380296Y0096362D01*
X0380321Y0096437D01*
X0380351Y0096510D01*
X0380383Y0096582D01*
X0380420Y0096653D01*
X0380460Y0096721D01*
X0380503Y0096787D01*
X0380549Y0096851D01*
X0380599Y0096913D01*
X0380652Y0096972D01*
X0380707Y0097028D01*
X0380766Y0097082D01*
X0380827Y0097132D01*
X0380890Y0097180D01*
X0380956Y0097224D01*
X0381024Y0097265D01*
X0381094Y0097302D01*
X0381165Y0097336D01*
X0381239Y0097366D01*
X0381313Y0097392D01*
X0381389Y0097414D01*
X0381466Y0097433D01*
X0381544Y0097448D01*
X0381622Y0097459D01*
X0381701Y0097466D01*
X0381780Y0097469D01*
X0381859Y0097468D01*
X0381938Y0097463D01*
X0382017Y0097454D01*
X0382095Y0097441D01*
X0382172Y0097424D01*
X0382249Y0097404D01*
X0382324Y0097379D01*
X0382398Y0097351D01*
X0382471Y0097319D01*
X0382541Y0097284D01*
X0382610Y0097245D01*
X0382677Y0097202D01*
X0382742Y0097156D01*
X0382804Y0097108D01*
X0382864Y0097056D01*
X0382921Y0097001D01*
X0382975Y0096943D01*
X0383026Y0096883D01*
X0383074Y0096820D01*
X0383119Y0096755D01*
X0383161Y0096687D01*
X0383199Y0096618D01*
X0383233Y0096547D01*
X0383264Y0096474D01*
X0383292Y0096399D01*
X0383315Y0096324D01*
X0383335Y0096247D01*
X0383351Y0096170D01*
X0383363Y0096091D01*
X0383371Y0096013D01*
X0383375Y0095934D01*
X0383375Y0095854D01*
X0383371Y0095775D01*
X0383363Y0095697D01*
X0383351Y0095618D01*
X0383335Y0095541D01*
X0383315Y0095464D01*
X0383292Y0095389D01*
X0383264Y0095314D01*
X0383233Y0095241D01*
X0383199Y0095170D01*
X0383161Y0095101D01*
X0383119Y0095033D01*
X0383074Y0094968D01*
X0383026Y0094905D01*
X0382975Y0094845D01*
X0382921Y0094787D01*
X0382864Y0094732D01*
X0382804Y0094680D01*
X0382742Y0094632D01*
X0382677Y0094586D01*
X0382610Y0094543D01*
X0382541Y0094504D01*
X0382471Y0094469D01*
X0382398Y0094437D01*
X0382324Y0094409D01*
X0382249Y0094384D01*
X0382172Y0094364D01*
X0382095Y0094347D01*
X0382017Y0094334D01*
X0381938Y0094325D01*
X0381859Y0094320D01*
X0381780Y0094319D01*
X0381701Y0094322D01*
X0381622Y0094329D01*
X0381544Y0094340D01*
X0381466Y0094355D01*
X0381389Y0094374D01*
X0381313Y0094396D01*
X0381239Y0094422D01*
X0381165Y0094452D01*
X0381094Y0094486D01*
X0381024Y0094523D01*
X0380956Y0094564D01*
X0380890Y0094608D01*
X0380827Y0094656D01*
X0380766Y0094706D01*
X0380707Y0094760D01*
X0380652Y0094816D01*
X0380599Y0094875D01*
X0380549Y0094937D01*
X0380503Y0095001D01*
X0380460Y0095067D01*
X0380420Y0095135D01*
X0380383Y0095206D01*
X0380351Y0095278D01*
X0380321Y0095351D01*
X0380296Y0095426D01*
X0380274Y0095502D01*
X0380257Y0095579D01*
X0380243Y0095657D01*
X0380233Y0095736D01*
X0380227Y0095815D01*
X0380225Y0095894D01*
X0380225Y0107706D02*
X0380227Y0107785D01*
X0380233Y0107864D01*
X0380243Y0107943D01*
X0380257Y0108021D01*
X0380274Y0108098D01*
X0380296Y0108174D01*
X0380321Y0108249D01*
X0380351Y0108322D01*
X0380383Y0108394D01*
X0380420Y0108465D01*
X0380460Y0108533D01*
X0380503Y0108599D01*
X0380549Y0108663D01*
X0380599Y0108725D01*
X0380652Y0108784D01*
X0380707Y0108840D01*
X0380766Y0108894D01*
X0380827Y0108944D01*
X0380890Y0108992D01*
X0380956Y0109036D01*
X0381024Y0109077D01*
X0381094Y0109114D01*
X0381165Y0109148D01*
X0381239Y0109178D01*
X0381313Y0109204D01*
X0381389Y0109226D01*
X0381466Y0109245D01*
X0381544Y0109260D01*
X0381622Y0109271D01*
X0381701Y0109278D01*
X0381780Y0109281D01*
X0381859Y0109280D01*
X0381938Y0109275D01*
X0382017Y0109266D01*
X0382095Y0109253D01*
X0382172Y0109236D01*
X0382249Y0109216D01*
X0382324Y0109191D01*
X0382398Y0109163D01*
X0382471Y0109131D01*
X0382541Y0109096D01*
X0382610Y0109057D01*
X0382677Y0109014D01*
X0382742Y0108968D01*
X0382804Y0108920D01*
X0382864Y0108868D01*
X0382921Y0108813D01*
X0382975Y0108755D01*
X0383026Y0108695D01*
X0383074Y0108632D01*
X0383119Y0108567D01*
X0383161Y0108499D01*
X0383199Y0108430D01*
X0383233Y0108359D01*
X0383264Y0108286D01*
X0383292Y0108211D01*
X0383315Y0108136D01*
X0383335Y0108059D01*
X0383351Y0107982D01*
X0383363Y0107903D01*
X0383371Y0107825D01*
X0383375Y0107746D01*
X0383375Y0107666D01*
X0383371Y0107587D01*
X0383363Y0107509D01*
X0383351Y0107430D01*
X0383335Y0107353D01*
X0383315Y0107276D01*
X0383292Y0107201D01*
X0383264Y0107126D01*
X0383233Y0107053D01*
X0383199Y0106982D01*
X0383161Y0106913D01*
X0383119Y0106845D01*
X0383074Y0106780D01*
X0383026Y0106717D01*
X0382975Y0106657D01*
X0382921Y0106599D01*
X0382864Y0106544D01*
X0382804Y0106492D01*
X0382742Y0106444D01*
X0382677Y0106398D01*
X0382610Y0106355D01*
X0382541Y0106316D01*
X0382471Y0106281D01*
X0382398Y0106249D01*
X0382324Y0106221D01*
X0382249Y0106196D01*
X0382172Y0106176D01*
X0382095Y0106159D01*
X0382017Y0106146D01*
X0381938Y0106137D01*
X0381859Y0106132D01*
X0381780Y0106131D01*
X0381701Y0106134D01*
X0381622Y0106141D01*
X0381544Y0106152D01*
X0381466Y0106167D01*
X0381389Y0106186D01*
X0381313Y0106208D01*
X0381239Y0106234D01*
X0381165Y0106264D01*
X0381094Y0106298D01*
X0381024Y0106335D01*
X0380956Y0106376D01*
X0380890Y0106420D01*
X0380827Y0106468D01*
X0380766Y0106518D01*
X0380707Y0106572D01*
X0380652Y0106628D01*
X0380599Y0106687D01*
X0380549Y0106749D01*
X0380503Y0106813D01*
X0380460Y0106879D01*
X0380420Y0106947D01*
X0380383Y0107018D01*
X0380351Y0107090D01*
X0380321Y0107163D01*
X0380296Y0107238D01*
X0380274Y0107314D01*
X0380257Y0107391D01*
X0380243Y0107469D01*
X0380233Y0107548D01*
X0380227Y0107627D01*
X0380225Y0107706D01*
D11*
X0356800Y0109300D02*
X0356800Y0114300D01*
X0354300Y0116800D01*
X0349300Y0116800D01*
X0346800Y0114300D01*
X0344300Y0116800D01*
X0339300Y0116800D01*
X0336800Y0114300D01*
X0334300Y0116800D01*
X0329300Y0116800D01*
X0326800Y0114300D01*
X0326800Y0109300D01*
X0329300Y0106800D01*
X0334300Y0106800D01*
X0336800Y0109300D01*
X0339300Y0106800D01*
X0344300Y0106800D01*
X0346800Y0109300D01*
X0349300Y0106800D01*
X0354300Y0106800D01*
X0356800Y0109300D01*
X0261800Y0109300D02*
X0259300Y0106800D01*
X0254300Y0106800D01*
X0251800Y0109300D01*
X0249300Y0106800D01*
X0244300Y0106800D01*
X0241800Y0109300D01*
X0239300Y0106800D01*
X0234300Y0106800D01*
X0231800Y0109300D01*
X0231800Y0114300D01*
X0234300Y0116800D01*
X0239300Y0116800D01*
X0241800Y0114300D01*
X0244300Y0116800D01*
X0249300Y0116800D01*
X0251800Y0114300D01*
X0254300Y0116800D01*
X0259300Y0116800D01*
X0261800Y0114300D01*
X0261800Y0109300D01*
X0166800Y0109300D02*
X0164300Y0106800D01*
X0159300Y0106800D01*
X0156800Y0109300D01*
X0154300Y0106800D01*
X0149300Y0106800D01*
X0146800Y0109300D01*
X0144300Y0106800D01*
X0139300Y0106800D01*
X0136800Y0109300D01*
X0136800Y0114300D01*
X0139300Y0116800D01*
X0144300Y0116800D01*
X0146800Y0114300D01*
X0149300Y0116800D01*
X0154300Y0116800D01*
X0156800Y0114300D01*
X0159300Y0116800D01*
X0164300Y0116800D01*
X0166800Y0114300D01*
X0166800Y0109300D01*
X0076800Y0109300D02*
X0076800Y0114300D01*
X0074300Y0116800D01*
X0069300Y0116800D01*
X0066800Y0114300D01*
X0064300Y0116800D01*
X0059300Y0116800D01*
X0056800Y0114300D01*
X0054300Y0116800D01*
X0049300Y0116800D01*
X0046800Y0114300D01*
X0046800Y0109300D01*
X0049300Y0106800D01*
X0054300Y0106800D01*
X0056800Y0109300D01*
X0059300Y0106800D01*
X0064300Y0106800D01*
X0066800Y0109300D01*
X0069300Y0106800D01*
X0074300Y0106800D01*
X0076800Y0109300D01*
X0039300Y0031800D02*
X0034300Y0031800D01*
X0031800Y0029300D01*
X0031800Y0024300D01*
X0034300Y0021800D01*
X0039300Y0021800D01*
X0041800Y0024300D01*
X0041800Y0029300D01*
X0039300Y0031800D01*
X0049300Y0021800D02*
X0046800Y0019300D01*
X0046800Y0014300D01*
X0049300Y0011800D01*
X0054300Y0011800D01*
X0056800Y0014300D01*
X0059300Y0011800D01*
X0064300Y0011800D01*
X0066800Y0014300D01*
X0069300Y0011800D01*
X0074300Y0011800D01*
X0076800Y0014300D01*
X0076800Y0019300D01*
X0074300Y0021800D01*
X0069300Y0021800D01*
X0066800Y0019300D01*
X0064300Y0021800D01*
X0059300Y0021800D01*
X0056800Y0019300D01*
X0054300Y0021800D01*
X0049300Y0021800D01*
X0121800Y0024300D02*
X0124300Y0021800D01*
X0129300Y0021800D01*
X0131800Y0024300D01*
X0131800Y0029300D01*
X0129300Y0031800D01*
X0124300Y0031800D01*
X0121800Y0029300D01*
X0121800Y0024300D01*
X0136800Y0019300D02*
X0136800Y0014300D01*
X0139300Y0011800D01*
X0144300Y0011800D01*
X0146800Y0014300D01*
X0149300Y0011800D01*
X0154300Y0011800D01*
X0156800Y0014300D01*
X0159300Y0011800D01*
X0164300Y0011800D01*
X0166800Y0014300D01*
X0166800Y0019300D01*
X0164300Y0021800D01*
X0159300Y0021800D01*
X0156800Y0019300D01*
X0154300Y0021800D01*
X0149300Y0021800D01*
X0146800Y0019300D01*
X0144300Y0021800D01*
X0139300Y0021800D01*
X0136800Y0019300D01*
X0216800Y0024300D02*
X0219300Y0021800D01*
X0224300Y0021800D01*
X0226800Y0024300D01*
X0226800Y0029300D01*
X0224300Y0031800D01*
X0219300Y0031800D01*
X0216800Y0029300D01*
X0216800Y0024300D01*
X0231800Y0019300D02*
X0231800Y0014300D01*
X0234300Y0011800D01*
X0239300Y0011800D01*
X0241800Y0014300D01*
X0244300Y0011800D01*
X0249300Y0011800D01*
X0251800Y0014300D01*
X0254300Y0011800D01*
X0259300Y0011800D01*
X0261800Y0014300D01*
X0261800Y0019300D01*
X0259300Y0021800D01*
X0254300Y0021800D01*
X0251800Y0019300D01*
X0249300Y0021800D01*
X0244300Y0021800D01*
X0241800Y0019300D01*
X0239300Y0021800D01*
X0234300Y0021800D01*
X0231800Y0019300D01*
X0311800Y0024300D02*
X0314300Y0021800D01*
X0319300Y0021800D01*
X0321800Y0024300D01*
X0321800Y0029300D01*
X0319300Y0031800D01*
X0314300Y0031800D01*
X0311800Y0029300D01*
X0311800Y0024300D01*
X0326800Y0019300D02*
X0326800Y0014300D01*
X0329300Y0011800D01*
X0334300Y0011800D01*
X0336800Y0014300D01*
X0339300Y0011800D01*
X0344300Y0011800D01*
X0346800Y0014300D01*
X0349300Y0011800D01*
X0354300Y0011800D01*
X0356800Y0014300D01*
X0356800Y0019300D01*
X0354300Y0021800D01*
X0349300Y0021800D01*
X0346800Y0019300D01*
X0344300Y0021800D01*
X0339300Y0021800D01*
X0336800Y0019300D01*
X0334300Y0021800D01*
X0329300Y0021800D01*
X0326800Y0019300D01*
X0329300Y0201800D02*
X0334300Y0201800D01*
X0336800Y0204300D01*
X0339300Y0201800D01*
X0344300Y0201800D01*
X0346800Y0204300D01*
X0349300Y0201800D01*
X0354300Y0201800D01*
X0356800Y0204300D01*
X0356800Y0209300D01*
X0354300Y0211800D01*
X0349300Y0211800D01*
X0346800Y0209300D01*
X0344300Y0211800D01*
X0339300Y0211800D01*
X0336800Y0209300D01*
X0334300Y0211800D01*
X0329300Y0211800D01*
X0326800Y0209300D01*
X0326800Y0204300D01*
X0329300Y0201800D01*
X0365095Y0218168D02*
X0366162Y0217100D01*
X0370432Y0217100D01*
X0371500Y0218168D01*
X0371500Y0220303D01*
X0370432Y0221370D01*
X0370432Y0223545D02*
X0371500Y0224613D01*
X0371500Y0227816D01*
X0367230Y0227816D01*
X0367230Y0229991D02*
X0367230Y0233194D01*
X0368297Y0234261D01*
X0370432Y0234261D01*
X0371500Y0233194D01*
X0371500Y0229991D01*
X0365095Y0229991D01*
X0367230Y0223545D02*
X0370432Y0223545D01*
X0366162Y0221370D02*
X0365095Y0220303D01*
X0365095Y0218168D01*
X0375095Y0217100D02*
X0375095Y0220303D01*
X0376162Y0221370D01*
X0380432Y0221370D01*
X0381500Y0220303D01*
X0381500Y0217100D01*
X0375095Y0217100D01*
X0377230Y0223545D02*
X0380432Y0223545D01*
X0381500Y0224613D01*
X0381500Y0227816D01*
X0382568Y0227816D02*
X0383635Y0226748D01*
X0383635Y0225681D01*
X0382568Y0227816D02*
X0377230Y0227816D01*
X0375095Y0229991D02*
X0375095Y0231059D01*
X0381500Y0231059D01*
X0381500Y0232126D02*
X0381500Y0229991D01*
X0380432Y0234288D02*
X0379365Y0235356D01*
X0379365Y0238558D01*
X0378297Y0238558D02*
X0381500Y0238558D01*
X0381500Y0235356D01*
X0380432Y0234288D01*
X0377230Y0235356D02*
X0377230Y0237491D01*
X0378297Y0238558D01*
X0377230Y0240733D02*
X0377230Y0243936D01*
X0378297Y0245004D01*
X0381500Y0245004D01*
X0381500Y0240733D02*
X0377230Y0240733D01*
X0371500Y0239639D02*
X0371500Y0237504D01*
X0370432Y0236436D01*
X0368297Y0236436D01*
X0367230Y0237504D01*
X0367230Y0239639D01*
X0368297Y0240707D01*
X0369365Y0240707D01*
X0369365Y0236436D01*
X0369365Y0249327D02*
X0369365Y0252530D01*
X0368297Y0253598D01*
X0366162Y0253598D01*
X0365095Y0252530D01*
X0365095Y0249327D01*
X0371500Y0249327D01*
X0369365Y0251463D02*
X0371500Y0253598D01*
X0370432Y0255773D02*
X0371500Y0256841D01*
X0371500Y0258976D01*
X0370432Y0260043D01*
X0368297Y0260043D01*
X0368297Y0257908D01*
X0366162Y0255773D02*
X0370432Y0255773D01*
X0366162Y0255773D02*
X0365095Y0256841D01*
X0365095Y0258976D01*
X0366162Y0260043D01*
X0365095Y0262218D02*
X0365095Y0265421D01*
X0366162Y0266489D01*
X0367230Y0266489D01*
X0368297Y0265421D01*
X0368297Y0262218D01*
X0365095Y0262218D02*
X0371500Y0262218D01*
X0371500Y0265421D01*
X0370432Y0266489D01*
X0369365Y0266489D01*
X0368297Y0265421D01*
X0375095Y0266515D02*
X0375095Y0267583D01*
X0381500Y0267583D01*
X0381500Y0266515D02*
X0381500Y0268651D01*
X0381500Y0270812D02*
X0381500Y0272948D01*
X0381500Y0271880D02*
X0375095Y0271880D01*
X0375095Y0270812D01*
X0377230Y0276177D02*
X0377230Y0278312D01*
X0378297Y0279380D01*
X0381500Y0279380D01*
X0381500Y0276177D01*
X0380432Y0275109D01*
X0379365Y0276177D01*
X0379365Y0279380D01*
X0380432Y0281555D02*
X0377230Y0281555D01*
X0380432Y0281555D02*
X0381500Y0282623D01*
X0381500Y0285825D01*
X0377230Y0285825D01*
X0378297Y0288000D02*
X0377230Y0289068D01*
X0377230Y0292271D01*
X0375095Y0292271D02*
X0381500Y0292271D01*
X0381500Y0289068D01*
X0380432Y0288000D01*
X0378297Y0288000D01*
X0371500Y0285825D02*
X0367230Y0281555D01*
X0368297Y0279380D02*
X0368297Y0275109D01*
X0365095Y0278312D01*
X0371500Y0278312D01*
X0371500Y0281555D02*
X0367230Y0285825D01*
X0368297Y0288000D02*
X0368297Y0292271D01*
X0367230Y0294446D02*
X0371500Y0298716D01*
X0368297Y0300891D02*
X0368297Y0305162D01*
X0365095Y0304094D02*
X0368297Y0300891D01*
X0367230Y0298716D02*
X0371500Y0294446D01*
X0371500Y0291203D02*
X0365095Y0291203D01*
X0368297Y0288000D01*
X0356800Y0299300D02*
X0356800Y0304300D01*
X0354300Y0306800D01*
X0349300Y0306800D01*
X0346800Y0304300D01*
X0344300Y0306800D01*
X0339300Y0306800D01*
X0336800Y0304300D01*
X0334300Y0306800D01*
X0329300Y0306800D01*
X0326800Y0304300D01*
X0326800Y0299300D01*
X0329300Y0296800D01*
X0334300Y0296800D01*
X0336800Y0299300D01*
X0339300Y0296800D01*
X0344300Y0296800D01*
X0346800Y0299300D01*
X0349300Y0296800D01*
X0354300Y0296800D01*
X0356800Y0299300D01*
X0365095Y0304094D02*
X0371500Y0304094D01*
X0378297Y0264340D02*
X0377230Y0263273D01*
X0377230Y0261138D01*
X0378297Y0260070D01*
X0380432Y0260070D01*
X0381500Y0261138D01*
X0381500Y0263273D01*
X0380432Y0264340D01*
X0378297Y0264340D01*
X0376162Y0257895D02*
X0375095Y0256827D01*
X0375095Y0254692D01*
X0376162Y0253624D01*
X0380432Y0253624D01*
X0381500Y0254692D01*
X0381500Y0256827D01*
X0380432Y0257895D01*
X0261800Y0299300D02*
X0261800Y0304300D01*
X0259300Y0306800D01*
X0254300Y0306800D01*
X0251800Y0304300D01*
X0249300Y0306800D01*
X0244300Y0306800D01*
X0241800Y0304300D01*
X0239300Y0306800D01*
X0234300Y0306800D01*
X0231800Y0304300D01*
X0231800Y0299300D01*
X0234300Y0296800D01*
X0239300Y0296800D01*
X0241800Y0299300D01*
X0244300Y0296800D01*
X0249300Y0296800D01*
X0251800Y0299300D01*
X0254300Y0296800D01*
X0259300Y0296800D01*
X0261800Y0299300D01*
X0203000Y0281800D02*
X0190600Y0281800D01*
X0190524Y0281798D01*
X0190448Y0281792D01*
X0190373Y0281783D01*
X0190298Y0281769D01*
X0190224Y0281752D01*
X0190151Y0281731D01*
X0190079Y0281707D01*
X0190008Y0281678D01*
X0189939Y0281647D01*
X0189872Y0281612D01*
X0189807Y0281573D01*
X0189743Y0281531D01*
X0189682Y0281486D01*
X0189623Y0281438D01*
X0189567Y0281387D01*
X0189513Y0281333D01*
X0189462Y0281277D01*
X0189414Y0281218D01*
X0189369Y0281157D01*
X0189327Y0281093D01*
X0189288Y0281028D01*
X0189253Y0280961D01*
X0189222Y0280892D01*
X0189193Y0280821D01*
X0189169Y0280749D01*
X0189148Y0280676D01*
X0189131Y0280602D01*
X0189117Y0280527D01*
X0189108Y0280452D01*
X0189102Y0280376D01*
X0189100Y0280300D01*
X0203000Y0281800D02*
X0203076Y0281798D01*
X0203152Y0281792D01*
X0203227Y0281783D01*
X0203302Y0281769D01*
X0203376Y0281752D01*
X0203449Y0281731D01*
X0203521Y0281707D01*
X0203592Y0281678D01*
X0203661Y0281647D01*
X0203728Y0281612D01*
X0203793Y0281573D01*
X0203857Y0281531D01*
X0203918Y0281486D01*
X0203977Y0281438D01*
X0204033Y0281387D01*
X0204087Y0281333D01*
X0204138Y0281277D01*
X0204186Y0281218D01*
X0204231Y0281157D01*
X0204273Y0281093D01*
X0204312Y0281028D01*
X0204347Y0280961D01*
X0204378Y0280892D01*
X0204407Y0280821D01*
X0204431Y0280749D01*
X0204452Y0280676D01*
X0204469Y0280602D01*
X0204483Y0280527D01*
X0204492Y0280452D01*
X0204498Y0280376D01*
X0204500Y0280300D01*
X0166800Y0299300D02*
X0166800Y0304300D01*
X0164300Y0306800D01*
X0159300Y0306800D01*
X0156800Y0304300D01*
X0154300Y0306800D01*
X0149300Y0306800D01*
X0146800Y0304300D01*
X0144300Y0306800D01*
X0139300Y0306800D01*
X0136800Y0304300D01*
X0136800Y0299300D01*
X0139300Y0296800D01*
X0144300Y0296800D01*
X0146800Y0299300D01*
X0149300Y0296800D01*
X0154300Y0296800D01*
X0156800Y0299300D01*
X0159300Y0296800D01*
X0164300Y0296800D01*
X0166800Y0299300D01*
X0189100Y0243300D02*
X0189102Y0243224D01*
X0189108Y0243148D01*
X0189117Y0243073D01*
X0189131Y0242998D01*
X0189148Y0242924D01*
X0189169Y0242851D01*
X0189193Y0242779D01*
X0189222Y0242708D01*
X0189253Y0242639D01*
X0189288Y0242572D01*
X0189327Y0242507D01*
X0189369Y0242443D01*
X0189414Y0242382D01*
X0189462Y0242323D01*
X0189513Y0242267D01*
X0189567Y0242213D01*
X0189623Y0242162D01*
X0189682Y0242114D01*
X0189743Y0242069D01*
X0189807Y0242027D01*
X0189872Y0241988D01*
X0189939Y0241953D01*
X0190008Y0241922D01*
X0190079Y0241893D01*
X0190151Y0241869D01*
X0190224Y0241848D01*
X0190298Y0241831D01*
X0190373Y0241817D01*
X0190448Y0241808D01*
X0190524Y0241802D01*
X0190600Y0241800D01*
X0194800Y0241800D01*
X0198800Y0241800D01*
X0203000Y0241800D01*
X0203076Y0241802D01*
X0203152Y0241808D01*
X0203227Y0241817D01*
X0203302Y0241831D01*
X0203376Y0241848D01*
X0203449Y0241869D01*
X0203521Y0241893D01*
X0203592Y0241922D01*
X0203661Y0241953D01*
X0203728Y0241988D01*
X0203793Y0242027D01*
X0203857Y0242069D01*
X0203918Y0242114D01*
X0203977Y0242162D01*
X0204033Y0242213D01*
X0204087Y0242267D01*
X0204138Y0242323D01*
X0204186Y0242382D01*
X0204231Y0242443D01*
X0204273Y0242507D01*
X0204312Y0242572D01*
X0204347Y0242639D01*
X0204378Y0242708D01*
X0204407Y0242779D01*
X0204431Y0242851D01*
X0204452Y0242924D01*
X0204469Y0242998D01*
X0204483Y0243073D01*
X0204492Y0243148D01*
X0204498Y0243224D01*
X0204500Y0243300D01*
X0198800Y0241800D02*
X0198798Y0241888D01*
X0198792Y0241977D01*
X0198782Y0242065D01*
X0198769Y0242152D01*
X0198751Y0242239D01*
X0198730Y0242325D01*
X0198705Y0242410D01*
X0198676Y0242493D01*
X0198643Y0242576D01*
X0198607Y0242656D01*
X0198568Y0242735D01*
X0198525Y0242813D01*
X0198478Y0242888D01*
X0198428Y0242961D01*
X0198375Y0243032D01*
X0198319Y0243101D01*
X0198260Y0243167D01*
X0198198Y0243230D01*
X0198134Y0243290D01*
X0198067Y0243348D01*
X0197997Y0243402D01*
X0197925Y0243454D01*
X0197851Y0243502D01*
X0197774Y0243547D01*
X0197696Y0243588D01*
X0197616Y0243626D01*
X0197535Y0243660D01*
X0197452Y0243691D01*
X0197367Y0243718D01*
X0197282Y0243741D01*
X0197196Y0243760D01*
X0197108Y0243776D01*
X0197021Y0243788D01*
X0196933Y0243796D01*
X0196844Y0243800D01*
X0196756Y0243800D01*
X0196667Y0243796D01*
X0196579Y0243788D01*
X0196492Y0243776D01*
X0196404Y0243760D01*
X0196318Y0243741D01*
X0196233Y0243718D01*
X0196148Y0243691D01*
X0196065Y0243660D01*
X0195984Y0243626D01*
X0195904Y0243588D01*
X0195826Y0243547D01*
X0195749Y0243502D01*
X0195675Y0243454D01*
X0195603Y0243402D01*
X0195533Y0243348D01*
X0195466Y0243290D01*
X0195402Y0243230D01*
X0195340Y0243167D01*
X0195281Y0243101D01*
X0195225Y0243032D01*
X0195172Y0242961D01*
X0195122Y0242888D01*
X0195075Y0242813D01*
X0195032Y0242735D01*
X0194993Y0242656D01*
X0194957Y0242576D01*
X0194924Y0242493D01*
X0194895Y0242410D01*
X0194870Y0242325D01*
X0194849Y0242239D01*
X0194831Y0242152D01*
X0194818Y0242065D01*
X0194808Y0241977D01*
X0194802Y0241888D01*
X0194800Y0241800D01*
X0164300Y0211800D02*
X0159300Y0211800D01*
X0156800Y0209300D01*
X0154300Y0211800D01*
X0149300Y0211800D01*
X0146800Y0209300D01*
X0144300Y0211800D01*
X0139300Y0211800D01*
X0136800Y0209300D01*
X0136800Y0204300D01*
X0139300Y0201800D01*
X0144300Y0201800D01*
X0146800Y0204300D01*
X0149300Y0201800D01*
X0154300Y0201800D01*
X0156800Y0204300D01*
X0159300Y0201800D01*
X0164300Y0201800D01*
X0166800Y0204300D01*
X0166800Y0209300D01*
X0164300Y0211800D01*
X0231800Y0209300D02*
X0231800Y0204300D01*
X0234300Y0201800D01*
X0239300Y0201800D01*
X0241800Y0204300D01*
X0244300Y0201800D01*
X0249300Y0201800D01*
X0251800Y0204300D01*
X0254300Y0201800D01*
X0259300Y0201800D01*
X0261800Y0204300D01*
X0261800Y0209300D01*
X0259300Y0211800D01*
X0254300Y0211800D01*
X0251800Y0209300D01*
X0249300Y0211800D01*
X0244300Y0211800D01*
X0241800Y0209300D01*
X0239300Y0211800D01*
X0234300Y0211800D01*
X0231800Y0209300D01*
X0076800Y0209300D02*
X0076800Y0204300D01*
X0074300Y0201800D01*
X0069300Y0201800D01*
X0066800Y0204300D01*
X0064300Y0201800D01*
X0059300Y0201800D01*
X0056800Y0204300D01*
X0054300Y0201800D01*
X0049300Y0201800D01*
X0046800Y0204300D01*
X0046800Y0209300D01*
X0049300Y0211800D01*
X0054300Y0211800D01*
X0056800Y0209300D01*
X0059300Y0211800D01*
X0064300Y0211800D01*
X0066800Y0209300D01*
X0069300Y0211800D01*
X0074300Y0211800D01*
X0076800Y0209300D01*
X0036416Y0267100D02*
X0034281Y0267100D01*
X0033214Y0268168D01*
X0037484Y0272438D01*
X0037484Y0268168D01*
X0036416Y0267100D01*
X0033214Y0268168D02*
X0033214Y0272438D01*
X0034281Y0273505D01*
X0036416Y0273505D01*
X0037484Y0272438D01*
X0031059Y0268168D02*
X0031059Y0267100D01*
X0029991Y0267100D01*
X0029991Y0268168D01*
X0031059Y0268168D01*
X0027816Y0267100D02*
X0023545Y0267100D01*
X0027816Y0271370D01*
X0027816Y0272438D01*
X0026748Y0273505D01*
X0024613Y0273505D01*
X0023545Y0272438D01*
X0021370Y0273505D02*
X0021370Y0269235D01*
X0019235Y0267100D01*
X0017100Y0269235D01*
X0017100Y0273505D01*
X0046800Y0299300D02*
X0049300Y0296800D01*
X0054300Y0296800D01*
X0056800Y0299300D01*
X0059300Y0296800D01*
X0064300Y0296800D01*
X0066800Y0299300D01*
X0069300Y0296800D01*
X0074300Y0296800D01*
X0076800Y0299300D01*
X0076800Y0304300D01*
X0074300Y0306800D01*
X0069300Y0306800D01*
X0066800Y0304300D01*
X0064300Y0306800D01*
X0059300Y0306800D01*
X0056800Y0304300D01*
X0054300Y0306800D01*
X0049300Y0306800D01*
X0046800Y0304300D01*
X0046800Y0299300D01*
D12*
X0203100Y0281800D02*
X0203100Y0241800D01*
D13*
X0199550Y0247050D02*
X0198799Y0247050D01*
X0195797Y0250053D01*
X0195046Y0250053D01*
X0195046Y0247050D01*
X0197298Y0251654D02*
X0197298Y0254656D01*
X0197298Y0256258D02*
X0197298Y0259260D01*
X0195797Y0260862D02*
X0198799Y0260862D01*
X0199550Y0261612D01*
X0199550Y0263114D01*
X0198799Y0263864D01*
X0199550Y0265466D02*
X0199550Y0268468D01*
X0199550Y0266967D02*
X0195046Y0266967D01*
X0196547Y0265466D01*
X0195797Y0263864D02*
X0195046Y0263114D01*
X0195046Y0261612D01*
X0195797Y0260862D01*
X0195046Y0259260D02*
X0199550Y0259260D01*
X0199550Y0256258D02*
X0195046Y0256258D01*
X0195046Y0253906D02*
X0197298Y0251654D01*
X0199550Y0253906D02*
X0195046Y0253906D01*
X0195797Y0270070D02*
X0195046Y0270820D01*
X0195046Y0272322D01*
X0195797Y0273072D01*
X0196547Y0273072D01*
X0197298Y0272322D01*
X0198049Y0273072D01*
X0198799Y0273072D01*
X0199550Y0272322D01*
X0199550Y0270820D01*
X0198799Y0270070D01*
X0197298Y0271571D02*
X0197298Y0272322D01*
X0196547Y0274674D02*
X0195797Y0274674D01*
X0195046Y0275424D01*
X0195046Y0276925D01*
X0195797Y0277676D01*
X0196547Y0277676D01*
X0197298Y0276925D01*
X0197298Y0275424D01*
X0196547Y0274674D01*
X0197298Y0275424D02*
X0198049Y0274674D01*
X0198799Y0274674D01*
X0199550Y0275424D01*
X0199550Y0276925D01*
X0198799Y0277676D01*
X0198049Y0277676D01*
X0197298Y0276925D01*
X0195046Y0279277D02*
X0195046Y0281529D01*
X0195797Y0282280D01*
X0198799Y0282280D01*
X0199550Y0281529D01*
X0199550Y0279277D01*
X0195046Y0279277D01*
X0227050Y0299550D02*
X0230053Y0299550D01*
X0228551Y0299550D02*
X0228551Y0304054D01*
X0227050Y0302553D01*
X0135053Y0299550D02*
X0132050Y0299550D01*
X0133551Y0299550D02*
X0133551Y0304054D01*
X0132050Y0302553D01*
X0045053Y0299550D02*
X0042050Y0299550D01*
X0043551Y0299550D02*
X0043551Y0304054D01*
X0042050Y0302553D01*
X0043551Y0209054D02*
X0043551Y0204550D01*
X0042050Y0204550D02*
X0045053Y0204550D01*
X0042050Y0207553D02*
X0043551Y0209054D01*
X0132050Y0207553D02*
X0133551Y0209054D01*
X0133551Y0204550D01*
X0132050Y0204550D02*
X0135053Y0204550D01*
X0227050Y0204550D02*
X0230053Y0204550D01*
X0228551Y0204550D02*
X0228551Y0209054D01*
X0227050Y0207553D01*
X0322050Y0207553D02*
X0323551Y0209054D01*
X0323551Y0204550D01*
X0322050Y0204550D02*
X0325053Y0204550D01*
X0379044Y0114989D02*
X0384162Y0114989D01*
X0387115Y0113611D02*
X0387115Y0107115D01*
X0393020Y0107115D01*
X0393020Y0101997D01*
X0387115Y0101997D01*
X0387115Y0107115D01*
X0387115Y0101997D02*
X0387115Y0089989D01*
X0384162Y0088611D02*
X0379044Y0088611D01*
X0376485Y0096288D02*
X0376485Y0102981D01*
X0325053Y0109550D02*
X0322050Y0109550D01*
X0323551Y0109550D02*
X0323551Y0114054D01*
X0322050Y0112553D01*
X0230053Y0109550D02*
X0227050Y0109550D01*
X0228551Y0109550D02*
X0228551Y0114054D01*
X0227050Y0112553D01*
X0135053Y0109550D02*
X0132050Y0109550D01*
X0133551Y0109550D02*
X0133551Y0114054D01*
X0132050Y0112553D01*
X0045053Y0109550D02*
X0042050Y0109550D01*
X0043551Y0109550D02*
X0043551Y0114054D01*
X0042050Y0112553D01*
X0043551Y0019054D02*
X0043551Y0014550D01*
X0042050Y0014550D02*
X0045053Y0014550D01*
X0042050Y0017553D02*
X0043551Y0019054D01*
X0132050Y0017553D02*
X0133551Y0019054D01*
X0133551Y0014550D01*
X0132050Y0014550D02*
X0135053Y0014550D01*
X0227050Y0014550D02*
X0230053Y0014550D01*
X0228551Y0014550D02*
X0228551Y0019054D01*
X0227050Y0017553D01*
X0322050Y0017553D02*
X0323551Y0019054D01*
X0323551Y0014550D01*
X0322050Y0014550D02*
X0325053Y0014550D01*
X0325053Y0299550D02*
X0322050Y0299550D01*
X0323551Y0299550D02*
X0323551Y0304054D01*
X0322050Y0302553D01*
D14*
X0377391Y0129162D03*
X0377391Y0124438D03*
D15*
X0377391Y0126800D03*
M02*
