G75*
%MOIN*%
%OFA0B0*%
%FSLAX25Y25*%
%IPPOS*%
%LPD*%
%AMOC8*
5,1,8,0,0,1.08239X$1,22.5*
%
%ADD10C,0.00000*%
%ADD11R,0.08000X0.02600*%
%ADD12C,0.06000*%
%ADD13C,0.05150*%
%ADD14C,0.05150*%
%ADD15OC8,0.06000*%
%ADD16R,0.05512X0.03937*%
%ADD17R,0.05906X0.05118*%
%ADD18R,0.05118X0.05906*%
%ADD19C,0.00800*%
%ADD20C,0.04000*%
%ADD21C,0.01600*%
D10*
X0001800Y0001800D02*
X0001800Y0316761D01*
X0395501Y0316761D01*
X0395501Y0001800D01*
X0001800Y0001800D01*
X0380225Y0095894D02*
X0380227Y0095973D01*
X0380233Y0096052D01*
X0380243Y0096131D01*
X0380257Y0096209D01*
X0380274Y0096286D01*
X0380296Y0096362D01*
X0380321Y0096437D01*
X0380351Y0096510D01*
X0380383Y0096582D01*
X0380420Y0096653D01*
X0380460Y0096721D01*
X0380503Y0096787D01*
X0380549Y0096851D01*
X0380599Y0096913D01*
X0380652Y0096972D01*
X0380707Y0097028D01*
X0380766Y0097082D01*
X0380827Y0097132D01*
X0380890Y0097180D01*
X0380956Y0097224D01*
X0381024Y0097265D01*
X0381094Y0097302D01*
X0381165Y0097336D01*
X0381239Y0097366D01*
X0381313Y0097392D01*
X0381389Y0097414D01*
X0381466Y0097433D01*
X0381544Y0097448D01*
X0381622Y0097459D01*
X0381701Y0097466D01*
X0381780Y0097469D01*
X0381859Y0097468D01*
X0381938Y0097463D01*
X0382017Y0097454D01*
X0382095Y0097441D01*
X0382172Y0097424D01*
X0382249Y0097404D01*
X0382324Y0097379D01*
X0382398Y0097351D01*
X0382471Y0097319D01*
X0382541Y0097284D01*
X0382610Y0097245D01*
X0382677Y0097202D01*
X0382742Y0097156D01*
X0382804Y0097108D01*
X0382864Y0097056D01*
X0382921Y0097001D01*
X0382975Y0096943D01*
X0383026Y0096883D01*
X0383074Y0096820D01*
X0383119Y0096755D01*
X0383161Y0096687D01*
X0383199Y0096618D01*
X0383233Y0096547D01*
X0383264Y0096474D01*
X0383292Y0096399D01*
X0383315Y0096324D01*
X0383335Y0096247D01*
X0383351Y0096170D01*
X0383363Y0096091D01*
X0383371Y0096013D01*
X0383375Y0095934D01*
X0383375Y0095854D01*
X0383371Y0095775D01*
X0383363Y0095697D01*
X0383351Y0095618D01*
X0383335Y0095541D01*
X0383315Y0095464D01*
X0383292Y0095389D01*
X0383264Y0095314D01*
X0383233Y0095241D01*
X0383199Y0095170D01*
X0383161Y0095101D01*
X0383119Y0095033D01*
X0383074Y0094968D01*
X0383026Y0094905D01*
X0382975Y0094845D01*
X0382921Y0094787D01*
X0382864Y0094732D01*
X0382804Y0094680D01*
X0382742Y0094632D01*
X0382677Y0094586D01*
X0382610Y0094543D01*
X0382541Y0094504D01*
X0382471Y0094469D01*
X0382398Y0094437D01*
X0382324Y0094409D01*
X0382249Y0094384D01*
X0382172Y0094364D01*
X0382095Y0094347D01*
X0382017Y0094334D01*
X0381938Y0094325D01*
X0381859Y0094320D01*
X0381780Y0094319D01*
X0381701Y0094322D01*
X0381622Y0094329D01*
X0381544Y0094340D01*
X0381466Y0094355D01*
X0381389Y0094374D01*
X0381313Y0094396D01*
X0381239Y0094422D01*
X0381165Y0094452D01*
X0381094Y0094486D01*
X0381024Y0094523D01*
X0380956Y0094564D01*
X0380890Y0094608D01*
X0380827Y0094656D01*
X0380766Y0094706D01*
X0380707Y0094760D01*
X0380652Y0094816D01*
X0380599Y0094875D01*
X0380549Y0094937D01*
X0380503Y0095001D01*
X0380460Y0095067D01*
X0380420Y0095135D01*
X0380383Y0095206D01*
X0380351Y0095278D01*
X0380321Y0095351D01*
X0380296Y0095426D01*
X0380274Y0095502D01*
X0380257Y0095579D01*
X0380243Y0095657D01*
X0380233Y0095736D01*
X0380227Y0095815D01*
X0380225Y0095894D01*
X0380225Y0107706D02*
X0380227Y0107785D01*
X0380233Y0107864D01*
X0380243Y0107943D01*
X0380257Y0108021D01*
X0380274Y0108098D01*
X0380296Y0108174D01*
X0380321Y0108249D01*
X0380351Y0108322D01*
X0380383Y0108394D01*
X0380420Y0108465D01*
X0380460Y0108533D01*
X0380503Y0108599D01*
X0380549Y0108663D01*
X0380599Y0108725D01*
X0380652Y0108784D01*
X0380707Y0108840D01*
X0380766Y0108894D01*
X0380827Y0108944D01*
X0380890Y0108992D01*
X0380956Y0109036D01*
X0381024Y0109077D01*
X0381094Y0109114D01*
X0381165Y0109148D01*
X0381239Y0109178D01*
X0381313Y0109204D01*
X0381389Y0109226D01*
X0381466Y0109245D01*
X0381544Y0109260D01*
X0381622Y0109271D01*
X0381701Y0109278D01*
X0381780Y0109281D01*
X0381859Y0109280D01*
X0381938Y0109275D01*
X0382017Y0109266D01*
X0382095Y0109253D01*
X0382172Y0109236D01*
X0382249Y0109216D01*
X0382324Y0109191D01*
X0382398Y0109163D01*
X0382471Y0109131D01*
X0382541Y0109096D01*
X0382610Y0109057D01*
X0382677Y0109014D01*
X0382742Y0108968D01*
X0382804Y0108920D01*
X0382864Y0108868D01*
X0382921Y0108813D01*
X0382975Y0108755D01*
X0383026Y0108695D01*
X0383074Y0108632D01*
X0383119Y0108567D01*
X0383161Y0108499D01*
X0383199Y0108430D01*
X0383233Y0108359D01*
X0383264Y0108286D01*
X0383292Y0108211D01*
X0383315Y0108136D01*
X0383335Y0108059D01*
X0383351Y0107982D01*
X0383363Y0107903D01*
X0383371Y0107825D01*
X0383375Y0107746D01*
X0383375Y0107666D01*
X0383371Y0107587D01*
X0383363Y0107509D01*
X0383351Y0107430D01*
X0383335Y0107353D01*
X0383315Y0107276D01*
X0383292Y0107201D01*
X0383264Y0107126D01*
X0383233Y0107053D01*
X0383199Y0106982D01*
X0383161Y0106913D01*
X0383119Y0106845D01*
X0383074Y0106780D01*
X0383026Y0106717D01*
X0382975Y0106657D01*
X0382921Y0106599D01*
X0382864Y0106544D01*
X0382804Y0106492D01*
X0382742Y0106444D01*
X0382677Y0106398D01*
X0382610Y0106355D01*
X0382541Y0106316D01*
X0382471Y0106281D01*
X0382398Y0106249D01*
X0382324Y0106221D01*
X0382249Y0106196D01*
X0382172Y0106176D01*
X0382095Y0106159D01*
X0382017Y0106146D01*
X0381938Y0106137D01*
X0381859Y0106132D01*
X0381780Y0106131D01*
X0381701Y0106134D01*
X0381622Y0106141D01*
X0381544Y0106152D01*
X0381466Y0106167D01*
X0381389Y0106186D01*
X0381313Y0106208D01*
X0381239Y0106234D01*
X0381165Y0106264D01*
X0381094Y0106298D01*
X0381024Y0106335D01*
X0380956Y0106376D01*
X0380890Y0106420D01*
X0380827Y0106468D01*
X0380766Y0106518D01*
X0380707Y0106572D01*
X0380652Y0106628D01*
X0380599Y0106687D01*
X0380549Y0106749D01*
X0380503Y0106813D01*
X0380460Y0106879D01*
X0380420Y0106947D01*
X0380383Y0107018D01*
X0380351Y0107090D01*
X0380321Y0107163D01*
X0380296Y0107238D01*
X0380274Y0107314D01*
X0380257Y0107391D01*
X0380243Y0107469D01*
X0380233Y0107548D01*
X0380227Y0107627D01*
X0380225Y0107706D01*
D11*
X0381600Y0144300D03*
X0381600Y0149300D03*
X0381600Y0154300D03*
X0381600Y0159300D03*
X0381600Y0164300D03*
X0381600Y0169300D03*
X0381600Y0174300D03*
X0381600Y0179300D03*
X0381600Y0184300D03*
X0381600Y0189300D03*
X0342000Y0189300D03*
X0342000Y0184300D03*
X0342000Y0179300D03*
X0342000Y0174300D03*
X0342000Y0169300D03*
X0342000Y0164300D03*
X0342000Y0159300D03*
X0342000Y0154300D03*
X0342000Y0149300D03*
X0342000Y0144300D03*
X0316600Y0144300D03*
X0316600Y0149300D03*
X0316600Y0154300D03*
X0316600Y0159300D03*
X0316600Y0164300D03*
X0316600Y0169300D03*
X0316600Y0174300D03*
X0316600Y0179300D03*
X0316600Y0184300D03*
X0316600Y0189300D03*
X0277000Y0189300D03*
X0277000Y0184300D03*
X0277000Y0179300D03*
X0277000Y0174300D03*
X0277000Y0169300D03*
X0277000Y0164300D03*
X0277000Y0159300D03*
X0277000Y0154300D03*
X0277000Y0149300D03*
X0277000Y0144300D03*
X0251600Y0144300D03*
X0251600Y0149300D03*
X0251600Y0154300D03*
X0251600Y0159300D03*
X0251600Y0164300D03*
X0251600Y0169300D03*
X0251600Y0174300D03*
X0251600Y0179300D03*
X0251600Y0184300D03*
X0251600Y0189300D03*
X0212000Y0189300D03*
X0212000Y0184300D03*
X0212000Y0179300D03*
X0212000Y0174300D03*
X0212000Y0169300D03*
X0212000Y0164300D03*
X0212000Y0159300D03*
X0212000Y0154300D03*
X0212000Y0149300D03*
X0212000Y0144300D03*
X0186600Y0144300D03*
X0186600Y0149300D03*
X0186600Y0154300D03*
X0186600Y0159300D03*
X0186600Y0164300D03*
X0186600Y0169300D03*
X0186600Y0174300D03*
X0186600Y0179300D03*
X0186600Y0184300D03*
X0186600Y0189300D03*
X0147000Y0189300D03*
X0147000Y0184300D03*
X0147000Y0179300D03*
X0147000Y0174300D03*
X0147000Y0169300D03*
X0147000Y0164300D03*
X0147000Y0159300D03*
X0147000Y0154300D03*
X0147000Y0149300D03*
X0147000Y0144300D03*
X0121600Y0144300D03*
X0121600Y0149300D03*
X0121600Y0154300D03*
X0121600Y0159300D03*
X0121600Y0164300D03*
X0121600Y0169300D03*
X0121600Y0174300D03*
X0121600Y0179300D03*
X0121600Y0184300D03*
X0121600Y0189300D03*
X0082000Y0189300D03*
X0082000Y0184300D03*
X0082000Y0179300D03*
X0082000Y0174300D03*
X0082000Y0169300D03*
X0082000Y0164300D03*
X0082000Y0159300D03*
X0082000Y0154300D03*
X0082000Y0149300D03*
X0082000Y0144300D03*
X0056600Y0144300D03*
X0056600Y0149300D03*
X0056600Y0154300D03*
X0056600Y0159300D03*
X0056600Y0164300D03*
X0056600Y0169300D03*
X0056600Y0174300D03*
X0056600Y0179300D03*
X0056600Y0184300D03*
X0056600Y0189300D03*
X0017000Y0189300D03*
X0017000Y0184300D03*
X0017000Y0179300D03*
X0017000Y0174300D03*
X0017000Y0169300D03*
X0017000Y0164300D03*
X0017000Y0159300D03*
X0017000Y0154300D03*
X0017000Y0149300D03*
X0017000Y0144300D03*
D12*
X0051800Y0114800D02*
X0051800Y0108800D01*
X0061800Y0108800D02*
X0061800Y0114800D01*
X0071800Y0114800D02*
X0071800Y0108800D01*
X0141800Y0108800D02*
X0141800Y0114800D01*
X0151800Y0114800D02*
X0151800Y0108800D01*
X0161800Y0108800D02*
X0161800Y0114800D01*
X0236800Y0114800D02*
X0236800Y0108800D01*
X0246800Y0108800D02*
X0246800Y0114800D01*
X0256800Y0114800D02*
X0256800Y0108800D01*
X0331800Y0108800D02*
X0331800Y0114800D01*
X0341800Y0114800D02*
X0341800Y0108800D01*
X0351800Y0108800D02*
X0351800Y0114800D01*
X0351800Y0203800D02*
X0351800Y0209800D01*
X0341800Y0209800D02*
X0341800Y0203800D01*
X0331800Y0203800D02*
X0331800Y0209800D01*
X0256800Y0209800D02*
X0256800Y0203800D01*
X0246800Y0203800D02*
X0246800Y0209800D01*
X0236800Y0209800D02*
X0236800Y0203800D01*
X0161800Y0203800D02*
X0161800Y0209800D01*
X0151800Y0209800D02*
X0151800Y0203800D01*
X0141800Y0203800D02*
X0141800Y0209800D01*
X0071800Y0209800D02*
X0071800Y0203800D01*
X0061800Y0203800D02*
X0061800Y0209800D01*
X0051800Y0209800D02*
X0051800Y0203800D01*
X0051800Y0298800D02*
X0051800Y0304800D01*
X0061800Y0304800D02*
X0061800Y0298800D01*
X0071800Y0298800D02*
X0071800Y0304800D01*
X0141800Y0304800D02*
X0141800Y0298800D01*
X0151800Y0298800D02*
X0151800Y0304800D01*
X0161800Y0304800D02*
X0161800Y0298800D01*
X0236800Y0298800D02*
X0236800Y0304800D01*
X0246800Y0304800D02*
X0246800Y0298800D01*
X0256800Y0298800D02*
X0256800Y0304800D01*
X0331800Y0304800D02*
X0331800Y0298800D01*
X0341800Y0298800D02*
X0341800Y0304800D01*
X0351800Y0304800D02*
X0351800Y0298800D01*
X0351800Y0019800D02*
X0351800Y0013800D01*
X0341800Y0013800D02*
X0341800Y0019800D01*
X0331800Y0019800D02*
X0331800Y0013800D01*
X0256800Y0013800D02*
X0256800Y0019800D01*
X0246800Y0019800D02*
X0246800Y0013800D01*
X0236800Y0013800D02*
X0236800Y0019800D01*
X0161800Y0019800D02*
X0161800Y0013800D01*
X0151800Y0013800D02*
X0151800Y0019800D01*
X0141800Y0019800D02*
X0141800Y0013800D01*
X0071800Y0013800D02*
X0071800Y0019800D01*
X0061800Y0019800D02*
X0061800Y0013800D01*
X0051800Y0013800D02*
X0051800Y0019800D01*
D13*
X0211800Y0069225D02*
X0211800Y0074375D01*
X0221800Y0074375D02*
X0221800Y0069225D01*
X0231800Y0069225D02*
X0231800Y0074375D01*
X0241800Y0074375D02*
X0241800Y0069225D01*
X0251800Y0069225D02*
X0251800Y0074375D01*
X0261800Y0074375D02*
X0261800Y0069225D01*
X0271800Y0069225D02*
X0271800Y0074375D01*
X0281800Y0074375D02*
X0281800Y0069225D01*
X0291800Y0069225D02*
X0291800Y0074375D01*
X0301800Y0074375D02*
X0301800Y0069225D01*
X0311800Y0069225D02*
X0311800Y0074375D01*
X0321800Y0074375D02*
X0321800Y0069225D01*
X0331800Y0069225D02*
X0331800Y0074375D01*
X0341800Y0074375D02*
X0341800Y0069225D01*
X0351800Y0069225D02*
X0351800Y0074375D01*
X0351800Y0129225D02*
X0351800Y0134375D01*
X0341800Y0134375D02*
X0341800Y0129225D01*
X0331800Y0129225D02*
X0331800Y0134375D01*
X0321800Y0134375D02*
X0321800Y0129225D01*
X0311800Y0129225D02*
X0311800Y0134375D01*
X0301800Y0134375D02*
X0301800Y0129225D01*
X0291800Y0129225D02*
X0291800Y0134375D01*
X0281800Y0134375D02*
X0281800Y0129225D01*
X0271800Y0129225D02*
X0271800Y0134375D01*
X0261800Y0134375D02*
X0261800Y0129225D01*
X0251800Y0129225D02*
X0251800Y0134375D01*
X0241800Y0134375D02*
X0241800Y0129225D01*
X0231800Y0129225D02*
X0231800Y0134375D01*
X0221800Y0134375D02*
X0221800Y0129225D01*
X0211800Y0129225D02*
X0211800Y0134375D01*
D14*
X0206800Y0111800D03*
X0216800Y0111800D03*
X0216800Y0101800D03*
X0216800Y0091800D03*
X0206800Y0091800D03*
X0206800Y0101800D03*
D15*
X0221800Y0026800D03*
X0126800Y0026800D03*
X0036800Y0026800D03*
X0316800Y0026800D03*
D16*
X0306131Y0026800D03*
X0297469Y0023060D03*
X0297469Y0030540D03*
X0211131Y0026800D03*
X0202469Y0023060D03*
X0202469Y0030540D03*
X0116131Y0026800D03*
X0107469Y0023060D03*
X0107469Y0030540D03*
X0026131Y0026800D03*
X0017469Y0023060D03*
X0017469Y0030540D03*
D17*
X0016800Y0038060D03*
X0026800Y0038060D03*
X0026800Y0045540D03*
X0016800Y0045540D03*
X0106800Y0045540D03*
X0106800Y0038060D03*
X0116800Y0038060D03*
X0116800Y0045540D03*
X0201800Y0045540D03*
X0201800Y0038060D03*
X0211800Y0038060D03*
X0211800Y0045540D03*
X0296800Y0045540D03*
X0306800Y0045540D03*
X0306800Y0038060D03*
X0296800Y0038060D03*
D18*
X0293060Y0196800D03*
X0300540Y0196800D03*
X0363060Y0196800D03*
X0370540Y0196800D03*
X0225540Y0196800D03*
X0218060Y0196800D03*
X0180540Y0196800D03*
X0173060Y0196800D03*
X0105540Y0196800D03*
X0098060Y0196800D03*
X0035540Y0196800D03*
X0028060Y0196800D03*
D19*
X0028200Y0196200D01*
X0032200Y0192200D01*
X0061800Y0192200D01*
X0062600Y0193000D01*
X0078600Y0193000D01*
X0081800Y0189800D01*
X0082000Y0189300D01*
X0082600Y0189800D01*
X0089000Y0196200D01*
X0097800Y0196200D01*
X0098060Y0196800D01*
X0098600Y0196200D01*
X0102600Y0192200D01*
X0113800Y0192200D01*
X0115400Y0193800D01*
X0142600Y0193800D01*
X0146600Y0189800D01*
X0147000Y0189300D01*
X0147400Y0189800D01*
X0161000Y0189800D01*
X0167400Y0196200D01*
X0173000Y0196200D01*
X0173060Y0196800D01*
X0173000Y0197000D01*
X0180200Y0204200D01*
X0187400Y0204200D01*
X0194600Y0197000D01*
X0201800Y0197000D01*
X0201800Y0202600D01*
X0201800Y0197000D02*
X0212200Y0197000D01*
X0212200Y0196200D01*
X0212200Y0197000D02*
X0217800Y0197000D01*
X0218060Y0196800D01*
X0225540Y0196800D02*
X0225800Y0197000D01*
X0217000Y0205800D01*
X0185800Y0205800D01*
X0185800Y0207400D01*
X0185800Y0205800D02*
X0174600Y0205800D01*
X0165800Y0197000D01*
X0105800Y0197000D01*
X0105540Y0196800D01*
X0105800Y0197000D02*
X0101800Y0201000D01*
X0091400Y0201000D01*
X0087400Y0197000D01*
X0036200Y0197000D01*
X0035540Y0196800D01*
X0028060Y0196800D02*
X0027400Y0196200D01*
X0023400Y0196200D01*
X0017000Y0189800D01*
X0017000Y0189300D01*
X0017000Y0185000D02*
X0013800Y0185000D01*
X0011400Y0187400D01*
X0011400Y0191400D01*
X0021000Y0201000D01*
X0048200Y0201000D01*
X0049800Y0199400D01*
X0078600Y0199400D01*
X0079400Y0200200D01*
X0079400Y0209800D01*
X0113000Y0243400D01*
X0181000Y0243400D01*
X0188200Y0236200D01*
X0255400Y0236200D01*
X0281000Y0210600D01*
X0289000Y0210600D01*
X0290600Y0207400D02*
X0281800Y0207400D01*
X0269800Y0219400D01*
X0202600Y0219400D01*
X0202600Y0214600D02*
X0209800Y0207400D01*
X0214600Y0207400D01*
X0216200Y0209000D01*
X0217800Y0212200D02*
X0213000Y0212200D01*
X0211400Y0210600D01*
X0217800Y0212200D02*
X0230600Y0199400D01*
X0269800Y0199400D01*
X0268200Y0196200D02*
X0283400Y0196200D01*
X0288200Y0201000D01*
X0296200Y0201000D01*
X0300200Y0197000D01*
X0300540Y0196800D01*
X0301000Y0197000D01*
X0305000Y0201000D01*
X0308200Y0201000D01*
X0309800Y0199400D01*
X0345800Y0199400D01*
X0357800Y0187400D01*
X0369800Y0187400D01*
X0369800Y0196200D01*
X0370540Y0196800D01*
X0374600Y0200200D02*
X0374600Y0191400D01*
X0371400Y0188200D01*
X0371400Y0157000D01*
X0378600Y0149800D01*
X0381000Y0149800D01*
X0381600Y0149300D01*
X0381000Y0145000D02*
X0378600Y0145000D01*
X0381600Y0144300D01*
X0381000Y0145000D01*
X0378600Y0145000D02*
X0373800Y0140200D01*
X0373800Y0121000D01*
X0373000Y0120200D01*
X0373000Y0082600D01*
X0369000Y0070600D02*
X0369000Y0132200D01*
X0362600Y0143400D02*
X0362600Y0070600D01*
X0338600Y0046600D01*
X0322600Y0046600D01*
X0319400Y0048200D02*
X0319400Y0045000D01*
X0321000Y0043400D01*
X0321000Y0025000D01*
X0305000Y0009000D01*
X0235400Y0009000D01*
X0230600Y0013800D01*
X0226600Y0018600D02*
X0277800Y0069800D01*
X0277800Y0101800D01*
X0290600Y0114600D01*
X0287400Y0121000D02*
X0276200Y0109800D01*
X0276200Y0093000D01*
X0265000Y0081800D01*
X0266600Y0088200D02*
X0218600Y0088200D01*
X0217800Y0087400D01*
X0210600Y0087400D01*
X0214600Y0078600D02*
X0201000Y0092200D01*
X0206600Y0097800D01*
X0259400Y0097800D01*
X0285800Y0124200D01*
X0285800Y0148200D01*
X0288200Y0148200D01*
X0302600Y0162600D01*
X0306600Y0161800D02*
X0306600Y0166600D01*
X0313800Y0173800D01*
X0316200Y0173800D01*
X0316600Y0174300D01*
X0316600Y0169300D02*
X0316200Y0169000D01*
X0313800Y0169000D01*
X0309800Y0165000D01*
X0311400Y0161800D02*
X0309000Y0159400D01*
X0309800Y0156200D02*
X0311400Y0156200D01*
X0313800Y0158600D01*
X0316200Y0158600D01*
X0316600Y0159300D01*
X0316600Y0164300D02*
X0317000Y0165000D01*
X0320200Y0165000D01*
X0323400Y0168200D01*
X0327400Y0165000D02*
X0341800Y0165000D01*
X0342000Y0164300D01*
X0339400Y0161800D02*
X0341800Y0159400D01*
X0342000Y0159300D01*
X0339400Y0161800D02*
X0311400Y0161800D01*
X0309800Y0156200D02*
X0293800Y0140200D01*
X0292200Y0140200D01*
X0287400Y0142600D02*
X0306600Y0161800D01*
X0309800Y0153800D02*
X0316200Y0153800D01*
X0316600Y0154300D01*
X0316600Y0149300D02*
X0316200Y0149000D01*
X0313800Y0149000D01*
X0309800Y0145000D01*
X0316600Y0144300D02*
X0317000Y0144200D01*
X0330600Y0144200D01*
X0325800Y0147400D02*
X0329800Y0151400D01*
X0334600Y0151400D02*
X0336200Y0149800D01*
X0341800Y0149800D01*
X0342000Y0149300D01*
X0342000Y0144300D02*
X0341800Y0144200D01*
X0335400Y0144200D01*
X0330600Y0139400D01*
X0301800Y0139400D01*
X0301000Y0140200D01*
X0297800Y0141800D02*
X0309800Y0153800D01*
X0325000Y0154600D02*
X0341800Y0154600D01*
X0342000Y0154300D01*
X0325800Y0147400D02*
X0324200Y0147400D01*
X0311800Y0131800D02*
X0301000Y0121000D01*
X0301000Y0096200D01*
X0301000Y0090600D02*
X0301000Y0088200D01*
X0301000Y0090600D02*
X0329800Y0119400D01*
X0336200Y0119400D01*
X0325800Y0110600D02*
X0307400Y0092200D01*
X0307400Y0068200D01*
X0311400Y0064200D01*
X0311400Y0054600D01*
X0307400Y0051400D02*
X0299400Y0059400D01*
X0305800Y0065000D02*
X0305800Y0078600D01*
X0297800Y0086600D01*
X0297800Y0141800D01*
X0287400Y0142600D02*
X0287400Y0128200D01*
X0293800Y0121800D01*
X0293800Y0094600D01*
X0287400Y0088200D01*
X0287400Y0069000D01*
X0281800Y0063400D01*
X0271400Y0056200D02*
X0297000Y0030600D01*
X0297469Y0030540D01*
X0301800Y0033000D02*
X0301800Y0027400D01*
X0297800Y0023400D01*
X0297469Y0023060D01*
X0306131Y0026800D02*
X0306600Y0027400D01*
X0306600Y0037800D01*
X0306800Y0038060D01*
X0301800Y0033000D02*
X0297000Y0037800D01*
X0296800Y0038060D01*
X0296800Y0045540D02*
X0296200Y0045800D01*
X0296200Y0127400D01*
X0291800Y0131800D01*
X0281800Y0131800D02*
X0281800Y0122600D01*
X0261800Y0102600D01*
X0229800Y0102600D01*
X0226600Y0105800D01*
X0198600Y0105800D01*
X0196200Y0108200D01*
X0196200Y0124200D01*
X0197800Y0125800D01*
X0211400Y0139400D01*
X0211400Y0144200D01*
X0212000Y0144300D01*
X0212200Y0149000D02*
X0212000Y0149300D01*
X0214600Y0149000D01*
X0224200Y0158600D01*
X0224200Y0160200D01*
X0225800Y0163400D02*
X0218600Y0163400D01*
X0214600Y0159400D01*
X0212200Y0159400D01*
X0212000Y0159300D01*
X0211400Y0159400D01*
X0209000Y0161800D01*
X0181800Y0161800D01*
X0181000Y0161000D01*
X0181000Y0160200D01*
X0177000Y0156200D01*
X0164200Y0156200D01*
X0161800Y0158600D01*
X0147400Y0158600D01*
X0147000Y0159300D01*
X0146600Y0159400D01*
X0139400Y0159400D01*
X0141800Y0161800D02*
X0141000Y0162600D01*
X0137800Y0162600D01*
X0136200Y0161000D01*
X0136200Y0146600D01*
X0129800Y0140200D01*
X0125800Y0140200D01*
X0129000Y0137000D02*
X0099400Y0137000D01*
X0092200Y0144200D01*
X0092200Y0149000D01*
X0087400Y0153800D01*
X0082600Y0153800D01*
X0082000Y0154300D01*
X0081800Y0153800D01*
X0079400Y0153800D01*
X0067400Y0141800D01*
X0051400Y0141800D01*
X0039400Y0153800D01*
X0017000Y0153800D01*
X0017000Y0154300D01*
X0017000Y0149300D02*
X0017000Y0149000D01*
X0014600Y0149000D01*
X0011400Y0145800D01*
X0011400Y0142600D01*
X0020200Y0133800D01*
X0089000Y0133800D01*
X0089000Y0137800D01*
X0089000Y0133800D02*
X0137800Y0133800D01*
X0139400Y0132200D01*
X0142600Y0132200D01*
X0145000Y0129800D01*
X0142600Y0132200D02*
X0152200Y0141800D01*
X0152200Y0146600D01*
X0149800Y0149000D01*
X0147400Y0149000D01*
X0147000Y0149300D01*
X0147000Y0144300D02*
X0146600Y0144200D01*
X0138600Y0144200D01*
X0135400Y0141000D01*
X0141000Y0135400D01*
X0135400Y0141000D02*
X0129800Y0135400D01*
X0096200Y0135400D01*
X0087400Y0144200D01*
X0082600Y0144200D01*
X0082000Y0144300D01*
X0081800Y0144200D01*
X0077800Y0140200D01*
X0050600Y0140200D01*
X0046600Y0144200D01*
X0017000Y0144200D01*
X0017000Y0144300D01*
X0009800Y0141800D02*
X0009800Y0164200D01*
X0014600Y0169000D01*
X0017000Y0169000D01*
X0017000Y0169300D01*
X0017000Y0169000D02*
X0044200Y0169000D01*
X0051400Y0161800D01*
X0067400Y0161800D01*
X0074600Y0169000D01*
X0081800Y0169000D01*
X0082000Y0169300D01*
X0082600Y0169000D01*
X0084200Y0167400D01*
X0089000Y0167400D01*
X0090600Y0164200D02*
X0082600Y0164200D01*
X0082000Y0164300D01*
X0081800Y0164200D01*
X0072200Y0164200D01*
X0066600Y0158600D01*
X0071400Y0157000D02*
X0071400Y0161000D01*
X0073000Y0162600D01*
X0076200Y0162600D01*
X0077000Y0161800D01*
X0086600Y0161800D01*
X0098600Y0149800D01*
X0098600Y0149000D01*
X0102600Y0145000D01*
X0121000Y0145000D01*
X0121600Y0144300D01*
X0121800Y0144200D01*
X0129000Y0144200D01*
X0129000Y0149000D02*
X0124200Y0153800D01*
X0121800Y0153800D01*
X0121600Y0154300D01*
X0119400Y0157000D02*
X0121000Y0158600D01*
X0121600Y0159300D01*
X0119400Y0157000D02*
X0114600Y0157000D01*
X0117000Y0161800D02*
X0116200Y0162600D01*
X0116200Y0166600D01*
X0118600Y0169000D01*
X0121000Y0169000D01*
X0121600Y0169300D01*
X0121600Y0174300D02*
X0121000Y0174600D01*
X0120200Y0175400D01*
X0114600Y0175400D01*
X0113000Y0178600D02*
X0121000Y0178600D01*
X0121600Y0179300D01*
X0121600Y0184300D02*
X0121800Y0185000D01*
X0132200Y0185000D01*
X0129000Y0189000D02*
X0121800Y0189000D01*
X0121600Y0189300D01*
X0116200Y0192200D02*
X0109000Y0185000D01*
X0082600Y0185000D01*
X0082000Y0184300D01*
X0081800Y0185000D01*
X0078600Y0185000D01*
X0074600Y0189000D01*
X0074600Y0184200D02*
X0057000Y0184200D01*
X0056600Y0184300D01*
X0056600Y0179300D02*
X0057000Y0178600D01*
X0063400Y0178600D01*
X0057000Y0174600D02*
X0056600Y0174300D01*
X0057000Y0174600D02*
X0069800Y0174600D01*
X0063400Y0170600D02*
X0063400Y0169000D01*
X0059400Y0165000D01*
X0057000Y0165000D01*
X0056600Y0164300D01*
X0056200Y0159400D02*
X0056600Y0159300D01*
X0056200Y0159400D02*
X0051400Y0159400D01*
X0046600Y0164200D01*
X0042600Y0164200D01*
X0044200Y0159400D02*
X0017000Y0159400D01*
X0017000Y0159300D01*
X0017000Y0164200D02*
X0017000Y0164300D01*
X0017000Y0164200D02*
X0034600Y0164200D01*
X0041000Y0174600D02*
X0048200Y0181800D01*
X0072200Y0181800D01*
X0079400Y0174600D01*
X0081800Y0174600D01*
X0082000Y0174300D01*
X0082600Y0173800D01*
X0084200Y0172200D01*
X0089000Y0172200D01*
X0089000Y0177000D02*
X0084200Y0177000D01*
X0082600Y0178600D01*
X0082000Y0179300D01*
X0089000Y0177000D02*
X0093800Y0181800D01*
X0126600Y0181800D01*
X0129000Y0179400D01*
X0146600Y0179400D01*
X0147000Y0179300D01*
X0145800Y0175400D02*
X0146600Y0174600D01*
X0147000Y0174300D01*
X0147400Y0174600D01*
X0154600Y0174600D01*
X0157800Y0169800D02*
X0147400Y0169800D01*
X0147000Y0169300D01*
X0146600Y0165000D02*
X0147000Y0164300D01*
X0147400Y0164200D01*
X0165800Y0164200D01*
X0173000Y0171400D01*
X0169800Y0170600D02*
X0169800Y0178600D01*
X0174600Y0183400D01*
X0176200Y0186600D02*
X0155400Y0186600D01*
X0149800Y0184200D02*
X0147400Y0184200D01*
X0147000Y0184300D01*
X0146600Y0185000D01*
X0137800Y0185000D01*
X0130600Y0192200D01*
X0116200Y0192200D01*
X0113000Y0178600D02*
X0105000Y0170600D01*
X0105000Y0154600D01*
X0101800Y0150600D02*
X0120200Y0150600D01*
X0121000Y0149800D01*
X0121600Y0149300D01*
X0115400Y0140200D02*
X0101000Y0140200D01*
X0089000Y0147400D02*
X0087400Y0149000D01*
X0082600Y0149000D01*
X0082000Y0149300D01*
X0071400Y0157000D02*
X0059400Y0145000D01*
X0057000Y0145000D01*
X0056600Y0144300D01*
X0056600Y0149300D02*
X0056200Y0149800D01*
X0049000Y0149800D01*
X0049000Y0154600D02*
X0056200Y0154600D01*
X0056600Y0154300D01*
X0074600Y0159400D02*
X0081800Y0159400D01*
X0082000Y0159300D01*
X0090600Y0164200D02*
X0095400Y0169000D01*
X0097000Y0169000D01*
X0117000Y0161800D02*
X0126600Y0161800D01*
X0129000Y0159400D01*
X0129000Y0157000D01*
X0133000Y0157800D02*
X0133000Y0153800D01*
X0133000Y0157800D02*
X0126600Y0164200D01*
X0121800Y0164200D01*
X0121600Y0164300D01*
X0129000Y0169000D02*
X0133000Y0165000D01*
X0146600Y0165000D01*
X0141800Y0161800D02*
X0163400Y0161800D01*
X0164200Y0162600D01*
X0171400Y0162600D01*
X0182600Y0173800D01*
X0186600Y0173800D01*
X0186600Y0174300D01*
X0186600Y0169300D02*
X0186600Y0169000D01*
X0180200Y0169000D01*
X0170600Y0159400D01*
X0165800Y0159400D01*
X0162600Y0153800D02*
X0165800Y0150600D01*
X0169800Y0149000D02*
X0186600Y0149000D01*
X0186600Y0149300D01*
X0186600Y0144300D02*
X0186600Y0135400D01*
X0186600Y0100200D01*
X0197800Y0089000D01*
X0197800Y0085800D01*
X0194600Y0082600D01*
X0183400Y0082600D01*
X0169800Y0096200D01*
X0166600Y0096200D01*
X0159400Y0089000D01*
X0159400Y0053800D01*
X0137000Y0031400D01*
X0131400Y0031400D01*
X0117000Y0045800D01*
X0116800Y0045540D01*
X0116800Y0038060D02*
X0116200Y0037800D01*
X0116200Y0027400D01*
X0116131Y0026800D01*
X0116200Y0027400D02*
X0126600Y0027400D01*
X0126800Y0026800D01*
X0131400Y0025000D02*
X0131400Y0031400D01*
X0131400Y0025000D02*
X0121000Y0014600D01*
X0104200Y0014600D01*
X0073800Y0045000D01*
X0027400Y0045000D01*
X0026800Y0045540D01*
X0016800Y0045540D02*
X0016200Y0045000D01*
X0011400Y0040200D01*
X0011400Y0020200D01*
X0025800Y0005800D01*
X0160200Y0005800D01*
X0173000Y0018600D01*
X0226600Y0018600D01*
X0225000Y0021800D02*
X0266600Y0063400D01*
X0261800Y0071800D02*
X0261800Y0072200D01*
X0255400Y0078600D01*
X0214600Y0078600D01*
X0201000Y0092200D02*
X0194600Y0098600D01*
X0194600Y0139400D01*
X0199400Y0144200D01*
X0195400Y0148200D01*
X0192200Y0151400D02*
X0189800Y0153800D01*
X0186600Y0153800D01*
X0186600Y0154300D01*
X0186600Y0158600D02*
X0186600Y0159300D01*
X0186600Y0158600D02*
X0189800Y0158600D01*
X0193800Y0154600D01*
X0192200Y0151400D02*
X0192200Y0142600D01*
X0189800Y0140200D01*
X0189800Y0119400D01*
X0199400Y0109800D02*
X0214600Y0125000D01*
X0233000Y0125000D01*
X0239400Y0131400D01*
X0241800Y0131400D01*
X0241800Y0131800D01*
X0241800Y0138600D01*
X0247400Y0144200D01*
X0251400Y0144200D01*
X0251600Y0144300D01*
X0251600Y0149300D02*
X0251400Y0149800D01*
X0249000Y0149800D01*
X0241800Y0157000D01*
X0245000Y0161800D02*
X0256200Y0161800D01*
X0258600Y0164200D01*
X0269800Y0164200D01*
X0273800Y0165000D02*
X0277000Y0165000D01*
X0277000Y0164300D01*
X0277000Y0164200D01*
X0289000Y0164200D01*
X0293000Y0165800D02*
X0296200Y0165800D01*
X0311400Y0181000D01*
X0311400Y0181800D01*
X0327400Y0181800D01*
X0339400Y0169800D01*
X0341800Y0169800D01*
X0342000Y0169300D01*
X0342000Y0174300D02*
X0341800Y0174600D01*
X0339400Y0174600D01*
X0334600Y0179400D01*
X0334600Y0183400D01*
X0325000Y0193000D01*
X0313000Y0193000D01*
X0309800Y0189800D01*
X0309800Y0189000D01*
X0309800Y0189800D02*
X0307400Y0187400D01*
X0300200Y0187400D01*
X0287400Y0174600D01*
X0277000Y0174600D01*
X0277000Y0174300D01*
X0277000Y0169800D02*
X0273800Y0169800D01*
X0266600Y0177000D01*
X0266600Y0184200D01*
X0256200Y0194600D01*
X0241800Y0194600D01*
X0217000Y0169800D01*
X0212200Y0169800D01*
X0212000Y0169300D01*
X0211400Y0169800D01*
X0204200Y0169800D01*
X0199400Y0174600D02*
X0211400Y0174600D01*
X0212000Y0174300D01*
X0212000Y0179300D02*
X0211400Y0179400D01*
X0205000Y0179400D01*
X0204200Y0184200D02*
X0193800Y0173800D01*
X0193800Y0168200D01*
X0186600Y0164300D02*
X0186600Y0164200D01*
X0181800Y0164200D01*
X0179400Y0161800D01*
X0177800Y0161800D01*
X0169800Y0170600D02*
X0166600Y0167400D01*
X0162600Y0167400D01*
X0162600Y0171400D02*
X0149800Y0184200D01*
X0145800Y0175400D02*
X0137000Y0175400D01*
X0162600Y0171400D02*
X0165800Y0171400D01*
X0176200Y0186600D02*
X0181000Y0181800D01*
X0191400Y0181800D01*
X0192200Y0182600D01*
X0196200Y0182600D01*
X0205800Y0192200D01*
X0232200Y0192200D01*
X0236200Y0196200D01*
X0257000Y0196200D01*
X0258600Y0194600D01*
X0283400Y0194600D01*
X0287400Y0190600D01*
X0304200Y0190600D01*
X0309800Y0196200D01*
X0346600Y0196200D01*
X0365800Y0177000D01*
X0365800Y0071400D01*
X0330600Y0036200D01*
X0325800Y0036200D01*
X0316800Y0026800D02*
X0316200Y0027400D01*
X0306600Y0027400D01*
X0286600Y0033000D02*
X0267400Y0052200D01*
X0289800Y0045800D02*
X0291400Y0047400D01*
X0291400Y0071400D01*
X0291800Y0071800D01*
X0281800Y0071800D02*
X0281800Y0071400D01*
X0216200Y0005800D01*
X0165000Y0005800D01*
X0145800Y0029800D02*
X0197000Y0029800D01*
X0197000Y0048200D01*
X0205800Y0057000D01*
X0225000Y0057000D01*
X0239400Y0071400D01*
X0241800Y0071400D01*
X0241800Y0071800D01*
X0222600Y0094600D02*
X0273000Y0094600D01*
X0281000Y0091400D02*
X0285800Y0091400D01*
X0290600Y0096200D01*
X0310600Y0088200D02*
X0315400Y0093000D01*
X0322600Y0093000D01*
X0327400Y0075400D02*
X0359400Y0107400D01*
X0359400Y0154600D01*
X0369800Y0153800D02*
X0378600Y0145000D01*
X0381600Y0154300D02*
X0381800Y0154600D01*
X0384200Y0154600D01*
X0389000Y0159400D01*
X0384200Y0159400D02*
X0381800Y0159400D01*
X0381600Y0159300D01*
X0384200Y0159400D02*
X0392200Y0167400D01*
X0392200Y0197000D01*
X0322600Y0266600D01*
X0322600Y0269000D01*
X0330600Y0244200D02*
X0300200Y0244200D01*
X0260200Y0284200D01*
X0187400Y0284200D01*
X0185800Y0281000D02*
X0198600Y0281000D01*
X0232200Y0247400D01*
X0229000Y0241000D02*
X0260200Y0241000D01*
X0263400Y0237800D02*
X0278600Y0222600D01*
X0278600Y0220200D01*
X0280200Y0218600D01*
X0316200Y0218600D01*
X0317000Y0219400D01*
X0320200Y0209000D02*
X0292200Y0209000D01*
X0290600Y0207400D01*
X0281000Y0205800D02*
X0321800Y0205800D01*
X0330600Y0214600D01*
X0353800Y0214600D01*
X0367400Y0201000D01*
X0373800Y0201000D01*
X0374600Y0200200D01*
X0369000Y0204200D02*
X0357000Y0216200D01*
X0280200Y0216200D01*
X0270600Y0225800D01*
X0270600Y0216200D02*
X0281000Y0205800D01*
X0288200Y0196200D02*
X0287400Y0195400D01*
X0288200Y0196200D02*
X0293000Y0196200D01*
X0293060Y0196800D01*
X0293800Y0196200D01*
X0297800Y0192200D01*
X0303400Y0192200D01*
X0306600Y0195400D01*
X0306600Y0197800D01*
X0310600Y0194600D02*
X0325800Y0194600D01*
X0336200Y0184200D01*
X0336200Y0182600D01*
X0339400Y0179400D01*
X0341800Y0179400D01*
X0342000Y0179300D01*
X0342600Y0178600D01*
X0345000Y0178600D01*
X0347400Y0176200D01*
X0347400Y0107400D01*
X0311800Y0071800D01*
X0317800Y0065000D02*
X0323400Y0065000D01*
X0327400Y0069000D01*
X0327400Y0075400D01*
X0321800Y0072200D02*
X0321800Y0071800D01*
X0321800Y0072200D02*
X0356200Y0106600D01*
X0356200Y0175400D01*
X0349000Y0182600D01*
X0344200Y0182600D01*
X0342600Y0184200D01*
X0342000Y0184300D01*
X0342600Y0189000D02*
X0342000Y0189300D01*
X0342600Y0189000D02*
X0349000Y0189000D01*
X0363400Y0190600D02*
X0363400Y0196200D01*
X0363060Y0196800D01*
X0369800Y0187400D02*
X0369800Y0153800D01*
X0381600Y0164300D02*
X0381800Y0165000D01*
X0385000Y0165000D01*
X0389000Y0169000D01*
X0384200Y0169800D02*
X0389000Y0174600D01*
X0389000Y0197800D01*
X0274600Y0312200D01*
X0131400Y0312200D01*
X0026600Y0207400D01*
X0026600Y0204200D01*
X0028200Y0202600D01*
X0031400Y0202600D01*
X0053800Y0225000D01*
X0077800Y0225000D01*
X0069800Y0231400D02*
X0119400Y0281000D01*
X0157800Y0281000D01*
X0159400Y0279400D01*
X0193000Y0279400D01*
X0221800Y0250600D01*
X0224200Y0250600D01*
X0229000Y0241000D02*
X0192200Y0277800D01*
X0156200Y0277800D01*
X0161800Y0268200D02*
X0161800Y0248200D01*
X0178600Y0241000D02*
X0179400Y0240200D01*
X0178600Y0241000D02*
X0120200Y0241000D01*
X0109000Y0229800D01*
X0104200Y0229800D01*
X0121800Y0237800D02*
X0145000Y0214600D01*
X0202600Y0214600D01*
X0198600Y0216200D02*
X0270600Y0216200D01*
X0281800Y0221800D02*
X0290600Y0230600D01*
X0337000Y0230600D01*
X0343400Y0231400D02*
X0330600Y0244200D01*
X0338600Y0241000D02*
X0270600Y0309000D01*
X0156200Y0309000D01*
X0184200Y0282600D02*
X0185800Y0281000D01*
X0184200Y0282600D02*
X0116200Y0282600D01*
X0065000Y0231400D01*
X0060200Y0231400D02*
X0116200Y0287400D01*
X0266600Y0287400D01*
X0229000Y0290600D02*
X0114600Y0290600D01*
X0029800Y0205800D01*
X0017000Y0185000D02*
X0017000Y0184300D01*
X0017000Y0179300D02*
X0017000Y0178600D01*
X0033000Y0178600D01*
X0037000Y0181800D02*
X0012200Y0181800D01*
X0008200Y0177800D01*
X0008200Y0141000D01*
X0059400Y0089800D01*
X0059400Y0087400D01*
X0062600Y0089000D02*
X0009800Y0141800D01*
X0017000Y0174300D02*
X0017000Y0174600D01*
X0041000Y0174600D01*
X0047400Y0176200D02*
X0053800Y0169800D01*
X0056200Y0169800D01*
X0056600Y0169300D01*
X0056600Y0189300D02*
X0057000Y0189800D01*
X0064200Y0189800D01*
X0126600Y0237800D02*
X0177000Y0237800D01*
X0198600Y0216200D01*
X0185800Y0201000D02*
X0185000Y0201000D01*
X0181000Y0197000D01*
X0180540Y0196800D01*
X0181000Y0191400D02*
X0175400Y0191400D01*
X0174600Y0190600D01*
X0179400Y0188200D02*
X0182600Y0185000D01*
X0186600Y0185000D01*
X0186600Y0184300D01*
X0186600Y0179400D02*
X0186600Y0179300D01*
X0186600Y0179400D02*
X0193800Y0179400D01*
X0204200Y0184200D02*
X0211400Y0184200D01*
X0212000Y0184300D01*
X0212200Y0189000D02*
X0212000Y0189300D01*
X0212200Y0189000D02*
X0219400Y0189000D01*
X0225800Y0197000D02*
X0234600Y0197000D01*
X0235400Y0197800D01*
X0266600Y0197800D01*
X0268200Y0196200D01*
X0277000Y0189300D02*
X0277000Y0189000D01*
X0284200Y0189000D01*
X0289800Y0184200D02*
X0277000Y0184200D01*
X0277000Y0184300D01*
X0277000Y0179400D02*
X0274600Y0179400D01*
X0269800Y0184200D01*
X0265000Y0183400D02*
X0265000Y0173800D01*
X0273800Y0165000D01*
X0277000Y0159400D02*
X0277000Y0159300D01*
X0277000Y0159400D02*
X0294600Y0159400D01*
X0293000Y0165800D02*
X0289800Y0169000D01*
X0277000Y0169000D01*
X0277000Y0169300D01*
X0277000Y0169800D01*
X0277000Y0179300D02*
X0277000Y0179400D01*
X0289800Y0179400D01*
X0299400Y0189000D01*
X0305000Y0189000D01*
X0310600Y0194600D01*
X0317000Y0189800D02*
X0316600Y0189300D01*
X0317000Y0189800D02*
X0323400Y0189800D01*
X0316600Y0184300D02*
X0316200Y0184200D01*
X0311400Y0184200D01*
X0296200Y0169000D01*
X0294600Y0169000D01*
X0289800Y0172200D02*
X0301800Y0184200D01*
X0316600Y0179300D02*
X0317000Y0178600D01*
X0319400Y0178600D01*
X0321800Y0176200D01*
X0325800Y0176200D01*
X0285800Y0148200D02*
X0280200Y0153800D01*
X0277000Y0153800D01*
X0277000Y0154300D01*
X0277000Y0149300D02*
X0277000Y0149000D01*
X0258600Y0149000D01*
X0258600Y0141800D02*
X0265800Y0141800D01*
X0269800Y0145800D01*
X0269800Y0141000D02*
X0267400Y0141000D01*
X0265000Y0138600D01*
X0246600Y0138600D01*
X0251600Y0154300D02*
X0252200Y0154600D01*
X0253800Y0156200D01*
X0261000Y0156200D01*
X0252200Y0159400D02*
X0251600Y0159300D01*
X0252200Y0159400D02*
X0269800Y0159400D01*
X0261800Y0172200D02*
X0254600Y0165000D01*
X0252200Y0165000D01*
X0251600Y0164300D01*
X0251600Y0169300D02*
X0251400Y0169800D01*
X0244200Y0169800D01*
X0241000Y0173000D01*
X0241000Y0181000D01*
X0244200Y0184200D01*
X0244200Y0179400D02*
X0251400Y0179400D01*
X0251600Y0179300D01*
X0251600Y0184300D02*
X0252200Y0185000D01*
X0258600Y0185000D01*
X0251600Y0189300D02*
X0251400Y0189800D01*
X0244200Y0189800D01*
X0241000Y0190600D02*
X0241000Y0191400D01*
X0242600Y0193000D01*
X0255400Y0193000D01*
X0265000Y0183400D01*
X0251600Y0174300D02*
X0251400Y0174600D01*
X0244200Y0174600D01*
X0230600Y0175400D02*
X0230600Y0154600D01*
X0221800Y0145800D01*
X0221800Y0131800D01*
X0218600Y0141800D02*
X0218600Y0145000D01*
X0214600Y0149000D01*
X0212200Y0149000D01*
X0211400Y0153800D02*
X0209000Y0153800D01*
X0199400Y0144200D01*
X0211400Y0153800D02*
X0212000Y0154300D01*
X0212000Y0164300D02*
X0211400Y0165000D01*
X0201800Y0165000D01*
X0212000Y0164300D02*
X0212200Y0165000D01*
X0215400Y0165000D01*
X0241000Y0190600D01*
X0225800Y0163400D02*
X0227400Y0161800D01*
X0227400Y0156200D01*
X0232200Y0123400D02*
X0273800Y0123400D01*
X0276200Y0125800D01*
X0281800Y0131800D02*
X0281800Y0132200D01*
X0277000Y0137000D01*
X0277000Y0144300D01*
X0261800Y0120200D02*
X0243400Y0120200D01*
X0241000Y0117000D02*
X0237800Y0120200D01*
X0233800Y0120200D01*
X0232200Y0123400D02*
X0229800Y0121000D01*
X0222600Y0121000D01*
X0221000Y0116200D02*
X0229000Y0108200D01*
X0241000Y0108200D02*
X0241000Y0117000D01*
X0241000Y0108200D02*
X0245000Y0104200D01*
X0258600Y0104200D01*
X0264200Y0109800D01*
X0268200Y0113800D02*
X0261800Y0120200D01*
X0194600Y0089800D02*
X0194600Y0087400D01*
X0194600Y0089800D02*
X0179400Y0105000D01*
X0179400Y0141800D01*
X0176200Y0145800D02*
X0176200Y0105800D01*
X0189800Y0092200D01*
X0189800Y0085800D01*
X0168200Y0093000D02*
X0168200Y0066600D01*
X0192200Y0042600D01*
X0201800Y0045540D02*
X0201800Y0045800D01*
X0206600Y0050600D01*
X0211400Y0053800D02*
X0211400Y0045800D01*
X0211800Y0045540D01*
X0211800Y0038060D02*
X0211400Y0037800D01*
X0211400Y0027400D01*
X0211131Y0026800D01*
X0211400Y0027400D02*
X0221800Y0027400D01*
X0221800Y0026800D01*
X0225000Y0021800D02*
X0208200Y0021800D01*
X0206600Y0027400D02*
X0206600Y0033000D01*
X0201800Y0037800D01*
X0201800Y0038060D01*
X0202469Y0030540D02*
X0201800Y0029800D01*
X0197000Y0029800D01*
X0202600Y0023400D02*
X0202469Y0023060D01*
X0202600Y0023400D02*
X0206600Y0027400D01*
X0227400Y0007400D02*
X0305800Y0007400D01*
X0369000Y0070600D01*
X0339400Y0053000D02*
X0339400Y0049800D01*
X0337800Y0048200D01*
X0334600Y0048200D01*
X0333000Y0049800D01*
X0321000Y0049800D01*
X0319400Y0048200D01*
X0307400Y0051400D02*
X0336200Y0051400D01*
X0339400Y0053000D02*
X0330600Y0061800D01*
X0306800Y0045540D02*
X0306600Y0045800D01*
X0301800Y0050600D01*
X0174600Y0102600D02*
X0107400Y0102600D01*
X0104200Y0101000D02*
X0104200Y0130600D01*
X0129000Y0137000D02*
X0137800Y0145800D01*
X0137800Y0147400D01*
X0144200Y0153800D01*
X0146600Y0153800D01*
X0147000Y0154300D01*
X0147400Y0153800D01*
X0162600Y0153800D01*
X0169800Y0149000D02*
X0126600Y0105800D01*
X0115400Y0105800D01*
X0109000Y0096200D02*
X0104200Y0101000D01*
X0109000Y0096200D02*
X0110600Y0096200D01*
X0135400Y0099400D02*
X0151400Y0083400D01*
X0151400Y0050600D01*
X0145800Y0029800D02*
X0125000Y0009000D01*
X0101800Y0009000D01*
X0025000Y0009000D01*
X0013000Y0021000D01*
X0013000Y0025800D01*
X0017000Y0029800D01*
X0017469Y0030540D01*
X0021800Y0033000D02*
X0021800Y0027400D01*
X0017800Y0023400D01*
X0017469Y0023060D01*
X0026131Y0026800D02*
X0026600Y0027400D01*
X0026600Y0037800D01*
X0026800Y0038060D01*
X0021800Y0033000D02*
X0017000Y0037800D01*
X0016800Y0038060D01*
X0026600Y0027400D02*
X0036200Y0027400D01*
X0036800Y0026800D01*
X0062600Y0061000D02*
X0062600Y0089000D01*
X0062600Y0061000D02*
X0105800Y0017800D01*
X0107469Y0023060D02*
X0107400Y0023400D01*
X0104200Y0023400D01*
X0098600Y0029000D01*
X0098600Y0032200D01*
X0104200Y0037800D01*
X0106600Y0037800D01*
X0106800Y0038060D01*
X0107400Y0030600D02*
X0101800Y0030600D01*
X0107400Y0030600D02*
X0107469Y0030540D01*
X0106800Y0045540D02*
X0107400Y0045800D01*
X0145800Y0084200D01*
X0182600Y0189800D02*
X0181000Y0191400D01*
X0182600Y0189800D02*
X0186600Y0189800D01*
X0186600Y0189300D01*
X0187400Y0193800D02*
X0186600Y0194600D01*
X0187400Y0193800D02*
X0202600Y0193800D01*
X0229800Y0237800D02*
X0263400Y0237800D01*
X0285000Y0229800D02*
X0294600Y0239400D01*
X0298600Y0239400D01*
X0338600Y0241000D02*
X0341000Y0241000D01*
X0377800Y0193800D02*
X0381800Y0189800D01*
X0381600Y0189300D01*
X0379400Y0186600D02*
X0381000Y0185000D01*
X0381600Y0184300D01*
X0379400Y0186600D02*
X0374600Y0186600D01*
X0374600Y0181800D02*
X0378600Y0181800D01*
X0381000Y0179400D01*
X0381600Y0179300D01*
X0378600Y0174600D02*
X0376200Y0177000D01*
X0374600Y0177000D01*
X0378600Y0174600D02*
X0381000Y0174600D01*
X0381600Y0174300D01*
X0381800Y0169800D02*
X0381600Y0169300D01*
X0381800Y0169800D02*
X0384200Y0169800D01*
X0229800Y0237800D02*
X0193800Y0273800D01*
X0177800Y0273800D01*
X0183400Y0262600D02*
X0171400Y0262600D01*
X0177800Y0259400D02*
X0189800Y0247400D01*
X0189800Y0240200D01*
X0206600Y0239400D02*
X0217800Y0239400D01*
X0222600Y0239400D02*
X0203400Y0258600D01*
X0192200Y0258600D01*
X0183400Y0262600D02*
X0206600Y0239400D01*
D20*
X0217800Y0239400D03*
X0222600Y0239400D03*
X0224200Y0250600D03*
X0232200Y0247400D03*
X0251800Y0246800D03*
X0260200Y0241000D03*
X0251800Y0231800D03*
X0270600Y0225800D03*
X0281800Y0221800D03*
X0285000Y0229800D03*
X0298600Y0239400D03*
X0306800Y0224300D03*
X0317000Y0219400D03*
X0320200Y0209000D03*
X0306600Y0197800D03*
X0309800Y0189000D03*
X0301800Y0184200D03*
X0289800Y0184200D03*
X0284200Y0189000D03*
X0287400Y0195400D03*
X0289000Y0210600D03*
X0269800Y0199400D03*
X0258600Y0185000D03*
X0269800Y0184200D03*
X0261800Y0172200D03*
X0269800Y0164200D03*
X0269800Y0159400D03*
X0261000Y0156200D03*
X0258600Y0149000D03*
X0258600Y0141800D03*
X0269800Y0141000D03*
X0269800Y0145800D03*
X0276200Y0125800D03*
X0287400Y0121000D03*
X0290600Y0114600D03*
X0290600Y0096200D03*
X0281000Y0091400D03*
X0273000Y0094600D03*
X0266600Y0088200D03*
X0265000Y0081800D03*
X0271800Y0081800D03*
X0266600Y0063400D03*
X0271400Y0056200D03*
X0267400Y0052200D03*
X0281800Y0063400D03*
X0299400Y0059400D03*
X0305800Y0065000D03*
X0311400Y0054600D03*
X0316800Y0056800D03*
X0317800Y0065000D03*
X0330600Y0061800D03*
X0341800Y0061800D03*
X0336200Y0051400D03*
X0322600Y0046600D03*
X0325800Y0036200D03*
X0301800Y0050600D03*
X0289800Y0045800D03*
X0286600Y0033000D03*
X0276800Y0021800D03*
X0231800Y0041800D03*
X0211400Y0053800D03*
X0206600Y0050600D03*
X0192200Y0042600D03*
X0181800Y0026800D03*
X0186800Y0011800D03*
X0165000Y0005800D03*
X0208200Y0021800D03*
X0230600Y0013800D03*
X0227400Y0007400D03*
X0171800Y0046800D03*
X0159400Y0053800D03*
X0151400Y0050600D03*
X0131800Y0051800D03*
X0146800Y0071800D03*
X0145800Y0084200D03*
X0135400Y0099400D03*
X0115400Y0105800D03*
X0109300Y0109300D03*
X0107400Y0102600D03*
X0110600Y0096200D03*
X0101800Y0076800D03*
X0076800Y0056800D03*
X0101800Y0030600D03*
X0105800Y0017800D03*
X0101800Y0009000D03*
X0036800Y0036800D03*
X0026800Y0081800D03*
X0059400Y0087400D03*
X0086800Y0111800D03*
X0104200Y0130600D03*
X0116800Y0121800D03*
X0126800Y0121800D03*
X0141000Y0135400D03*
X0145000Y0129800D03*
X0149300Y0121800D03*
X0166800Y0131800D03*
X0179400Y0141800D03*
X0176200Y0145800D03*
X0165800Y0150600D03*
X0165800Y0159400D03*
X0162600Y0167400D03*
X0165800Y0171400D03*
X0173000Y0171400D03*
X0177800Y0161800D03*
X0193800Y0168200D03*
X0199400Y0174600D03*
X0204200Y0169800D03*
X0201800Y0165000D03*
X0193800Y0154600D03*
X0195400Y0148200D03*
X0201800Y0139300D03*
X0197800Y0125800D03*
X0189800Y0119400D03*
X0199400Y0109800D03*
X0221000Y0116200D03*
X0222600Y0121000D03*
X0233800Y0120200D03*
X0243400Y0120200D03*
X0229000Y0108200D03*
X0222600Y0094600D03*
X0210600Y0087400D03*
X0224300Y0081800D03*
X0196800Y0066800D03*
X0176800Y0071800D03*
X0189800Y0085800D03*
X0194600Y0087400D03*
X0174600Y0102600D03*
X0171800Y0111800D03*
X0168200Y0093000D03*
X0186600Y0135400D03*
X0218600Y0141800D03*
X0227400Y0156200D03*
X0224200Y0160200D03*
X0241800Y0157000D03*
X0245000Y0161800D03*
X0244200Y0174600D03*
X0244200Y0179400D03*
X0244200Y0184200D03*
X0244200Y0189800D03*
X0230600Y0175400D03*
X0219400Y0189000D03*
X0212200Y0196200D03*
X0202600Y0193800D03*
X0201800Y0202600D03*
X0211400Y0210600D03*
X0216200Y0209000D03*
X0202600Y0219400D03*
X0196800Y0226800D03*
X0189800Y0240200D03*
X0179400Y0240200D03*
X0166800Y0231800D03*
X0181800Y0221800D03*
X0179300Y0209300D03*
X0185800Y0207400D03*
X0185800Y0201000D03*
X0186600Y0194600D03*
X0179400Y0188200D03*
X0174600Y0190600D03*
X0174600Y0183400D03*
X0157800Y0169800D03*
X0154600Y0174600D03*
X0155400Y0186600D03*
X0137000Y0175400D03*
X0129000Y0169000D03*
X0139400Y0159400D03*
X0133000Y0153800D03*
X0129000Y0157000D03*
X0129000Y0149000D03*
X0129000Y0144200D03*
X0125800Y0140200D03*
X0115400Y0140200D03*
X0101000Y0140200D03*
X0101800Y0150600D03*
X0105000Y0154600D03*
X0114600Y0157000D03*
X0097000Y0169000D03*
X0089000Y0167400D03*
X0089000Y0172200D03*
X0089000Y0177000D03*
X0099300Y0189300D03*
X0114600Y0175400D03*
X0129000Y0189000D03*
X0132200Y0185000D03*
X0121800Y0211800D03*
X0136800Y0231800D03*
X0126600Y0237800D03*
X0121800Y0237800D03*
X0104200Y0229800D03*
X0091800Y0241800D03*
X0086800Y0226800D03*
X0077800Y0225000D03*
X0069800Y0231400D03*
X0065000Y0231400D03*
X0060200Y0231400D03*
X0029800Y0205800D03*
X0037000Y0181800D03*
X0033000Y0178600D03*
X0047400Y0176200D03*
X0042600Y0164200D03*
X0044200Y0159400D03*
X0049000Y0154600D03*
X0049000Y0149800D03*
X0066600Y0158600D03*
X0074600Y0159400D03*
X0063400Y0170600D03*
X0069800Y0174600D03*
X0063400Y0178600D03*
X0064200Y0189800D03*
X0074600Y0189000D03*
X0074600Y0184200D03*
X0079400Y0200200D03*
X0034600Y0164200D03*
X0049300Y0129300D03*
X0061800Y0126800D03*
X0089000Y0137800D03*
X0089000Y0147400D03*
X0193800Y0179400D03*
X0205000Y0179400D03*
X0246600Y0138600D03*
X0268200Y0113800D03*
X0264200Y0109800D03*
X0301000Y0096200D03*
X0301000Y0088200D03*
X0310600Y0088200D03*
X0311800Y0081800D03*
X0322600Y0093000D03*
X0321800Y0099300D03*
X0325800Y0110600D03*
X0316800Y0114300D03*
X0336200Y0119400D03*
X0330600Y0144200D03*
X0324200Y0147400D03*
X0329800Y0151400D03*
X0334600Y0151400D03*
X0325000Y0154600D03*
X0327400Y0165000D03*
X0323400Y0168200D03*
X0325800Y0176200D03*
X0334600Y0179400D03*
X0323400Y0189800D03*
X0349000Y0189000D03*
X0349000Y0182600D03*
X0363400Y0190600D03*
X0374600Y0186600D03*
X0374600Y0181800D03*
X0374600Y0177000D03*
X0389000Y0169000D03*
X0389000Y0159400D03*
X0359400Y0154600D03*
X0362600Y0143400D03*
X0369000Y0132200D03*
X0373800Y0121000D03*
X0373000Y0082600D03*
X0356800Y0081800D03*
X0371800Y0021800D03*
X0301000Y0140200D03*
X0292200Y0140200D03*
X0309800Y0145000D03*
X0309000Y0159400D03*
X0309800Y0165000D03*
X0302600Y0162600D03*
X0294600Y0159400D03*
X0289000Y0164200D03*
X0294600Y0169000D03*
X0289800Y0172200D03*
X0226800Y0226800D03*
X0192200Y0258600D03*
X0177800Y0259400D03*
X0171400Y0262600D03*
X0161800Y0268200D03*
X0151800Y0266800D03*
X0156200Y0277800D03*
X0177800Y0273800D03*
X0187400Y0284200D03*
X0181800Y0301800D03*
X0156200Y0309000D03*
X0126800Y0261800D03*
X0161800Y0248200D03*
X0216800Y0296800D03*
X0229000Y0290600D03*
X0231800Y0266800D03*
X0266600Y0287400D03*
X0271800Y0291800D03*
X0286800Y0276800D03*
X0301800Y0261800D03*
X0316800Y0276800D03*
X0322600Y0269000D03*
X0336800Y0266800D03*
X0341000Y0241000D03*
X0343400Y0231400D03*
X0337000Y0230600D03*
X0316800Y0236800D03*
X0366800Y0261800D03*
X0376800Y0296800D03*
X0306800Y0296800D03*
X0369000Y0204200D03*
X0377800Y0193800D03*
X0096800Y0296800D03*
X0066800Y0261800D03*
X0026800Y0256800D03*
D21*
X0004600Y0257562D02*
X0073933Y0257562D01*
X0072335Y0255963D02*
X0004600Y0255963D01*
X0004600Y0254365D02*
X0070736Y0254365D01*
X0069138Y0252766D02*
X0004600Y0252766D01*
X0004600Y0251168D02*
X0067539Y0251168D01*
X0065941Y0249569D02*
X0004600Y0249569D01*
X0004600Y0247971D02*
X0064342Y0247971D01*
X0062744Y0246372D02*
X0004600Y0246372D01*
X0004600Y0244774D02*
X0061145Y0244774D01*
X0059547Y0243175D02*
X0004600Y0243175D01*
X0004600Y0241577D02*
X0057948Y0241577D01*
X0056350Y0239978D02*
X0004600Y0239978D01*
X0004600Y0238380D02*
X0054751Y0238380D01*
X0053153Y0236781D02*
X0004600Y0236781D01*
X0004600Y0235183D02*
X0051554Y0235183D01*
X0049956Y0233584D02*
X0004600Y0233584D01*
X0004600Y0231986D02*
X0048357Y0231986D01*
X0046759Y0230387D02*
X0004600Y0230387D01*
X0004600Y0228789D02*
X0045160Y0228789D01*
X0043562Y0227190D02*
X0004600Y0227190D01*
X0004600Y0225592D02*
X0041963Y0225592D01*
X0040365Y0223993D02*
X0004600Y0223993D01*
X0004600Y0222395D02*
X0038766Y0222395D01*
X0037168Y0220796D02*
X0004600Y0220796D01*
X0004600Y0219198D02*
X0035569Y0219198D01*
X0033971Y0217599D02*
X0004600Y0217599D01*
X0004600Y0216001D02*
X0032372Y0216001D01*
X0030774Y0214402D02*
X0004600Y0214402D01*
X0004600Y0212803D02*
X0029175Y0212803D01*
X0027577Y0211205D02*
X0004600Y0211205D01*
X0004600Y0209606D02*
X0025978Y0209606D01*
X0024600Y0208228D02*
X0024600Y0203372D01*
X0024972Y0203000D01*
X0020172Y0203000D01*
X0019000Y0201828D01*
X0009400Y0192228D01*
X0009400Y0186572D01*
X0010572Y0185400D01*
X0011400Y0184572D01*
X0011400Y0183800D01*
X0011372Y0183800D01*
X0010200Y0182628D01*
X0006200Y0178628D01*
X0006200Y0140172D01*
X0007372Y0139000D01*
X0056640Y0089731D01*
X0056348Y0089439D01*
X0055800Y0088116D01*
X0055800Y0086684D01*
X0056348Y0085361D01*
X0057361Y0084348D01*
X0058684Y0083800D01*
X0060116Y0083800D01*
X0060600Y0084000D01*
X0060600Y0060172D01*
X0061772Y0059000D01*
X0073772Y0047000D01*
X0031353Y0047000D01*
X0031353Y0048762D01*
X0030415Y0049699D01*
X0023184Y0049699D01*
X0022247Y0048762D01*
X0022247Y0042318D01*
X0022766Y0041800D01*
X0022247Y0041282D01*
X0022247Y0035381D01*
X0021353Y0036276D01*
X0021353Y0041282D01*
X0020834Y0041800D01*
X0021353Y0042318D01*
X0021353Y0048762D01*
X0020415Y0049699D01*
X0013184Y0049699D01*
X0012247Y0048762D01*
X0012247Y0043876D01*
X0010572Y0042200D01*
X0009400Y0041028D01*
X0009400Y0019372D01*
X0023800Y0004972D01*
X0024172Y0004600D01*
X0004600Y0004600D01*
X0004600Y0313961D01*
X0130332Y0313961D01*
X0129400Y0313028D01*
X0024600Y0208228D01*
X0024600Y0208008D02*
X0004600Y0208008D01*
X0004600Y0206409D02*
X0024600Y0206409D01*
X0024600Y0204811D02*
X0004600Y0204811D01*
X0004600Y0203212D02*
X0024759Y0203212D01*
X0023701Y0199000D02*
X0023701Y0197280D01*
X0027580Y0197280D01*
X0027580Y0196320D01*
X0028539Y0196320D01*
X0028539Y0192047D01*
X0030856Y0192047D01*
X0031314Y0192170D01*
X0031724Y0192407D01*
X0031941Y0192624D01*
X0032318Y0192247D01*
X0038762Y0192247D01*
X0039699Y0193184D01*
X0039699Y0195000D01*
X0088228Y0195000D01*
X0092228Y0199000D01*
X0093701Y0199000D01*
X0093701Y0197280D01*
X0097580Y0197280D01*
X0097580Y0196320D01*
X0098539Y0196320D01*
X0098539Y0192047D01*
X0100856Y0192047D01*
X0101314Y0192170D01*
X0101724Y0192407D01*
X0101941Y0192624D01*
X0102318Y0192247D01*
X0108762Y0192247D01*
X0109699Y0193184D01*
X0109699Y0195000D01*
X0166628Y0195000D01*
X0168908Y0197280D01*
X0172580Y0197280D01*
X0172580Y0200952D01*
X0175428Y0203800D01*
X0183509Y0203800D01*
X0182748Y0203039D01*
X0182200Y0201716D01*
X0182200Y0201353D01*
X0177318Y0201353D01*
X0176941Y0200976D01*
X0176724Y0201193D01*
X0176314Y0201430D01*
X0175856Y0201553D01*
X0173539Y0201553D01*
X0173539Y0197280D01*
X0172580Y0197280D01*
X0172580Y0196320D01*
X0172580Y0193660D01*
X0173539Y0194057D01*
X0173539Y0196320D01*
X0172580Y0196320D01*
X0168701Y0196320D01*
X0168701Y0193610D01*
X0168823Y0193152D01*
X0169060Y0192742D01*
X0169396Y0192407D01*
X0169806Y0192170D01*
X0170264Y0192047D01*
X0171303Y0192047D01*
X0171000Y0191316D01*
X0171000Y0189884D01*
X0171532Y0188600D01*
X0158468Y0188600D01*
X0158452Y0188639D01*
X0157439Y0189652D01*
X0156116Y0190200D01*
X0154684Y0190200D01*
X0153361Y0189652D01*
X0152800Y0189091D01*
X0152800Y0189300D01*
X0152800Y0190837D01*
X0152677Y0191295D01*
X0152440Y0191705D01*
X0152105Y0192040D01*
X0151695Y0192277D01*
X0151237Y0192400D01*
X0147000Y0192400D01*
X0147000Y0189300D01*
X0147000Y0189300D01*
X0152800Y0189300D01*
X0147000Y0189300D01*
X0147000Y0189300D01*
X0147000Y0189300D01*
X0141200Y0189300D01*
X0141200Y0190837D01*
X0141323Y0191295D01*
X0141560Y0191705D01*
X0141895Y0192040D01*
X0142305Y0192277D01*
X0142763Y0192400D01*
X0147000Y0192400D01*
X0147000Y0189300D01*
X0141200Y0189300D01*
X0141200Y0187763D01*
X0141323Y0187305D01*
X0141499Y0187000D01*
X0138628Y0187000D01*
X0132600Y0193028D01*
X0131428Y0194200D01*
X0115372Y0194200D01*
X0108172Y0187000D01*
X0087501Y0187000D01*
X0087677Y0187305D01*
X0087800Y0187763D01*
X0087800Y0189300D01*
X0087800Y0190837D01*
X0087677Y0191295D01*
X0087440Y0191705D01*
X0087105Y0192040D01*
X0086695Y0192277D01*
X0086237Y0192400D01*
X0082000Y0192400D01*
X0082000Y0189300D01*
X0082000Y0189300D01*
X0087800Y0189300D01*
X0082000Y0189300D01*
X0082000Y0189300D01*
X0082000Y0192400D01*
X0077763Y0192400D01*
X0077305Y0192277D01*
X0076895Y0192040D01*
X0076773Y0191918D01*
X0076639Y0192052D01*
X0075316Y0192600D01*
X0073884Y0192600D01*
X0072561Y0192052D01*
X0071548Y0191039D01*
X0071000Y0189716D01*
X0071000Y0188284D01*
X0071548Y0186961D01*
X0071909Y0186600D01*
X0071548Y0186239D01*
X0071532Y0186200D01*
X0062200Y0186200D01*
X0062200Y0186263D01*
X0061663Y0186800D01*
X0061886Y0187023D01*
X0062161Y0186748D01*
X0063484Y0186200D01*
X0064916Y0186200D01*
X0066239Y0186748D01*
X0067252Y0187761D01*
X0067800Y0189084D01*
X0067800Y0190516D01*
X0067252Y0191839D01*
X0066239Y0192852D01*
X0064916Y0193400D01*
X0063484Y0193400D01*
X0062161Y0192852D01*
X0061386Y0192077D01*
X0061263Y0192200D01*
X0051937Y0192200D01*
X0051000Y0191263D01*
X0051000Y0187337D01*
X0051537Y0186800D01*
X0051000Y0186263D01*
X0051000Y0183800D01*
X0047372Y0183800D01*
X0046200Y0182628D01*
X0040172Y0176600D01*
X0036068Y0176600D01*
X0036600Y0177884D01*
X0036600Y0178200D01*
X0037716Y0178200D01*
X0039039Y0178748D01*
X0040052Y0179761D01*
X0040600Y0181084D01*
X0040600Y0182516D01*
X0040052Y0183839D01*
X0039039Y0184852D01*
X0037716Y0185400D01*
X0036284Y0185400D01*
X0034961Y0184852D01*
X0033948Y0183839D01*
X0033932Y0183800D01*
X0022600Y0183800D01*
X0022600Y0186263D01*
X0022204Y0186659D01*
X0022440Y0186895D01*
X0022677Y0187305D01*
X0022800Y0187763D01*
X0022800Y0189300D01*
X0022800Y0190837D01*
X0022677Y0191295D01*
X0022440Y0191705D01*
X0022105Y0192040D01*
X0021695Y0192277D01*
X0021237Y0192400D01*
X0017000Y0192400D01*
X0017000Y0189300D01*
X0017000Y0189300D01*
X0022800Y0189300D01*
X0017000Y0189300D01*
X0017000Y0189300D01*
X0017000Y0192400D01*
X0015228Y0192400D01*
X0021828Y0199000D01*
X0023701Y0199000D01*
X0023701Y0198417D02*
X0021245Y0198417D01*
X0019647Y0196818D02*
X0027580Y0196818D01*
X0027580Y0196320D02*
X0023701Y0196320D01*
X0023701Y0193610D01*
X0023823Y0193152D01*
X0024060Y0192742D01*
X0024396Y0192407D01*
X0024806Y0192170D01*
X0025264Y0192047D01*
X0027580Y0192047D01*
X0027580Y0196320D01*
X0027580Y0195220D02*
X0028539Y0195220D01*
X0028539Y0193621D02*
X0027580Y0193621D01*
X0023701Y0193621D02*
X0016450Y0193621D01*
X0017000Y0192023D02*
X0017000Y0192023D01*
X0017000Y0190424D02*
X0017000Y0190424D01*
X0022123Y0192023D02*
X0051760Y0192023D01*
X0051000Y0190424D02*
X0022800Y0190424D01*
X0022800Y0188826D02*
X0051000Y0188826D01*
X0051110Y0187227D02*
X0022632Y0187227D01*
X0022600Y0185629D02*
X0051000Y0185629D01*
X0051000Y0184030D02*
X0039861Y0184030D01*
X0040600Y0182432D02*
X0046003Y0182432D01*
X0044405Y0180833D02*
X0040496Y0180833D01*
X0039526Y0179235D02*
X0042806Y0179235D01*
X0041208Y0177636D02*
X0036497Y0177636D01*
X0034139Y0184030D02*
X0022600Y0184030D01*
X0011400Y0184030D02*
X0004600Y0184030D01*
X0004600Y0182432D02*
X0010003Y0182432D01*
X0008405Y0180833D02*
X0004600Y0180833D01*
X0004600Y0179235D02*
X0006806Y0179235D01*
X0006200Y0177636D02*
X0004600Y0177636D01*
X0004600Y0176038D02*
X0006200Y0176038D01*
X0006200Y0174439D02*
X0004600Y0174439D01*
X0004600Y0172841D02*
X0006200Y0172841D01*
X0006200Y0171242D02*
X0004600Y0171242D01*
X0004600Y0169644D02*
X0006200Y0169644D01*
X0006200Y0168045D02*
X0004600Y0168045D01*
X0004600Y0166447D02*
X0006200Y0166447D01*
X0006200Y0164848D02*
X0004600Y0164848D01*
X0004600Y0163250D02*
X0006200Y0163250D01*
X0006200Y0161651D02*
X0004600Y0161651D01*
X0004600Y0160053D02*
X0006200Y0160053D01*
X0006200Y0158454D02*
X0004600Y0158454D01*
X0004600Y0156856D02*
X0006200Y0156856D01*
X0006200Y0155257D02*
X0004600Y0155257D01*
X0004600Y0153659D02*
X0006200Y0153659D01*
X0006200Y0152060D02*
X0004600Y0152060D01*
X0004600Y0150462D02*
X0006200Y0150462D01*
X0006200Y0148863D02*
X0004600Y0148863D01*
X0004600Y0147265D02*
X0006200Y0147265D01*
X0006200Y0145666D02*
X0004600Y0145666D01*
X0004600Y0144068D02*
X0006200Y0144068D01*
X0006200Y0142469D02*
X0004600Y0142469D01*
X0004600Y0140870D02*
X0006200Y0140870D01*
X0007100Y0139272D02*
X0004600Y0139272D01*
X0004600Y0137673D02*
X0008698Y0137673D01*
X0010297Y0136075D02*
X0004600Y0136075D01*
X0004600Y0134476D02*
X0011895Y0134476D01*
X0013494Y0132878D02*
X0004600Y0132878D01*
X0004600Y0131279D02*
X0015092Y0131279D01*
X0016691Y0129681D02*
X0004600Y0129681D01*
X0004600Y0128082D02*
X0018289Y0128082D01*
X0019888Y0126484D02*
X0004600Y0126484D01*
X0004600Y0124885D02*
X0021486Y0124885D01*
X0023085Y0123287D02*
X0004600Y0123287D01*
X0004600Y0121688D02*
X0024683Y0121688D01*
X0026282Y0120090D02*
X0004600Y0120090D01*
X0004600Y0118491D02*
X0027880Y0118491D01*
X0029479Y0116893D02*
X0004600Y0116893D01*
X0004600Y0115294D02*
X0031077Y0115294D01*
X0032676Y0113696D02*
X0004600Y0113696D01*
X0004600Y0112097D02*
X0034274Y0112097D01*
X0035873Y0110499D02*
X0004600Y0110499D01*
X0004600Y0108900D02*
X0037471Y0108900D01*
X0039070Y0107302D02*
X0004600Y0107302D01*
X0004600Y0105703D02*
X0040668Y0105703D01*
X0042267Y0104105D02*
X0004600Y0104105D01*
X0004600Y0102506D02*
X0043865Y0102506D01*
X0045464Y0100908D02*
X0004600Y0100908D01*
X0004600Y0099309D02*
X0047062Y0099309D01*
X0048661Y0097711D02*
X0004600Y0097711D01*
X0004600Y0096112D02*
X0050259Y0096112D01*
X0051858Y0094514D02*
X0004600Y0094514D01*
X0004600Y0092915D02*
X0053456Y0092915D01*
X0055055Y0091317D02*
X0004600Y0091317D01*
X0004600Y0089718D02*
X0056627Y0089718D01*
X0055801Y0088120D02*
X0004600Y0088120D01*
X0004600Y0086521D02*
X0055867Y0086521D01*
X0056786Y0084923D02*
X0004600Y0084923D01*
X0004600Y0083324D02*
X0060600Y0083324D01*
X0060600Y0081726D02*
X0004600Y0081726D01*
X0004600Y0080127D02*
X0060600Y0080127D01*
X0060600Y0078529D02*
X0004600Y0078529D01*
X0004600Y0076930D02*
X0060600Y0076930D01*
X0060600Y0075332D02*
X0004600Y0075332D01*
X0004600Y0073733D02*
X0060600Y0073733D01*
X0060600Y0072134D02*
X0004600Y0072134D01*
X0004600Y0070536D02*
X0060600Y0070536D01*
X0060600Y0068937D02*
X0004600Y0068937D01*
X0004600Y0067339D02*
X0060600Y0067339D01*
X0060600Y0065740D02*
X0004600Y0065740D01*
X0004600Y0064142D02*
X0060600Y0064142D01*
X0060600Y0062543D02*
X0004600Y0062543D01*
X0004600Y0060945D02*
X0060600Y0060945D01*
X0061425Y0059346D02*
X0004600Y0059346D01*
X0004600Y0057748D02*
X0063024Y0057748D01*
X0064622Y0056149D02*
X0004600Y0056149D01*
X0004600Y0054551D02*
X0066221Y0054551D01*
X0067819Y0052952D02*
X0004600Y0052952D01*
X0004600Y0051354D02*
X0069418Y0051354D01*
X0071016Y0049755D02*
X0004600Y0049755D01*
X0004600Y0048157D02*
X0012247Y0048157D01*
X0012247Y0046558D02*
X0004600Y0046558D01*
X0004600Y0044960D02*
X0012247Y0044960D01*
X0011733Y0043361D02*
X0004600Y0043361D01*
X0004600Y0041763D02*
X0010134Y0041763D01*
X0009400Y0040164D02*
X0004600Y0040164D01*
X0004600Y0038566D02*
X0009400Y0038566D01*
X0009400Y0036967D02*
X0004600Y0036967D01*
X0004600Y0035369D02*
X0009400Y0035369D01*
X0009400Y0033770D02*
X0004600Y0033770D01*
X0004600Y0032172D02*
X0009400Y0032172D01*
X0009400Y0030573D02*
X0004600Y0030573D01*
X0004600Y0028975D02*
X0009400Y0028975D01*
X0009400Y0027376D02*
X0004600Y0027376D01*
X0004600Y0025778D02*
X0009400Y0025778D01*
X0009400Y0024179D02*
X0004600Y0024179D01*
X0004600Y0022581D02*
X0009400Y0022581D01*
X0009400Y0020982D02*
X0004600Y0020982D01*
X0004600Y0019384D02*
X0009400Y0019384D01*
X0010986Y0017785D02*
X0004600Y0017785D01*
X0004600Y0016187D02*
X0012585Y0016187D01*
X0014183Y0014588D02*
X0004600Y0014588D01*
X0004600Y0012990D02*
X0015782Y0012990D01*
X0017380Y0011391D02*
X0004600Y0011391D01*
X0004600Y0009793D02*
X0018979Y0009793D01*
X0020578Y0008194D02*
X0004600Y0008194D01*
X0004600Y0006596D02*
X0022176Y0006596D01*
X0023775Y0004997D02*
X0004600Y0004997D01*
X0019840Y0014588D02*
X0047200Y0014588D01*
X0047200Y0012990D02*
X0021439Y0012990D01*
X0023037Y0011391D02*
X0047819Y0011391D01*
X0047900Y0011194D02*
X0047200Y0012885D01*
X0047200Y0020715D01*
X0047900Y0022406D01*
X0049194Y0023700D01*
X0050885Y0024400D01*
X0052715Y0024400D01*
X0054406Y0023700D01*
X0055700Y0022406D01*
X0056400Y0020715D01*
X0056400Y0012885D01*
X0055700Y0011194D01*
X0054406Y0009900D01*
X0052715Y0009200D01*
X0050885Y0009200D01*
X0049194Y0009900D01*
X0047900Y0011194D01*
X0049454Y0009793D02*
X0024636Y0009793D01*
X0026234Y0008194D02*
X0159766Y0008194D01*
X0159372Y0007800D02*
X0160805Y0009233D01*
X0159194Y0009900D01*
X0157900Y0011194D01*
X0157200Y0012885D01*
X0157200Y0020715D01*
X0157900Y0022406D01*
X0159194Y0023700D01*
X0160885Y0024400D01*
X0162715Y0024400D01*
X0164406Y0023700D01*
X0165700Y0022406D01*
X0166400Y0020715D01*
X0166400Y0014828D01*
X0171000Y0019428D01*
X0172172Y0020600D01*
X0198113Y0020600D01*
X0198113Y0025691D01*
X0199051Y0026628D01*
X0203000Y0026628D01*
X0203143Y0026772D01*
X0202654Y0026772D01*
X0202654Y0030356D01*
X0202285Y0030356D01*
X0197913Y0030356D01*
X0197913Y0028335D01*
X0198036Y0027877D01*
X0198273Y0027466D01*
X0198608Y0027131D01*
X0199019Y0026894D01*
X0199476Y0026772D01*
X0202285Y0026772D01*
X0202285Y0030356D01*
X0202285Y0030724D01*
X0197913Y0030724D01*
X0197913Y0032746D01*
X0198036Y0033203D01*
X0198273Y0033614D01*
X0198560Y0033901D01*
X0198184Y0033901D01*
X0197247Y0034838D01*
X0197247Y0041282D01*
X0197766Y0041800D01*
X0197247Y0042318D01*
X0197247Y0048762D01*
X0198184Y0049699D01*
X0202871Y0049699D01*
X0203016Y0049845D01*
X0203000Y0049884D01*
X0203000Y0051316D01*
X0203548Y0052639D01*
X0204561Y0053652D01*
X0205884Y0054200D01*
X0207316Y0054200D01*
X0207800Y0054000D01*
X0207800Y0054516D01*
X0208348Y0055839D01*
X0209361Y0056852D01*
X0210684Y0057400D01*
X0212116Y0057400D01*
X0213439Y0056852D01*
X0214452Y0055839D01*
X0215000Y0054516D01*
X0215000Y0053084D01*
X0214452Y0051761D01*
X0213439Y0050748D01*
X0213400Y0050732D01*
X0213400Y0049699D01*
X0215415Y0049699D01*
X0216353Y0048762D01*
X0216353Y0042318D01*
X0215834Y0041800D01*
X0216353Y0041282D01*
X0216353Y0034838D01*
X0215415Y0033901D01*
X0213400Y0033901D01*
X0213400Y0030368D01*
X0214549Y0030368D01*
X0215487Y0029431D01*
X0215487Y0029400D01*
X0217895Y0029400D01*
X0219895Y0031400D01*
X0223705Y0031400D01*
X0226400Y0028705D01*
X0226400Y0026028D01*
X0263016Y0062645D01*
X0263000Y0062684D01*
X0263000Y0064116D01*
X0263544Y0065429D01*
X0262630Y0065050D01*
X0260970Y0065050D01*
X0259435Y0065686D01*
X0258261Y0066860D01*
X0257625Y0068395D01*
X0257625Y0073546D01*
X0255975Y0075197D01*
X0255975Y0068395D01*
X0255339Y0066860D01*
X0254165Y0065686D01*
X0252630Y0065050D01*
X0250970Y0065050D01*
X0249435Y0065686D01*
X0248261Y0066860D01*
X0247625Y0068395D01*
X0247625Y0075205D01*
X0248203Y0076600D01*
X0245576Y0076600D01*
X0245854Y0076054D01*
X0246067Y0075399D01*
X0246175Y0074719D01*
X0246175Y0071800D01*
X0241800Y0071800D01*
X0241800Y0071800D01*
X0246175Y0071800D01*
X0246175Y0068881D01*
X0246067Y0068201D01*
X0245854Y0067546D01*
X0245542Y0066932D01*
X0245137Y0066375D01*
X0244650Y0065888D01*
X0244093Y0065484D01*
X0243479Y0065171D01*
X0242824Y0064958D01*
X0242144Y0064850D01*
X0241800Y0064850D01*
X0241800Y0071800D01*
X0241800Y0064850D01*
X0241456Y0064850D01*
X0240776Y0064958D01*
X0240121Y0065171D01*
X0239507Y0065484D01*
X0238950Y0065888D01*
X0238463Y0066375D01*
X0238058Y0066932D01*
X0237746Y0067546D01*
X0237533Y0068201D01*
X0237425Y0068881D01*
X0237425Y0071800D01*
X0241800Y0071800D01*
X0241800Y0071800D01*
X0241800Y0071800D01*
X0237425Y0071800D01*
X0237425Y0074719D01*
X0237533Y0075399D01*
X0237746Y0076054D01*
X0238024Y0076600D01*
X0235397Y0076600D01*
X0235975Y0075205D01*
X0235975Y0068395D01*
X0235339Y0066860D01*
X0234165Y0065686D01*
X0232630Y0065050D01*
X0230970Y0065050D01*
X0229435Y0065686D01*
X0228261Y0066860D01*
X0227625Y0068395D01*
X0227625Y0075205D01*
X0228203Y0076600D01*
X0225397Y0076600D01*
X0225975Y0075205D01*
X0225975Y0068395D01*
X0225339Y0066860D01*
X0224165Y0065686D01*
X0222630Y0065050D01*
X0220970Y0065050D01*
X0219435Y0065686D01*
X0218261Y0066860D01*
X0217625Y0068395D01*
X0217625Y0075205D01*
X0218203Y0076600D01*
X0215397Y0076600D01*
X0215975Y0075205D01*
X0215975Y0068395D01*
X0215339Y0066860D01*
X0214165Y0065686D01*
X0212630Y0065050D01*
X0210970Y0065050D01*
X0209435Y0065686D01*
X0208261Y0066860D01*
X0207625Y0068395D01*
X0207625Y0075205D01*
X0208261Y0076740D01*
X0209435Y0077914D01*
X0210970Y0078550D01*
X0211822Y0078550D01*
X0200172Y0090200D01*
X0200172Y0090200D01*
X0199000Y0091372D01*
X0199000Y0091372D01*
X0192600Y0097772D01*
X0192600Y0117109D01*
X0191839Y0116348D01*
X0190516Y0115800D01*
X0189084Y0115800D01*
X0188600Y0116000D01*
X0188600Y0101028D01*
X0198628Y0091000D01*
X0199800Y0089828D01*
X0199800Y0084972D01*
X0198628Y0083800D01*
X0198628Y0083800D01*
X0196600Y0081772D01*
X0196600Y0081772D01*
X0195428Y0080600D01*
X0182572Y0080600D01*
X0171533Y0091639D01*
X0171252Y0090961D01*
X0170239Y0089948D01*
X0170200Y0089932D01*
X0170200Y0067428D01*
X0191445Y0046184D01*
X0191484Y0046200D01*
X0192916Y0046200D01*
X0194239Y0045652D01*
X0195252Y0044639D01*
X0195800Y0043316D01*
X0195800Y0041884D01*
X0195252Y0040561D01*
X0194239Y0039548D01*
X0192916Y0039000D01*
X0191484Y0039000D01*
X0190161Y0039548D01*
X0189148Y0040561D01*
X0188600Y0041884D01*
X0188600Y0043316D01*
X0188616Y0043355D01*
X0166200Y0065772D01*
X0166200Y0089932D01*
X0166161Y0089948D01*
X0165148Y0090961D01*
X0164867Y0091639D01*
X0161400Y0088172D01*
X0161400Y0056868D01*
X0161439Y0056852D01*
X0162452Y0055839D01*
X0163000Y0054516D01*
X0163000Y0053084D01*
X0162452Y0051761D01*
X0161439Y0050748D01*
X0160116Y0050200D01*
X0158684Y0050200D01*
X0158645Y0050216D01*
X0139000Y0030572D01*
X0137828Y0029400D01*
X0133400Y0029400D01*
X0133400Y0024172D01*
X0132228Y0023000D01*
X0121828Y0012600D01*
X0103372Y0012600D01*
X0102200Y0013772D01*
X0072972Y0043000D01*
X0031353Y0043000D01*
X0031353Y0042318D01*
X0030834Y0041800D01*
X0031353Y0041282D01*
X0031353Y0034838D01*
X0030415Y0033901D01*
X0028600Y0033901D01*
X0028600Y0030368D01*
X0029549Y0030368D01*
X0030487Y0029431D01*
X0030487Y0029400D01*
X0032895Y0029400D01*
X0034895Y0031400D01*
X0038705Y0031400D01*
X0041400Y0028705D01*
X0041400Y0024895D01*
X0038705Y0022200D01*
X0034895Y0022200D01*
X0032200Y0024895D01*
X0032200Y0025400D01*
X0030487Y0025400D01*
X0030487Y0024169D01*
X0029549Y0023231D01*
X0022712Y0023231D01*
X0021825Y0024118D01*
X0021825Y0020429D01*
X0020888Y0019491D01*
X0014937Y0019491D01*
X0026628Y0007800D01*
X0159372Y0007800D01*
X0159454Y0009793D02*
X0154146Y0009793D01*
X0154406Y0009900D02*
X0155700Y0011194D01*
X0156400Y0012885D01*
X0156400Y0020715D01*
X0155700Y0022406D01*
X0154406Y0023700D01*
X0152715Y0024400D01*
X0150885Y0024400D01*
X0149194Y0023700D01*
X0147900Y0022406D01*
X0147200Y0020715D01*
X0147200Y0012885D01*
X0147900Y0011194D01*
X0149194Y0009900D01*
X0150885Y0009200D01*
X0152715Y0009200D01*
X0154406Y0009900D01*
X0155781Y0011391D02*
X0157819Y0011391D01*
X0157200Y0012990D02*
X0156400Y0012990D01*
X0156400Y0014588D02*
X0157200Y0014588D01*
X0157200Y0016187D02*
X0156400Y0016187D01*
X0156400Y0017785D02*
X0157200Y0017785D01*
X0157200Y0019384D02*
X0156400Y0019384D01*
X0156289Y0020982D02*
X0157311Y0020982D01*
X0158075Y0022581D02*
X0155525Y0022581D01*
X0153248Y0024179D02*
X0160352Y0024179D01*
X0163248Y0024179D02*
X0198113Y0024179D01*
X0198113Y0022581D02*
X0165525Y0022581D01*
X0166289Y0020982D02*
X0198113Y0020982D01*
X0198200Y0025778D02*
X0133400Y0025778D01*
X0133400Y0027376D02*
X0198363Y0027376D01*
X0197913Y0028975D02*
X0133400Y0028975D01*
X0132228Y0033400D02*
X0121353Y0044276D01*
X0121353Y0048762D01*
X0120415Y0049699D01*
X0114128Y0049699D01*
X0145045Y0080616D01*
X0145084Y0080600D01*
X0146516Y0080600D01*
X0147839Y0081148D01*
X0148852Y0082161D01*
X0149133Y0082839D01*
X0149400Y0082572D01*
X0149400Y0053668D01*
X0149361Y0053652D01*
X0148348Y0052639D01*
X0147800Y0051316D01*
X0147800Y0049884D01*
X0148348Y0048561D01*
X0149361Y0047548D01*
X0150039Y0047267D01*
X0136172Y0033400D01*
X0132228Y0033400D01*
X0131858Y0033770D02*
X0136542Y0033770D01*
X0138140Y0035369D02*
X0130260Y0035369D01*
X0128661Y0036967D02*
X0139739Y0036967D01*
X0141337Y0038566D02*
X0127063Y0038566D01*
X0125464Y0040164D02*
X0142936Y0040164D01*
X0144534Y0041763D02*
X0123866Y0041763D01*
X0122267Y0043361D02*
X0146133Y0043361D01*
X0147731Y0044960D02*
X0121353Y0044960D01*
X0121353Y0046558D02*
X0149330Y0046558D01*
X0148752Y0048157D02*
X0121353Y0048157D01*
X0117381Y0052952D02*
X0148661Y0052952D01*
X0149400Y0054551D02*
X0118979Y0054551D01*
X0120578Y0056149D02*
X0149400Y0056149D01*
X0149400Y0057748D02*
X0122176Y0057748D01*
X0123775Y0059346D02*
X0149400Y0059346D01*
X0149400Y0060945D02*
X0125373Y0060945D01*
X0126972Y0062543D02*
X0149400Y0062543D01*
X0149400Y0064142D02*
X0128570Y0064142D01*
X0130169Y0065740D02*
X0149400Y0065740D01*
X0149400Y0067339D02*
X0131767Y0067339D01*
X0133366Y0068937D02*
X0149400Y0068937D01*
X0149400Y0070536D02*
X0134964Y0070536D01*
X0136563Y0072134D02*
X0149400Y0072134D01*
X0149400Y0073733D02*
X0138161Y0073733D01*
X0139760Y0075332D02*
X0149400Y0075332D01*
X0149400Y0076930D02*
X0141358Y0076930D01*
X0142957Y0078529D02*
X0149400Y0078529D01*
X0149400Y0080127D02*
X0144555Y0080127D01*
X0142096Y0083324D02*
X0064600Y0083324D01*
X0064600Y0081726D02*
X0140497Y0081726D01*
X0138899Y0080127D02*
X0064600Y0080127D01*
X0064600Y0078529D02*
X0137300Y0078529D01*
X0135702Y0076930D02*
X0064600Y0076930D01*
X0064600Y0075332D02*
X0134103Y0075332D01*
X0132505Y0073733D02*
X0064600Y0073733D01*
X0064600Y0072134D02*
X0130906Y0072134D01*
X0129308Y0070536D02*
X0064600Y0070536D01*
X0064600Y0068937D02*
X0127709Y0068937D01*
X0126111Y0067339D02*
X0064600Y0067339D01*
X0064600Y0065740D02*
X0124512Y0065740D01*
X0122914Y0064142D02*
X0064600Y0064142D01*
X0064600Y0062543D02*
X0121315Y0062543D01*
X0119716Y0060945D02*
X0065483Y0060945D01*
X0064600Y0061828D02*
X0064600Y0089828D01*
X0049764Y0104664D01*
X0050885Y0104200D01*
X0052715Y0104200D01*
X0054406Y0104900D01*
X0055700Y0106194D01*
X0056400Y0107885D01*
X0056400Y0115715D01*
X0055700Y0117406D01*
X0054406Y0118700D01*
X0052715Y0119400D01*
X0050885Y0119400D01*
X0049194Y0118700D01*
X0047900Y0117406D01*
X0047200Y0115715D01*
X0047200Y0107885D01*
X0047664Y0106764D01*
X0022628Y0131800D01*
X0100800Y0131800D01*
X0100600Y0131316D01*
X0100600Y0129884D01*
X0101148Y0128561D01*
X0102161Y0127548D01*
X0102200Y0127532D01*
X0102200Y0100172D01*
X0103372Y0099000D01*
X0107079Y0095292D01*
X0107548Y0094161D01*
X0108561Y0093148D01*
X0109884Y0092600D01*
X0111316Y0092600D01*
X0112639Y0093148D01*
X0113652Y0094161D01*
X0114200Y0095484D01*
X0114200Y0096916D01*
X0113652Y0098239D01*
X0112639Y0099252D01*
X0111316Y0099800D01*
X0109884Y0099800D01*
X0109555Y0099664D01*
X0110452Y0100561D01*
X0110468Y0100600D01*
X0132000Y0100600D01*
X0131800Y0100116D01*
X0131800Y0098684D01*
X0132348Y0097361D01*
X0133361Y0096348D01*
X0134684Y0095800D01*
X0136116Y0095800D01*
X0136155Y0095816D01*
X0144439Y0087533D01*
X0143761Y0087252D01*
X0142748Y0086239D01*
X0142200Y0084916D01*
X0142200Y0083484D01*
X0142216Y0083445D01*
X0108471Y0049699D01*
X0103184Y0049699D01*
X0102247Y0048762D01*
X0102247Y0042318D01*
X0102766Y0041800D01*
X0102247Y0041282D01*
X0102247Y0038676D01*
X0102200Y0038628D01*
X0096600Y0033028D01*
X0096600Y0029828D01*
X0064600Y0061828D01*
X0067082Y0059346D02*
X0118118Y0059346D01*
X0116519Y0057748D02*
X0068681Y0057748D01*
X0070279Y0056149D02*
X0114921Y0056149D01*
X0113322Y0054551D02*
X0071878Y0054551D01*
X0073476Y0052952D02*
X0111724Y0052952D01*
X0110125Y0051354D02*
X0075075Y0051354D01*
X0076673Y0049755D02*
X0108527Y0049755D01*
X0111353Y0046924D02*
X0112247Y0047819D01*
X0112247Y0042318D01*
X0112766Y0041800D01*
X0112247Y0041282D01*
X0112247Y0034838D01*
X0113184Y0033901D01*
X0114200Y0033901D01*
X0114200Y0030368D01*
X0112712Y0030368D01*
X0112025Y0029682D01*
X0112025Y0030356D01*
X0107654Y0030356D01*
X0107654Y0030724D01*
X0112025Y0030724D01*
X0112025Y0032746D01*
X0111903Y0033203D01*
X0111666Y0033614D01*
X0111330Y0033949D01*
X0110920Y0034186D01*
X0110747Y0034232D01*
X0111353Y0034838D01*
X0111353Y0041282D01*
X0110834Y0041800D01*
X0111353Y0042318D01*
X0111353Y0046924D01*
X0111353Y0046558D02*
X0112247Y0046558D01*
X0112247Y0044960D02*
X0111353Y0044960D01*
X0111353Y0043361D02*
X0112247Y0043361D01*
X0112728Y0041763D02*
X0110872Y0041763D01*
X0111353Y0040164D02*
X0112247Y0040164D01*
X0112247Y0038566D02*
X0111353Y0038566D01*
X0111353Y0036967D02*
X0112247Y0036967D01*
X0112247Y0035369D02*
X0111353Y0035369D01*
X0111509Y0033770D02*
X0114200Y0033770D01*
X0114200Y0032172D02*
X0112025Y0032172D01*
X0114200Y0030573D02*
X0107654Y0030573D01*
X0107654Y0030356D02*
X0107654Y0026772D01*
X0110462Y0026772D01*
X0110920Y0026894D01*
X0111330Y0027131D01*
X0111666Y0027466D01*
X0111775Y0027656D01*
X0111775Y0025741D01*
X0110888Y0026628D01*
X0104051Y0026628D01*
X0103925Y0026503D01*
X0100600Y0029828D01*
X0100600Y0031372D01*
X0103157Y0033928D01*
X0103184Y0033901D01*
X0103560Y0033901D01*
X0103273Y0033614D01*
X0103036Y0033203D01*
X0102913Y0032746D01*
X0102913Y0030724D01*
X0107285Y0030724D01*
X0107285Y0030356D01*
X0102913Y0030356D01*
X0102913Y0028335D01*
X0103036Y0027877D01*
X0103273Y0027466D01*
X0103608Y0027131D01*
X0104019Y0026894D01*
X0104476Y0026772D01*
X0107285Y0026772D01*
X0107285Y0030356D01*
X0107654Y0030356D01*
X0107285Y0030573D02*
X0100600Y0030573D01*
X0101400Y0032172D02*
X0102913Y0032172D01*
X0102999Y0033770D02*
X0103429Y0033770D01*
X0100539Y0036967D02*
X0089461Y0036967D01*
X0091060Y0035369D02*
X0098940Y0035369D01*
X0097342Y0033770D02*
X0092658Y0033770D01*
X0094257Y0032172D02*
X0096600Y0032172D01*
X0096600Y0030573D02*
X0095855Y0030573D01*
X0101454Y0028975D02*
X0102913Y0028975D01*
X0103052Y0027376D02*
X0103363Y0027376D01*
X0107285Y0027376D02*
X0107654Y0027376D01*
X0107654Y0028975D02*
X0107285Y0028975D01*
X0111575Y0027376D02*
X0111775Y0027376D01*
X0111739Y0025778D02*
X0111775Y0025778D01*
X0099785Y0016187D02*
X0076400Y0016187D01*
X0076400Y0017785D02*
X0098186Y0017785D01*
X0096588Y0019384D02*
X0076400Y0019384D01*
X0076400Y0020715D02*
X0075700Y0022406D01*
X0074406Y0023700D01*
X0072715Y0024400D01*
X0070885Y0024400D01*
X0069194Y0023700D01*
X0067900Y0022406D01*
X0067200Y0020715D01*
X0067200Y0012885D01*
X0067900Y0011194D01*
X0069194Y0009900D01*
X0070885Y0009200D01*
X0072715Y0009200D01*
X0074406Y0009900D01*
X0075700Y0011194D01*
X0076400Y0012885D01*
X0076400Y0020715D01*
X0076289Y0020982D02*
X0094989Y0020982D01*
X0093391Y0022581D02*
X0075525Y0022581D01*
X0073248Y0024179D02*
X0091792Y0024179D01*
X0090194Y0025778D02*
X0041400Y0025778D01*
X0041400Y0027376D02*
X0088595Y0027376D01*
X0086997Y0028975D02*
X0041131Y0028975D01*
X0039532Y0030573D02*
X0085398Y0030573D01*
X0083800Y0032172D02*
X0028600Y0032172D01*
X0028600Y0033770D02*
X0082201Y0033770D01*
X0080603Y0035369D02*
X0031353Y0035369D01*
X0031353Y0036967D02*
X0079004Y0036967D01*
X0077406Y0038566D02*
X0031353Y0038566D01*
X0031353Y0040164D02*
X0075807Y0040164D01*
X0074209Y0041763D02*
X0030872Y0041763D01*
X0031353Y0048157D02*
X0072615Y0048157D01*
X0078272Y0048157D02*
X0102247Y0048157D01*
X0102247Y0046558D02*
X0079870Y0046558D01*
X0081469Y0044960D02*
X0102247Y0044960D01*
X0102247Y0043361D02*
X0083067Y0043361D01*
X0084666Y0041763D02*
X0102728Y0041763D01*
X0102247Y0040164D02*
X0086264Y0040164D01*
X0087863Y0038566D02*
X0102137Y0038566D01*
X0114184Y0049755D02*
X0147853Y0049755D01*
X0147816Y0051354D02*
X0115782Y0051354D01*
X0140600Y0032172D02*
X0197913Y0032172D01*
X0198429Y0033770D02*
X0142199Y0033770D01*
X0143797Y0035369D02*
X0197247Y0035369D01*
X0197247Y0036967D02*
X0145396Y0036967D01*
X0146994Y0038566D02*
X0197247Y0038566D01*
X0197247Y0040164D02*
X0194855Y0040164D01*
X0195750Y0041763D02*
X0197728Y0041763D01*
X0197247Y0043361D02*
X0195781Y0043361D01*
X0194931Y0044960D02*
X0197247Y0044960D01*
X0197247Y0046558D02*
X0191070Y0046558D01*
X0189472Y0048157D02*
X0197247Y0048157D01*
X0202927Y0049755D02*
X0187873Y0049755D01*
X0186275Y0051354D02*
X0203016Y0051354D01*
X0203861Y0052952D02*
X0184676Y0052952D01*
X0183078Y0054551D02*
X0207814Y0054551D01*
X0208658Y0056149D02*
X0181479Y0056149D01*
X0179881Y0057748D02*
X0258119Y0057748D01*
X0256521Y0056149D02*
X0214142Y0056149D01*
X0214986Y0054551D02*
X0254922Y0054551D01*
X0253324Y0052952D02*
X0214945Y0052952D01*
X0214045Y0051354D02*
X0251725Y0051354D01*
X0250127Y0049755D02*
X0213400Y0049755D01*
X0216353Y0048157D02*
X0248528Y0048157D01*
X0246930Y0046558D02*
X0216353Y0046558D01*
X0216353Y0044960D02*
X0245331Y0044960D01*
X0243733Y0043361D02*
X0216353Y0043361D01*
X0215872Y0041763D02*
X0242134Y0041763D01*
X0240536Y0040164D02*
X0216353Y0040164D01*
X0216353Y0038566D02*
X0238937Y0038566D01*
X0237339Y0036967D02*
X0216353Y0036967D01*
X0216353Y0035369D02*
X0235740Y0035369D01*
X0234142Y0033770D02*
X0213400Y0033770D01*
X0213400Y0032172D02*
X0232543Y0032172D01*
X0230945Y0030573D02*
X0224532Y0030573D01*
X0226131Y0028975D02*
X0229346Y0028975D01*
X0227748Y0027376D02*
X0226400Y0027376D01*
X0219068Y0030573D02*
X0213400Y0030573D01*
X0202654Y0028975D02*
X0202285Y0028975D01*
X0202285Y0030573D02*
X0139002Y0030573D01*
X0140885Y0024400D02*
X0139194Y0023700D01*
X0137900Y0022406D01*
X0137200Y0020715D01*
X0137200Y0012885D01*
X0137900Y0011194D01*
X0139194Y0009900D01*
X0140885Y0009200D01*
X0142715Y0009200D01*
X0144406Y0009900D01*
X0145700Y0011194D01*
X0146400Y0012885D01*
X0146400Y0020715D01*
X0145700Y0022406D01*
X0144406Y0023700D01*
X0142715Y0024400D01*
X0140885Y0024400D01*
X0140352Y0024179D02*
X0133400Y0024179D01*
X0131809Y0022581D02*
X0138075Y0022581D01*
X0137311Y0020982D02*
X0130211Y0020982D01*
X0128612Y0019384D02*
X0137200Y0019384D01*
X0137200Y0017785D02*
X0127014Y0017785D01*
X0125415Y0016187D02*
X0137200Y0016187D01*
X0137200Y0014588D02*
X0123817Y0014588D01*
X0122218Y0012990D02*
X0137200Y0012990D01*
X0137819Y0011391D02*
X0075781Y0011391D01*
X0076400Y0012990D02*
X0102982Y0012990D01*
X0101383Y0014588D02*
X0076400Y0014588D01*
X0074146Y0009793D02*
X0139454Y0009793D01*
X0144146Y0009793D02*
X0149454Y0009793D01*
X0147819Y0011391D02*
X0145781Y0011391D01*
X0146400Y0012990D02*
X0147200Y0012990D01*
X0147200Y0014588D02*
X0146400Y0014588D01*
X0146400Y0016187D02*
X0147200Y0016187D01*
X0147200Y0017785D02*
X0146400Y0017785D01*
X0146400Y0019384D02*
X0147200Y0019384D01*
X0147311Y0020982D02*
X0146289Y0020982D01*
X0145525Y0022581D02*
X0148075Y0022581D01*
X0150352Y0024179D02*
X0143248Y0024179D01*
X0148593Y0040164D02*
X0189545Y0040164D01*
X0188650Y0041763D02*
X0150191Y0041763D01*
X0151790Y0043361D02*
X0188610Y0043361D01*
X0187012Y0044960D02*
X0153388Y0044960D01*
X0154987Y0046558D02*
X0185413Y0046558D01*
X0183815Y0048157D02*
X0156585Y0048157D01*
X0158184Y0049755D02*
X0182216Y0049755D01*
X0180618Y0051354D02*
X0162045Y0051354D01*
X0162945Y0052952D02*
X0179019Y0052952D01*
X0177421Y0054551D02*
X0162986Y0054551D01*
X0162142Y0056149D02*
X0175822Y0056149D01*
X0174224Y0057748D02*
X0161400Y0057748D01*
X0161400Y0059346D02*
X0172625Y0059346D01*
X0171027Y0060945D02*
X0161400Y0060945D01*
X0161400Y0062543D02*
X0169428Y0062543D01*
X0167830Y0064142D02*
X0161400Y0064142D01*
X0161400Y0065740D02*
X0166231Y0065740D01*
X0166200Y0067339D02*
X0161400Y0067339D01*
X0161400Y0068937D02*
X0166200Y0068937D01*
X0166200Y0070536D02*
X0161400Y0070536D01*
X0161400Y0072134D02*
X0166200Y0072134D01*
X0166200Y0073733D02*
X0161400Y0073733D01*
X0161400Y0075332D02*
X0166200Y0075332D01*
X0166200Y0076930D02*
X0161400Y0076930D01*
X0161400Y0078529D02*
X0166200Y0078529D01*
X0166200Y0080127D02*
X0161400Y0080127D01*
X0161400Y0081726D02*
X0166200Y0081726D01*
X0166200Y0083324D02*
X0161400Y0083324D01*
X0161400Y0084923D02*
X0166200Y0084923D01*
X0166200Y0086521D02*
X0161400Y0086521D01*
X0161400Y0088120D02*
X0166200Y0088120D01*
X0166200Y0089718D02*
X0162947Y0089718D01*
X0164545Y0091317D02*
X0165001Y0091317D01*
X0170200Y0089718D02*
X0173453Y0089718D01*
X0171855Y0091317D02*
X0171399Y0091317D01*
X0170200Y0088120D02*
X0175052Y0088120D01*
X0176650Y0086521D02*
X0170200Y0086521D01*
X0170200Y0084923D02*
X0178249Y0084923D01*
X0179847Y0083324D02*
X0170200Y0083324D01*
X0170200Y0081726D02*
X0181446Y0081726D01*
X0170200Y0080127D02*
X0210245Y0080127D01*
X0210919Y0078529D02*
X0170200Y0078529D01*
X0170200Y0076930D02*
X0208451Y0076930D01*
X0207678Y0075332D02*
X0170200Y0075332D01*
X0170200Y0073733D02*
X0207625Y0073733D01*
X0207625Y0072134D02*
X0170200Y0072134D01*
X0170200Y0070536D02*
X0207625Y0070536D01*
X0207625Y0068937D02*
X0170200Y0068937D01*
X0170289Y0067339D02*
X0208063Y0067339D01*
X0209381Y0065740D02*
X0171888Y0065740D01*
X0173486Y0064142D02*
X0263011Y0064142D01*
X0262915Y0062543D02*
X0175085Y0062543D01*
X0176683Y0060945D02*
X0261317Y0060945D01*
X0259718Y0059346D02*
X0178282Y0059346D01*
X0196554Y0081726D02*
X0208646Y0081726D01*
X0207048Y0083324D02*
X0198152Y0083324D01*
X0199751Y0084923D02*
X0205449Y0084923D01*
X0203850Y0086521D02*
X0199800Y0086521D01*
X0199800Y0088120D02*
X0202252Y0088120D01*
X0200653Y0089718D02*
X0199800Y0089718D01*
X0199055Y0091317D02*
X0198312Y0091317D01*
X0197456Y0092915D02*
X0196713Y0092915D01*
X0195858Y0094514D02*
X0195115Y0094514D01*
X0194259Y0096112D02*
X0193516Y0096112D01*
X0192661Y0097711D02*
X0191918Y0097711D01*
X0192600Y0099309D02*
X0190319Y0099309D01*
X0188721Y0100908D02*
X0192600Y0100908D01*
X0192600Y0102506D02*
X0188600Y0102506D01*
X0188600Y0104105D02*
X0192600Y0104105D01*
X0192600Y0105703D02*
X0188600Y0105703D01*
X0188600Y0107302D02*
X0192600Y0107302D01*
X0192600Y0108900D02*
X0188600Y0108900D01*
X0188600Y0110499D02*
X0192600Y0110499D01*
X0192600Y0112097D02*
X0188600Y0112097D01*
X0188600Y0113696D02*
X0192600Y0113696D01*
X0192600Y0115294D02*
X0188600Y0115294D01*
X0192384Y0116893D02*
X0192600Y0116893D01*
X0196600Y0129200D02*
X0196600Y0138572D01*
X0200228Y0142200D01*
X0206400Y0148372D01*
X0206400Y0147337D01*
X0206937Y0146800D01*
X0206400Y0146263D01*
X0206400Y0142337D01*
X0207337Y0141400D01*
X0209400Y0141400D01*
X0209400Y0140228D01*
X0198555Y0129384D01*
X0198516Y0129400D01*
X0197084Y0129400D01*
X0196600Y0129200D01*
X0196600Y0129681D02*
X0198852Y0129681D01*
X0200451Y0131279D02*
X0196600Y0131279D01*
X0196600Y0132878D02*
X0202050Y0132878D01*
X0203648Y0134476D02*
X0196600Y0134476D01*
X0196600Y0136075D02*
X0205247Y0136075D01*
X0206845Y0137673D02*
X0196600Y0137673D01*
X0197300Y0139272D02*
X0208444Y0139272D01*
X0209400Y0140870D02*
X0198899Y0140870D01*
X0200497Y0142469D02*
X0206400Y0142469D01*
X0206400Y0144068D02*
X0202096Y0144068D01*
X0203694Y0145666D02*
X0206400Y0145666D01*
X0206473Y0147265D02*
X0205293Y0147265D01*
X0213400Y0141400D02*
X0215000Y0141400D01*
X0215000Y0141084D01*
X0215548Y0139761D01*
X0216561Y0138748D01*
X0217884Y0138200D01*
X0219316Y0138200D01*
X0220639Y0138748D01*
X0221652Y0139761D01*
X0222200Y0141084D01*
X0222200Y0142516D01*
X0221652Y0143839D01*
X0220639Y0144852D01*
X0220600Y0144868D01*
X0220600Y0145828D01*
X0219428Y0147000D01*
X0217600Y0148828D01*
X0217600Y0149172D01*
X0223833Y0155404D01*
X0224348Y0154161D01*
X0225361Y0153148D01*
X0226684Y0152600D01*
X0228116Y0152600D01*
X0229439Y0153148D01*
X0230452Y0154161D01*
X0231000Y0155484D01*
X0231000Y0156916D01*
X0230452Y0158239D01*
X0229439Y0159252D01*
X0229400Y0159268D01*
X0229400Y0162628D01*
X0227800Y0164228D01*
X0226628Y0165400D01*
X0218628Y0165400D01*
X0241102Y0187873D01*
X0241148Y0187761D01*
X0241909Y0187000D01*
X0241148Y0186239D01*
X0240600Y0184916D01*
X0240600Y0183484D01*
X0240616Y0183445D01*
X0240172Y0183000D01*
X0239000Y0181828D01*
X0239000Y0172172D01*
X0242200Y0168972D01*
X0243372Y0167800D01*
X0246000Y0167800D01*
X0246000Y0167337D01*
X0246537Y0166800D01*
X0246000Y0166263D01*
X0246000Y0165282D01*
X0245716Y0165400D01*
X0244284Y0165400D01*
X0242961Y0164852D01*
X0241948Y0163839D01*
X0241400Y0162516D01*
X0241400Y0161084D01*
X0241600Y0160600D01*
X0241084Y0160600D01*
X0239761Y0160052D01*
X0238748Y0159039D01*
X0238200Y0157716D01*
X0238200Y0156284D01*
X0238748Y0154961D01*
X0239761Y0153948D01*
X0241084Y0153400D01*
X0242516Y0153400D01*
X0242555Y0153416D01*
X0246000Y0149972D01*
X0246000Y0147337D01*
X0246537Y0146800D01*
X0246000Y0146263D01*
X0246000Y0145628D01*
X0240972Y0140600D01*
X0239800Y0139428D01*
X0239800Y0138065D01*
X0239435Y0137914D01*
X0238261Y0136740D01*
X0237625Y0135205D01*
X0237625Y0132454D01*
X0235975Y0130803D01*
X0235975Y0135205D01*
X0235339Y0136740D01*
X0234165Y0137914D01*
X0232630Y0138550D01*
X0230970Y0138550D01*
X0229435Y0137914D01*
X0228261Y0136740D01*
X0227625Y0135205D01*
X0227625Y0128395D01*
X0228203Y0127000D01*
X0225576Y0127000D01*
X0225854Y0127546D01*
X0226067Y0128201D01*
X0226175Y0128881D01*
X0226175Y0131800D01*
X0226175Y0134719D01*
X0226067Y0135399D01*
X0225854Y0136054D01*
X0225542Y0136668D01*
X0225137Y0137225D01*
X0224650Y0137712D01*
X0224093Y0138116D01*
X0223479Y0138429D01*
X0222824Y0138642D01*
X0222144Y0138750D01*
X0221800Y0138750D01*
X0221456Y0138750D01*
X0220776Y0138642D01*
X0220121Y0138429D01*
X0219507Y0138116D01*
X0218950Y0137712D01*
X0218463Y0137225D01*
X0218058Y0136668D01*
X0217746Y0136054D01*
X0217533Y0135399D01*
X0217425Y0134719D01*
X0217425Y0131800D01*
X0221800Y0131800D01*
X0221800Y0131800D01*
X0221800Y0138750D01*
X0221800Y0131800D01*
X0226175Y0131800D01*
X0221800Y0131800D01*
X0221800Y0131800D01*
X0221800Y0131800D01*
X0217425Y0131800D01*
X0217425Y0128881D01*
X0217533Y0128201D01*
X0217746Y0127546D01*
X0218024Y0127000D01*
X0215397Y0127000D01*
X0215975Y0128395D01*
X0215975Y0135205D01*
X0215339Y0136740D01*
X0214165Y0137914D01*
X0213159Y0138331D01*
X0213400Y0138572D01*
X0213400Y0141400D01*
X0213400Y0140870D02*
X0215088Y0140870D01*
X0216037Y0139272D02*
X0213400Y0139272D01*
X0214405Y0137673D02*
X0218912Y0137673D01*
X0217756Y0136075D02*
X0215615Y0136075D01*
X0215975Y0134476D02*
X0217425Y0134476D01*
X0217425Y0132878D02*
X0215975Y0132878D01*
X0215975Y0131279D02*
X0217425Y0131279D01*
X0217425Y0129681D02*
X0215975Y0129681D01*
X0215845Y0128082D02*
X0217571Y0128082D01*
X0221800Y0132878D02*
X0221800Y0132878D01*
X0221800Y0134476D02*
X0221800Y0134476D01*
X0221800Y0136075D02*
X0221800Y0136075D01*
X0221800Y0137673D02*
X0221800Y0137673D01*
X0221163Y0139272D02*
X0239800Y0139272D01*
X0239195Y0137673D02*
X0234405Y0137673D01*
X0235615Y0136075D02*
X0237985Y0136075D01*
X0237625Y0134476D02*
X0235975Y0134476D01*
X0235975Y0132878D02*
X0237625Y0132878D01*
X0236451Y0131279D02*
X0235975Y0131279D01*
X0227625Y0131279D02*
X0226175Y0131279D01*
X0226175Y0129681D02*
X0227625Y0129681D01*
X0227755Y0128082D02*
X0226029Y0128082D01*
X0226175Y0132878D02*
X0227625Y0132878D01*
X0227625Y0134476D02*
X0226175Y0134476D01*
X0225844Y0136075D02*
X0227985Y0136075D01*
X0229195Y0137673D02*
X0224688Y0137673D01*
X0222112Y0140870D02*
X0241242Y0140870D01*
X0242841Y0142469D02*
X0222200Y0142469D01*
X0221424Y0144068D02*
X0244439Y0144068D01*
X0246000Y0145666D02*
X0220600Y0145666D01*
X0219164Y0147265D02*
X0246073Y0147265D01*
X0246000Y0148863D02*
X0217600Y0148863D01*
X0218890Y0150462D02*
X0245510Y0150462D01*
X0243912Y0152060D02*
X0220488Y0152060D01*
X0222087Y0153659D02*
X0224850Y0153659D01*
X0223894Y0155257D02*
X0223685Y0155257D01*
X0229950Y0153659D02*
X0240460Y0153659D01*
X0238625Y0155257D02*
X0230906Y0155257D01*
X0231000Y0156856D02*
X0238200Y0156856D01*
X0238506Y0158454D02*
X0230237Y0158454D01*
X0229400Y0160053D02*
X0239762Y0160053D01*
X0241400Y0161651D02*
X0229400Y0161651D01*
X0228779Y0163250D02*
X0241704Y0163250D01*
X0242957Y0164848D02*
X0227180Y0164848D01*
X0221274Y0168045D02*
X0243126Y0168045D01*
X0241528Y0169644D02*
X0222872Y0169644D01*
X0224471Y0171242D02*
X0239929Y0171242D01*
X0239000Y0172841D02*
X0226069Y0172841D01*
X0227668Y0174439D02*
X0239000Y0174439D01*
X0239000Y0176038D02*
X0229266Y0176038D01*
X0230865Y0177636D02*
X0239000Y0177636D01*
X0239000Y0179235D02*
X0232463Y0179235D01*
X0234062Y0180833D02*
X0239000Y0180833D01*
X0239603Y0182432D02*
X0235660Y0182432D01*
X0237259Y0184030D02*
X0240600Y0184030D01*
X0240895Y0185629D02*
X0238857Y0185629D01*
X0240456Y0187227D02*
X0241682Y0187227D01*
X0236394Y0192023D02*
X0234851Y0192023D01*
X0234200Y0191372D02*
X0237028Y0194200D01*
X0238572Y0194200D01*
X0217600Y0173228D01*
X0217600Y0176263D01*
X0217063Y0176800D01*
X0217600Y0177337D01*
X0217600Y0181263D01*
X0217063Y0181800D01*
X0217600Y0182337D01*
X0217600Y0186263D01*
X0217204Y0186659D01*
X0217440Y0186895D01*
X0217677Y0187305D01*
X0217800Y0187763D01*
X0217800Y0189300D01*
X0217800Y0190200D01*
X0233028Y0190200D01*
X0234200Y0191372D01*
X0234200Y0191372D01*
X0234796Y0190424D02*
X0233253Y0190424D01*
X0233197Y0188826D02*
X0217800Y0188826D01*
X0217800Y0189300D02*
X0212000Y0189300D01*
X0217800Y0189300D01*
X0217632Y0187227D02*
X0231599Y0187227D01*
X0230000Y0185629D02*
X0217600Y0185629D01*
X0217600Y0184030D02*
X0228402Y0184030D01*
X0226803Y0182432D02*
X0217600Y0182432D01*
X0217600Y0180833D02*
X0225205Y0180833D01*
X0223606Y0179235D02*
X0217600Y0179235D01*
X0217600Y0177636D02*
X0222008Y0177636D01*
X0220409Y0176038D02*
X0217600Y0176038D01*
X0217600Y0174439D02*
X0218811Y0174439D01*
X0219675Y0166447D02*
X0246184Y0166447D01*
X0266401Y0187227D02*
X0267736Y0187227D01*
X0267761Y0187252D02*
X0267069Y0186560D01*
X0261028Y0192600D01*
X0282572Y0192600D01*
X0286572Y0188600D01*
X0296172Y0188600D01*
X0293133Y0185561D01*
X0292852Y0186239D01*
X0291839Y0187252D01*
X0290516Y0187800D01*
X0289084Y0187800D01*
X0287761Y0187252D01*
X0286748Y0186239D01*
X0286732Y0186200D01*
X0282600Y0186200D01*
X0282600Y0186263D01*
X0282204Y0186659D01*
X0282440Y0186895D01*
X0282677Y0187305D01*
X0282800Y0187763D01*
X0282800Y0189300D01*
X0282800Y0190837D01*
X0282677Y0191295D01*
X0282440Y0191705D01*
X0282105Y0192040D01*
X0281695Y0192277D01*
X0281237Y0192400D01*
X0277000Y0192400D01*
X0277000Y0189300D01*
X0277000Y0189300D01*
X0282800Y0189300D01*
X0277000Y0189300D01*
X0277000Y0189300D01*
X0277000Y0187200D01*
X0277000Y0187200D01*
X0277000Y0189300D01*
X0277000Y0189300D01*
X0277000Y0189300D01*
X0271200Y0189300D01*
X0271200Y0190837D01*
X0271323Y0191295D01*
X0271560Y0191705D01*
X0271895Y0192040D01*
X0272305Y0192277D01*
X0272763Y0192400D01*
X0277000Y0192400D01*
X0277000Y0189300D01*
X0271200Y0189300D01*
X0271200Y0187763D01*
X0271274Y0187486D01*
X0270516Y0187800D01*
X0269084Y0187800D01*
X0267761Y0187252D01*
X0264803Y0188826D02*
X0271200Y0188826D01*
X0271200Y0190424D02*
X0263204Y0190424D01*
X0261606Y0192023D02*
X0271877Y0192023D01*
X0277000Y0192023D02*
X0277000Y0192023D01*
X0277000Y0190424D02*
X0277000Y0190424D01*
X0277000Y0188826D02*
X0277000Y0188826D01*
X0277000Y0187227D02*
X0277000Y0187227D01*
X0282632Y0187227D02*
X0287736Y0187227D01*
X0286346Y0188826D02*
X0282800Y0188826D01*
X0282800Y0190424D02*
X0284747Y0190424D01*
X0283149Y0192023D02*
X0282123Y0192023D01*
X0285428Y0195400D02*
X0288701Y0198672D01*
X0288701Y0197280D01*
X0292580Y0197280D01*
X0292580Y0196320D01*
X0292580Y0192600D01*
X0293539Y0192600D01*
X0293539Y0196320D01*
X0292580Y0196320D01*
X0288701Y0196320D01*
X0288701Y0193610D01*
X0288823Y0193152D01*
X0289060Y0192742D01*
X0289202Y0192600D01*
X0288228Y0192600D01*
X0285428Y0195400D01*
X0285609Y0195220D02*
X0288701Y0195220D01*
X0288701Y0193621D02*
X0287207Y0193621D01*
X0286847Y0196818D02*
X0292580Y0196818D01*
X0292580Y0195220D02*
X0293539Y0195220D01*
X0293539Y0193621D02*
X0292580Y0193621D01*
X0288701Y0198417D02*
X0288445Y0198417D01*
X0291864Y0187227D02*
X0294799Y0187227D01*
X0293200Y0185629D02*
X0293105Y0185629D01*
X0304699Y0193928D02*
X0304699Y0197871D01*
X0305828Y0199000D01*
X0307372Y0199000D01*
X0308572Y0197800D01*
X0304699Y0193928D01*
X0304699Y0195220D02*
X0305991Y0195220D01*
X0304699Y0196818D02*
X0307590Y0196818D01*
X0307955Y0198417D02*
X0305245Y0198417D01*
X0329028Y0194200D02*
X0345772Y0194200D01*
X0363800Y0176172D01*
X0363800Y0146800D01*
X0363316Y0147000D01*
X0361884Y0147000D01*
X0361400Y0146800D01*
X0361400Y0151532D01*
X0361439Y0151548D01*
X0362452Y0152561D01*
X0363000Y0153884D01*
X0363000Y0155316D01*
X0362452Y0156639D01*
X0361439Y0157652D01*
X0360116Y0158200D01*
X0358684Y0158200D01*
X0358200Y0158000D01*
X0358200Y0176228D01*
X0352584Y0181845D01*
X0352600Y0181884D01*
X0352600Y0183316D01*
X0352052Y0184639D01*
X0351039Y0185652D01*
X0349716Y0186200D01*
X0348284Y0186200D01*
X0347600Y0185917D01*
X0347600Y0186263D01*
X0347204Y0186659D01*
X0347440Y0186895D01*
X0347677Y0187305D01*
X0347800Y0187763D01*
X0347800Y0189300D01*
X0347800Y0190837D01*
X0347677Y0191295D01*
X0347440Y0191705D01*
X0347105Y0192040D01*
X0346695Y0192277D01*
X0346237Y0192400D01*
X0342000Y0192400D01*
X0342000Y0189300D01*
X0342000Y0189300D01*
X0347800Y0189300D01*
X0342000Y0189300D01*
X0342000Y0189300D01*
X0342000Y0189300D01*
X0336200Y0189300D01*
X0336200Y0190837D01*
X0336323Y0191295D01*
X0336560Y0191705D01*
X0336895Y0192040D01*
X0337305Y0192277D01*
X0337763Y0192400D01*
X0342000Y0192400D01*
X0342000Y0189300D01*
X0336200Y0189300D01*
X0336200Y0187763D01*
X0336323Y0187305D01*
X0336560Y0186895D01*
X0336796Y0186659D01*
X0336683Y0186546D01*
X0329028Y0194200D01*
X0329607Y0193621D02*
X0346350Y0193621D01*
X0347123Y0192023D02*
X0347949Y0192023D01*
X0347800Y0190424D02*
X0349547Y0190424D01*
X0351146Y0188826D02*
X0347800Y0188826D01*
X0347632Y0187227D02*
X0352744Y0187227D01*
X0354343Y0185629D02*
X0351062Y0185629D01*
X0352304Y0184030D02*
X0355941Y0184030D01*
X0357540Y0182432D02*
X0352600Y0182432D01*
X0353595Y0180833D02*
X0359138Y0180833D01*
X0360737Y0179235D02*
X0355194Y0179235D01*
X0356792Y0177636D02*
X0362335Y0177636D01*
X0363800Y0176038D02*
X0358200Y0176038D01*
X0358200Y0174439D02*
X0363800Y0174439D01*
X0363800Y0172841D02*
X0358200Y0172841D01*
X0358200Y0171242D02*
X0363800Y0171242D01*
X0363800Y0169644D02*
X0358200Y0169644D01*
X0358200Y0168045D02*
X0363800Y0168045D01*
X0363800Y0166447D02*
X0358200Y0166447D01*
X0358200Y0164848D02*
X0363800Y0164848D01*
X0363800Y0163250D02*
X0358200Y0163250D01*
X0358200Y0161651D02*
X0363800Y0161651D01*
X0363800Y0160053D02*
X0358200Y0160053D01*
X0358200Y0158454D02*
X0363800Y0158454D01*
X0363800Y0156856D02*
X0362236Y0156856D01*
X0363000Y0155257D02*
X0363800Y0155257D01*
X0363800Y0153659D02*
X0362907Y0153659D01*
X0363800Y0152060D02*
X0361951Y0152060D01*
X0361400Y0150462D02*
X0363800Y0150462D01*
X0363800Y0148863D02*
X0361400Y0148863D01*
X0361400Y0147265D02*
X0363800Y0147265D01*
X0375800Y0139372D02*
X0377828Y0141400D01*
X0386263Y0141400D01*
X0387200Y0142337D01*
X0387200Y0146263D01*
X0386663Y0146800D01*
X0387200Y0147337D01*
X0387200Y0151263D01*
X0386663Y0151800D01*
X0387200Y0152337D01*
X0387200Y0154772D01*
X0388245Y0155816D01*
X0388284Y0155800D01*
X0389716Y0155800D01*
X0391039Y0156348D01*
X0392052Y0157361D01*
X0392600Y0158684D01*
X0392600Y0160116D01*
X0392052Y0161439D01*
X0391039Y0162452D01*
X0390361Y0162733D01*
X0392701Y0165072D01*
X0392701Y0004600D01*
X0229691Y0004600D01*
X0230452Y0005361D01*
X0230468Y0005400D01*
X0304972Y0005400D01*
X0306628Y0005400D01*
X0369828Y0068600D01*
X0371000Y0069772D01*
X0371000Y0079532D01*
X0372284Y0079000D01*
X0373716Y0079000D01*
X0375039Y0079548D01*
X0376052Y0080561D01*
X0376600Y0081884D01*
X0376600Y0083316D01*
X0376052Y0084639D01*
X0375039Y0085652D01*
X0375000Y0085668D01*
X0375000Y0117600D01*
X0375839Y0117948D01*
X0376852Y0118961D01*
X0377400Y0120284D01*
X0377400Y0121716D01*
X0376852Y0123039D01*
X0375839Y0124052D01*
X0375800Y0124068D01*
X0375800Y0139372D01*
X0375800Y0139272D02*
X0392701Y0139272D01*
X0392701Y0140870D02*
X0377299Y0140870D01*
X0375800Y0137673D02*
X0392701Y0137673D01*
X0392701Y0136075D02*
X0375800Y0136075D01*
X0375800Y0134476D02*
X0392701Y0134476D01*
X0392701Y0132878D02*
X0375800Y0132878D01*
X0375800Y0131279D02*
X0392701Y0131279D01*
X0392701Y0129681D02*
X0375800Y0129681D01*
X0375800Y0128082D02*
X0392701Y0128082D01*
X0392701Y0126484D02*
X0375800Y0126484D01*
X0375800Y0124885D02*
X0392701Y0124885D01*
X0392701Y0123287D02*
X0376604Y0123287D01*
X0377400Y0121688D02*
X0392701Y0121688D01*
X0392701Y0120090D02*
X0377320Y0120090D01*
X0376382Y0118491D02*
X0392701Y0118491D01*
X0392701Y0116893D02*
X0375000Y0116893D01*
X0375000Y0115294D02*
X0392701Y0115294D01*
X0392701Y0113696D02*
X0375000Y0113696D01*
X0375000Y0112097D02*
X0392701Y0112097D01*
X0392701Y0110499D02*
X0385194Y0110499D01*
X0385509Y0110184D02*
X0384278Y0111414D01*
X0382670Y0112080D01*
X0380930Y0112080D01*
X0379322Y0111414D01*
X0378091Y0110184D01*
X0377425Y0108576D01*
X0377425Y0106835D01*
X0378091Y0105227D01*
X0379322Y0103997D01*
X0380930Y0103331D01*
X0382670Y0103331D01*
X0384278Y0103997D01*
X0385509Y0105227D01*
X0386175Y0106835D01*
X0386175Y0108576D01*
X0385509Y0110184D01*
X0386040Y0108900D02*
X0392701Y0108900D01*
X0392701Y0107302D02*
X0386175Y0107302D01*
X0385706Y0105703D02*
X0392701Y0105703D01*
X0392701Y0104105D02*
X0384386Y0104105D01*
X0382670Y0100269D02*
X0380930Y0100269D01*
X0379322Y0099603D01*
X0378091Y0098373D01*
X0377425Y0096765D01*
X0377425Y0095024D01*
X0378091Y0093416D01*
X0379322Y0092186D01*
X0380930Y0091520D01*
X0382670Y0091520D01*
X0384278Y0092186D01*
X0385509Y0093416D01*
X0386175Y0095024D01*
X0386175Y0096765D01*
X0385509Y0098373D01*
X0384278Y0099603D01*
X0382670Y0100269D01*
X0384572Y0099309D02*
X0392701Y0099309D01*
X0392701Y0097711D02*
X0385783Y0097711D01*
X0386175Y0096112D02*
X0392701Y0096112D01*
X0392701Y0094514D02*
X0385963Y0094514D01*
X0385008Y0092915D02*
X0392701Y0092915D01*
X0392701Y0091317D02*
X0375000Y0091317D01*
X0375000Y0092915D02*
X0378592Y0092915D01*
X0377637Y0094514D02*
X0375000Y0094514D01*
X0375000Y0096112D02*
X0377425Y0096112D01*
X0377817Y0097711D02*
X0375000Y0097711D01*
X0375000Y0099309D02*
X0379028Y0099309D01*
X0375000Y0100908D02*
X0392701Y0100908D01*
X0392701Y0102506D02*
X0375000Y0102506D01*
X0375000Y0104105D02*
X0379214Y0104105D01*
X0377894Y0105703D02*
X0375000Y0105703D01*
X0375000Y0107302D02*
X0377425Y0107302D01*
X0377560Y0108900D02*
X0375000Y0108900D01*
X0375000Y0110499D02*
X0378406Y0110499D01*
X0360600Y0105772D02*
X0360600Y0071428D01*
X0341400Y0052228D01*
X0341400Y0053828D01*
X0334184Y0061045D01*
X0334200Y0061084D01*
X0334200Y0062516D01*
X0333652Y0063839D01*
X0332639Y0064852D01*
X0332160Y0065050D01*
X0332630Y0065050D01*
X0334165Y0065686D01*
X0335339Y0066860D01*
X0335975Y0068395D01*
X0335975Y0075205D01*
X0335339Y0076740D01*
X0334165Y0077914D01*
X0333159Y0078331D01*
X0360228Y0105400D01*
X0360600Y0105772D01*
X0360600Y0105703D02*
X0360532Y0105703D01*
X0360600Y0104105D02*
X0358933Y0104105D01*
X0357335Y0102506D02*
X0360600Y0102506D01*
X0360600Y0100908D02*
X0355736Y0100908D01*
X0354138Y0099309D02*
X0360600Y0099309D01*
X0360600Y0097711D02*
X0352539Y0097711D01*
X0350941Y0096112D02*
X0360600Y0096112D01*
X0360600Y0094514D02*
X0349342Y0094514D01*
X0347744Y0092915D02*
X0360600Y0092915D01*
X0360600Y0091317D02*
X0346145Y0091317D01*
X0344547Y0089718D02*
X0360600Y0089718D01*
X0360600Y0088120D02*
X0342948Y0088120D01*
X0341350Y0086521D02*
X0360600Y0086521D01*
X0360600Y0084923D02*
X0339751Y0084923D01*
X0338152Y0083324D02*
X0360600Y0083324D01*
X0360600Y0081726D02*
X0336554Y0081726D01*
X0334955Y0080127D02*
X0360600Y0080127D01*
X0360600Y0078529D02*
X0352681Y0078529D01*
X0352630Y0078550D02*
X0350970Y0078550D01*
X0349435Y0077914D01*
X0348261Y0076740D01*
X0347625Y0075205D01*
X0347625Y0068395D01*
X0348261Y0066860D01*
X0349435Y0065686D01*
X0350970Y0065050D01*
X0352630Y0065050D01*
X0354165Y0065686D01*
X0355339Y0066860D01*
X0355975Y0068395D01*
X0355975Y0075205D01*
X0355339Y0076740D01*
X0354165Y0077914D01*
X0352630Y0078550D01*
X0350919Y0078529D02*
X0342681Y0078529D01*
X0342630Y0078550D02*
X0340970Y0078550D01*
X0339435Y0077914D01*
X0338261Y0076740D01*
X0337625Y0075205D01*
X0337625Y0068395D01*
X0338261Y0066860D01*
X0339435Y0065686D01*
X0340970Y0065050D01*
X0342630Y0065050D01*
X0344165Y0065686D01*
X0345339Y0066860D01*
X0345975Y0068395D01*
X0345975Y0075205D01*
X0345339Y0076740D01*
X0344165Y0077914D01*
X0342630Y0078550D01*
X0340919Y0078529D02*
X0333357Y0078529D01*
X0335149Y0076930D02*
X0338451Y0076930D01*
X0337678Y0075332D02*
X0335922Y0075332D01*
X0335975Y0073733D02*
X0337625Y0073733D01*
X0337625Y0072134D02*
X0335975Y0072134D01*
X0335975Y0070536D02*
X0337625Y0070536D01*
X0337625Y0068937D02*
X0335975Y0068937D01*
X0335537Y0067339D02*
X0338063Y0067339D01*
X0339381Y0065740D02*
X0334219Y0065740D01*
X0333349Y0064142D02*
X0353314Y0064142D01*
X0354219Y0065740D02*
X0354912Y0065740D01*
X0355537Y0067339D02*
X0356511Y0067339D01*
X0355975Y0068937D02*
X0358109Y0068937D01*
X0359708Y0070536D02*
X0355975Y0070536D01*
X0355975Y0072134D02*
X0360600Y0072134D01*
X0360600Y0073733D02*
X0355975Y0073733D01*
X0355922Y0075332D02*
X0360600Y0075332D01*
X0360600Y0076930D02*
X0355149Y0076930D01*
X0348451Y0076930D02*
X0345149Y0076930D01*
X0345922Y0075332D02*
X0347678Y0075332D01*
X0347625Y0073733D02*
X0345975Y0073733D01*
X0345975Y0072134D02*
X0347625Y0072134D01*
X0347625Y0070536D02*
X0345975Y0070536D01*
X0345975Y0068937D02*
X0347625Y0068937D01*
X0348063Y0067339D02*
X0345537Y0067339D01*
X0344219Y0065740D02*
X0349381Y0065740D01*
X0351715Y0062543D02*
X0334189Y0062543D01*
X0334283Y0060945D02*
X0350117Y0060945D01*
X0348518Y0059346D02*
X0335882Y0059346D01*
X0337481Y0057748D02*
X0346919Y0057748D01*
X0345321Y0056149D02*
X0339079Y0056149D01*
X0340678Y0054551D02*
X0343722Y0054551D01*
X0342124Y0052952D02*
X0341400Y0052952D01*
X0334839Y0054733D02*
X0334161Y0054452D01*
X0333148Y0053439D01*
X0333132Y0053400D01*
X0314800Y0053400D01*
X0315000Y0053884D01*
X0315000Y0055316D01*
X0314452Y0056639D01*
X0313439Y0057652D01*
X0313400Y0057668D01*
X0313400Y0065028D01*
X0313159Y0065269D01*
X0314165Y0065686D01*
X0314204Y0065725D01*
X0314200Y0065716D01*
X0314200Y0064284D01*
X0314748Y0062961D01*
X0315761Y0061948D01*
X0317084Y0061400D01*
X0318516Y0061400D01*
X0319839Y0061948D01*
X0320852Y0062961D01*
X0320868Y0063000D01*
X0322572Y0063000D01*
X0324228Y0063000D01*
X0328210Y0066982D01*
X0328261Y0066860D01*
X0329435Y0065686D01*
X0330126Y0065400D01*
X0329884Y0065400D01*
X0328561Y0064852D01*
X0327548Y0063839D01*
X0327000Y0062516D01*
X0327000Y0061084D01*
X0327548Y0059761D01*
X0328561Y0058748D01*
X0329884Y0058200D01*
X0331316Y0058200D01*
X0331355Y0058216D01*
X0334839Y0054733D01*
X0334400Y0054551D02*
X0315000Y0054551D01*
X0314655Y0056149D02*
X0333422Y0056149D01*
X0331824Y0057748D02*
X0313400Y0057748D01*
X0313400Y0059346D02*
X0327962Y0059346D01*
X0327058Y0060945D02*
X0313400Y0060945D01*
X0313400Y0062543D02*
X0315165Y0062543D01*
X0314259Y0064142D02*
X0313400Y0064142D01*
X0320435Y0062543D02*
X0327011Y0062543D01*
X0327851Y0064142D02*
X0325370Y0064142D01*
X0326969Y0065740D02*
X0329381Y0065740D01*
X0315700Y0078529D02*
X0312681Y0078529D01*
X0312630Y0078550D02*
X0310970Y0078550D01*
X0309435Y0077914D01*
X0309400Y0077879D01*
X0309400Y0084800D01*
X0309884Y0084600D01*
X0311316Y0084600D01*
X0312639Y0085148D01*
X0313652Y0086161D01*
X0314200Y0087484D01*
X0314200Y0088916D01*
X0314184Y0088955D01*
X0316228Y0091000D01*
X0319532Y0091000D01*
X0319548Y0090961D01*
X0320561Y0089948D01*
X0321884Y0089400D01*
X0323316Y0089400D01*
X0324639Y0089948D01*
X0325652Y0090961D01*
X0326200Y0092284D01*
X0326200Y0093716D01*
X0325652Y0095039D01*
X0324639Y0096052D01*
X0323316Y0096600D01*
X0321884Y0096600D01*
X0320561Y0096052D01*
X0319548Y0095039D01*
X0319532Y0095000D01*
X0314572Y0095000D01*
X0311355Y0091784D01*
X0311316Y0091800D01*
X0309884Y0091800D01*
X0309789Y0091761D01*
X0325045Y0107016D01*
X0325084Y0107000D01*
X0326516Y0107000D01*
X0327413Y0107371D01*
X0327900Y0106194D01*
X0329194Y0104900D01*
X0330885Y0104200D01*
X0332715Y0104200D01*
X0334406Y0104900D01*
X0335700Y0106194D01*
X0336400Y0107885D01*
X0336400Y0115715D01*
X0336365Y0115800D01*
X0336916Y0115800D01*
X0337301Y0115960D01*
X0337200Y0115715D01*
X0337200Y0107885D01*
X0337900Y0106194D01*
X0339194Y0104900D01*
X0340885Y0104200D01*
X0341372Y0104200D01*
X0314625Y0077454D01*
X0314165Y0077914D01*
X0312630Y0078550D01*
X0310919Y0078529D02*
X0309400Y0078529D01*
X0309400Y0080127D02*
X0317299Y0080127D01*
X0318897Y0081726D02*
X0309400Y0081726D01*
X0309400Y0083324D02*
X0320496Y0083324D01*
X0322094Y0084923D02*
X0312095Y0084923D01*
X0313801Y0086521D02*
X0323693Y0086521D01*
X0325291Y0088120D02*
X0314200Y0088120D01*
X0314947Y0089718D02*
X0321116Y0089718D01*
X0324084Y0089718D02*
X0326890Y0089718D01*
X0325799Y0091317D02*
X0328488Y0091317D01*
X0330087Y0092915D02*
X0326200Y0092915D01*
X0325870Y0094514D02*
X0331685Y0094514D01*
X0333284Y0096112D02*
X0324494Y0096112D01*
X0320706Y0096112D02*
X0314141Y0096112D01*
X0314085Y0094514D02*
X0312542Y0094514D01*
X0312487Y0092915D02*
X0310944Y0092915D01*
X0315739Y0097711D02*
X0334882Y0097711D01*
X0336481Y0099309D02*
X0317338Y0099309D01*
X0318936Y0100908D02*
X0338079Y0100908D01*
X0339678Y0102506D02*
X0320535Y0102506D01*
X0322133Y0104105D02*
X0341276Y0104105D01*
X0338391Y0105703D02*
X0335209Y0105703D01*
X0336158Y0107302D02*
X0337442Y0107302D01*
X0337200Y0108900D02*
X0336400Y0108900D01*
X0336400Y0110499D02*
X0337200Y0110499D01*
X0337200Y0112097D02*
X0336400Y0112097D01*
X0336400Y0113696D02*
X0337200Y0113696D01*
X0337200Y0115294D02*
X0336400Y0115294D01*
X0339800Y0118951D02*
X0339800Y0120116D01*
X0339252Y0121439D01*
X0338239Y0122452D01*
X0336916Y0123000D01*
X0335484Y0123000D01*
X0334161Y0122452D01*
X0333148Y0121439D01*
X0333132Y0121400D01*
X0328972Y0121400D01*
X0327800Y0120228D01*
X0304567Y0096995D01*
X0304052Y0098239D01*
X0303039Y0099252D01*
X0303000Y0099268D01*
X0303000Y0120172D01*
X0308975Y0126146D01*
X0309435Y0125686D01*
X0310970Y0125050D01*
X0312630Y0125050D01*
X0314165Y0125686D01*
X0315339Y0126860D01*
X0315975Y0128395D01*
X0315975Y0135205D01*
X0315339Y0136740D01*
X0314679Y0137400D01*
X0318921Y0137400D01*
X0318261Y0136740D01*
X0317625Y0135205D01*
X0317625Y0128395D01*
X0318261Y0126860D01*
X0319435Y0125686D01*
X0320970Y0125050D01*
X0322630Y0125050D01*
X0324165Y0125686D01*
X0325339Y0126860D01*
X0325975Y0128395D01*
X0325975Y0135205D01*
X0325339Y0136740D01*
X0324679Y0137400D01*
X0328921Y0137400D01*
X0328261Y0136740D01*
X0327625Y0135205D01*
X0327625Y0128395D01*
X0328261Y0126860D01*
X0329435Y0125686D01*
X0330970Y0125050D01*
X0332630Y0125050D01*
X0334165Y0125686D01*
X0335339Y0126860D01*
X0335975Y0128395D01*
X0335975Y0135205D01*
X0335339Y0136740D01*
X0334165Y0137914D01*
X0332630Y0138550D01*
X0332578Y0138550D01*
X0332600Y0138572D01*
X0336228Y0142200D01*
X0336537Y0142200D01*
X0337337Y0141400D01*
X0345400Y0141400D01*
X0345400Y0136593D01*
X0345339Y0136740D01*
X0344165Y0137914D01*
X0342630Y0138550D01*
X0340970Y0138550D01*
X0339435Y0137914D01*
X0338261Y0136740D01*
X0337625Y0135205D01*
X0337625Y0128395D01*
X0338261Y0126860D01*
X0339435Y0125686D01*
X0340970Y0125050D01*
X0342630Y0125050D01*
X0344165Y0125686D01*
X0345339Y0126860D01*
X0345400Y0127007D01*
X0345400Y0117705D01*
X0344406Y0118700D01*
X0342715Y0119400D01*
X0340885Y0119400D01*
X0339800Y0118951D01*
X0339800Y0120090D02*
X0345400Y0120090D01*
X0345400Y0121688D02*
X0339003Y0121688D01*
X0338637Y0126484D02*
X0334963Y0126484D01*
X0335845Y0128082D02*
X0337755Y0128082D01*
X0337625Y0129681D02*
X0335975Y0129681D01*
X0335975Y0131279D02*
X0337625Y0131279D01*
X0337625Y0132878D02*
X0335975Y0132878D01*
X0335975Y0134476D02*
X0337625Y0134476D01*
X0337985Y0136075D02*
X0335615Y0136075D01*
X0334405Y0137673D02*
X0339195Y0137673D01*
X0344405Y0137673D02*
X0345400Y0137673D01*
X0345400Y0139272D02*
X0333300Y0139272D01*
X0334899Y0140870D02*
X0345400Y0140870D01*
X0327985Y0136075D02*
X0325615Y0136075D01*
X0325975Y0134476D02*
X0327625Y0134476D01*
X0327625Y0132878D02*
X0325975Y0132878D01*
X0325975Y0131279D02*
X0327625Y0131279D01*
X0327625Y0129681D02*
X0325975Y0129681D01*
X0325845Y0128082D02*
X0327755Y0128082D01*
X0328637Y0126484D02*
X0324963Y0126484D01*
X0318637Y0126484D02*
X0314963Y0126484D01*
X0315845Y0128082D02*
X0317755Y0128082D01*
X0317625Y0129681D02*
X0315975Y0129681D01*
X0315975Y0131279D02*
X0317625Y0131279D01*
X0317625Y0132878D02*
X0315975Y0132878D01*
X0315975Y0134476D02*
X0317625Y0134476D01*
X0317985Y0136075D02*
X0315615Y0136075D01*
X0307714Y0124885D02*
X0345400Y0124885D01*
X0345400Y0123287D02*
X0306115Y0123287D01*
X0304517Y0121688D02*
X0333397Y0121688D01*
X0327800Y0120228D02*
X0327800Y0120228D01*
X0327661Y0120090D02*
X0303000Y0120090D01*
X0303000Y0118491D02*
X0326063Y0118491D01*
X0324464Y0116893D02*
X0303000Y0116893D01*
X0303000Y0115294D02*
X0322866Y0115294D01*
X0321267Y0113696D02*
X0303000Y0113696D01*
X0303000Y0112097D02*
X0319669Y0112097D01*
X0318070Y0110499D02*
X0303000Y0110499D01*
X0303000Y0108900D02*
X0316472Y0108900D01*
X0314873Y0107302D02*
X0303000Y0107302D01*
X0303000Y0105703D02*
X0313275Y0105703D01*
X0311676Y0104105D02*
X0303000Y0104105D01*
X0303000Y0102506D02*
X0310078Y0102506D01*
X0308479Y0100908D02*
X0303000Y0100908D01*
X0303000Y0099309D02*
X0306881Y0099309D01*
X0305282Y0097711D02*
X0304271Y0097711D01*
X0323732Y0105703D02*
X0328391Y0105703D01*
X0327442Y0107302D02*
X0327245Y0107302D01*
X0344614Y0118491D02*
X0345400Y0118491D01*
X0345400Y0126484D02*
X0344963Y0126484D01*
X0387200Y0142469D02*
X0392701Y0142469D01*
X0392701Y0144068D02*
X0387200Y0144068D01*
X0387200Y0145666D02*
X0392701Y0145666D01*
X0392701Y0147265D02*
X0387127Y0147265D01*
X0387200Y0148863D02*
X0392701Y0148863D01*
X0392701Y0150462D02*
X0387200Y0150462D01*
X0386923Y0152060D02*
X0392701Y0152060D01*
X0392701Y0153659D02*
X0387200Y0153659D01*
X0387685Y0155257D02*
X0392701Y0155257D01*
X0392701Y0156856D02*
X0391547Y0156856D01*
X0392505Y0158454D02*
X0392701Y0158454D01*
X0392701Y0160053D02*
X0392600Y0160053D01*
X0392701Y0161651D02*
X0391840Y0161651D01*
X0392701Y0163250D02*
X0390878Y0163250D01*
X0392477Y0164848D02*
X0392701Y0164848D01*
X0367800Y0189400D02*
X0358628Y0189400D01*
X0347800Y0200228D01*
X0346628Y0201400D01*
X0345785Y0201400D01*
X0346400Y0202885D01*
X0346400Y0210715D01*
X0345700Y0212406D01*
X0345505Y0212600D01*
X0348095Y0212600D01*
X0347900Y0212406D01*
X0347200Y0210715D01*
X0347200Y0202885D01*
X0347900Y0201194D01*
X0349194Y0199900D01*
X0350885Y0199200D01*
X0352715Y0199200D01*
X0354406Y0199900D01*
X0355700Y0201194D01*
X0356400Y0202885D01*
X0356400Y0209172D01*
X0364019Y0201553D01*
X0363539Y0201553D01*
X0363539Y0197280D01*
X0362580Y0197280D01*
X0362580Y0201553D01*
X0360264Y0201553D01*
X0359806Y0201430D01*
X0359396Y0201193D01*
X0359060Y0200858D01*
X0358823Y0200448D01*
X0358701Y0199990D01*
X0358701Y0197280D01*
X0362580Y0197280D01*
X0362580Y0196320D01*
X0363539Y0196320D01*
X0363539Y0192047D01*
X0365856Y0192047D01*
X0366314Y0192170D01*
X0366724Y0192407D01*
X0366941Y0192624D01*
X0367318Y0192247D01*
X0367800Y0192247D01*
X0367800Y0189400D01*
X0367800Y0190424D02*
X0357604Y0190424D01*
X0356006Y0192023D02*
X0367800Y0192023D01*
X0363539Y0193621D02*
X0362580Y0193621D01*
X0362580Y0192047D02*
X0362580Y0196320D01*
X0358701Y0196320D01*
X0358701Y0193610D01*
X0358823Y0193152D01*
X0359060Y0192742D01*
X0359396Y0192407D01*
X0359806Y0192170D01*
X0360264Y0192047D01*
X0362580Y0192047D01*
X0362580Y0195220D02*
X0363539Y0195220D01*
X0362580Y0196818D02*
X0351210Y0196818D01*
X0352809Y0195220D02*
X0358701Y0195220D01*
X0358701Y0193621D02*
X0354407Y0193621D01*
X0354521Y0200015D02*
X0358708Y0200015D01*
X0358701Y0198417D02*
X0349612Y0198417D01*
X0349079Y0200015D02*
X0348013Y0200015D01*
X0347726Y0201614D02*
X0345873Y0201614D01*
X0346400Y0203212D02*
X0347200Y0203212D01*
X0347200Y0204811D02*
X0346400Y0204811D01*
X0346400Y0206409D02*
X0347200Y0206409D01*
X0347200Y0208008D02*
X0346400Y0208008D01*
X0346400Y0209606D02*
X0347200Y0209606D01*
X0347403Y0211205D02*
X0346197Y0211205D01*
X0356400Y0208008D02*
X0357564Y0208008D01*
X0356400Y0206409D02*
X0359162Y0206409D01*
X0360761Y0204811D02*
X0356400Y0204811D01*
X0356400Y0203212D02*
X0362359Y0203212D01*
X0363958Y0201614D02*
X0355873Y0201614D01*
X0362580Y0200015D02*
X0363539Y0200015D01*
X0363539Y0198417D02*
X0362580Y0198417D01*
X0372400Y0203000D02*
X0372600Y0203484D01*
X0372600Y0204916D01*
X0372052Y0206239D01*
X0371039Y0207252D01*
X0369716Y0207800D01*
X0368284Y0207800D01*
X0368245Y0207784D01*
X0357828Y0218200D01*
X0320400Y0218200D01*
X0320600Y0218684D01*
X0320600Y0220116D01*
X0320052Y0221439D01*
X0319039Y0222452D01*
X0317716Y0223000D01*
X0316284Y0223000D01*
X0314961Y0222452D01*
X0313948Y0221439D01*
X0313600Y0220600D01*
X0285200Y0220600D01*
X0285400Y0221084D01*
X0285400Y0222516D01*
X0285384Y0222555D01*
X0291428Y0228600D01*
X0333932Y0228600D01*
X0333948Y0228561D01*
X0334961Y0227548D01*
X0336284Y0227000D01*
X0337716Y0227000D01*
X0339039Y0227548D01*
X0340052Y0228561D01*
X0340373Y0229336D01*
X0341361Y0228348D01*
X0342684Y0227800D01*
X0344116Y0227800D01*
X0345439Y0228348D01*
X0346452Y0229361D01*
X0347000Y0230684D01*
X0347000Y0232116D01*
X0346452Y0233439D01*
X0345439Y0234452D01*
X0344116Y0235000D01*
X0342684Y0235000D01*
X0342645Y0234984D01*
X0340189Y0237439D01*
X0340284Y0237400D01*
X0341716Y0237400D01*
X0343039Y0237948D01*
X0344052Y0238961D01*
X0344333Y0239639D01*
X0387000Y0196972D01*
X0387000Y0191463D01*
X0386263Y0192200D01*
X0382228Y0192200D01*
X0381384Y0193045D01*
X0381400Y0193084D01*
X0381400Y0194516D01*
X0380852Y0195839D01*
X0379839Y0196852D01*
X0378516Y0197400D01*
X0377084Y0197400D01*
X0376600Y0197200D01*
X0376600Y0201028D01*
X0375428Y0202200D01*
X0374628Y0203000D01*
X0372400Y0203000D01*
X0372488Y0203212D02*
X0380759Y0203212D01*
X0382358Y0201614D02*
X0376014Y0201614D01*
X0376600Y0200015D02*
X0383956Y0200015D01*
X0385555Y0198417D02*
X0376600Y0198417D01*
X0379873Y0196818D02*
X0387000Y0196818D01*
X0387000Y0195220D02*
X0381108Y0195220D01*
X0381400Y0193621D02*
X0387000Y0193621D01*
X0387000Y0192023D02*
X0386440Y0192023D01*
X0392701Y0199328D02*
X0325360Y0266669D01*
X0325652Y0266961D01*
X0326200Y0268284D01*
X0326200Y0269716D01*
X0325652Y0271039D01*
X0324639Y0272052D01*
X0323316Y0272600D01*
X0321884Y0272600D01*
X0320561Y0272052D01*
X0319548Y0271039D01*
X0319267Y0270361D01*
X0276600Y0313028D01*
X0276600Y0313028D01*
X0275668Y0313961D01*
X0392701Y0313961D01*
X0392701Y0199328D01*
X0392701Y0200015D02*
X0392013Y0200015D01*
X0392701Y0201614D02*
X0390414Y0201614D01*
X0388816Y0203212D02*
X0392701Y0203212D01*
X0392701Y0204811D02*
X0387217Y0204811D01*
X0385619Y0206409D02*
X0392701Y0206409D01*
X0392701Y0208008D02*
X0384020Y0208008D01*
X0382422Y0209606D02*
X0392701Y0209606D01*
X0392701Y0211205D02*
X0380823Y0211205D01*
X0379225Y0212803D02*
X0392701Y0212803D01*
X0392701Y0214402D02*
X0377626Y0214402D01*
X0376028Y0216001D02*
X0392701Y0216001D01*
X0392701Y0217599D02*
X0374429Y0217599D01*
X0372831Y0219198D02*
X0392701Y0219198D01*
X0392701Y0220796D02*
X0371232Y0220796D01*
X0369634Y0222395D02*
X0392701Y0222395D01*
X0392701Y0223993D02*
X0368035Y0223993D01*
X0366437Y0225592D02*
X0392701Y0225592D01*
X0392701Y0227190D02*
X0364838Y0227190D01*
X0363240Y0228789D02*
X0392701Y0228789D01*
X0392701Y0230387D02*
X0361641Y0230387D01*
X0360043Y0231986D02*
X0392701Y0231986D01*
X0392701Y0233584D02*
X0358444Y0233584D01*
X0356846Y0235183D02*
X0392701Y0235183D01*
X0392701Y0236781D02*
X0355247Y0236781D01*
X0353649Y0238380D02*
X0392701Y0238380D01*
X0392701Y0239978D02*
X0352050Y0239978D01*
X0350452Y0241577D02*
X0392701Y0241577D01*
X0392701Y0243175D02*
X0348853Y0243175D01*
X0347255Y0244774D02*
X0392701Y0244774D01*
X0392701Y0246372D02*
X0345656Y0246372D01*
X0344058Y0247971D02*
X0392701Y0247971D01*
X0392701Y0249569D02*
X0342459Y0249569D01*
X0340861Y0251168D02*
X0392701Y0251168D01*
X0392701Y0252766D02*
X0339262Y0252766D01*
X0337664Y0254365D02*
X0392701Y0254365D01*
X0392701Y0255963D02*
X0336065Y0255963D01*
X0334467Y0257562D02*
X0392701Y0257562D01*
X0392701Y0259160D02*
X0332868Y0259160D01*
X0331270Y0260759D02*
X0392701Y0260759D01*
X0392701Y0262357D02*
X0329671Y0262357D01*
X0328073Y0263956D02*
X0392701Y0263956D01*
X0392701Y0265554D02*
X0326474Y0265554D01*
X0325731Y0267153D02*
X0392701Y0267153D01*
X0392701Y0268751D02*
X0326200Y0268751D01*
X0325937Y0270350D02*
X0392701Y0270350D01*
X0392701Y0271948D02*
X0324743Y0271948D01*
X0320457Y0271948D02*
X0317680Y0271948D01*
X0316081Y0273547D02*
X0392701Y0273547D01*
X0392701Y0275145D02*
X0314483Y0275145D01*
X0312884Y0276744D02*
X0392701Y0276744D01*
X0392701Y0278342D02*
X0311286Y0278342D01*
X0309687Y0279941D02*
X0392701Y0279941D01*
X0392701Y0281539D02*
X0308089Y0281539D01*
X0306490Y0283138D02*
X0392701Y0283138D01*
X0392701Y0284737D02*
X0304892Y0284737D01*
X0303293Y0286335D02*
X0392701Y0286335D01*
X0392701Y0287934D02*
X0301695Y0287934D01*
X0300096Y0289532D02*
X0392701Y0289532D01*
X0392701Y0291131D02*
X0298498Y0291131D01*
X0296899Y0292729D02*
X0392701Y0292729D01*
X0392701Y0294328D02*
X0353023Y0294328D01*
X0352715Y0294200D02*
X0354406Y0294900D01*
X0355700Y0296194D01*
X0356400Y0297885D01*
X0356400Y0305715D01*
X0355700Y0307406D01*
X0354406Y0308700D01*
X0352715Y0309400D01*
X0350885Y0309400D01*
X0349194Y0308700D01*
X0347900Y0307406D01*
X0347200Y0305715D01*
X0347200Y0297885D01*
X0347900Y0296194D01*
X0349194Y0294900D01*
X0350885Y0294200D01*
X0352715Y0294200D01*
X0350577Y0294328D02*
X0343023Y0294328D01*
X0342715Y0294200D02*
X0344406Y0294900D01*
X0345700Y0296194D01*
X0346400Y0297885D01*
X0346400Y0305715D01*
X0345700Y0307406D01*
X0344406Y0308700D01*
X0342715Y0309400D01*
X0340885Y0309400D01*
X0339194Y0308700D01*
X0337900Y0307406D01*
X0337200Y0305715D01*
X0337200Y0297885D01*
X0337900Y0296194D01*
X0339194Y0294900D01*
X0340885Y0294200D01*
X0342715Y0294200D01*
X0340577Y0294328D02*
X0333023Y0294328D01*
X0332715Y0294200D02*
X0334406Y0294900D01*
X0335700Y0296194D01*
X0336400Y0297885D01*
X0336400Y0305715D01*
X0335700Y0307406D01*
X0334406Y0308700D01*
X0332715Y0309400D01*
X0330885Y0309400D01*
X0329194Y0308700D01*
X0327900Y0307406D01*
X0327200Y0305715D01*
X0327200Y0297885D01*
X0327900Y0296194D01*
X0329194Y0294900D01*
X0330885Y0294200D01*
X0332715Y0294200D01*
X0330577Y0294328D02*
X0295301Y0294328D01*
X0293702Y0295926D02*
X0328169Y0295926D01*
X0327349Y0297525D02*
X0292104Y0297525D01*
X0290505Y0299123D02*
X0327200Y0299123D01*
X0327200Y0300722D02*
X0288907Y0300722D01*
X0287308Y0302320D02*
X0327200Y0302320D01*
X0327200Y0303919D02*
X0285710Y0303919D01*
X0284111Y0305517D02*
X0327200Y0305517D01*
X0327780Y0307116D02*
X0282513Y0307116D01*
X0280914Y0308714D02*
X0329229Y0308714D01*
X0334371Y0308714D02*
X0339229Y0308714D01*
X0337780Y0307116D02*
X0335820Y0307116D01*
X0336400Y0305517D02*
X0337200Y0305517D01*
X0337200Y0303919D02*
X0336400Y0303919D01*
X0336400Y0302320D02*
X0337200Y0302320D01*
X0337200Y0300722D02*
X0336400Y0300722D01*
X0336400Y0299123D02*
X0337200Y0299123D01*
X0337349Y0297525D02*
X0336251Y0297525D01*
X0335431Y0295926D02*
X0338169Y0295926D01*
X0345431Y0295926D02*
X0348169Y0295926D01*
X0347349Y0297525D02*
X0346251Y0297525D01*
X0346400Y0299123D02*
X0347200Y0299123D01*
X0347200Y0300722D02*
X0346400Y0300722D01*
X0346400Y0302320D02*
X0347200Y0302320D01*
X0347200Y0303919D02*
X0346400Y0303919D01*
X0346400Y0305517D02*
X0347200Y0305517D01*
X0347780Y0307116D02*
X0345820Y0307116D01*
X0344371Y0308714D02*
X0349229Y0308714D01*
X0354371Y0308714D02*
X0392701Y0308714D01*
X0392701Y0307116D02*
X0355820Y0307116D01*
X0356400Y0305517D02*
X0392701Y0305517D01*
X0392701Y0303919D02*
X0356400Y0303919D01*
X0356400Y0302320D02*
X0392701Y0302320D01*
X0392701Y0300722D02*
X0356400Y0300722D01*
X0356400Y0299123D02*
X0392701Y0299123D01*
X0392701Y0297525D02*
X0356251Y0297525D01*
X0355431Y0295926D02*
X0392701Y0295926D01*
X0392701Y0310313D02*
X0279316Y0310313D01*
X0277717Y0311911D02*
X0392701Y0311911D01*
X0392701Y0313510D02*
X0276119Y0313510D01*
X0269772Y0307000D02*
X0330572Y0246200D01*
X0301028Y0246200D01*
X0261828Y0285400D01*
X0263532Y0285400D01*
X0263548Y0285361D01*
X0264561Y0284348D01*
X0265884Y0283800D01*
X0267316Y0283800D01*
X0268639Y0284348D01*
X0269652Y0285361D01*
X0270200Y0286684D01*
X0270200Y0288116D01*
X0269652Y0289439D01*
X0268639Y0290452D01*
X0267316Y0291000D01*
X0265884Y0291000D01*
X0264561Y0290452D01*
X0263548Y0289439D01*
X0263532Y0289400D01*
X0232400Y0289400D01*
X0232600Y0289884D01*
X0232600Y0291316D01*
X0232052Y0292639D01*
X0231039Y0293652D01*
X0229716Y0294200D01*
X0228284Y0294200D01*
X0226961Y0293652D01*
X0225948Y0292639D01*
X0225932Y0292600D01*
X0114628Y0292600D01*
X0132228Y0310200D01*
X0152800Y0310200D01*
X0152600Y0309716D01*
X0152600Y0309400D01*
X0150885Y0309400D01*
X0149194Y0308700D01*
X0147900Y0307406D01*
X0147200Y0305715D01*
X0147200Y0297885D01*
X0147900Y0296194D01*
X0149194Y0294900D01*
X0150885Y0294200D01*
X0152715Y0294200D01*
X0154406Y0294900D01*
X0155700Y0296194D01*
X0156400Y0297885D01*
X0156400Y0305400D01*
X0156916Y0305400D01*
X0157200Y0305518D01*
X0157200Y0297885D01*
X0157900Y0296194D01*
X0159194Y0294900D01*
X0160885Y0294200D01*
X0162715Y0294200D01*
X0164406Y0294900D01*
X0165700Y0296194D01*
X0166400Y0297885D01*
X0166400Y0305715D01*
X0165868Y0307000D01*
X0232732Y0307000D01*
X0232200Y0305715D01*
X0232200Y0297885D01*
X0232900Y0296194D01*
X0234194Y0294900D01*
X0235885Y0294200D01*
X0237715Y0294200D01*
X0239406Y0294900D01*
X0240700Y0296194D01*
X0241400Y0297885D01*
X0241400Y0305715D01*
X0240868Y0307000D01*
X0242732Y0307000D01*
X0242200Y0305715D01*
X0242200Y0297885D01*
X0242900Y0296194D01*
X0244194Y0294900D01*
X0245885Y0294200D01*
X0247715Y0294200D01*
X0249406Y0294900D01*
X0250700Y0296194D01*
X0251400Y0297885D01*
X0251400Y0305715D01*
X0250868Y0307000D01*
X0252732Y0307000D01*
X0252200Y0305715D01*
X0252200Y0297885D01*
X0252900Y0296194D01*
X0254194Y0294900D01*
X0255885Y0294200D01*
X0257715Y0294200D01*
X0259406Y0294900D01*
X0260700Y0296194D01*
X0261400Y0297885D01*
X0261400Y0305715D01*
X0260868Y0307000D01*
X0269772Y0307000D01*
X0271254Y0305517D02*
X0261400Y0305517D01*
X0261400Y0303919D02*
X0272853Y0303919D01*
X0274451Y0302320D02*
X0261400Y0302320D01*
X0261400Y0300722D02*
X0276050Y0300722D01*
X0277648Y0299123D02*
X0261400Y0299123D01*
X0261251Y0297525D02*
X0279247Y0297525D01*
X0280845Y0295926D02*
X0260431Y0295926D01*
X0258023Y0294328D02*
X0282444Y0294328D01*
X0284043Y0292729D02*
X0231962Y0292729D01*
X0232600Y0291131D02*
X0285641Y0291131D01*
X0287240Y0289532D02*
X0269559Y0289532D01*
X0270200Y0287934D02*
X0288838Y0287934D01*
X0290437Y0286335D02*
X0270055Y0286335D01*
X0269028Y0284737D02*
X0292035Y0284737D01*
X0293634Y0283138D02*
X0264090Y0283138D01*
X0264172Y0284737D02*
X0262492Y0284737D01*
X0259372Y0282200D02*
X0298200Y0243372D01*
X0298572Y0243000D01*
X0297884Y0243000D01*
X0296561Y0242452D01*
X0295548Y0241439D01*
X0295532Y0241400D01*
X0293772Y0241400D01*
X0285755Y0233384D01*
X0285716Y0233400D01*
X0284284Y0233400D01*
X0282961Y0232852D01*
X0281948Y0231839D01*
X0281400Y0230516D01*
X0281400Y0229084D01*
X0281948Y0227761D01*
X0282961Y0226748D01*
X0283639Y0226467D01*
X0282555Y0225384D01*
X0282516Y0225400D01*
X0281084Y0225400D01*
X0279761Y0224852D01*
X0279469Y0224560D01*
X0279428Y0224600D01*
X0264228Y0239800D01*
X0263600Y0239800D01*
X0263800Y0240284D01*
X0263800Y0241716D01*
X0263252Y0243039D01*
X0262239Y0244052D01*
X0260916Y0244600D01*
X0259484Y0244600D01*
X0258161Y0244052D01*
X0257148Y0243039D01*
X0257132Y0243000D01*
X0229828Y0243000D01*
X0225561Y0247267D01*
X0226239Y0247548D01*
X0227252Y0248561D01*
X0227533Y0249239D01*
X0228616Y0248155D01*
X0228600Y0248116D01*
X0228600Y0246684D01*
X0229148Y0245361D01*
X0230161Y0244348D01*
X0231484Y0243800D01*
X0232916Y0243800D01*
X0234239Y0244348D01*
X0235252Y0245361D01*
X0235800Y0246684D01*
X0235800Y0248116D01*
X0235252Y0249439D01*
X0234239Y0250452D01*
X0232916Y0251000D01*
X0231484Y0251000D01*
X0231445Y0250984D01*
X0200228Y0282200D01*
X0259372Y0282200D01*
X0260032Y0281539D02*
X0200889Y0281539D01*
X0202487Y0279941D02*
X0261631Y0279941D01*
X0263229Y0278342D02*
X0204086Y0278342D01*
X0205684Y0276744D02*
X0264828Y0276744D01*
X0266426Y0275145D02*
X0207283Y0275145D01*
X0208881Y0273547D02*
X0268025Y0273547D01*
X0269623Y0271948D02*
X0210480Y0271948D01*
X0212079Y0270350D02*
X0271222Y0270350D01*
X0272820Y0268751D02*
X0213677Y0268751D01*
X0215276Y0267153D02*
X0274419Y0267153D01*
X0276017Y0265554D02*
X0216874Y0265554D01*
X0218473Y0263956D02*
X0277616Y0263956D01*
X0279214Y0262357D02*
X0220071Y0262357D01*
X0221670Y0260759D02*
X0280813Y0260759D01*
X0282411Y0259160D02*
X0223268Y0259160D01*
X0224867Y0257562D02*
X0284010Y0257562D01*
X0285608Y0255963D02*
X0226465Y0255963D01*
X0228064Y0254365D02*
X0287207Y0254365D01*
X0288805Y0252766D02*
X0229662Y0252766D01*
X0231261Y0251168D02*
X0290404Y0251168D01*
X0292002Y0249569D02*
X0235122Y0249569D01*
X0235800Y0247971D02*
X0293601Y0247971D01*
X0295199Y0246372D02*
X0235671Y0246372D01*
X0234665Y0244774D02*
X0296798Y0244774D01*
X0298396Y0243175D02*
X0263116Y0243175D01*
X0263800Y0241577D02*
X0295686Y0241577D01*
X0292350Y0239978D02*
X0263673Y0239978D01*
X0265649Y0238380D02*
X0290751Y0238380D01*
X0289153Y0236781D02*
X0267247Y0236781D01*
X0268846Y0235183D02*
X0287554Y0235183D01*
X0285956Y0233584D02*
X0270444Y0233584D01*
X0272043Y0231986D02*
X0282094Y0231986D01*
X0281400Y0230387D02*
X0273641Y0230387D01*
X0275240Y0228789D02*
X0281522Y0228789D01*
X0282519Y0227190D02*
X0276838Y0227190D01*
X0278437Y0225592D02*
X0282763Y0225592D01*
X0285400Y0222395D02*
X0314903Y0222395D01*
X0313682Y0220796D02*
X0285281Y0220796D01*
X0286821Y0223993D02*
X0359979Y0223993D01*
X0361577Y0222395D02*
X0319097Y0222395D01*
X0320318Y0220796D02*
X0363176Y0220796D01*
X0364774Y0219198D02*
X0320600Y0219198D01*
X0335825Y0227190D02*
X0290019Y0227190D01*
X0288420Y0225592D02*
X0358380Y0225592D01*
X0356781Y0227190D02*
X0338175Y0227190D01*
X0340146Y0228789D02*
X0340920Y0228789D01*
X0345880Y0228789D02*
X0355183Y0228789D01*
X0353584Y0230387D02*
X0346877Y0230387D01*
X0347000Y0231986D02*
X0351986Y0231986D01*
X0350387Y0233584D02*
X0346307Y0233584D01*
X0348789Y0235183D02*
X0342446Y0235183D01*
X0340847Y0236781D02*
X0347190Y0236781D01*
X0345592Y0238380D02*
X0343471Y0238380D01*
X0337811Y0234161D02*
X0337716Y0234200D01*
X0336284Y0234200D01*
X0334961Y0233652D01*
X0333948Y0232639D01*
X0333932Y0232600D01*
X0290628Y0232600D01*
X0295428Y0237400D01*
X0295532Y0237400D01*
X0295548Y0237361D01*
X0296561Y0236348D01*
X0297884Y0235800D01*
X0299316Y0235800D01*
X0300639Y0236348D01*
X0301652Y0237361D01*
X0302200Y0238684D01*
X0302200Y0240116D01*
X0301652Y0241439D01*
X0300891Y0242200D01*
X0329772Y0242200D01*
X0337811Y0234161D01*
X0336789Y0235183D02*
X0293211Y0235183D01*
X0294810Y0236781D02*
X0296128Y0236781D01*
X0301072Y0236781D02*
X0335190Y0236781D01*
X0333592Y0238380D02*
X0302074Y0238380D01*
X0302200Y0239978D02*
X0331993Y0239978D01*
X0330395Y0241577D02*
X0301514Y0241577D01*
X0300856Y0246372D02*
X0330399Y0246372D01*
X0328801Y0247971D02*
X0299258Y0247971D01*
X0297659Y0249569D02*
X0327202Y0249569D01*
X0325604Y0251168D02*
X0296061Y0251168D01*
X0294462Y0252766D02*
X0324005Y0252766D01*
X0322407Y0254365D02*
X0292864Y0254365D01*
X0291265Y0255963D02*
X0320808Y0255963D01*
X0319210Y0257562D02*
X0289667Y0257562D01*
X0288068Y0259160D02*
X0317611Y0259160D01*
X0316013Y0260759D02*
X0286470Y0260759D01*
X0284871Y0262357D02*
X0314414Y0262357D01*
X0312816Y0263956D02*
X0283273Y0263956D01*
X0281674Y0265554D02*
X0311217Y0265554D01*
X0309619Y0267153D02*
X0280076Y0267153D01*
X0278477Y0268751D02*
X0308020Y0268751D01*
X0306422Y0270350D02*
X0276879Y0270350D01*
X0275280Y0271948D02*
X0304823Y0271948D01*
X0303225Y0273547D02*
X0273681Y0273547D01*
X0272083Y0275145D02*
X0301626Y0275145D01*
X0300028Y0276744D02*
X0270484Y0276744D01*
X0268886Y0278342D02*
X0298429Y0278342D01*
X0296831Y0279941D02*
X0267287Y0279941D01*
X0265689Y0281539D02*
X0295232Y0281539D01*
X0263641Y0289532D02*
X0232454Y0289532D01*
X0235577Y0294328D02*
X0163023Y0294328D01*
X0160577Y0294328D02*
X0153023Y0294328D01*
X0150577Y0294328D02*
X0143023Y0294328D01*
X0142715Y0294200D02*
X0144406Y0294900D01*
X0145700Y0296194D01*
X0146400Y0297885D01*
X0146400Y0305715D01*
X0145700Y0307406D01*
X0144406Y0308700D01*
X0142715Y0309400D01*
X0140885Y0309400D01*
X0139194Y0308700D01*
X0137900Y0307406D01*
X0137200Y0305715D01*
X0137200Y0297885D01*
X0137900Y0296194D01*
X0139194Y0294900D01*
X0140885Y0294200D01*
X0142715Y0294200D01*
X0140577Y0294328D02*
X0116356Y0294328D01*
X0117954Y0295926D02*
X0138169Y0295926D01*
X0137349Y0297525D02*
X0119553Y0297525D01*
X0121152Y0299123D02*
X0137200Y0299123D01*
X0137200Y0300722D02*
X0122750Y0300722D01*
X0124349Y0302320D02*
X0137200Y0302320D01*
X0137200Y0303919D02*
X0125947Y0303919D01*
X0127546Y0305517D02*
X0137200Y0305517D01*
X0137780Y0307116D02*
X0129144Y0307116D01*
X0130743Y0308714D02*
X0139229Y0308714D01*
X0144371Y0308714D02*
X0149229Y0308714D01*
X0147780Y0307116D02*
X0145820Y0307116D01*
X0146400Y0305517D02*
X0147200Y0305517D01*
X0147200Y0303919D02*
X0146400Y0303919D01*
X0146400Y0302320D02*
X0147200Y0302320D01*
X0147200Y0300722D02*
X0146400Y0300722D01*
X0146400Y0299123D02*
X0147200Y0299123D01*
X0147349Y0297525D02*
X0146251Y0297525D01*
X0145431Y0295926D02*
X0148169Y0295926D01*
X0155431Y0295926D02*
X0158169Y0295926D01*
X0157349Y0297525D02*
X0156251Y0297525D01*
X0156400Y0299123D02*
X0157200Y0299123D01*
X0157200Y0300722D02*
X0156400Y0300722D01*
X0156400Y0302320D02*
X0157200Y0302320D01*
X0157200Y0303919D02*
X0156400Y0303919D01*
X0157199Y0305517D02*
X0157200Y0305517D01*
X0166400Y0305517D02*
X0232200Y0305517D01*
X0232200Y0303919D02*
X0166400Y0303919D01*
X0166400Y0302320D02*
X0232200Y0302320D01*
X0232200Y0300722D02*
X0166400Y0300722D01*
X0166400Y0299123D02*
X0232200Y0299123D01*
X0232349Y0297525D02*
X0166251Y0297525D01*
X0165431Y0295926D02*
X0233169Y0295926D01*
X0238023Y0294328D02*
X0245577Y0294328D01*
X0248023Y0294328D02*
X0255577Y0294328D01*
X0253169Y0295926D02*
X0250431Y0295926D01*
X0251251Y0297525D02*
X0252349Y0297525D01*
X0252200Y0299123D02*
X0251400Y0299123D01*
X0251400Y0300722D02*
X0252200Y0300722D01*
X0252200Y0302320D02*
X0251400Y0302320D01*
X0251400Y0303919D02*
X0252200Y0303919D01*
X0252200Y0305517D02*
X0251400Y0305517D01*
X0242200Y0305517D02*
X0241400Y0305517D01*
X0241400Y0303919D02*
X0242200Y0303919D01*
X0242200Y0302320D02*
X0241400Y0302320D01*
X0241400Y0300722D02*
X0242200Y0300722D01*
X0242200Y0299123D02*
X0241400Y0299123D01*
X0241251Y0297525D02*
X0242349Y0297525D01*
X0243169Y0295926D02*
X0240431Y0295926D01*
X0226038Y0292729D02*
X0114757Y0292729D01*
X0112298Y0295926D02*
X0075431Y0295926D01*
X0075700Y0296194D02*
X0076400Y0297885D01*
X0076400Y0305715D01*
X0075700Y0307406D01*
X0074406Y0308700D01*
X0072715Y0309400D01*
X0070885Y0309400D01*
X0069194Y0308700D01*
X0067900Y0307406D01*
X0067200Y0305715D01*
X0067200Y0297885D01*
X0067900Y0296194D01*
X0069194Y0294900D01*
X0070885Y0294200D01*
X0072715Y0294200D01*
X0074406Y0294900D01*
X0075700Y0296194D01*
X0076251Y0297525D02*
X0113896Y0297525D01*
X0115495Y0299123D02*
X0076400Y0299123D01*
X0076400Y0300722D02*
X0117093Y0300722D01*
X0118692Y0302320D02*
X0076400Y0302320D01*
X0076400Y0303919D02*
X0120290Y0303919D01*
X0121889Y0305517D02*
X0076400Y0305517D01*
X0075820Y0307116D02*
X0123487Y0307116D01*
X0125086Y0308714D02*
X0074371Y0308714D01*
X0069229Y0308714D02*
X0064371Y0308714D01*
X0064406Y0308700D02*
X0062715Y0309400D01*
X0060885Y0309400D01*
X0059194Y0308700D01*
X0057900Y0307406D01*
X0057200Y0305715D01*
X0057200Y0297885D01*
X0057900Y0296194D01*
X0059194Y0294900D01*
X0060885Y0294200D01*
X0062715Y0294200D01*
X0064406Y0294900D01*
X0065700Y0296194D01*
X0066400Y0297885D01*
X0066400Y0305715D01*
X0065700Y0307406D01*
X0064406Y0308700D01*
X0065820Y0307116D02*
X0067780Y0307116D01*
X0067200Y0305517D02*
X0066400Y0305517D01*
X0066400Y0303919D02*
X0067200Y0303919D01*
X0067200Y0302320D02*
X0066400Y0302320D01*
X0066400Y0300722D02*
X0067200Y0300722D01*
X0067200Y0299123D02*
X0066400Y0299123D01*
X0066251Y0297525D02*
X0067349Y0297525D01*
X0068169Y0295926D02*
X0065431Y0295926D01*
X0063023Y0294328D02*
X0070577Y0294328D01*
X0073023Y0294328D02*
X0110699Y0294328D01*
X0109101Y0292729D02*
X0004600Y0292729D01*
X0004600Y0291131D02*
X0107502Y0291131D01*
X0105904Y0289532D02*
X0004600Y0289532D01*
X0004600Y0287934D02*
X0104305Y0287934D01*
X0102707Y0286335D02*
X0004600Y0286335D01*
X0004600Y0284737D02*
X0101108Y0284737D01*
X0099510Y0283138D02*
X0004600Y0283138D01*
X0004600Y0281539D02*
X0097911Y0281539D01*
X0096313Y0279941D02*
X0004600Y0279941D01*
X0004600Y0278342D02*
X0094714Y0278342D01*
X0093116Y0276744D02*
X0004600Y0276744D01*
X0004600Y0275145D02*
X0091517Y0275145D01*
X0089919Y0273547D02*
X0004600Y0273547D01*
X0004600Y0271948D02*
X0088320Y0271948D01*
X0086721Y0270350D02*
X0004600Y0270350D01*
X0004600Y0268751D02*
X0085123Y0268751D01*
X0083524Y0267153D02*
X0004600Y0267153D01*
X0004600Y0265554D02*
X0081926Y0265554D01*
X0080327Y0263956D02*
X0004600Y0263956D01*
X0004600Y0262357D02*
X0078729Y0262357D01*
X0077130Y0260759D02*
X0004600Y0260759D01*
X0004600Y0259160D02*
X0075532Y0259160D01*
X0087601Y0246372D02*
X0158660Y0246372D01*
X0158748Y0246161D02*
X0159509Y0245400D01*
X0112172Y0245400D01*
X0078572Y0211800D01*
X0077400Y0210628D01*
X0077400Y0203268D01*
X0077361Y0203252D01*
X0076348Y0202239D01*
X0076000Y0201400D01*
X0075785Y0201400D01*
X0076400Y0202885D01*
X0076400Y0210715D01*
X0075700Y0212406D01*
X0074406Y0213700D01*
X0072715Y0214400D01*
X0070885Y0214400D01*
X0069194Y0213700D01*
X0067900Y0212406D01*
X0067200Y0210715D01*
X0067200Y0202885D01*
X0067815Y0201400D01*
X0065785Y0201400D01*
X0066400Y0202885D01*
X0066400Y0210715D01*
X0065700Y0212406D01*
X0064406Y0213700D01*
X0062715Y0214400D01*
X0060885Y0214400D01*
X0059194Y0213700D01*
X0057900Y0212406D01*
X0057200Y0210715D01*
X0057200Y0202885D01*
X0057815Y0201400D01*
X0055785Y0201400D01*
X0056400Y0202885D01*
X0056400Y0210715D01*
X0055700Y0212406D01*
X0054406Y0213700D01*
X0052715Y0214400D01*
X0050885Y0214400D01*
X0049194Y0213700D01*
X0047900Y0212406D01*
X0047200Y0210715D01*
X0047200Y0203000D01*
X0034628Y0203000D01*
X0054628Y0223000D01*
X0074732Y0223000D01*
X0074748Y0222961D01*
X0075761Y0221948D01*
X0077084Y0221400D01*
X0078516Y0221400D01*
X0079839Y0221948D01*
X0080852Y0222961D01*
X0081400Y0224284D01*
X0081400Y0225716D01*
X0080852Y0227039D01*
X0079839Y0228052D01*
X0078516Y0228600D01*
X0077084Y0228600D01*
X0075761Y0228052D01*
X0074748Y0227039D01*
X0074732Y0227000D01*
X0053828Y0227000D01*
X0056867Y0230039D01*
X0057148Y0229361D01*
X0058161Y0228348D01*
X0059484Y0227800D01*
X0060916Y0227800D01*
X0062239Y0228348D01*
X0062600Y0228709D01*
X0062961Y0228348D01*
X0064284Y0227800D01*
X0065716Y0227800D01*
X0067039Y0228348D01*
X0067400Y0228709D01*
X0067761Y0228348D01*
X0069084Y0227800D01*
X0070516Y0227800D01*
X0071839Y0228348D01*
X0072852Y0229361D01*
X0073400Y0230684D01*
X0073400Y0232116D01*
X0073384Y0232155D01*
X0120228Y0279000D01*
X0152800Y0279000D01*
X0152600Y0278516D01*
X0152600Y0277084D01*
X0153148Y0275761D01*
X0154161Y0274748D01*
X0155484Y0274200D01*
X0156916Y0274200D01*
X0158239Y0274748D01*
X0159252Y0275761D01*
X0159268Y0275800D01*
X0174732Y0275800D01*
X0174200Y0274516D01*
X0174200Y0273084D01*
X0174748Y0271761D01*
X0175761Y0270748D01*
X0177084Y0270200D01*
X0178516Y0270200D01*
X0179839Y0270748D01*
X0180852Y0271761D01*
X0180868Y0271800D01*
X0192972Y0271800D01*
X0204172Y0260600D01*
X0195268Y0260600D01*
X0195252Y0260639D01*
X0194239Y0261652D01*
X0192916Y0262200D01*
X0191484Y0262200D01*
X0190161Y0261652D01*
X0189148Y0260639D01*
X0188867Y0259961D01*
X0184228Y0264600D01*
X0174468Y0264600D01*
X0174452Y0264639D01*
X0173439Y0265652D01*
X0172116Y0266200D01*
X0170684Y0266200D01*
X0169361Y0265652D01*
X0168348Y0264639D01*
X0167800Y0263316D01*
X0167800Y0261884D01*
X0168348Y0260561D01*
X0169361Y0259548D01*
X0170684Y0259000D01*
X0172116Y0259000D01*
X0173439Y0259548D01*
X0174336Y0260445D01*
X0174200Y0260116D01*
X0174200Y0258684D01*
X0174748Y0257361D01*
X0175761Y0256348D01*
X0177084Y0255800D01*
X0178516Y0255800D01*
X0178555Y0255816D01*
X0187800Y0246572D01*
X0187800Y0243268D01*
X0187761Y0243252D01*
X0186748Y0242239D01*
X0186233Y0240995D01*
X0183000Y0244228D01*
X0181828Y0245400D01*
X0164091Y0245400D01*
X0164852Y0246161D01*
X0165400Y0247484D01*
X0165400Y0248916D01*
X0164852Y0250239D01*
X0163839Y0251252D01*
X0163800Y0251268D01*
X0163800Y0265132D01*
X0163839Y0265148D01*
X0164852Y0266161D01*
X0165400Y0267484D01*
X0165400Y0268916D01*
X0164852Y0270239D01*
X0163839Y0271252D01*
X0162516Y0271800D01*
X0161084Y0271800D01*
X0159761Y0271252D01*
X0158748Y0270239D01*
X0158200Y0268916D01*
X0158200Y0267484D01*
X0158748Y0266161D01*
X0159761Y0265148D01*
X0159800Y0265132D01*
X0159800Y0251268D01*
X0159761Y0251252D01*
X0158748Y0250239D01*
X0158200Y0248916D01*
X0158200Y0247484D01*
X0158748Y0246161D01*
X0158200Y0247971D02*
X0089199Y0247971D01*
X0090798Y0249569D02*
X0158471Y0249569D01*
X0159677Y0251168D02*
X0092396Y0251168D01*
X0093995Y0252766D02*
X0159800Y0252766D01*
X0159800Y0254365D02*
X0095593Y0254365D01*
X0097192Y0255963D02*
X0159800Y0255963D01*
X0159800Y0257562D02*
X0098790Y0257562D01*
X0100389Y0259160D02*
X0159800Y0259160D01*
X0159800Y0260759D02*
X0101987Y0260759D01*
X0103586Y0262357D02*
X0159800Y0262357D01*
X0159800Y0263956D02*
X0105184Y0263956D01*
X0106783Y0265554D02*
X0159354Y0265554D01*
X0158337Y0267153D02*
X0108381Y0267153D01*
X0109980Y0268751D02*
X0158200Y0268751D01*
X0158859Y0270350D02*
X0111578Y0270350D01*
X0113177Y0271948D02*
X0174670Y0271948D01*
X0174200Y0273547D02*
X0114775Y0273547D01*
X0116374Y0275145D02*
X0153763Y0275145D01*
X0152741Y0276744D02*
X0117972Y0276744D01*
X0119571Y0278342D02*
X0152600Y0278342D01*
X0158637Y0275145D02*
X0174461Y0275145D01*
X0176722Y0270350D02*
X0164741Y0270350D01*
X0165400Y0268751D02*
X0196020Y0268751D01*
X0197619Y0267153D02*
X0165263Y0267153D01*
X0164246Y0265554D02*
X0169263Y0265554D01*
X0168065Y0263956D02*
X0163800Y0263956D01*
X0163800Y0262357D02*
X0167800Y0262357D01*
X0168266Y0260759D02*
X0163800Y0260759D01*
X0163800Y0259160D02*
X0170297Y0259160D01*
X0172503Y0259160D02*
X0174200Y0259160D01*
X0174665Y0257562D02*
X0163800Y0257562D01*
X0163800Y0255963D02*
X0176690Y0255963D01*
X0180007Y0254365D02*
X0163800Y0254365D01*
X0163800Y0252766D02*
X0181605Y0252766D01*
X0183204Y0251168D02*
X0163923Y0251168D01*
X0165129Y0249569D02*
X0184802Y0249569D01*
X0186401Y0247971D02*
X0165400Y0247971D01*
X0164940Y0246372D02*
X0187800Y0246372D01*
X0187800Y0244774D02*
X0182455Y0244774D01*
X0184053Y0243175D02*
X0187684Y0243175D01*
X0186474Y0241577D02*
X0185652Y0241577D01*
X0182733Y0238839D02*
X0187372Y0234200D01*
X0254572Y0234200D01*
X0267372Y0221400D01*
X0205668Y0221400D01*
X0205652Y0221439D01*
X0204639Y0222452D01*
X0203316Y0223000D01*
X0201884Y0223000D01*
X0200561Y0222452D01*
X0199548Y0221439D01*
X0199000Y0220116D01*
X0199000Y0218684D01*
X0199039Y0218589D01*
X0180761Y0236867D01*
X0181439Y0237148D01*
X0182452Y0238161D01*
X0182733Y0238839D01*
X0182543Y0238380D02*
X0183192Y0238380D01*
X0184790Y0236781D02*
X0180847Y0236781D01*
X0182446Y0235183D02*
X0186389Y0235183D01*
X0184044Y0233584D02*
X0255187Y0233584D01*
X0256786Y0231986D02*
X0185643Y0231986D01*
X0187241Y0230387D02*
X0258384Y0230387D01*
X0259983Y0228789D02*
X0188840Y0228789D01*
X0190438Y0227190D02*
X0261581Y0227190D01*
X0263180Y0225592D02*
X0192037Y0225592D01*
X0193635Y0223993D02*
X0264778Y0223993D01*
X0266377Y0222395D02*
X0204697Y0222395D01*
X0200503Y0222395D02*
X0195234Y0222395D01*
X0196832Y0220796D02*
X0199282Y0220796D01*
X0199000Y0219198D02*
X0198431Y0219198D01*
X0195372Y0216600D02*
X0145828Y0216600D01*
X0127961Y0234467D01*
X0128639Y0234748D01*
X0129652Y0235761D01*
X0129668Y0235800D01*
X0176172Y0235800D01*
X0195372Y0216600D01*
X0194373Y0217599D02*
X0144829Y0217599D01*
X0143231Y0219198D02*
X0192774Y0219198D01*
X0191176Y0220796D02*
X0141632Y0220796D01*
X0140034Y0222395D02*
X0189577Y0222395D01*
X0187978Y0223993D02*
X0138435Y0223993D01*
X0136837Y0225592D02*
X0186380Y0225592D01*
X0184781Y0227190D02*
X0135238Y0227190D01*
X0133640Y0228789D02*
X0183183Y0228789D01*
X0181584Y0230387D02*
X0132041Y0230387D01*
X0130443Y0231986D02*
X0179986Y0231986D01*
X0178387Y0233584D02*
X0128844Y0233584D01*
X0129074Y0235183D02*
X0176789Y0235183D01*
X0165505Y0212600D02*
X0201772Y0212600D01*
X0206572Y0207800D01*
X0189400Y0207800D01*
X0189400Y0208116D01*
X0188852Y0209439D01*
X0187839Y0210452D01*
X0186516Y0211000D01*
X0185084Y0211000D01*
X0183761Y0210452D01*
X0182748Y0209439D01*
X0182200Y0208116D01*
X0182200Y0207800D01*
X0173772Y0207800D01*
X0172600Y0206628D01*
X0164972Y0199000D01*
X0109699Y0199000D01*
X0109699Y0200415D01*
X0108762Y0201353D01*
X0104276Y0201353D01*
X0102628Y0203000D01*
X0090572Y0203000D01*
X0089400Y0201828D01*
X0086572Y0199000D01*
X0082800Y0199000D01*
X0083000Y0199484D01*
X0083000Y0200916D01*
X0082452Y0202239D01*
X0081439Y0203252D01*
X0081400Y0203268D01*
X0081400Y0208972D01*
X0100867Y0228439D01*
X0101148Y0227761D01*
X0102161Y0226748D01*
X0103484Y0226200D01*
X0104916Y0226200D01*
X0106239Y0226748D01*
X0107252Y0227761D01*
X0107268Y0227800D01*
X0109828Y0227800D01*
X0118467Y0236439D01*
X0118748Y0235761D01*
X0119761Y0234748D01*
X0121084Y0234200D01*
X0122516Y0234200D01*
X0122555Y0234216D01*
X0142372Y0214400D01*
X0140885Y0214400D01*
X0139194Y0213700D01*
X0137900Y0212406D01*
X0137200Y0210715D01*
X0137200Y0202885D01*
X0137900Y0201194D01*
X0139194Y0199900D01*
X0140885Y0199200D01*
X0142715Y0199200D01*
X0144406Y0199900D01*
X0145700Y0201194D01*
X0146400Y0202885D01*
X0146400Y0210715D01*
X0145700Y0212406D01*
X0145505Y0212600D01*
X0148095Y0212600D01*
X0147900Y0212406D01*
X0147200Y0210715D01*
X0147200Y0202885D01*
X0147900Y0201194D01*
X0149194Y0199900D01*
X0150885Y0199200D01*
X0152715Y0199200D01*
X0154406Y0199900D01*
X0155700Y0201194D01*
X0156400Y0202885D01*
X0156400Y0210715D01*
X0155700Y0212406D01*
X0155505Y0212600D01*
X0158095Y0212600D01*
X0157900Y0212406D01*
X0157200Y0210715D01*
X0157200Y0202885D01*
X0157900Y0201194D01*
X0159194Y0199900D01*
X0160885Y0199200D01*
X0162715Y0199200D01*
X0164406Y0199900D01*
X0165700Y0201194D01*
X0166400Y0202885D01*
X0166400Y0210715D01*
X0165700Y0212406D01*
X0165505Y0212600D01*
X0166197Y0211205D02*
X0203167Y0211205D01*
X0204765Y0209606D02*
X0188685Y0209606D01*
X0189400Y0208008D02*
X0206364Y0208008D01*
X0214060Y0200858D02*
X0213823Y0200448D01*
X0213701Y0199990D01*
X0213701Y0197280D01*
X0217580Y0197280D01*
X0217580Y0201553D01*
X0215264Y0201553D01*
X0214806Y0201430D01*
X0214396Y0201193D01*
X0214060Y0200858D01*
X0213708Y0200015D02*
X0189289Y0200015D01*
X0189400Y0200284D02*
X0189400Y0201716D01*
X0188852Y0203039D01*
X0188091Y0203800D01*
X0216172Y0203800D01*
X0218539Y0201432D01*
X0218539Y0197280D01*
X0217580Y0197280D01*
X0217580Y0196320D01*
X0213701Y0196320D01*
X0213701Y0194200D01*
X0206200Y0194200D01*
X0206200Y0194516D01*
X0205652Y0195839D01*
X0204639Y0196852D01*
X0203316Y0197400D01*
X0201884Y0197400D01*
X0200561Y0196852D01*
X0199548Y0195839D01*
X0199532Y0195800D01*
X0190000Y0195800D01*
X0189652Y0196639D01*
X0188639Y0197652D01*
X0187864Y0197973D01*
X0188852Y0198961D01*
X0189400Y0200284D01*
X0189400Y0201614D02*
X0218358Y0201614D01*
X0218539Y0200015D02*
X0217580Y0200015D01*
X0217580Y0198417D02*
X0218539Y0198417D01*
X0217580Y0196818D02*
X0204673Y0196818D01*
X0205908Y0195220D02*
X0213701Y0195220D01*
X0213701Y0198417D02*
X0188308Y0198417D01*
X0189473Y0196818D02*
X0200527Y0196818D01*
X0206200Y0189772D02*
X0206200Y0189300D01*
X0212000Y0189300D01*
X0212000Y0189300D01*
X0212000Y0189300D01*
X0206200Y0189300D01*
X0206200Y0187763D01*
X0206323Y0187305D01*
X0206560Y0186895D01*
X0206796Y0186659D01*
X0206400Y0186263D01*
X0206400Y0186200D01*
X0203372Y0186200D01*
X0197367Y0180195D01*
X0197149Y0180721D01*
X0198200Y0181772D01*
X0206200Y0189772D01*
X0206200Y0188826D02*
X0205254Y0188826D01*
X0206368Y0187227D02*
X0203656Y0187227D01*
X0202800Y0185629D02*
X0202057Y0185629D01*
X0201202Y0184030D02*
X0200459Y0184030D01*
X0199603Y0182432D02*
X0198860Y0182432D01*
X0198005Y0180833D02*
X0197262Y0180833D01*
X0171438Y0188826D02*
X0158265Y0188826D01*
X0152800Y0190424D02*
X0171000Y0190424D01*
X0171293Y0192023D02*
X0152123Y0192023D01*
X0147000Y0192023D02*
X0147000Y0192023D01*
X0147000Y0190424D02*
X0147000Y0190424D01*
X0141877Y0192023D02*
X0133606Y0192023D01*
X0135204Y0190424D02*
X0141200Y0190424D01*
X0141200Y0188826D02*
X0136803Y0188826D01*
X0138401Y0187227D02*
X0141368Y0187227D01*
X0132007Y0193621D02*
X0168701Y0193621D01*
X0168701Y0195220D02*
X0166848Y0195220D01*
X0168447Y0196818D02*
X0172580Y0196818D01*
X0172580Y0195220D02*
X0173539Y0195220D01*
X0173539Y0198417D02*
X0172580Y0198417D01*
X0172580Y0200015D02*
X0173539Y0200015D01*
X0173242Y0201614D02*
X0182200Y0201614D01*
X0182921Y0203212D02*
X0174841Y0203212D01*
X0172381Y0206409D02*
X0166400Y0206409D01*
X0166400Y0204811D02*
X0170783Y0204811D01*
X0169184Y0203212D02*
X0166400Y0203212D01*
X0165873Y0201614D02*
X0167585Y0201614D01*
X0165987Y0200015D02*
X0164521Y0200015D01*
X0159079Y0200015D02*
X0154521Y0200015D01*
X0155873Y0201614D02*
X0157726Y0201614D01*
X0157200Y0203212D02*
X0156400Y0203212D01*
X0156400Y0204811D02*
X0157200Y0204811D01*
X0157200Y0206409D02*
X0156400Y0206409D01*
X0156400Y0208008D02*
X0157200Y0208008D01*
X0157200Y0209606D02*
X0156400Y0209606D01*
X0156197Y0211205D02*
X0157403Y0211205D01*
X0166400Y0209606D02*
X0182915Y0209606D01*
X0182200Y0208008D02*
X0166400Y0208008D01*
X0149079Y0200015D02*
X0144521Y0200015D01*
X0145873Y0201614D02*
X0147726Y0201614D01*
X0147200Y0203212D02*
X0146400Y0203212D01*
X0146400Y0204811D02*
X0147200Y0204811D01*
X0147200Y0206409D02*
X0146400Y0206409D01*
X0146400Y0208008D02*
X0147200Y0208008D01*
X0147200Y0209606D02*
X0146400Y0209606D01*
X0146197Y0211205D02*
X0147403Y0211205D01*
X0142370Y0214402D02*
X0086830Y0214402D01*
X0085232Y0212803D02*
X0138298Y0212803D01*
X0137403Y0211205D02*
X0083633Y0211205D01*
X0082035Y0209606D02*
X0137200Y0209606D01*
X0137200Y0208008D02*
X0081400Y0208008D01*
X0081400Y0206409D02*
X0137200Y0206409D01*
X0137200Y0204811D02*
X0081400Y0204811D01*
X0081479Y0203212D02*
X0137200Y0203212D01*
X0137726Y0201614D02*
X0104014Y0201614D01*
X0109699Y0200015D02*
X0139079Y0200015D01*
X0140771Y0216001D02*
X0088429Y0216001D01*
X0090027Y0217599D02*
X0139173Y0217599D01*
X0137574Y0219198D02*
X0091626Y0219198D01*
X0093224Y0220796D02*
X0135976Y0220796D01*
X0134377Y0222395D02*
X0094823Y0222395D01*
X0096421Y0223993D02*
X0132778Y0223993D01*
X0131180Y0225592D02*
X0098020Y0225592D01*
X0099619Y0227190D02*
X0101719Y0227190D01*
X0106681Y0227190D02*
X0129581Y0227190D01*
X0127983Y0228789D02*
X0110817Y0228789D01*
X0112416Y0230387D02*
X0126384Y0230387D01*
X0124786Y0231986D02*
X0114014Y0231986D01*
X0115613Y0233584D02*
X0123187Y0233584D01*
X0119326Y0235183D02*
X0117211Y0235183D01*
X0108348Y0241577D02*
X0082805Y0241577D01*
X0084404Y0243175D02*
X0109947Y0243175D01*
X0111545Y0244774D02*
X0086002Y0244774D01*
X0081207Y0239978D02*
X0106750Y0239978D01*
X0105151Y0238380D02*
X0079608Y0238380D01*
X0078010Y0236781D02*
X0103553Y0236781D01*
X0101954Y0235183D02*
X0076411Y0235183D01*
X0074813Y0233584D02*
X0100356Y0233584D01*
X0098757Y0231986D02*
X0073400Y0231986D01*
X0073277Y0230387D02*
X0097159Y0230387D01*
X0095560Y0228789D02*
X0072280Y0228789D01*
X0074899Y0227190D02*
X0054019Y0227190D01*
X0055617Y0228789D02*
X0057720Y0228789D01*
X0054023Y0222395D02*
X0075314Y0222395D01*
X0080286Y0222395D02*
X0089166Y0222395D01*
X0090765Y0223993D02*
X0081280Y0223993D01*
X0081400Y0225592D02*
X0092363Y0225592D01*
X0093962Y0227190D02*
X0080701Y0227190D01*
X0087568Y0220796D02*
X0052424Y0220796D01*
X0050826Y0219198D02*
X0085969Y0219198D01*
X0084371Y0217599D02*
X0049227Y0217599D01*
X0047629Y0216001D02*
X0082772Y0216001D01*
X0081174Y0214402D02*
X0046030Y0214402D01*
X0044432Y0212803D02*
X0048298Y0212803D01*
X0047403Y0211205D02*
X0042833Y0211205D01*
X0041235Y0209606D02*
X0047200Y0209606D01*
X0047200Y0208008D02*
X0039636Y0208008D01*
X0038038Y0206409D02*
X0047200Y0206409D01*
X0047200Y0204811D02*
X0036439Y0204811D01*
X0034841Y0203212D02*
X0047200Y0203212D01*
X0055873Y0201614D02*
X0057727Y0201614D01*
X0057200Y0203212D02*
X0056400Y0203212D01*
X0056400Y0204811D02*
X0057200Y0204811D01*
X0057200Y0206409D02*
X0056400Y0206409D01*
X0056400Y0208008D02*
X0057200Y0208008D01*
X0057200Y0209606D02*
X0056400Y0209606D01*
X0056197Y0211205D02*
X0057403Y0211205D01*
X0058298Y0212803D02*
X0055302Y0212803D01*
X0065302Y0212803D02*
X0068298Y0212803D01*
X0067403Y0211205D02*
X0066197Y0211205D01*
X0066400Y0209606D02*
X0067200Y0209606D01*
X0067200Y0208008D02*
X0066400Y0208008D01*
X0066400Y0206409D02*
X0067200Y0206409D01*
X0067200Y0204811D02*
X0066400Y0204811D01*
X0066400Y0203212D02*
X0067200Y0203212D01*
X0067727Y0201614D02*
X0065873Y0201614D01*
X0067068Y0192023D02*
X0072532Y0192023D01*
X0071293Y0190424D02*
X0067800Y0190424D01*
X0067693Y0188826D02*
X0071000Y0188826D01*
X0071438Y0187227D02*
X0066718Y0187227D01*
X0076668Y0192023D02*
X0076877Y0192023D01*
X0082000Y0192023D02*
X0082000Y0192023D01*
X0082000Y0190424D02*
X0082000Y0190424D01*
X0087123Y0192023D02*
X0113194Y0192023D01*
X0111596Y0190424D02*
X0087800Y0190424D01*
X0087800Y0188826D02*
X0109997Y0188826D01*
X0108399Y0187227D02*
X0087632Y0187227D01*
X0094060Y0192742D02*
X0094396Y0192407D01*
X0094806Y0192170D01*
X0095264Y0192047D01*
X0097580Y0192047D01*
X0097580Y0196320D01*
X0093701Y0196320D01*
X0093701Y0193610D01*
X0093823Y0193152D01*
X0094060Y0192742D01*
X0093701Y0193621D02*
X0039699Y0193621D01*
X0023701Y0195220D02*
X0018048Y0195220D01*
X0015588Y0198417D02*
X0004600Y0198417D01*
X0004600Y0200015D02*
X0017187Y0200015D01*
X0018785Y0201614D02*
X0004600Y0201614D01*
X0004600Y0196818D02*
X0013990Y0196818D01*
X0012391Y0195220D02*
X0004600Y0195220D01*
X0004600Y0193621D02*
X0010793Y0193621D01*
X0009400Y0192023D02*
X0004600Y0192023D01*
X0004600Y0190424D02*
X0009400Y0190424D01*
X0009400Y0188826D02*
X0004600Y0188826D01*
X0004600Y0187227D02*
X0009400Y0187227D01*
X0010343Y0185629D02*
X0004600Y0185629D01*
X0023149Y0131279D02*
X0100600Y0131279D01*
X0100684Y0129681D02*
X0024747Y0129681D01*
X0026346Y0128082D02*
X0101626Y0128082D01*
X0102200Y0126484D02*
X0027945Y0126484D01*
X0029543Y0124885D02*
X0102200Y0124885D01*
X0102200Y0123287D02*
X0031142Y0123287D01*
X0032740Y0121688D02*
X0102200Y0121688D01*
X0102200Y0120090D02*
X0034339Y0120090D01*
X0035937Y0118491D02*
X0048986Y0118491D01*
X0047688Y0116893D02*
X0037536Y0116893D01*
X0039134Y0115294D02*
X0047200Y0115294D01*
X0047200Y0113696D02*
X0040733Y0113696D01*
X0042331Y0112097D02*
X0047200Y0112097D01*
X0047200Y0110499D02*
X0043930Y0110499D01*
X0045528Y0108900D02*
X0047200Y0108900D01*
X0047127Y0107302D02*
X0047442Y0107302D01*
X0050324Y0104105D02*
X0102200Y0104105D01*
X0102200Y0105703D02*
X0075209Y0105703D01*
X0075700Y0106194D02*
X0076400Y0107885D01*
X0076400Y0115715D01*
X0075700Y0117406D01*
X0074406Y0118700D01*
X0072715Y0119400D01*
X0070885Y0119400D01*
X0069194Y0118700D01*
X0067900Y0117406D01*
X0067200Y0115715D01*
X0067200Y0107885D01*
X0067900Y0106194D01*
X0069194Y0104900D01*
X0070885Y0104200D01*
X0072715Y0104200D01*
X0074406Y0104900D01*
X0075700Y0106194D01*
X0076158Y0107302D02*
X0102200Y0107302D01*
X0102200Y0108900D02*
X0076400Y0108900D01*
X0076400Y0110499D02*
X0102200Y0110499D01*
X0102200Y0112097D02*
X0076400Y0112097D01*
X0076400Y0113696D02*
X0102200Y0113696D01*
X0102200Y0115294D02*
X0076400Y0115294D01*
X0075912Y0116893D02*
X0102200Y0116893D01*
X0102200Y0118491D02*
X0074614Y0118491D01*
X0068986Y0118491D02*
X0064614Y0118491D01*
X0064406Y0118700D02*
X0062715Y0119400D01*
X0060885Y0119400D01*
X0059194Y0118700D01*
X0057900Y0117406D01*
X0057200Y0115715D01*
X0057200Y0107885D01*
X0057900Y0106194D01*
X0059194Y0104900D01*
X0060885Y0104200D01*
X0062715Y0104200D01*
X0064406Y0104900D01*
X0065700Y0106194D01*
X0066400Y0107885D01*
X0066400Y0115715D01*
X0065700Y0117406D01*
X0064406Y0118700D01*
X0065912Y0116893D02*
X0067688Y0116893D01*
X0067200Y0115294D02*
X0066400Y0115294D01*
X0066400Y0113696D02*
X0067200Y0113696D01*
X0067200Y0112097D02*
X0066400Y0112097D01*
X0066400Y0110499D02*
X0067200Y0110499D01*
X0067200Y0108900D02*
X0066400Y0108900D01*
X0066158Y0107302D02*
X0067442Y0107302D01*
X0068391Y0105703D02*
X0065209Y0105703D01*
X0058391Y0105703D02*
X0055209Y0105703D01*
X0056158Y0107302D02*
X0057442Y0107302D01*
X0057200Y0108900D02*
X0056400Y0108900D01*
X0056400Y0110499D02*
X0057200Y0110499D01*
X0057200Y0112097D02*
X0056400Y0112097D01*
X0056400Y0113696D02*
X0057200Y0113696D01*
X0057200Y0115294D02*
X0056400Y0115294D01*
X0055912Y0116893D02*
X0057688Y0116893D01*
X0058986Y0118491D02*
X0054614Y0118491D01*
X0051922Y0102506D02*
X0102200Y0102506D01*
X0102200Y0100908D02*
X0053521Y0100908D01*
X0055119Y0099309D02*
X0103062Y0099309D01*
X0104661Y0097711D02*
X0056718Y0097711D01*
X0058316Y0096112D02*
X0106259Y0096112D01*
X0107402Y0094514D02*
X0059915Y0094514D01*
X0061513Y0092915D02*
X0109123Y0092915D01*
X0112077Y0092915D02*
X0139056Y0092915D01*
X0137458Y0094514D02*
X0113798Y0094514D01*
X0114200Y0096112D02*
X0133930Y0096112D01*
X0132203Y0097711D02*
X0113871Y0097711D01*
X0112501Y0099309D02*
X0131800Y0099309D01*
X0125772Y0107800D02*
X0144204Y0126233D01*
X0142961Y0126748D01*
X0141948Y0127761D01*
X0141400Y0129084D01*
X0141400Y0130200D01*
X0138572Y0130200D01*
X0137400Y0131372D01*
X0136972Y0131800D01*
X0107600Y0131800D01*
X0107800Y0131316D01*
X0107800Y0129884D01*
X0107252Y0128561D01*
X0106239Y0127548D01*
X0106200Y0127532D01*
X0106200Y0106000D01*
X0106684Y0106200D01*
X0108116Y0106200D01*
X0109439Y0105652D01*
X0110452Y0104639D01*
X0110468Y0104600D01*
X0112000Y0104600D01*
X0111800Y0105084D01*
X0111800Y0106516D01*
X0112348Y0107839D01*
X0113361Y0108852D01*
X0114684Y0109400D01*
X0116116Y0109400D01*
X0117439Y0108852D01*
X0118452Y0107839D01*
X0118468Y0107800D01*
X0125772Y0107800D01*
X0126872Y0108900D02*
X0117323Y0108900D01*
X0113477Y0108900D02*
X0106200Y0108900D01*
X0106200Y0107302D02*
X0112125Y0107302D01*
X0111800Y0105703D02*
X0109315Y0105703D01*
X0106200Y0110499D02*
X0128470Y0110499D01*
X0130069Y0112097D02*
X0106200Y0112097D01*
X0106200Y0113696D02*
X0131667Y0113696D01*
X0133266Y0115294D02*
X0106200Y0115294D01*
X0106200Y0116893D02*
X0134864Y0116893D01*
X0136463Y0118491D02*
X0106200Y0118491D01*
X0106200Y0120090D02*
X0138061Y0120090D01*
X0139660Y0121688D02*
X0106200Y0121688D01*
X0106200Y0123287D02*
X0141258Y0123287D01*
X0142857Y0124885D02*
X0106200Y0124885D01*
X0106200Y0126484D02*
X0143599Y0126484D01*
X0141815Y0128082D02*
X0106774Y0128082D01*
X0107716Y0129681D02*
X0141400Y0129681D01*
X0137492Y0131279D02*
X0107800Y0131279D01*
X0142937Y0119308D02*
X0170628Y0147000D01*
X0172800Y0147000D01*
X0172600Y0146516D01*
X0172600Y0145084D01*
X0173148Y0143761D01*
X0174161Y0142748D01*
X0174200Y0142732D01*
X0174200Y0106200D01*
X0173884Y0106200D01*
X0172561Y0105652D01*
X0171548Y0104639D01*
X0171532Y0104600D01*
X0163681Y0104600D01*
X0164406Y0104900D01*
X0165700Y0106194D01*
X0166400Y0107885D01*
X0166400Y0115715D01*
X0165700Y0117406D01*
X0164406Y0118700D01*
X0162715Y0119400D01*
X0160885Y0119400D01*
X0159194Y0118700D01*
X0157900Y0117406D01*
X0157200Y0115715D01*
X0157200Y0107885D01*
X0157900Y0106194D01*
X0159194Y0104900D01*
X0159919Y0104600D01*
X0153681Y0104600D01*
X0154406Y0104900D01*
X0155700Y0106194D01*
X0156400Y0107885D01*
X0156400Y0115715D01*
X0155700Y0117406D01*
X0154406Y0118700D01*
X0152715Y0119400D01*
X0150885Y0119400D01*
X0149194Y0118700D01*
X0147900Y0117406D01*
X0147200Y0115715D01*
X0147200Y0107885D01*
X0147900Y0106194D01*
X0149194Y0104900D01*
X0149919Y0104600D01*
X0143681Y0104600D01*
X0144406Y0104900D01*
X0145700Y0106194D01*
X0146400Y0107885D01*
X0146400Y0115715D01*
X0145700Y0117406D01*
X0144406Y0118700D01*
X0142937Y0119308D01*
X0143718Y0120090D02*
X0174200Y0120090D01*
X0174200Y0121688D02*
X0145317Y0121688D01*
X0146915Y0123287D02*
X0174200Y0123287D01*
X0174200Y0124885D02*
X0148514Y0124885D01*
X0150112Y0126484D02*
X0174200Y0126484D01*
X0174200Y0128082D02*
X0151711Y0128082D01*
X0153309Y0129681D02*
X0174200Y0129681D01*
X0174200Y0131279D02*
X0154908Y0131279D01*
X0156506Y0132878D02*
X0174200Y0132878D01*
X0174200Y0134476D02*
X0158105Y0134476D01*
X0159703Y0136075D02*
X0174200Y0136075D01*
X0174200Y0137673D02*
X0161302Y0137673D01*
X0162900Y0139272D02*
X0174200Y0139272D01*
X0174200Y0140870D02*
X0164499Y0140870D01*
X0166097Y0142469D02*
X0174200Y0142469D01*
X0173021Y0144068D02*
X0167696Y0144068D01*
X0169294Y0145666D02*
X0172600Y0145666D01*
X0174200Y0118491D02*
X0164614Y0118491D01*
X0165912Y0116893D02*
X0174200Y0116893D01*
X0174200Y0115294D02*
X0166400Y0115294D01*
X0166400Y0113696D02*
X0174200Y0113696D01*
X0174200Y0112097D02*
X0166400Y0112097D01*
X0166400Y0110499D02*
X0174200Y0110499D01*
X0174200Y0108900D02*
X0166400Y0108900D01*
X0166158Y0107302D02*
X0174200Y0107302D01*
X0172685Y0105703D02*
X0165209Y0105703D01*
X0158391Y0105703D02*
X0155209Y0105703D01*
X0156158Y0107302D02*
X0157442Y0107302D01*
X0157200Y0108900D02*
X0156400Y0108900D01*
X0156400Y0110499D02*
X0157200Y0110499D01*
X0157200Y0112097D02*
X0156400Y0112097D01*
X0156400Y0113696D02*
X0157200Y0113696D01*
X0157200Y0115294D02*
X0156400Y0115294D01*
X0155912Y0116893D02*
X0157688Y0116893D01*
X0158986Y0118491D02*
X0154614Y0118491D01*
X0148986Y0118491D02*
X0144614Y0118491D01*
X0145912Y0116893D02*
X0147688Y0116893D01*
X0147200Y0115294D02*
X0146400Y0115294D01*
X0146400Y0113696D02*
X0147200Y0113696D01*
X0147200Y0112097D02*
X0146400Y0112097D01*
X0146400Y0110499D02*
X0147200Y0110499D01*
X0147200Y0108900D02*
X0146400Y0108900D01*
X0146158Y0107302D02*
X0147442Y0107302D01*
X0148391Y0105703D02*
X0145209Y0105703D01*
X0140655Y0091317D02*
X0063112Y0091317D01*
X0064600Y0089718D02*
X0142253Y0089718D01*
X0143852Y0088120D02*
X0064600Y0088120D01*
X0064600Y0086521D02*
X0143030Y0086521D01*
X0142203Y0084923D02*
X0064600Y0084923D01*
X0022247Y0048157D02*
X0021353Y0048157D01*
X0021353Y0046558D02*
X0022247Y0046558D01*
X0022247Y0044960D02*
X0021353Y0044960D01*
X0021353Y0043361D02*
X0022247Y0043361D01*
X0022728Y0041763D02*
X0020872Y0041763D01*
X0021353Y0040164D02*
X0022247Y0040164D01*
X0022247Y0038566D02*
X0021353Y0038566D01*
X0021353Y0036967D02*
X0022247Y0036967D01*
X0017654Y0030356D02*
X0017654Y0026772D01*
X0018343Y0026772D01*
X0018200Y0026628D01*
X0014051Y0026628D01*
X0013400Y0025978D01*
X0013400Y0027339D01*
X0013608Y0027131D01*
X0014019Y0026894D01*
X0014476Y0026772D01*
X0017285Y0026772D01*
X0017285Y0030356D01*
X0017654Y0030356D01*
X0017654Y0028975D02*
X0017285Y0028975D01*
X0017285Y0027376D02*
X0017654Y0027376D01*
X0021825Y0022581D02*
X0034514Y0022581D01*
X0032915Y0024179D02*
X0030487Y0024179D01*
X0028600Y0030573D02*
X0034068Y0030573D01*
X0040685Y0024179D02*
X0050352Y0024179D01*
X0048075Y0022581D02*
X0039086Y0022581D01*
X0047311Y0020982D02*
X0021825Y0020982D01*
X0018242Y0016187D02*
X0047200Y0016187D01*
X0047200Y0017785D02*
X0016643Y0017785D01*
X0015045Y0019384D02*
X0047200Y0019384D01*
X0053248Y0024179D02*
X0060352Y0024179D01*
X0060885Y0024400D02*
X0059194Y0023700D01*
X0057900Y0022406D01*
X0057200Y0020715D01*
X0057200Y0012885D01*
X0057900Y0011194D01*
X0059194Y0009900D01*
X0060885Y0009200D01*
X0062715Y0009200D01*
X0064406Y0009900D01*
X0065700Y0011194D01*
X0066400Y0012885D01*
X0066400Y0020715D01*
X0065700Y0022406D01*
X0064406Y0023700D01*
X0062715Y0024400D01*
X0060885Y0024400D01*
X0063248Y0024179D02*
X0070352Y0024179D01*
X0068075Y0022581D02*
X0065525Y0022581D01*
X0066289Y0020982D02*
X0067311Y0020982D01*
X0067200Y0019384D02*
X0066400Y0019384D01*
X0066400Y0017785D02*
X0067200Y0017785D01*
X0067200Y0016187D02*
X0066400Y0016187D01*
X0066400Y0014588D02*
X0067200Y0014588D01*
X0067200Y0012990D02*
X0066400Y0012990D01*
X0065781Y0011391D02*
X0067819Y0011391D01*
X0069454Y0009793D02*
X0064146Y0009793D01*
X0059454Y0009793D02*
X0054146Y0009793D01*
X0055781Y0011391D02*
X0057819Y0011391D01*
X0057200Y0012990D02*
X0056400Y0012990D01*
X0056400Y0014588D02*
X0057200Y0014588D01*
X0057200Y0016187D02*
X0056400Y0016187D01*
X0056400Y0017785D02*
X0057200Y0017785D01*
X0057200Y0019384D02*
X0056400Y0019384D01*
X0056289Y0020982D02*
X0057311Y0020982D01*
X0058075Y0022581D02*
X0055525Y0022581D01*
X0148417Y0081726D02*
X0149400Y0081726D01*
X0211961Y0084067D02*
X0212639Y0084348D01*
X0213652Y0085361D01*
X0213668Y0085400D01*
X0218628Y0085400D01*
X0219428Y0086200D01*
X0263532Y0086200D01*
X0263548Y0086161D01*
X0264309Y0085400D01*
X0264284Y0085400D01*
X0262961Y0084852D01*
X0261948Y0083839D01*
X0261400Y0082516D01*
X0261400Y0081084D01*
X0261948Y0079761D01*
X0262961Y0078748D01*
X0264284Y0078200D01*
X0265716Y0078200D01*
X0267039Y0078748D01*
X0268052Y0079761D01*
X0268600Y0081084D01*
X0268600Y0082516D01*
X0268584Y0082555D01*
X0275800Y0089772D01*
X0275800Y0075627D01*
X0275339Y0076740D01*
X0274165Y0077914D01*
X0272630Y0078550D01*
X0270970Y0078550D01*
X0269435Y0077914D01*
X0268261Y0076740D01*
X0267625Y0075205D01*
X0267625Y0068395D01*
X0268261Y0066860D01*
X0269435Y0065686D01*
X0270441Y0065269D01*
X0269933Y0064761D01*
X0269652Y0065439D01*
X0268639Y0066452D01*
X0267316Y0067000D01*
X0265884Y0067000D01*
X0265192Y0066714D01*
X0265339Y0066860D01*
X0265975Y0068395D01*
X0265975Y0075205D01*
X0265339Y0076740D01*
X0264165Y0077914D01*
X0262630Y0078550D01*
X0260970Y0078550D01*
X0259435Y0077914D01*
X0259175Y0077654D01*
X0256228Y0080600D01*
X0215428Y0080600D01*
X0211961Y0084067D01*
X0212704Y0083324D02*
X0261735Y0083324D01*
X0261400Y0081726D02*
X0214303Y0081726D01*
X0213214Y0084923D02*
X0263131Y0084923D01*
X0261796Y0080127D02*
X0256701Y0080127D01*
X0258300Y0078529D02*
X0260919Y0078529D01*
X0262681Y0078529D02*
X0263491Y0078529D01*
X0265149Y0076930D02*
X0268451Y0076930D01*
X0267678Y0075332D02*
X0265922Y0075332D01*
X0265975Y0073733D02*
X0267625Y0073733D01*
X0267625Y0072134D02*
X0265975Y0072134D01*
X0265975Y0070536D02*
X0267625Y0070536D01*
X0267625Y0068937D02*
X0265975Y0068937D01*
X0265537Y0067339D02*
X0268063Y0067339D01*
X0269351Y0065740D02*
X0269381Y0065740D01*
X0274173Y0060945D02*
X0279164Y0060945D01*
X0278748Y0061361D02*
X0279761Y0060348D01*
X0281084Y0059800D01*
X0282516Y0059800D01*
X0283839Y0060348D01*
X0284852Y0061361D01*
X0285400Y0062684D01*
X0285400Y0064116D01*
X0285384Y0064155D01*
X0288210Y0066982D01*
X0288261Y0066860D01*
X0289400Y0065721D01*
X0289400Y0049400D01*
X0289084Y0049400D01*
X0287761Y0048852D01*
X0286748Y0047839D01*
X0286200Y0046516D01*
X0286200Y0045084D01*
X0286748Y0043761D01*
X0287761Y0042748D01*
X0289084Y0042200D01*
X0290516Y0042200D01*
X0291839Y0042748D01*
X0292247Y0043156D01*
X0292247Y0042318D01*
X0292766Y0041800D01*
X0292247Y0041282D01*
X0292247Y0034838D01*
X0293184Y0033901D01*
X0293560Y0033901D01*
X0293273Y0033614D01*
X0293036Y0033203D01*
X0292913Y0032746D01*
X0292913Y0030724D01*
X0297285Y0030724D01*
X0297285Y0030356D01*
X0292913Y0030356D01*
X0292913Y0028335D01*
X0293036Y0027877D01*
X0293273Y0027466D01*
X0293608Y0027131D01*
X0294019Y0026894D01*
X0294476Y0026772D01*
X0297285Y0026772D01*
X0297285Y0030356D01*
X0297654Y0030356D01*
X0297654Y0026772D01*
X0298343Y0026772D01*
X0298200Y0026628D01*
X0294051Y0026628D01*
X0293113Y0025691D01*
X0293113Y0020429D01*
X0294051Y0019491D01*
X0300888Y0019491D01*
X0301825Y0020429D01*
X0301825Y0024118D01*
X0302712Y0023231D01*
X0309549Y0023231D01*
X0310487Y0024169D01*
X0310487Y0025400D01*
X0312200Y0025400D01*
X0312200Y0024895D01*
X0314895Y0022200D01*
X0315372Y0022200D01*
X0304172Y0011000D01*
X0260505Y0011000D01*
X0260700Y0011194D01*
X0261400Y0012885D01*
X0261400Y0020715D01*
X0260700Y0022406D01*
X0259406Y0023700D01*
X0257715Y0024400D01*
X0255885Y0024400D01*
X0254194Y0023700D01*
X0252900Y0022406D01*
X0252200Y0020715D01*
X0252200Y0012885D01*
X0252900Y0011194D01*
X0253095Y0011000D01*
X0250505Y0011000D01*
X0250700Y0011194D01*
X0251400Y0012885D01*
X0251400Y0020715D01*
X0250700Y0022406D01*
X0249406Y0023700D01*
X0247715Y0024400D01*
X0245885Y0024400D01*
X0244194Y0023700D01*
X0242900Y0022406D01*
X0242200Y0020715D01*
X0242200Y0012885D01*
X0242900Y0011194D01*
X0243095Y0011000D01*
X0240505Y0011000D01*
X0240700Y0011194D01*
X0241400Y0012885D01*
X0241400Y0020715D01*
X0240700Y0022406D01*
X0239406Y0023700D01*
X0237715Y0024400D01*
X0237628Y0024400D01*
X0264067Y0050839D01*
X0264348Y0050161D01*
X0265361Y0049148D01*
X0266684Y0048600D01*
X0268116Y0048600D01*
X0268155Y0048616D01*
X0283016Y0033755D01*
X0283000Y0033716D01*
X0283000Y0032284D01*
X0283548Y0030961D01*
X0284561Y0029948D01*
X0285884Y0029400D01*
X0287316Y0029400D01*
X0288639Y0029948D01*
X0289652Y0030961D01*
X0290200Y0032284D01*
X0290200Y0033716D01*
X0289652Y0035039D01*
X0288639Y0036052D01*
X0287316Y0036600D01*
X0285884Y0036600D01*
X0285845Y0036584D01*
X0270984Y0051445D01*
X0271000Y0051484D01*
X0271000Y0052916D01*
X0270452Y0054239D01*
X0269439Y0055252D01*
X0268761Y0055533D01*
X0279175Y0065946D01*
X0279215Y0065906D01*
X0278748Y0065439D01*
X0278200Y0064116D01*
X0278200Y0062684D01*
X0278748Y0061361D01*
X0278258Y0062543D02*
X0275772Y0062543D01*
X0277370Y0064142D02*
X0278211Y0064142D01*
X0278969Y0065740D02*
X0279049Y0065740D01*
X0285389Y0064142D02*
X0289400Y0064142D01*
X0289381Y0065740D02*
X0286969Y0065740D01*
X0285342Y0062543D02*
X0289400Y0062543D01*
X0289400Y0060945D02*
X0284436Y0060945D01*
X0289400Y0059346D02*
X0272575Y0059346D01*
X0270976Y0057748D02*
X0289400Y0057748D01*
X0289400Y0056149D02*
X0269378Y0056149D01*
X0270140Y0054551D02*
X0289400Y0054551D01*
X0289400Y0052952D02*
X0270985Y0052952D01*
X0271075Y0051354D02*
X0289400Y0051354D01*
X0289400Y0049755D02*
X0272673Y0049755D01*
X0274272Y0048157D02*
X0287066Y0048157D01*
X0286217Y0046558D02*
X0275870Y0046558D01*
X0277469Y0044960D02*
X0286251Y0044960D01*
X0287148Y0043361D02*
X0279067Y0043361D01*
X0280666Y0041763D02*
X0292728Y0041763D01*
X0292247Y0040164D02*
X0282264Y0040164D01*
X0283863Y0038566D02*
X0292247Y0038566D01*
X0292247Y0036967D02*
X0285461Y0036967D01*
X0283001Y0033770D02*
X0246999Y0033770D01*
X0248597Y0035369D02*
X0281403Y0035369D01*
X0279804Y0036967D02*
X0250196Y0036967D01*
X0251794Y0038566D02*
X0278206Y0038566D01*
X0276607Y0040164D02*
X0253393Y0040164D01*
X0254991Y0041763D02*
X0275009Y0041763D01*
X0273410Y0043361D02*
X0256590Y0043361D01*
X0258188Y0044960D02*
X0271812Y0044960D01*
X0270213Y0046558D02*
X0259787Y0046558D01*
X0261385Y0048157D02*
X0268615Y0048157D01*
X0264753Y0049755D02*
X0262984Y0049755D01*
X0259381Y0065740D02*
X0254219Y0065740D01*
X0255537Y0067339D02*
X0258063Y0067339D01*
X0257625Y0068937D02*
X0255975Y0068937D01*
X0255975Y0070536D02*
X0257625Y0070536D01*
X0257625Y0072134D02*
X0255975Y0072134D01*
X0255975Y0073733D02*
X0257439Y0073733D01*
X0247625Y0073733D02*
X0246175Y0073733D01*
X0246175Y0072134D02*
X0247625Y0072134D01*
X0247625Y0070536D02*
X0246175Y0070536D01*
X0246175Y0068937D02*
X0247625Y0068937D01*
X0248063Y0067339D02*
X0245749Y0067339D01*
X0244447Y0065740D02*
X0249381Y0065740D01*
X0241800Y0065740D02*
X0241800Y0065740D01*
X0241800Y0067339D02*
X0241800Y0067339D01*
X0241800Y0068937D02*
X0241800Y0068937D01*
X0241800Y0070536D02*
X0241800Y0070536D01*
X0237425Y0070536D02*
X0235975Y0070536D01*
X0235975Y0072134D02*
X0237425Y0072134D01*
X0237425Y0073733D02*
X0235975Y0073733D01*
X0235922Y0075332D02*
X0237522Y0075332D01*
X0237425Y0068937D02*
X0235975Y0068937D01*
X0235537Y0067339D02*
X0237851Y0067339D01*
X0239153Y0065740D02*
X0234219Y0065740D01*
X0229381Y0065740D02*
X0224219Y0065740D01*
X0225537Y0067339D02*
X0228063Y0067339D01*
X0227625Y0068937D02*
X0225975Y0068937D01*
X0225975Y0070536D02*
X0227625Y0070536D01*
X0227625Y0072134D02*
X0225975Y0072134D01*
X0225975Y0073733D02*
X0227625Y0073733D01*
X0227678Y0075332D02*
X0225922Y0075332D01*
X0217678Y0075332D02*
X0215922Y0075332D01*
X0215975Y0073733D02*
X0217625Y0073733D01*
X0217625Y0072134D02*
X0215975Y0072134D01*
X0215975Y0070536D02*
X0217625Y0070536D01*
X0217625Y0068937D02*
X0215975Y0068937D01*
X0215537Y0067339D02*
X0218063Y0067339D01*
X0219381Y0065740D02*
X0214219Y0065740D01*
X0246078Y0075332D02*
X0247678Y0075332D01*
X0266509Y0078529D02*
X0270919Y0078529D01*
X0272681Y0078529D02*
X0275800Y0078529D01*
X0275800Y0080127D02*
X0268204Y0080127D01*
X0268600Y0081726D02*
X0275800Y0081726D01*
X0275800Y0083324D02*
X0269352Y0083324D01*
X0270951Y0084923D02*
X0275800Y0084923D01*
X0275800Y0086521D02*
X0272550Y0086521D01*
X0274148Y0088120D02*
X0275800Y0088120D01*
X0275747Y0089718D02*
X0275800Y0089718D01*
X0275800Y0076930D02*
X0275149Y0076930D01*
X0289322Y0035369D02*
X0292247Y0035369D01*
X0293429Y0033770D02*
X0290178Y0033770D01*
X0290154Y0032172D02*
X0292913Y0032172D01*
X0292913Y0028975D02*
X0242203Y0028975D01*
X0243802Y0030573D02*
X0283936Y0030573D01*
X0283046Y0032172D02*
X0245400Y0032172D01*
X0240605Y0027376D02*
X0293363Y0027376D01*
X0293200Y0025778D02*
X0239006Y0025778D01*
X0238248Y0024179D02*
X0245352Y0024179D01*
X0243075Y0022581D02*
X0240525Y0022581D01*
X0241289Y0020982D02*
X0242311Y0020982D01*
X0242200Y0019384D02*
X0241400Y0019384D01*
X0241400Y0017785D02*
X0242200Y0017785D01*
X0242200Y0016187D02*
X0241400Y0016187D01*
X0241400Y0014588D02*
X0242200Y0014588D01*
X0242200Y0012990D02*
X0241400Y0012990D01*
X0240781Y0011391D02*
X0242819Y0011391D01*
X0250781Y0011391D02*
X0252819Y0011391D01*
X0252200Y0012990D02*
X0251400Y0012990D01*
X0251400Y0014588D02*
X0252200Y0014588D01*
X0252200Y0016187D02*
X0251400Y0016187D01*
X0251400Y0017785D02*
X0252200Y0017785D01*
X0252200Y0019384D02*
X0251400Y0019384D01*
X0251289Y0020982D02*
X0252311Y0020982D01*
X0253075Y0022581D02*
X0250525Y0022581D01*
X0248248Y0024179D02*
X0255352Y0024179D01*
X0258248Y0024179D02*
X0293113Y0024179D01*
X0293113Y0022581D02*
X0260525Y0022581D01*
X0261289Y0020982D02*
X0293113Y0020982D01*
X0297285Y0027376D02*
X0297654Y0027376D01*
X0297654Y0028975D02*
X0297285Y0028975D01*
X0297285Y0030573D02*
X0289264Y0030573D01*
X0301825Y0022581D02*
X0314514Y0022581D01*
X0314154Y0020982D02*
X0301825Y0020982D01*
X0307760Y0014588D02*
X0261400Y0014588D01*
X0261400Y0012990D02*
X0306161Y0012990D01*
X0304563Y0011391D02*
X0260781Y0011391D01*
X0261400Y0016187D02*
X0309358Y0016187D01*
X0310957Y0017785D02*
X0261400Y0017785D01*
X0261400Y0019384D02*
X0312555Y0019384D01*
X0312915Y0024179D02*
X0310487Y0024179D01*
X0317415Y0016187D02*
X0327200Y0016187D01*
X0327200Y0017785D02*
X0319014Y0017785D01*
X0320612Y0019384D02*
X0327200Y0019384D01*
X0327200Y0020715D02*
X0327900Y0022406D01*
X0329194Y0023700D01*
X0330885Y0024400D01*
X0332715Y0024400D01*
X0334406Y0023700D01*
X0335700Y0022406D01*
X0336400Y0020715D01*
X0336400Y0012885D01*
X0335700Y0011194D01*
X0334406Y0009900D01*
X0332715Y0009200D01*
X0330885Y0009200D01*
X0329194Y0009900D01*
X0327900Y0011194D01*
X0327200Y0012885D01*
X0327200Y0020715D01*
X0327311Y0020982D02*
X0322211Y0020982D01*
X0323809Y0022581D02*
X0328075Y0022581D01*
X0330352Y0024179D02*
X0325408Y0024179D01*
X0327006Y0025778D02*
X0392701Y0025778D01*
X0392701Y0027376D02*
X0328605Y0027376D01*
X0330203Y0028975D02*
X0392701Y0028975D01*
X0392701Y0030573D02*
X0331802Y0030573D01*
X0333400Y0032172D02*
X0392701Y0032172D01*
X0392701Y0033770D02*
X0334999Y0033770D01*
X0336597Y0035369D02*
X0392701Y0035369D01*
X0392701Y0036967D02*
X0338196Y0036967D01*
X0339794Y0038566D02*
X0392701Y0038566D01*
X0392701Y0040164D02*
X0341393Y0040164D01*
X0342991Y0041763D02*
X0392701Y0041763D01*
X0392701Y0043361D02*
X0344590Y0043361D01*
X0346188Y0044960D02*
X0392701Y0044960D01*
X0392701Y0046558D02*
X0347787Y0046558D01*
X0349385Y0048157D02*
X0392701Y0048157D01*
X0392701Y0049755D02*
X0350984Y0049755D01*
X0352582Y0051354D02*
X0392701Y0051354D01*
X0392701Y0052952D02*
X0354181Y0052952D01*
X0355779Y0054551D02*
X0392701Y0054551D01*
X0392701Y0056149D02*
X0357378Y0056149D01*
X0358976Y0057748D02*
X0392701Y0057748D01*
X0392701Y0059346D02*
X0360575Y0059346D01*
X0362173Y0060945D02*
X0392701Y0060945D01*
X0392701Y0062543D02*
X0363772Y0062543D01*
X0365370Y0064142D02*
X0392701Y0064142D01*
X0392701Y0065740D02*
X0366969Y0065740D01*
X0368567Y0067339D02*
X0392701Y0067339D01*
X0392701Y0068937D02*
X0370166Y0068937D01*
X0371000Y0070536D02*
X0392701Y0070536D01*
X0392701Y0072134D02*
X0371000Y0072134D01*
X0371000Y0073733D02*
X0392701Y0073733D01*
X0392701Y0075332D02*
X0371000Y0075332D01*
X0371000Y0076930D02*
X0392701Y0076930D01*
X0392701Y0078529D02*
X0371000Y0078529D01*
X0375618Y0080127D02*
X0392701Y0080127D01*
X0392701Y0081726D02*
X0376534Y0081726D01*
X0376597Y0083324D02*
X0392701Y0083324D01*
X0392701Y0084923D02*
X0375769Y0084923D01*
X0375000Y0086521D02*
X0392701Y0086521D01*
X0392701Y0088120D02*
X0375000Y0088120D01*
X0375000Y0089718D02*
X0392701Y0089718D01*
X0392701Y0024179D02*
X0353248Y0024179D01*
X0352715Y0024400D02*
X0350885Y0024400D01*
X0349194Y0023700D01*
X0347900Y0022406D01*
X0347200Y0020715D01*
X0347200Y0012885D01*
X0347900Y0011194D01*
X0349194Y0009900D01*
X0350885Y0009200D01*
X0352715Y0009200D01*
X0354406Y0009900D01*
X0355700Y0011194D01*
X0356400Y0012885D01*
X0356400Y0020715D01*
X0355700Y0022406D01*
X0354406Y0023700D01*
X0352715Y0024400D01*
X0350352Y0024179D02*
X0343248Y0024179D01*
X0342715Y0024400D02*
X0344406Y0023700D01*
X0345700Y0022406D01*
X0346400Y0020715D01*
X0346400Y0012885D01*
X0345700Y0011194D01*
X0344406Y0009900D01*
X0342715Y0009200D01*
X0340885Y0009200D01*
X0339194Y0009900D01*
X0337900Y0011194D01*
X0337200Y0012885D01*
X0337200Y0020715D01*
X0337900Y0022406D01*
X0339194Y0023700D01*
X0340885Y0024400D01*
X0342715Y0024400D01*
X0340352Y0024179D02*
X0333248Y0024179D01*
X0335525Y0022581D02*
X0338075Y0022581D01*
X0337311Y0020982D02*
X0336289Y0020982D01*
X0336400Y0019384D02*
X0337200Y0019384D01*
X0337200Y0017785D02*
X0336400Y0017785D01*
X0336400Y0016187D02*
X0337200Y0016187D01*
X0337200Y0014588D02*
X0336400Y0014588D01*
X0336400Y0012990D02*
X0337200Y0012990D01*
X0337819Y0011391D02*
X0335781Y0011391D01*
X0334146Y0009793D02*
X0339454Y0009793D01*
X0344146Y0009793D02*
X0349454Y0009793D01*
X0347819Y0011391D02*
X0345781Y0011391D01*
X0346400Y0012990D02*
X0347200Y0012990D01*
X0347200Y0014588D02*
X0346400Y0014588D01*
X0346400Y0016187D02*
X0347200Y0016187D01*
X0347200Y0017785D02*
X0346400Y0017785D01*
X0346400Y0019384D02*
X0347200Y0019384D01*
X0347311Y0020982D02*
X0346289Y0020982D01*
X0345525Y0022581D02*
X0348075Y0022581D01*
X0355525Y0022581D02*
X0392701Y0022581D01*
X0392701Y0020982D02*
X0356289Y0020982D01*
X0356400Y0019384D02*
X0392701Y0019384D01*
X0392701Y0017785D02*
X0356400Y0017785D01*
X0356400Y0016187D02*
X0392701Y0016187D01*
X0392701Y0014588D02*
X0356400Y0014588D01*
X0356400Y0012990D02*
X0392701Y0012990D01*
X0392701Y0011391D02*
X0355781Y0011391D01*
X0354146Y0009793D02*
X0392701Y0009793D01*
X0392701Y0008194D02*
X0309422Y0008194D01*
X0307824Y0006596D02*
X0392701Y0006596D01*
X0392701Y0004997D02*
X0230088Y0004997D01*
X0220561Y0012990D02*
X0170218Y0012990D01*
X0171816Y0014588D02*
X0222160Y0014588D01*
X0223758Y0016187D02*
X0173415Y0016187D01*
X0173828Y0016600D02*
X0224172Y0016600D01*
X0215372Y0007800D01*
X0168068Y0007800D01*
X0168052Y0007839D01*
X0167039Y0008852D01*
X0166361Y0009133D01*
X0173828Y0016600D01*
X0170955Y0019384D02*
X0166400Y0019384D01*
X0166400Y0017785D02*
X0169357Y0017785D01*
X0167758Y0016187D02*
X0166400Y0016187D01*
X0168619Y0011391D02*
X0218963Y0011391D01*
X0217364Y0009793D02*
X0167021Y0009793D01*
X0167697Y0008194D02*
X0215766Y0008194D01*
X0202654Y0027376D02*
X0202285Y0027376D01*
X0311021Y0009793D02*
X0329454Y0009793D01*
X0327819Y0011391D02*
X0312619Y0011391D01*
X0314218Y0012990D02*
X0327200Y0012990D01*
X0327200Y0014588D02*
X0315817Y0014588D01*
X0336001Y0187227D02*
X0336368Y0187227D01*
X0336200Y0188826D02*
X0334403Y0188826D01*
X0332804Y0190424D02*
X0336200Y0190424D01*
X0336877Y0192023D02*
X0331206Y0192023D01*
X0342000Y0192023D02*
X0342000Y0192023D01*
X0342000Y0190424D02*
X0342000Y0190424D01*
X0366422Y0209606D02*
X0374365Y0209606D01*
X0375964Y0208008D02*
X0368020Y0208008D01*
X0371882Y0206409D02*
X0377562Y0206409D01*
X0379161Y0204811D02*
X0372600Y0204811D01*
X0372767Y0211205D02*
X0364823Y0211205D01*
X0363225Y0212803D02*
X0371168Y0212803D01*
X0369570Y0214402D02*
X0361626Y0214402D01*
X0360028Y0216001D02*
X0367971Y0216001D01*
X0366373Y0217599D02*
X0358429Y0217599D01*
X0334893Y0233584D02*
X0291613Y0233584D01*
X0257284Y0243175D02*
X0229653Y0243175D01*
X0229735Y0244774D02*
X0228055Y0244774D01*
X0228729Y0246372D02*
X0226456Y0246372D01*
X0226662Y0247971D02*
X0228600Y0247971D01*
X0204013Y0260759D02*
X0195132Y0260759D01*
X0189268Y0260759D02*
X0188070Y0260759D01*
X0186471Y0262357D02*
X0202414Y0262357D01*
X0200816Y0263956D02*
X0184873Y0263956D01*
X0178878Y0270350D02*
X0194422Y0270350D01*
X0199217Y0265554D02*
X0173537Y0265554D01*
X0128283Y0311911D02*
X0004600Y0311911D01*
X0004600Y0310313D02*
X0126684Y0310313D01*
X0129881Y0313510D02*
X0004600Y0313510D01*
X0004600Y0308714D02*
X0049229Y0308714D01*
X0049194Y0308700D02*
X0047900Y0307406D01*
X0047200Y0305715D01*
X0047200Y0297885D01*
X0047900Y0296194D01*
X0049194Y0294900D01*
X0050885Y0294200D01*
X0052715Y0294200D01*
X0054406Y0294900D01*
X0055700Y0296194D01*
X0056400Y0297885D01*
X0056400Y0305715D01*
X0055700Y0307406D01*
X0054406Y0308700D01*
X0052715Y0309400D01*
X0050885Y0309400D01*
X0049194Y0308700D01*
X0047780Y0307116D02*
X0004600Y0307116D01*
X0004600Y0305517D02*
X0047200Y0305517D01*
X0047200Y0303919D02*
X0004600Y0303919D01*
X0004600Y0302320D02*
X0047200Y0302320D01*
X0047200Y0300722D02*
X0004600Y0300722D01*
X0004600Y0299123D02*
X0047200Y0299123D01*
X0047349Y0297525D02*
X0004600Y0297525D01*
X0004600Y0295926D02*
X0048169Y0295926D01*
X0050577Y0294328D02*
X0004600Y0294328D01*
X0053023Y0294328D02*
X0060577Y0294328D01*
X0058169Y0295926D02*
X0055431Y0295926D01*
X0056251Y0297525D02*
X0057349Y0297525D01*
X0057200Y0299123D02*
X0056400Y0299123D01*
X0056400Y0300722D02*
X0057200Y0300722D01*
X0057200Y0302320D02*
X0056400Y0302320D01*
X0056400Y0303919D02*
X0057200Y0303919D01*
X0057200Y0305517D02*
X0056400Y0305517D01*
X0055820Y0307116D02*
X0057780Y0307116D01*
X0059229Y0308714D02*
X0054371Y0308714D01*
X0075302Y0212803D02*
X0079575Y0212803D01*
X0077977Y0211205D02*
X0076197Y0211205D01*
X0076400Y0209606D02*
X0077400Y0209606D01*
X0077400Y0208008D02*
X0076400Y0208008D01*
X0076400Y0206409D02*
X0077400Y0206409D01*
X0077400Y0204811D02*
X0076400Y0204811D01*
X0076400Y0203212D02*
X0077321Y0203212D01*
X0076089Y0201614D02*
X0075873Y0201614D01*
X0082711Y0201614D02*
X0089185Y0201614D01*
X0087587Y0200015D02*
X0083000Y0200015D01*
X0088448Y0195220D02*
X0093701Y0195220D01*
X0093701Y0198417D02*
X0091645Y0198417D01*
X0090047Y0196818D02*
X0097580Y0196818D01*
X0097580Y0195220D02*
X0098539Y0195220D01*
X0098539Y0193621D02*
X0097580Y0193621D01*
X0109699Y0193621D02*
X0114793Y0193621D01*
X0188679Y0203212D02*
X0216759Y0203212D01*
X0236450Y0193621D02*
X0237993Y0193621D01*
M02*
