%
M48
M72
T01C0.02400
T02C0.03150
T03C0.04000
%
T01
X36800Y36800
X76800Y56800
X101800Y76800
X110600Y96200
X107400Y102600
X109300Y109300
X115400Y105800
X116800Y121800
X126800Y121800
X141000Y135400
X145000Y129800
X149300Y121800
X166800Y131800
X179400Y141800
X176200Y145800
X165800Y150600
X165800Y159400
X162600Y167400
X165800Y171400
X173000Y171400
X177800Y161800
X193800Y168200
X199400Y174600
X204200Y169800
X201800Y165000
X193800Y154600
X195400Y148200
X201800Y139300
X197800Y125800
X189800Y119400
X199400Y109800
X221000Y116200
X222600Y121000
X233800Y120200
X243400Y120200
X229000Y108200
X222600Y94600
X210600Y87400
X224300Y81800
X196800Y66800
X211400Y53800
X206600Y50600
X192200Y42600
X181800Y26800
X186800Y11800
X165000Y5800
X208200Y21800
X230600Y13800
X227400Y7400
X231800Y41800
X266600Y63400
X271400Y56200
X267400Y52200
X281800Y63400
X299400Y59400
X305800Y65000
X311400Y54600
X316800Y56800
X317800Y65000
X330600Y61800
X341800Y61800
X336200Y51400
X322600Y46600
X325800Y36200
X301800Y50600
X289800Y45800
X286600Y33000
X276800Y21800
X271800Y81800
X265000Y81800
X266600Y88200
X273000Y94600
X281000Y91400
X290600Y96200
X301000Y96200
X301000Y88200
X310600Y88200
X311800Y81800
X322600Y93000
X321800Y99300
X325800Y110600
X316800Y114300
X336200Y119400
X330600Y144200
X324200Y147400
X329800Y151400
X334600Y151400
X325000Y154600
X327400Y165000
X323400Y168200
X325800Y176200
X334600Y179400
X323400Y189800
X309800Y189000
X301800Y184200
X289800Y184200
X284200Y189000
X287400Y195400
X306600Y197800
X320200Y209000
X317000Y219400
X306800Y224300
X316800Y236800
X298600Y239400
X285000Y229800
X281800Y221800
X270600Y225800
X251800Y231800
X260200Y241000
X251800Y246800
X232200Y247400
X224200Y250600
X222600Y239400
X217800Y239400
X226800Y226800
X211400Y210600
X216200Y209000
X212200Y196200
X219400Y189000
X205000Y179400
X193800Y179400
X179400Y188200
X174600Y190600
X174600Y183400
X186600Y194600
X185800Y201000
X185800Y207400
X179300Y209300
X181800Y221800
X196800Y226800
X202600Y219400
X201800Y202600
X202600Y193800
X230600Y175400
X244200Y174600
X244200Y179400
X244200Y184200
X244200Y189800
X258600Y185000
X269800Y184200
X261800Y172200
X269800Y164200
X269800Y159400
X261000Y156200
X258600Y149000
X258600Y141800
X269800Y141000
X269800Y145800
X276200Y125800
X287400Y121000
X290600Y114600
X268200Y113800
X264200Y109800
X246600Y138600
X241800Y157000
X245000Y161800
X227400Y156200
X224200Y160200
X218600Y141800
X186600Y135400
X171800Y111800
X174600Y102600
X168200Y93000
X189800Y85800
X194600Y87400
X176800Y71800
X159400Y53800
X151400Y50600
X131800Y51800
X146800Y71800
X145800Y84200
X135400Y99400
X104200Y130600
X101000Y140200
X101800Y150600
X105000Y154600
X114600Y157000
X129000Y157000
X133000Y153800
X129000Y149000
X129000Y144200
X125800Y140200
X115400Y140200
X89000Y137800
X89000Y147400
X74600Y159400
X66600Y158600
X63400Y170600
X69800Y174600
X63400Y178600
X64200Y189800
X74600Y189000
X74600Y184200
X89000Y177000
X89000Y172200
X89000Y167400
X97000Y169000
X114600Y175400
X129000Y169000
X137000Y175400
X132200Y185000
X129000Y189000
X155400Y186600
X154600Y174600
X157800Y169800
X139400Y159400
X99300Y189300
X79400Y200200
X77800Y225000
X86800Y226800
X91800Y241800
X104200Y229800
X121800Y237800
X126600Y237800
X136800Y231800
X121800Y211800
X166800Y231800
X179400Y240200
X189800Y240200
X192200Y258600
X177800Y259400
X171400Y262600
X161800Y268200
X151800Y266800
X156200Y277800
X177800Y273800
X187400Y284200
X181800Y301800
X156200Y309000
X126800Y261800
X161800Y248200
X216800Y296800
X229000Y290600
X231800Y266800
X266600Y287400
X271800Y291800
X286800Y276800
X301800Y261800
X316800Y276800
X322600Y269000
X336800Y266800
X341000Y241000
X343400Y231400
X337000Y230600
X369000Y204200
X377800Y193800
X374600Y186600
X374600Y181800
X374600Y177000
X389000Y169000
X389000Y159400
X359400Y154600
X362600Y143400
X369000Y132200
X373800Y121000
X373000Y82600
X356800Y81800
X371800Y21800
X301000Y140200
X292200Y140200
X309800Y145000
X309000Y159400
X309800Y165000
X302600Y162600
X294600Y159400
X289000Y164200
X294600Y169000
X289800Y172200
X269800Y199400
X289000Y210600
X349000Y189000
X349000Y182600
X363400Y190600
X366800Y261800
X376800Y296800
X306800Y296800
X96800Y296800
X66800Y261800
X65000Y231400
X60200Y231400
X69800Y231400
X29800Y205800
X37000Y181800
X33000Y178600
X47400Y176200
X42600Y164200
X44200Y159400
X49000Y154600
X49000Y149800
X34600Y164200
X49300Y129300
X61800Y126800
X86800Y111800
X59400Y87400
X26800Y81800
X101800Y30600
X105800Y17800
X101800Y9000
X171800Y46800
X26800Y256800
T02
X211800Y131800
X221800Y131800
X231800Y131800
X241800Y131800
X251800Y131800
X261800Y131800
X271800Y131800
X281800Y131800
X291800Y131800
X301800Y131800
X311800Y131800
X321800Y131800
X331800Y131800
X341800Y131800
X351800Y131800
X381800Y107706
X381800Y95894
X351800Y71800
X341800Y71800
X331800Y71800
X321800Y71800
X311800Y71800
X301800Y71800
X291800Y71800
X281800Y71800
X271800Y71800
X261800Y71800
X251800Y71800
X241800Y71800
X231800Y71800
X221800Y71800
X211800Y71800
X206800Y91800
X206800Y101800
X216800Y101800
X216800Y91800
X216800Y111800
X206800Y111800
T03
X36800Y26800
X51800Y16800
X61800Y16800
X71800Y16800
X126800Y26800
X141800Y16800
X151800Y16800
X161800Y16800
X221800Y26800
X236800Y16800
X246800Y16800
X256800Y16800
X316800Y26800
X331800Y16800
X341800Y16800
X351800Y16800
X351800Y111800
X341800Y111800
X331800Y111800
X256800Y111800
X246800Y111800
X236800Y111800
X161800Y111800
X151800Y111800
X141800Y111800
X71800Y111800
X61800Y111800
X51800Y111800
X51800Y206800
X61800Y206800
X71800Y206800
X141800Y206800
X151800Y206800
X161800Y206800
X236800Y206800
X246800Y206800
X256800Y206800
X331800Y206800
X341800Y206800
X351800Y206800
X351800Y301800
X341800Y301800
X331800Y301800
X256800Y301800
X246800Y301800
X236800Y301800
X161800Y301800
X151800Y301800
X141800Y301800
X71800Y301800
X61800Y301800
X51800Y301800
M30
